<svg width="452" height="350" viewBox="0 0 452 350" fill="none" xmlns="http://www.w3.org/2000/svg">
<path d="M209.121 331.398L315.723 312.566L316.711 312.336L261.894 247.113C243.521 225.357 225.249 203.516 207.077 181.591C207.077 181.27 263.685 25.3773 264.007 24.8261C264.099 24.6424 302.634 91.1516 357.382 186.047L451.308 348.875L452.02 350.115L277.786 350.092L103.552 350.069L209.121 331.421V331.398ZM0.0263672 311.555C0.0263672 311.463 25.8618 266.611 57.4384 211.883L114.85 112.372L181.747 56.2205C218.536 25.3543 248.735 0.0459318 248.873 0C248.627 0.944625 248.264 1.85495 247.794 2.70997L175.133 158.533L103.781 311.555L51.9039 311.624C23.3816 311.67 0.0263672 311.624 0.0263672 311.532V311.555Z" fill="white"/>
</svg>
