<svg width="64" height="64" viewBox="0 0 64 64" fill="none" xmlns="http://www.w3.org/2000/svg">
<g clip-path="url(#clip0)">
<path d="M19.126 53.7459C16.686 51.8259 14.086 49.9899 12.31 47.4019C8.57005 42.8359 5.69005 37.5519 3.72205 31.9959C2.53205 28.3839 2.12205 24.5099 0.590046 21.0359C-1.01395 18.5159 0.866046 15.7559 3.63005 14.9559C4.86005 14.7199 7.02205 13.5559 4.41005 14.3879C2.07005 16.1039 1.84405 12.8279 4.24405 12.6199C5.88405 12.3999 6.48405 11.0599 5.92405 9.85587C4.16405 8.70787 10.188 7.44987 7.15605 5.73587C4.00005 2.33587 11.572 1.67987 9.70405 5.54787C9.26005 8.51987 14.996 4.99987 13.664 8.43587C15.018 10.0859 18.732 8.81187 18.638 11.1259C20.61 11.2619 21.286 12.9199 23.138 13.0459C25.058 13.9119 28.532 14.5939 29.184 16.7559C27.284 18.2619 22.878 13.6459 22.664 17.8159C23.24 23.9759 23.092 30.3199 25.344 36.1859C26.41 39.7359 28.994 42.5319 31.324 45.2979C33.558 48.0059 36.584 49.9139 39.664 51.5179C42.368 52.7939 45.284 53.6379 48.23 54.1699C49.424 53.2559 51.536 49.8579 53.398 51.2899C53.488 52.9019 49.698 54.6579 53.218 54.4799C55.288 53.8559 56.722 56.0799 58.424 54.0719C59.994 55.9319 64.944 52.8859 63.83 56.6839C62.32 57.6579 60.118 57.0699 58.606 58.4099C56.112 57.1639 54.126 59.5239 51.366 59.2259C48.3 59.7759 45.182 59.9959 42.074 59.9999C36.974 59.5999 31.768 59.4279 26.918 57.6519C24.184 56.8579 21.518 55.3019 19.118 53.7439L19.126 53.7459ZM23.432 55.6119C26.1 56.7639 28.712 57.9799 31.632 58.3479C36.272 58.9919 41.062 59.9879 45.718 59.0799C43.61 58.1279 41.432 59.4499 39.332 58.3999C36.812 58.9399 34.132 58.2599 31.532 57.9259C28.622 56.6299 25.48 55.7379 22.756 54.0539C19.35 52.8099 24.516 55.6499 25.436 55.8799C27.564 57.0879 23.096 55.2799 22.464 54.7599C20.68 53.7599 20.454 53.9679 22.288 54.9839L23.408 55.6119H23.432ZM18.352 52.0239C20.938 52.9839 18.34 50.2039 17.158 50.3639C16.634 49.4539 15.152 48.8779 16.198 48.3899C14.318 49.0419 14.23 45.9099 13.348 46.3579C11.36 45.7299 12.574 43.5059 10.208 42.1379C9.99205 40.6979 7.85605 39.4519 7.17605 37.2819C6.87605 36.1699 4.76205 32.9819 6.06005 35.9499C7.16405 38.8099 9.10805 41.2559 10.728 43.6999C11.984 46.0279 13.468 48.4599 15.756 49.9139C16.528 50.6539 17.272 51.7879 18.36 52.0199L18.352 52.0239ZM10.904 43.8439C10.994 43.4539 11.376 44.6879 10.904 43.8439V43.8439ZM21.45 53.1699C22.022 52.9139 20.626 52.8459 21.45 53.1699V53.1699ZM22.85 53.6819C22.704 52.9759 22.21 54.0779 22.85 53.6819V53.6819ZM24.61 54.4139C25.446 53.6179 23.32 53.9139 24.61 54.4139V54.4139ZM27.622 56.0939C28.13 55.3439 25.996 55.8139 27.622 56.0939V56.0939ZM21.842 52.0639C23.142 51.2239 20.162 52.0519 21.842 52.0639V52.0639ZM23.162 52.7239C23.122 52.2799 22.692 52.9239 23.162 52.7239V52.7239ZM29.748 56.8359C30.808 57.5039 35.932 58.2999 32.724 57.1099C32.184 57.2219 26.774 55.5779 29.748 56.8359ZM19.292 48.6919C19.192 48.2479 17.648 48.1999 19.292 48.6919V48.6919ZM22.358 50.4799C23.158 49.9199 20.702 50.0499 22.358 50.4799V50.4799ZM24.958 52.0799C26.104 51.6479 23.102 51.6459 24.958 52.0799V52.0799ZM18.04 47.3299C19.28 48.2819 23.052 47.4499 19.94 46.7619C18.526 46.0079 15.34 45.4919 17.512 47.2159L18.038 47.3299H18.04ZM26.68 52.6039C27.2 51.7239 24.508 52.0999 26.68 52.6039V52.6039ZM24.054 50.5179C27.094 51.3779 21.5 48.5979 23.304 50.1979L23.704 50.3779L24.054 50.5139V50.5179ZM29.318 53.5579C32.198 53.5859 26.718 53.1579 29.318 53.5579V53.5579ZM16.932 45.6639C16.82 45.1279 16.222 45.7079 16.932 45.6639V45.6639ZM34.186 56.2879C34.262 55.3199 33.246 57.0079 34.186 56.2879V56.2879ZM21.846 48.6679C21.672 48.1579 20.946 48.6479 21.846 48.6679V48.6679ZM17.206 45.3279C18.858 45.2279 14.946 44.5999 17.206 45.3279V45.3279ZM11.712 41.7799C11.506 40.9879 9.91605 40.3559 11.712 41.7799V41.7799ZM26.136 50.9339C25.836 50.5879 25.996 51.0079 26.136 50.9339V50.9339ZM35.112 56.4439C35.084 55.9159 34.624 56.6439 35.112 56.4439V56.4439ZM25.342 50.1139C25.502 49.4339 23.932 49.9079 25.342 50.1139V50.1139ZM18.654 45.8739C19.884 45.7439 16.684 45.0439 18.654 45.8739V45.8739ZM29.966 52.9039C31.882 52.1439 28.1 52.5339 29.966 52.9039V52.9039ZM24.082 48.9099C26.288 49.1939 21.456 47.4099 23.596 48.7499L24.082 48.9099ZM31.752 53.6259C33.812 52.3959 33.132 56.5119 35.248 53.9739C37.334 52.4499 33.448 55.8579 36.016 54.2459C37.876 53.0019 40.622 54.8359 42.356 55.4319C43.604 55.3719 44.816 56.5119 46.096 55.8179C48.556 55.1539 41.28 54.8339 43.188 53.6579C40.936 54.3139 39.272 52.8779 38.162 51.4339C35.634 50.8499 32.714 49.5579 31.452 47.3219C30.938 46.4819 32.192 47.4419 31.008 46.0679C29.488 44.7139 28.728 43.1759 27.704 41.5279C26.484 40.8779 26.338 38.9599 26.216 41.4639C26.226 39.8839 24.742 38.8179 24.376 39.2599C24.37 37.7399 25.966 38.4999 24.848 37.3759C24.608 35.7959 23.816 34.1559 23.58 32.3719C23.21 31.5119 23.528 29.6719 22.32 31.6179C21.88 33.6719 22.174 29.0939 22.86 30.6019C23.76 29.0619 22.536 29.2419 22.488 29.4559C23.074 28.1559 22.86 26.3119 22.334 27.0159C22.646 25.6359 22.828 21.9459 21.868 22.5999C22.448 21.1599 22.972 16.0059 20.444 17.9699C19.42 17.9839 17.648 18.3419 16.81 18.7579C19.436 20.2059 16.546 19.2819 15.474 19.0499C15.334 20.3899 14.274 19.8099 12.954 19.8239C15.07 20.0839 11.924 21.9839 10.714 21.2479C9.13805 21.9999 12.074 23.8799 10.744 24.4619C10.908 25.3359 8.33005 24.1459 8.53205 26.1699C7.00405 25.5259 8.32205 28.5699 9.08805 27.5399C11.688 28.2439 10.918 29.8479 10.984 31.3739C10.56 32.2619 8.89205 29.2859 10.612 29.4239C9.25205 27.2179 9.11205 28.6239 7.98205 29.6519C7.72205 29.7259 10.862 31.1119 8.89005 31.7919C10.624 32.0599 10.674 33.5779 11.026 34.5359C12.066 35.6219 11.852 33.3359 13.1 34.6419C12.31 33.4819 8.92005 31.3679 11.65 32.0419C11.636 30.8739 11.156 29.9299 11.994 29.9519C12.824 28.4519 11.126 33.6519 12.994 31.7439C13.51 31.5179 13.64 30.2439 14.568 31.8639C15.916 33.1919 15.056 34.1519 13.152 32.9359C13.492 34.0919 15.698 34.5039 15.282 36.3099C15.722 37.8999 16.336 37.3139 16.872 37.2219C17.272 38.7659 17.532 37.6299 17.552 36.8959C19.476 37.3079 19.024 38.4459 19.628 39.2399C20.954 39.8399 17.728 35.1839 20.008 37.8399C22.402 39.9999 20.908 40.9059 18.758 40.5599C20.118 40.4499 20.558 42.3999 22.258 42.3299C23.81 43.0699 24.858 45.9039 22.186 44.7219C21.26 43.8859 17.974 42.8539 20.658 44.4419C23.134 45.5899 25.102 46.2739 27.49 47.7159C29.198 48.9159 29.936 50.3319 30.584 50.6099C29.148 51.2959 26.256 50.0619 28.384 49.6839C27.044 49.4399 25.536 48.7639 26.82 50.4319C27.912 51.3439 30.686 51.2479 31.184 51.3519C30.764 52.2799 30.038 52.3519 31.2 52.4259C29.904 53.1179 31.616 53.2259 31.736 53.6199L31.752 53.6259ZM29.1 46.1379C28.31 45.3119 28.106 43.7679 28.96 45.1119C29.4 45.2879 30.36 47.6379 29.1 46.1379ZM37.74 51.5999C38.232 51.5679 37.754 51.9739 37.74 51.5999V51.5999ZM27.86 44.0899C27.828 42.8419 28.144 45.0499 27.86 44.0899V44.0899ZM27 42.9359C26.006 41.0159 28.25 43.4759 27 42.9359V42.9359ZM16.596 35.7359C17.18 35.5799 16.884 36.7319 16.596 35.7359V35.7359ZM24.876 40.2239C25.236 38.8779 25.276 41.3519 24.876 40.2239V40.2239ZM19.026 36.1559C18.614 35.4159 19.886 36.8519 19.026 36.1559V36.1559ZM24.046 37.7639C23.106 35.6579 24.714 36.6139 24.256 38.1079L24.046 37.7639ZM15.39 31.9919C14.99 31.2999 14.276 29.2719 14.5 28.6519C14.7 29.6599 16.644 32.9919 15.452 30.0519C14.136 27.5719 17.026 30.8559 17.324 31.4759C17.464 32.0899 16.512 31.3079 17.156 32.7519C15.98 31.1079 16.462 33.6599 15.392 32.0119L15.39 31.9919ZM12.716 30.1479C12.826 28.5399 13.328 31.2479 12.716 30.1479V30.1479ZM13.92 30.5639C14.494 29.3519 14.892 32.2539 13.92 30.5639V30.5639ZM11 28.3639C10.004 27.3739 9.28405 26.4639 11.048 27.7499C11.728 27.7759 9.53805 25.6759 11.212 27.0819C12.972 27.4019 12.08 29.9679 11.002 28.3619L11 28.3639ZM12.52 28.3239C13.1 27.7499 12.828 28.8879 12.52 28.3239V28.3239ZM13.456 28.6239C12.576 26.9799 14.52 29.3139 13.456 28.6239V28.6239ZM11.596 26.8479C8.70005 24.2679 15.236 28.1939 12.068 27.3279L11.596 26.8479ZM19.892 31.6679C18.638 30.9179 19.558 26.3799 19.986 29.4819C21.206 29.0879 19.918 31.0859 20.826 31.0659C20.686 32.3259 20.276 32.7799 19.892 31.6659V31.6679ZM22.96 33.4819C23.08 32.1139 23.22 34.4179 22.96 33.4819V33.4819ZM22.428 32.9539C22.568 32.3699 22.44 33.6419 22.428 32.9539V32.9539ZM12.184 25.9999C10.324 23.4339 17.59 28.5959 13.376 26.6499C12.936 26.5339 12.406 26.4939 12.184 25.9999ZM18.094 29.1319C17.918 26.9719 18.486 29.4919 18.094 29.1319V29.1319ZM22.58 32.0119C22.926 30.7819 22.606 32.8259 22.58 32.0119V32.0119ZM12.47 25.0199C13.576 24.7839 17.07 26.9599 13.86 25.6399C13.506 25.2479 12.748 25.4259 12.47 25.0199ZM21.962 29.7519C22.082 27.5419 22.622 28.4319 21.966 30.0719L21.962 29.7519ZM13.292 24.2519C13.744 23.5919 12.096 21.2659 13.528 23.4179C14.128 23.9099 15.322 24.2419 14.288 24.4499C15.918 25.8899 13.888 24.8399 13.294 24.2499L13.292 24.2519ZM21.492 29.0639C21.802 26.5439 21.766 30.5379 21.492 29.0639V29.0639ZM12.352 21.9279C12.696 21.7799 12.532 22.3879 12.352 21.9279V21.9279ZM14.492 23.2019C15.042 22.0459 15.508 24.4899 14.492 23.2019V23.2019ZM20.526 26.5579C20.522 26.1179 20.64 27.2039 20.526 26.5579V26.5579ZM20.176 25.7859C19.34 23.7199 20.976 26.8799 20.176 25.7859V25.7859ZM19.662 24.4299C19.522 23.5759 20.142 25.5019 19.662 24.4299V24.4299ZM20.498 23.0699C19.922 22.0579 21.224 18.6099 21.37 20.7499C20.764 22.4179 21.196 23.3499 21.616 21.1099C22.396 19.3499 21.448 24.5839 20.496 23.0699H20.498ZM21.358 17.9379C21.608 17.6299 21.414 18.3079 21.358 17.9379V17.9379ZM19.92 46.2399C19.58 45.9399 19.964 46.4279 19.92 46.2399V46.2399ZM22.88 47.7359C24.526 48.1599 24.52 47.4799 23.03 47.2759C22.23 46.5319 19.706 45.7419 21.966 47.1839C22.114 47.5839 22.586 47.5539 22.88 47.7339V47.7359ZM17.04 43.8559C17.946 44.5359 20.454 45.7719 18.332 44.1159C19.048 43.2839 16.962 42.8399 17.652 42.2839C15.892 41.2039 16.262 41.2839 17.496 41.3379C15.38 40.3919 17.802 40.4639 17.688 39.9779C16.872 39.8179 13.636 38.5379 15.54 40.0819C13.604 39.0959 15.08 40.4499 14.494 40.3079C12.494 39.7679 16.254 41.8159 14.18 41.3079C15.314 42.2079 17.236 43.6139 14.66 42.2599C14.32 42.7479 16.504 43.4899 17.06 43.8599L17.04 43.8559ZM20.134 45.6359C23.894 46.8479 18.288 44.1559 20.134 45.6359V45.6359ZM35.974 55.2319C36.022 54.4839 35.46 55.8719 35.974 55.2319V55.2319ZM37.602 55.9179C38.47 55.0779 37.638 57.2579 39.042 55.7119C39.056 54.6059 39.002 53.9519 37.43 55.2959C36.996 55.5359 36.804 56.5559 37.604 55.9159L37.602 55.9179ZM11.756 39.6799C11.49 38.6319 9.88805 38.6359 11.756 39.6799V39.6799ZM13.496 40.8199C12.85 39.7499 11.192 39.8499 13.496 40.8199V40.8199ZM23.388 46.7859C24.354 47.6459 27.824 47.4159 24.56 46.8919C24.08 46.1779 21.494 46.3519 23.388 46.7859ZM36.984 55.1859C38.47 53.9379 35.544 55.7419 36.984 55.1859V55.1859ZM40.076 57.3099C40.086 56.9099 39.436 57.4839 40.076 57.3099V57.3099ZM40.082 56.7499C41.728 55.0099 38.488 56.8499 40.082 56.7499V56.7499ZM7.48005 36.0999C6.08005 34.0999 6.60805 33.1999 5.25605 31.5659C5.00005 30.3159 2.93605 27.4799 4.18805 30.4859C5.33605 32.2459 5.67605 34.9659 7.48005 36.1059V36.0999ZM39.56 56.1919C42.59 54.2359 38.32 55.3399 39.56 56.1919V56.1919ZM41.872 57.0979C43.392 55.7979 40.912 56.8259 41.872 57.0979V57.0979ZM11.24 37.4699C11.674 36.8239 10.12 37.3859 11.24 37.4699V37.4699ZM41.39 56.4799C42.858 55.5339 41.05 55.6799 41.124 56.5659L41.39 56.4799ZM21.466 43.9199C21.416 43.2799 20.69 43.9739 21.466 43.9199V43.9199ZM22.696 44.6279C22.304 43.8359 22.096 44.7519 22.696 44.6279V44.6279ZM43.746 57.1179C45.626 55.7579 42.606 56.8579 43.352 57.3779L43.746 57.1179ZM43.026 56.7699C44.56 55.4859 41.406 57.3379 43.026 56.7699V56.7699ZM46.706 59.2199C47.734 58.5319 45.456 58.9999 46.706 59.2199V59.2199ZM12.186 36.9999C13.566 37.3079 17.696 40.3959 15.26 37.2139C14.012 36.8439 14.76 33.7939 13.486 34.3339C14.34 35.7619 14.186 36.3699 12.394 35.4699C10.14 34.3699 11.128 36.0139 11.568 36.4699C10.968 36.6099 12.362 36.9899 12.188 37.0019L12.186 36.9999ZM5.90605 32.0399C6.15205 31.0199 3.63205 26.4199 4.71605 29.7359C5.10605 30.4299 5.06605 31.7459 5.90605 32.0399V32.0399ZM17.438 39.1499C16.726 38.5559 17.404 39.0659 17.438 39.1499V39.1499ZM19.186 39.5579C19.186 38.4779 17.254 39.1179 19.186 39.5579V39.5579ZM34.34 49.1099C34.05 48.3699 33.2 49.0939 34.34 49.1099V49.1099ZM35.068 49.6419C34.96 49.2279 34.668 49.7219 35.068 49.6419V49.6419ZM41.074 53.4259C41.654 52.9999 40.354 53.3699 41.074 53.4259V53.4259ZM9.04005 32.8439C10.692 32.2039 7.27005 32.3879 9.04005 32.8439V32.8439ZM33 47.9399C32.98 46.8699 31.946 48.2059 33 47.9399V47.9399ZM8.38605 31.3199C9.44605 30.9599 7.40605 31.0839 8.38605 31.3199V31.3199ZM11.466 32.8119C11.446 32.4599 11.14 32.9459 11.466 32.8119V32.8119ZM49.042 55.8519C50.406 55.5759 53.518 56.5459 54.022 55.4919C52.362 55.4519 48.288 54.3219 48.096 55.7599L48.456 55.8199L49.042 55.8559V55.8519ZM12.446 33.0599C12.47 31.9759 11.602 33.0199 12.446 33.0599V33.0599ZM4.34605 27.4399C3.97805 25.3759 2.94605 27.1279 4.34605 27.4399V27.4399ZM6.27605 27.9259C6.30005 27.2619 4.50805 27.3299 6.27605 27.9259V27.9259ZM7.38005 28.4659C7.06005 28.2059 7.13205 28.7919 7.38005 28.4659V28.4659ZM14.326 32.9199C14.654 32.6199 13.552 32.6999 14.326 32.9199V32.9199ZM6.64605 27.2399C6.45805 25.6799 4.40605 27.0059 6.64605 27.2399V27.2399ZM2.68605 24.6699C2.63005 23.9499 2.30005 24.9419 2.68605 24.6699V24.6699ZM3.27605 24.2259C3.18005 23.3719 2.77005 24.3339 3.27605 24.2259V24.2259ZM6.53005 26.1659C7.90605 25.6259 4.02405 25.0459 6.25005 26.0659L6.53005 26.1659ZM50.086 53.0799C50.966 52.2719 48.966 52.8299 50.086 53.0799V53.0799ZM55.346 55.8059C55.7 54.7659 54.456 55.9459 55.346 55.8059V55.8059ZM6.86005 24.4699C7.00605 23.4599 5.76805 24.6699 6.86005 24.4699V24.4699ZM2.22805 21.3699C1.98405 19.9399 2.02005 17.4399 4.39605 18.2839C1.22205 18.9159 6.59605 22.2319 5.91605 19.6119C7.25205 19.6779 8.52805 18.8219 7.82605 20.1179C10.46 19.8319 12.28 17.5479 14.824 17.8699C16.824 17.6059 18.968 17.4099 21.104 16.6099C22.858 16.4839 24.544 14.5959 23.584 13.4759C21.192 13.2759 18.688 13.5719 16.044 14.0999C13.114 14.7079 10.454 15.8659 7.49805 16.3599C4.61805 16.7479 8.07805 17.4259 7.25205 17.5799C5.75205 18.0999 9.04605 18.4519 7.05805 19.0039C5.83005 18.7699 4.55205 18.3479 5.07805 17.0539C2.31805 17.4139 -0.107954 18.5579 2.07405 21.3659L2.23405 21.3679L2.22805 21.3699ZM8.88405 17.9999C9.53005 15.6159 12.35 19.9599 9.94405 18.3199C9.65805 18.1039 9.18405 17.9299 8.88405 17.9999ZM9.01005 16.8439C9.94405 16.1499 9.50605 17.2339 9.01005 16.8439V16.8439ZM10.196 16.8639C10.282 15.7679 12.912 17.4639 10.63 17.2579L10.196 16.8639ZM11.816 16.2119C12.41 15.5179 11.988 16.8259 11.816 16.2119V16.2119ZM12.232 15.9319C13.22 14.7459 17.818 15.1719 14.432 15.8159C13.532 15.1359 12.838 16.2159 12.232 15.9319ZM18.232 15.0059C18.084 11.7659 21.216 16.1559 18.232 15.0059V15.0059ZM19.936 14.9959C20.556 13.3639 22.356 14.3399 20.226 14.6679C20.272 14.8419 20.162 15.5119 19.936 14.9959ZM6.19005 23.6499C8.05005 22.5099 4.21605 22.6619 6.19005 23.6499V23.6499ZM7.56605 24.0499C8.21805 23.3559 6.16605 23.7699 7.56605 24.0499V24.0499ZM3.51405 21.1399C4.57405 20.3199 2.25405 20.8299 3.51405 21.1399V21.1399ZM58.454 55.5099C58.484 54.5619 57.642 55.9359 58.454 55.5099V55.5099ZM52.874 51.6999C53.034 50.6099 52.154 51.7939 52.874 51.6999V51.6999ZM59.994 55.8799C61.48 55.8859 64.498 55.4199 61.264 55.4199C60.756 55.4999 58.304 55.4799 59.994 55.8799ZM8.78005 23.3459C9.98405 23.2659 10.66 22.0199 8.54605 22.0899C5.26605 21.7499 11.438 23.2139 8.14605 22.7939C7.70205 23.0879 8.77405 23.4259 8.80005 23.3439L8.78005 23.3459ZM9.84005 23.8819C9.71405 23.1099 9.46805 24.2919 9.84005 23.8819V23.8819ZM11.1 20.5299C11.62 19.8819 10.38 20.3559 11.1 20.5299V20.5299ZM7.10005 13.8419C9.24805 13.1119 12.184 12.2919 13.2 14.2019C12.168 12.9619 12.784 11.7379 13.76 13.5539C15.14 15.3899 15.828 12.7179 14.932 12.1019C15.952 13.3699 17.112 13.9699 15.616 12.1819C17.246 10.2219 12.356 12.4379 11.244 12.4159C10.71 12.6559 5.72405 13.6879 7.10405 13.8419H7.10005ZM8.36005 11.4319C9.58405 10.5079 12.596 11.9819 10.664 10.5119C10.474 10.3459 6.43405 11.6259 8.36005 11.4319ZM12.824 11.6159C14.256 11.6519 12.204 9.68987 13.912 10.5799C13.632 9.66387 11.924 9.49387 11.088 9.12587C10.616 9.96187 12.048 11.6259 12.822 11.6159H12.824ZM9.14405 7.56387C9.64005 6.89187 8.27405 7.90387 9.14405 7.56387V7.56387ZM10.96 7.99987C13.27 7.69387 10.372 7.00587 10.494 7.97587L10.96 7.99987ZM7.55205 5.33987C5.92605 3.21587 10.612 5.69587 8.95805 3.47387C7.56605 2.36787 6.23205 4.72187 7.55205 5.33987V5.33987ZM28.42 16.5799C29.166 15.2599 25.34 14.7999 27.92 16.1119C28.156 16.1919 28.104 16.6719 28.42 16.5799Z" fill="white"/>
</g>
<defs>
<clipPath id="clip0">
<rect width="64" height="64" fill="white"/>
</clipPath>
</defs>
</svg>
