<?xml version="1.0" encoding="UTF-8"?>
<!-- Generator: Adobe Illustrator 24.0.3, SVG Export Plug-In . SVG Version: 6.00 Build 0)  -->
<svg version="1.1" id="Calque_1" xmlns="http://www.w3.org/2000/svg" xmlns:xlink="http://www.w3.org/1999/xlink" x="0px" y="0px" viewBox="0 0 644.4 217" style="enable-background:new 0 0 644.4 217;" xml:space="preserve">
<style type="text/css">
	.st0{fill:#4F0599;}
</style>
<title>Logo Scaleway Noir</title>
<g id="Noir">
	<path class="st0" d="M113.5,142.4H134c4.5-0.5,8-4.3,8.2-8.8V104c0-3.9-3.2-7.1-7.1-7.1s-7.1,3.2-7.1,7.1v18.8   c0,2.9-2.4,5.3-5.3,5.3c0,0,0,0,0,0h-9.3c-3.9,0-7.1,3.2-7.1,7.1c0,0,0,0,0,0.1C106.3,139.3,109.6,142.4,113.5,142.4z"/>
	<path class="st0" d="M122.8,74.8h-20.5c-4.5,0.5-8,4.3-8.2,8.8v29.6c0,3.9,3.2,7.1,7.1,7.1s7.1-3.2,7.1-7.1V94.4   c0-3,2.4-5.3,5.3-5.3h9.3c3.9,0,7.1-3.2,7.1-7.1c0,0,0-0.1,0-0.1C129.9,77.9,126.7,74.8,122.8,74.8z"/>
	<path class="st0" d="M126.2,60.5c16.7,0,30.2,13.5,30.2,30.2v58.1l0,0c-0.7,4-3.9,7.1-8,7.7h-38.6c-16.7,0-30.2-13.5-30.2-30.2   V69.9c0-5.2,4.2-9.3,9.3-9.3c0,0,0,0,0,0H126.2 M126.2,46.3H88.9c-13,0-23.6,10.6-23.6,23.6v56.4c0,24.6,19.9,44.5,44.5,44.5l0,0   h39.4c11.3-0.9,20.3-9.7,21.5-20.9l0,0V90.7C170.7,66.2,150.8,46.3,126.2,46.3C126.2,46.3,126.2,46.3,126.2,46.3z"/>
	<path class="st0" d="M225.2,143.2c-4.9,0-9.7-1.3-14-3.6c-4.4-2.3-8.3-5.6-11.3-9.7c-0.8-1-0.6-2.4,0.4-3.3l5.4-4.8   c0.4-0.4,1-0.6,1.6-0.6h0.4c0.7,0.1,1.3,0.5,1.7,1.1c1.8,3,4.4,5.4,7.3,7.2c2.8,1.7,6.1,2.6,9.4,2.6c3.6,0,6.3-0.7,8-2.2   c1.7-1.4,2.5-3.5,2.4-5.7c0.2-2.3-0.8-4.6-2.6-6.1c-2.1-1.6-5.5-3.1-10.2-4.5c-13.9-3.4-20.9-10-20.9-19.7c0-6,2-10.7,6-14   s9.2-4.8,15.8-4.8c4.5-0.1,8.9,0.9,12.9,2.7c4,1.9,7.5,4.8,10.3,8.3c0.8,1,0.7,2.5-0.3,3.4l-5.2,4.4c-0.4,0.4-1,0.6-1.6,0.6h-0.3   c-0.7-0.1-1.3-0.4-1.7-1c-1.6-2.3-3.7-4.3-6.2-5.7c-2.5-1.2-5.2-1.9-7.9-1.8c-2.7-0.1-5.4,0.6-7.7,2.1c-1.7,1.2-2.6,3.1-2.6,5.2   c-0.1,2.1,0.8,4.1,2.4,5.4c1.9,1.6,5.3,2.9,10.1,4.1c6.5,1.8,11.6,4.2,15.3,7.3c3.9,3.4,5.9,8.1,5.9,14.1c0,3.5-1,7-3,9.9   c-2,3-4.9,5.3-8.1,6.7C233.3,142.5,229.3,143.3,225.2,143.2z"/>
	<path class="st0" d="M277,143.4c-4.2,0.1-8.4-1-12-3.2c-3.5-2.1-6.4-5.2-8.2-8.8c-2-3.9-3-8.2-2.9-12.6c-0.1-4.4,0.9-8.7,2.9-12.5   c1.9-3.7,4.7-6.7,8.2-8.8c3.6-2.1,7.7-3.2,11.9-3.2c3.5-0.1,6.9,0.8,10,2.5c2.9,1.7,5.5,4,7.6,6.7c0.8,1.1,0.6,2.6-0.4,3.4   l-4.4,3.5c-0.4,0.3-1,0.5-1.5,0.5c-0.1,0-0.2,0-0.4,0c-0.7-0.1-1.3-0.5-1.6-1c-2.4-3.5-5.5-5.2-9.2-5.2c-2.2,0-4.3,0.6-6.2,1.7   c-1.9,1.2-3.4,2.9-4.3,4.9c-2.1,4.8-2.1,10.2,0,15c0.9,2,2.4,3.8,4.3,5c1.8,1.2,4,1.8,6.2,1.7c2,0.1,4-0.3,5.8-1.2   c1.6-0.9,3.1-2.1,4.2-3.6c0.8-1,2.3-1.2,3.3-0.5l4.7,3.3c1.1,0.8,1.4,2.3,0.6,3.4c0,0.1-0.1,0.1-0.1,0.1c-2.2,2.7-4.9,4.9-8,6.4   C284.1,142.6,280.6,143.4,277,143.4z"/>
	<path class="st0" d="M321.9,143.4c-4.2,0.1-8.3-1-11.9-3.2c-3.5-2.1-6.4-5.2-8.2-8.8c-3.9-7.9-3.9-17.2,0-25.1   c1.9-3.6,4.7-6.6,8.1-8.8c3.6-2.1,7.7-3.2,11.8-3.2c3.3,0,6.5,0.7,9.5,2.2c1,0.5,1.9,1.1,2.8,1.8v-0.2c0-1.3,1.1-2.4,2.4-2.4l0,0h6   c1.3,0,2.4,1.1,2.4,2.4c0,0,0,0,0,0v41.4c0,1.3-1.1,2.4-2.4,2.4l0,0h-6c-1.3,0-2.4-1.1-2.4-2.4l0,0v-0.1c-0.9,0.6-1.8,1.2-2.7,1.7   C328.4,142.7,325.2,143.4,321.9,143.4z M321.7,104.7c-2.2,0-4.3,0.6-6.1,1.7c-1.8,1.2-3.3,2.9-4.3,4.9c-1.1,2.3-1.6,4.9-1.6,7.5   c-0.1,2.6,0.5,5.2,1.6,7.6c0.9,2,2.4,3.8,4.3,5c1.8,1.2,3.9,1.8,6.1,1.7c2.2,0,4.4-0.6,6.3-1.7c1.9-1.2,3.4-3,4.3-5   c2.1-4.8,2.1-10.2,0-15c-1-2-2.4-3.7-4.3-4.9C326.1,105.2,323.9,104.6,321.7,104.7L321.7,104.7z"/>
	<path class="st0" d="M355.1,75.2h6c1.3,0,2.4,1.1,2.4,2.4v61.7c0,1.3-1.1,2.4-2.4,2.4h-6c-1.3,0-2.4-1.1-2.4-2.4V77.6   C352.6,76.3,353.7,75.2,355.1,75.2z"/>
	<path class="st0" d="M460.2,142c-1.1,0-2-0.7-2.3-1.7l-7.9-24.7l-8.5,24.8c-0.3,1-1.3,1.7-2.3,1.6h-6c-1.1,0-2-0.7-2.3-1.7   l-13.7-41.4c-0.4-1.1,0.1-2.3,1.1-2.9c0.4-0.2,0.9-0.3,1.3-0.3h6.3c1.1,0,2,0.7,2.3,1.7l8.3,25.8l8.5-25.8c0.3-1,1.3-1.7,2.3-1.7   h5.9c1.1,0,2,0.7,2.3,1.7l8.1,25.5l8.2-25.5c0.3-1,1.3-1.7,2.3-1.7h5.7c0.3,0,0.6,0.1,1,0.2c1.2,0.5,1.8,1.8,1.4,3l-13.5,41.4   c-0.3,1-1.3,1.7-2.3,1.7L460.2,142z"/>
	<path class="st0" d="M506.7,143.4c-4.2,0.1-8.3-1-11.9-3.2c-3.5-2.1-6.4-5.2-8.2-8.8c-3.9-7.9-3.9-17.2,0-25.1   c1.9-3.6,4.7-6.6,8.1-8.8c3.6-2.1,7.7-3.2,11.9-3.2c3.3,0,6.5,0.8,9.4,2.3c1,0.5,1.9,1.1,2.8,1.8v-0.2c0-1.3,1.1-2.5,2.4-2.5   c0,0,0,0,0.1,0h6c1.3,0,2.4,1.1,2.4,2.4c0,0,0,0,0,0v41.4c0,1.3-1.1,2.4-2.4,2.4h-6c-1.3,0-2.4-1.1-2.4-2.4v-0.1   c-0.9,0.6-1.7,1.2-2.7,1.7C513.2,142.7,510,143.4,506.7,143.4z M506.6,104.7c-2.2,0-4.3,0.6-6.1,1.7c-1.8,1.2-3.3,2.9-4.3,4.9   c-1.1,2.3-1.7,4.9-1.6,7.5c-0.1,2.6,0.5,5.2,1.6,7.6c0.9,2,2.4,3.8,4.3,5c1.8,1.2,3.9,1.8,6.1,1.7c2.2,0,4.4-0.6,6.2-1.7   c1.9-1.2,3.4-3,4.3-5c2.1-4.8,2.1-10.2,0-15c-0.9-2-2.4-3.7-4.3-4.9C510.9,105.2,508.8,104.6,506.6,104.7z"/>
	<path class="st0" d="M408.1,127.4c-1.1-0.8-2.7-0.6-3.6,0.5c-1.1,1.4-2.4,2.6-3.9,3.5c-2.4,1.2-5,1.8-7.6,1.7   c-3.2,0.2-6.4-1.2-8.5-3.6c-1.7-2-2.8-4.4-3.3-6.9h31.3c1.3,0,2.3-1,2.4-2.2c0.1-0.7,0.1-1.6,0.1-2.8c0-4.1-0.9-8.1-2.9-11.7   c-1.9-3.5-4.6-6.4-8-8.4c-3.4-2.1-7.4-3.1-11.4-3.1c-4.2,0-8.3,1.1-11.8,3.2c-3.5,2.1-6.3,5.2-8.1,8.8c-2,3.9-2.9,8.2-2.9,12.5   c-0.1,4.4,0.9,8.7,2.9,12.6c1.9,3.6,4.7,6.7,8.2,8.8c3.6,2.1,7.8,3.2,12,3.2c4.3,0.1,8.7-0.9,12.5-2.9c2.8-1.6,5.3-3.7,7.3-6.3   c0.9-1.2,0.7-2.9-0.5-3.8c0,0-0.1,0-0.1-0.1L408.1,127.4z M385.2,107.6c2-2,4.8-3.1,7.7-3c3.3,0,5.9,0.8,7.7,2.6   c1.5,1.5,2.5,3.4,3,5.5h-21.7C382.6,110.8,383.7,109,385.2,107.6z"/>
	<path class="st0" d="M578.6,96.8c-0.5-0.6-1.2-1-2-1h-5.7c-1,0-1.9,0.6-2.3,1.6l-11.7,30.2l-11.1-30.3c-0.4-0.9-1.3-1.5-2.3-1.5   h-6.3c-0.8,0-1.6,0.4-2,1.1c-0.5,0.7-0.5,1.5-0.2,2.3l16.3,43l0,0c-0.3,1.6-1.1,3-2.4,4c-1.5,1-4.4,1.1-6,1.2   c-1.4,0.1-2.5,1.2-2.5,2.6v4.1c0,1.5,1.2,2.6,2.6,2.6c0,0,0,0,0,0c2.5,0,6.6,0.2,9.8-1.4c6.6-3.5,7.5-7.8,9.4-12.7L578.9,99   C579.1,98.3,579,97.4,578.6,96.8z"/>
</g>
</svg>