<svg fill="none" height="30" width="30" xmlns="http://www.w3.org/2000/svg" xmlns:xlink="http://www.w3.org/1999/xlink"><linearGradient id="a" gradientUnits="userSpaceOnUse" x1="22.21" x2="22.21" y1="7.989" y2="19.331"><stop offset=".25" stop-color="#7366ff"/><stop offset="1" stop-color="#5219ff"/></linearGradient><linearGradient id="b" gradientUnits="userSpaceOnUse" x1="12.388" x2="24.528" y1="22.835" y2="22.835"><stop offset="0" stop-color="#7366ff"/><stop offset="1" stop-color="#a299ff"/></linearGradient><path d="m24.527 16.655-.937 5.893 5.573 2.137v-5.354z" fill="#a299ff"/><path d="m.247 22.008v-14.019l4.638 1.47v9.871l7.503 4.332.56 2.137-.56 3.218-12.14-7.01z" fill="#7366ff"/><path d="m12.389 6.335-7.504 4.331-4.638-2.676 12.14-7.01 12.14 7.009-2.562 2.04-2.073.638z" fill="#7366ff"/><path d="m29.164 24.683-4.637 2.68-4.635-2.68v-5.353z" fill="#5219ff"/><path d="m12.389 9.658-.003 5.353 4.64 2.677-.002-5.355z" fill="#a299ff"/><path d="m12.386 15.011-4.636 2.677 4.637 2.677 4.638-2.677z" fill="#5219ff"/><path d="m12.39 9.658-4.64 2.678v5.351l4.635-2.676.003-5.353z" fill="#7366ff"/><path d="m24.527 7.989v8.666l-4.635 2.675v-8.663z" fill="url(#a)"/><path d="m24.528 16.653-12.14 7.01v5.354l12.139-7.01z" fill="url(#b)"/></svg>