<?xml version="1.0" encoding="UTF-8"?>
<svg height="97px" version="1.1" viewBox="0 0 59 97" width="59px" xmlns="http://www.w3.org/2000/svg"
     xmlns:xlink="http://www.w3.org/1999/xlink">
    <!-- Generator: Sketch 60 (88103) - https://sketch.com -->
    <desc>Created with Sketch.</desc>
    <g fill="none" fill-rule="evenodd" id="Custom-Preset" opacity="0.03" stroke="none" stroke-width="1">
        <g fill="#ffffff" id="Logo" transform="translate(6.000000, 0.000000)">
            <polygon id="Rectangle"
                     points="42.5439541 -3.73034936e-14 50.0495796 3.79954613e-13 32.1747297 29.4788933 28.466169 23.3786335"></polygon>
            <polygon id="Triangle-Copy" points="17.7807717 9.23705556e-13 35.5615434 29.3237412 26.6924774 29.3237412 17.9626561 14.98769 9.22860926 29.3237412 -3.55271368e-14 29.3237412"
                     transform="translate(17.780772, 14.661871) scale(1, -1) translate(-17.780772, -14.661871) "></polygon>
        </g>
        <g fill="#ffffff" id="Logo-Copy-2" transform="translate(34.000000, 49.000000)">
            <polygon id="Triangle-Copy" points="17.7807717 9.23705556e-13 35.5615434 29.3237412 26.6924774 29.3237412 17.9626561 14.98769 9.22860926 29.3237412 -3.55271368e-14 29.3237412"
                     transform="translate(17.780772, 14.661871) scale(1, -1) translate(-17.780772, -14.661871) "></polygon>
        </g>
        <g fill="#ffffff" id="Logo-Copy-3" transform="translate(-25.000000, 49.000000)">
            <polygon id="Rectangle"
                     points="42.5439541 -3.73034936e-14 50.0495796 3.79954613e-13 32.1747297 29.4788933 28.466169 23.3786335"></polygon>
            <polygon id="Triangle-Copy" points="17.7807717 9.23705556e-13 35.5615434 29.3237412 26.6924774 29.3237412 17.9626561 14.98769 9.22860926 29.3237412 -3.55271368e-14 29.3237412"
                     transform="translate(17.780772, 14.661871) scale(1, -1) translate(-17.780772, -14.661871) "></polygon>
        </g>
    </g>
    <title>Custom Preset</title>
</svg>
