<svg width="333" height="96" viewBox="0 0 333 96" fill="none" xmlns="http://www.w3.org/2000/svg">
<g clip-path="url(#clip0_9743_14785)">
<path d="M130.436 26.9492C145.75 26.9492 154.103 37.3904 154.103 52.0081C154.103 58.2728 152.711 62.4493 151.319 65.2336V66.6258L153.407 68.714V75.6749L152.711 76.3709H147.838L145.054 73.5866H144.358C140.877 75.6749 136.005 77.067 130.436 77.067C115.123 77.067 106.77 66.6258 106.77 52.0081C106.77 37.3904 115.123 26.9492 130.436 26.9492ZM130.436 68.714C133.917 68.714 136.005 68.018 137.397 67.3219V65.9297L131.132 59.665V53.4003L131.828 52.7042H136.701L138.093 53.4003L142.966 58.2728H143.662C144.358 56.1846 144.358 54.0964 144.358 52.0081C144.358 42.263 140.181 35.3022 130.436 35.3022C120.691 35.3022 116.515 42.263 116.515 52.0081C116.515 61.7532 120.691 68.714 130.436 68.714Z" fill="#151B2B"/>
<path d="M176.382 77.0673C165.941 77.0673 158.98 70.1065 158.98 58.9692C158.98 47.8319 165.941 40.8711 176.382 40.8711C186.823 40.8711 193.784 47.8319 193.784 58.9692C193.784 70.1065 186.823 77.0673 176.382 77.0673ZM176.382 49.2241C171.509 49.2241 168.725 52.7045 168.725 58.9692C168.725 65.2339 171.509 68.7143 176.382 68.7143C181.255 68.7143 184.039 65.2339 184.039 58.9692C184.039 52.7045 181.255 49.2241 176.382 49.2241Z" fill="#151B2B"/>
<path d="M218.148 75.6743L217.452 76.3704H209.795L209.099 75.6743L197.266 49.2233V42.2625L197.962 41.5664H204.226L204.923 42.2625L213.276 63.841H213.972L222.325 42.2625L223.021 41.5664H229.285L229.981 42.2625V49.2233L218.148 75.6743Z" fill="#151B2B"/>
<path d="M266.877 61.7535L266.181 62.4496H244.602L243.906 63.1457C243.906 64.5379 245.298 68.7143 250.867 68.7143C252.955 68.7143 255.043 68.0183 255.739 66.6261L256.436 65.93H264.788L265.485 66.6261C264.788 70.8026 261.308 77.0673 250.867 77.0673C239.034 77.0673 233.465 68.7143 233.465 58.9692C233.465 49.2241 239.034 40.8711 250.171 40.8711C261.308 40.8711 266.877 49.2241 266.877 58.9692V61.7535ZM256.436 54.7927C256.436 54.0967 255.739 49.2241 250.171 49.2241C244.602 49.2241 243.906 54.0967 243.906 54.7927L244.602 55.4888H255.739L256.436 54.7927Z" fill="#151B2B"/>
<path d="M295.416 49.9194H290.543C284.975 49.9194 282.886 52.7037 282.886 58.9684V75.6743L282.19 76.3704H273.837L273.141 75.6743V42.2625L273.837 41.5664H281.494L282.19 42.2625L282.886 44.3507H283.582C285.044 42.3321 287.968 41.5664 291.239 41.5664H295.416L296.112 42.2625V49.2233L295.416 49.9194Z" fill="#151B2B"/>
<path d="M321.169 77.0665C318.384 84.0273 315.6 88.2038 305.855 88.2038H302.375L301.679 87.5077V80.5469L302.375 79.8508H305.855C309.335 79.8508 310.032 79.1547 310.728 77.0665V76.3704L299.59 49.2233V42.2625L300.286 41.5664H306.551L307.247 42.2625L315.6 65.9292H316.296L324.649 42.2625L325.345 41.5664H331.61L332.306 42.2625V49.2233L321.169 77.0665Z" fill="#151B2B"/>
<path d="M80.3539 21.4068L45.5499 1.31235C43.3948 0.0677575 40.7413 0.0677575 38.5891 1.31235L3.78509 21.4068C1.63281 22.6486 0.304688 24.9484 0.304688 27.4348V67.6237C0.304688 70.1101 1.63003 72.4072 3.78509 73.6518L42.0695 95.7565V73.6518C42.0695 72.4072 42.7321 71.26 43.8097 70.6363L62.9519 59.5854V83.6976L80.3539 73.6518C82.5089 72.4072 83.8343 70.1101 83.8343 67.6237V27.4348C83.8343 24.9484 82.5089 22.6514 80.3539 21.4068ZM40.3293 48.5344L21.1871 59.5854V37.4806C21.1871 36.2361 21.8497 35.0889 22.9273 34.4652L40.3293 24.4194C41.4068 23.7985 42.7321 23.7985 43.8097 24.4194L61.2117 34.4652C62.2892 35.0861 62.9519 36.2361 62.9519 37.4806V59.5854L43.8097 48.5344C42.7321 47.9135 41.4068 47.9135 40.3293 48.5344Z" fill="#642DFF"/>
</g>
<defs>
<clipPath id="clip0_9743_14785">
<rect width="333" height="96" fill="white"/>
</clipPath>
</defs>
</svg>
