<svg width="1059" height="325" viewBox="0 0 1059 325" fill="none" xmlns="http://www.w3.org/2000/svg">
<path d="M526.2 219.326L511.818 236.499L497.221 224.478C484.628 233.637 469.888 238.216 453.001 238.216C431.249 238.216 413.432 231.061 399.551 216.75C385.812 202.44 378.943 183.55 378.943 160.08C378.943 136.611 385.812 117.721 399.551 103.41C413.432 89.0992 431.249 81.9438 453.001 81.9438C474.753 81.9438 492.498 89.0992 506.237 103.41C520.118 117.721 527.059 136.611 527.059 160.08C527.059 178.398 522.336 194.569 512.891 208.593L526.2 219.326ZM453.001 105.771C438.118 105.771 426.669 110.78 418.655 120.797C410.641 130.815 406.634 143.909 406.634 160.08C406.634 176.251 410.641 189.345 418.655 199.363C426.669 209.38 438.118 214.389 453.001 214.389C463.018 214.389 471.319 212.314 477.902 208.164L458.582 192.064L472.75 174.892L492.928 192.064C497.65 183.478 500.012 172.817 500.012 160.08C500.012 143.909 495.933 130.815 487.776 120.797C479.619 110.78 468.027 105.771 453.001 105.771Z" fill="white"/>
<path d="M632.841 221.473C623.253 232.063 610.23 237.358 593.773 237.358C577.315 237.358 564.221 232.063 554.49 221.473C544.902 210.883 540.108 197.717 540.108 181.975C540.108 166.377 544.902 153.282 554.49 142.693C564.221 131.96 577.315 126.593 593.773 126.593C610.23 126.593 623.253 131.96 632.841 142.693C642.572 153.282 647.438 166.377 647.438 181.975C647.438 197.717 642.572 210.883 632.841 221.473ZM614.809 156.645C609.801 150.349 602.788 147.2 593.773 147.2C584.757 147.2 577.673 150.349 572.521 156.645C567.513 162.942 565.008 171.385 565.008 181.975C565.008 192.708 567.513 201.223 572.521 207.52C577.673 213.817 584.757 216.965 593.773 216.965C602.788 216.965 609.801 213.817 614.809 207.52C619.961 201.223 622.537 192.708 622.537 181.975C622.537 171.385 619.961 162.942 614.809 156.645Z" fill="white"/>
<path d="M757.092 128.525L716.307 235.211H693.767L652.982 128.525H677.668L704.93 205.803L732.191 128.525H757.092Z" fill="white"/>
<path d="M859.33 185.839H787.849C789.28 196.572 793.144 204.443 799.44 209.452C805.88 214.461 813.465 216.965 822.194 216.965C833.07 216.965 843.803 214.317 854.393 209.023L856.111 229.201C845.234 234.639 833.357 237.358 820.477 237.358C802.159 237.358 787.92 232.063 777.76 221.473C767.742 210.883 762.733 197.646 762.733 181.761C762.733 166.305 767.313 153.282 776.472 142.693C785.774 131.96 798.367 126.593 814.252 126.593C827.847 126.593 839.009 130.815 847.739 139.258C856.468 147.558 860.833 158.649 860.833 172.53C860.833 175.965 860.332 180.401 859.33 185.839ZM814.681 147.2C800.657 147.2 792.07 154.57 788.922 169.31H835.932C835.932 163.157 834.144 157.933 830.566 153.64C827.131 149.347 821.836 147.2 814.681 147.2Z" fill="white"/>
<path d="M939.113 126.164L934.391 149.991H925.375C921.082 149.991 916.932 151.136 912.925 153.426C909.061 155.715 906.27 158.434 904.553 161.583V235.211H879.653V128.525H901.763L903.051 141.834C912.496 131.387 922.728 126.164 933.747 126.164H939.113Z" fill="white"/>
<path d="M1058.44 128.525L992.111 287.159H966.996L991.038 228.771L946.603 128.525H973.65L1002.84 200.436L1031.39 128.525H1058.44Z" fill="white"/>
<path d="M203.48 124.771V272.797L275.927 230.983V80.2734L203.48 124.771Z" fill="#33369F"/>
<path d="M141.541 0L0 77.367L77.5906 124.771L141.318 88.9944L203.48 124.771L275.927 80.2739L141.541 0Z" fill="#B7B9E7"/>
<path d="M0 77.3672L77.8142 124.771L77.1434 197.89L163.902 244.847L164.796 324.897L0 231.43V77.3672Z" fill="#7173CD"/>
<path d="M141.318 88.9941L203.48 124.771C203.48 124.771 203.649 198.88 203.649 197.762C208.165 199.932 142.212 165.02 142.212 165.02L141.318 88.9941Z" fill="#7173CD"/>
<path d="M77.1433 197.889L142.212 165.02L141.318 88.9941L77.8141 124.771L77.1433 197.889Z" fill="#33369F"/>
<path d="M163.902 244.846L77.1433 197.889L142.212 165.02L225.393 209.293L163.902 244.846Z" fill="#B7B9E7"/>
<path d="M164.796 324.897L224.275 284.872L225.393 209.293L163.902 244.847L164.796 324.897Z" fill="#33369F"/>
<path d="M7.62292 82.0625C30.8777 96.3731 54.5589 110.473 77.8138 124.783C99.0561 112.932 120.082 100.847 141.325 88.996C162.12 100.847 182.705 112.92 203.5 124.771C224.742 111.355 246.226 98.852 267.363 85.5283L141.338 9.83838C96.8409 33.9876 52.3437 57.9132 7.62292 82.0625Z" fill="#B7B9E7"/>
</svg>
