<svg xmlns="http://www.w3.org/2000/svg" xmlns:xlink="http://www.w3.org/1999/xlink" width="562" height="300" viewBox="0 0 562 300"><defs><clipPath id="b"><rect width="562" height="300"/></clipPath></defs><g id="a" clip-path="url(#b)"><path d="M451.84,0h0Z" transform="translate(506.84) rotate(180)" fill="#b7b9e7" opacity="0.503"/><g transform="translate(55.047 85.223)"><path d="M28.946,29.127V88.032l28.83-16.639V11.419Z" transform="translate(52.026 20.525)" fill="#33369f"/><path d="M56.325,0,0,30.787,30.876,49.651l25.36-14.237L80.973,49.651,109.8,31.944Z" fill="#b7b9e7"/><path d="M0,11.006,30.965,29.87l-.267,29.1L65.223,77.653l.356,31.855L0,72.314Z" transform="translate(0 19.781)" fill="#7173cd"/><path d="M20.1,12.66,44.84,26.9s.067,29.491.067,29.046c1.8.864-24.448-13.029-24.448-13.029Z" transform="translate(36.133 22.754)" fill="#7173cd"/><path d="M10.974,55.994l25.893-13.08L36.512,12.66,11.241,26.9Z" transform="translate(19.724 22.754)" fill="#33369f"/><path d="M45.5,55.241,10.974,36.555l25.893-13.08,33.1,17.618Z" transform="translate(19.724 42.193)" fill="#b7b9e7"/><path d="M23.672,75.776,47.341,59.849l.445-30.075L23.316,43.921Z" transform="translate(41.907 53.513)" fill="#33369f"/><path d="M1.084,30.14c9.254,5.695,18.678,11.305,27.932,17,8.453-4.716,16.82-9.525,25.273-14.241,8.275,4.716,16.467,9.52,24.742,14.236,8.453-5.339,17-10.314,25.414-15.616L54.295,1.4C36.588,11.01,18.881,20.53,1.084,30.14Z" transform="translate(1.949 2.516)" fill="#b7b9e7"/></g><text transform="translate(194 177)" fill="#33369f" font-size="97" font-family="Helvetica"><tspan x="0" y="0">Qovery</tspan></text></g></svg>
