<svg width="452" height="353" viewBox="0 0 452 353" fill="none" xmlns="http://www.w3.org/2000/svg">
<rect opacity="0.1" width="89.7457" height="331.6" rx="2.4467" transform="matrix(0.86597 -0.500096 0.86597 0.500096 87.127 135.038)" fill="#43C9D5"/>
<line y1="-0.476361" x2="82.1062" y2="-0.476361" transform="matrix(0.863297 0.504697 -0.504439 0.863447 182.403 145.874)" stroke="#43C9D5" stroke-width="0.952721"/>
<line y1="-0.476361" x2="91.0808" y2="-0.476361" transform="matrix(0.863297 0.504697 -0.504439 0.863447 282.237 204.224)" stroke="#43C9D5" stroke-width="0.952721"/>
<g clip-path="url(#clip0)">
<path d="M161.815 152.499L161.815 152.5L161.819 152.502C163.124 153.192 164.583 153.541 166.06 153.515C167.533 153.542 168.989 153.194 170.29 152.501L170.29 152.502L170.294 152.499L192.483 139.691C193.027 139.497 193.497 139.141 193.831 138.67C194.166 138.196 194.347 137.63 194.347 137.049C194.347 136.468 194.166 135.901 193.831 135.427C193.497 134.956 193.027 134.6 192.483 134.407L170.294 121.598L170.294 121.598L170.288 121.595C168.976 120.93 167.525 120.584 166.054 120.584C164.584 120.584 163.133 120.93 161.821 121.595L161.821 121.594L161.815 121.598L139.633 134.409C139.118 134.641 138.674 135.005 138.347 135.465C138.019 135.927 137.82 136.468 137.772 137.033L137.771 137.043L137.772 137.054C137.823 137.619 138.023 138.16 138.35 138.623C138.677 139.084 139.119 139.452 139.632 139.688L161.815 152.499ZM192.191 139.104L192.179 139.108L192.169 139.114L169.984 151.949C168.765 152.565 167.419 152.885 166.054 152.885C164.689 152.885 163.343 152.565 162.125 151.949L139.94 139.114L139.929 139.108L139.918 139.104C139.481 138.959 139.102 138.68 138.833 138.307C138.564 137.934 138.419 137.486 138.419 137.026C138.419 136.566 138.564 136.118 138.833 135.745C139.102 135.372 139.481 135.094 139.918 134.949L139.929 134.945L139.94 134.938L162.125 122.126C163.343 121.51 164.689 121.189 166.054 121.189C167.42 121.189 168.766 121.51 169.984 122.126L192.169 134.938L192.18 134.945L192.191 134.949C192.628 135.094 193.007 135.372 193.276 135.745C193.545 136.118 193.69 136.566 193.69 137.026C193.69 137.486 193.545 137.934 193.276 138.307C193.007 138.68 192.628 138.959 192.191 139.104Z" fill="#42E8E0" stroke="#42E8E0" stroke-width="0.24467"/>
<path opacity="0.4" d="M194.899 132.128V124.532L193.508 123.757C193.116 126.125 190.334 127.696 187.989 128.021L172.095 137.312L165.151 139.826L143.008 128.392L143.524 128.1C141.629 127.213 140.608 125.182 139.587 123.342L138.095 124.229L137.209 124.475V132.207C137.268 132.792 137.479 133.352 137.821 133.831C138.164 134.309 138.626 134.689 139.161 134.934L161.337 147.748C162.799 148.484 164.412 148.867 166.049 148.867C167.685 148.867 169.298 148.484 170.76 147.748L192.947 134.934C193.473 134.693 193.928 134.32 194.268 133.853C194.607 133.385 194.821 132.837 194.888 132.263V132.128H194.899Z" fill="#42E8E0"/>
<path d="M194.9 125.373V120.346L193.509 119.572C193.116 121.94 190.334 123.51 187.99 123.836L172.095 133.138L165.152 135.64L143.009 124.206L143.525 123.914C141.629 123.028 140.608 121.008 139.588 119.157L138.096 120.043L137.209 120.301V125.452C137.268 126.037 137.479 126.597 137.822 127.076C138.164 127.554 138.626 127.934 139.161 128.178L161.338 140.993C162.799 141.729 164.413 142.112 166.049 142.112C167.685 142.112 169.299 141.729 170.76 140.993L192.948 128.178C193.475 127.937 193.931 127.563 194.271 127.093C194.611 126.623 194.823 126.073 194.889 125.497V125.373H194.9Z" fill="url(#paint0_linear)"/>
<path opacity="0.3" d="M187.99 123.836L172.095 133.138L166.06 135.315V142.115C167.7 142.149 169.322 141.763 170.771 140.993L192.959 128.178C193.486 127.937 193.942 127.563 194.282 127.093C194.622 126.623 194.835 126.073 194.9 125.497V125.373V120.346L193.632 119.639H193.497C193.071 121.973 190.312 123.51 187.99 123.836Z" fill="#0F054C"/>
<path d="M161.337 135.854L139.161 123.062C136.558 121.569 136.558 119.123 139.161 117.619L161.337 104.805C162.799 104.069 164.412 103.686 166.049 103.686C167.685 103.686 169.298 104.069 170.76 104.805L192.948 117.619C195.539 119.123 195.539 121.569 192.948 123.062L170.771 135.854C169.31 136.597 167.693 136.984 166.054 136.984C164.415 136.984 162.799 136.597 161.337 135.854Z" fill="url(#paint1_linear)"/>
<path d="M192.959 123.062L170.771 135.854C169.311 136.595 167.697 136.981 166.06 136.981C164.423 136.981 162.809 136.595 161.349 135.854L139.161 123.062C138.677 122.836 138.251 122.503 137.916 122.086C137.582 121.67 137.347 121.182 137.232 120.66C137.075 121.782 137.714 122.905 139.161 123.69L161.338 136.505C162.798 137.246 164.412 137.632 166.049 137.632C167.686 137.632 169.3 137.246 170.76 136.505L192.948 123.69C193.54 123.444 194.042 123.021 194.386 122.478C194.729 121.936 194.897 121.301 194.866 120.66C194.752 121.179 194.521 121.666 194.19 122.082C193.86 122.498 193.439 122.833 192.959 123.062Z" fill="white"/>
<path opacity="0.3" d="M167.329 124.249L172.936 120.801C173.594 120.398 173.594 119.739 172.936 119.334L167.329 115.879C166.96 115.681 166.552 115.577 166.138 115.577C165.725 115.577 165.317 115.681 164.947 115.879L159.338 119.334C158.683 119.739 158.683 120.398 159.338 120.801L164.944 124.249C165.314 124.45 165.722 124.554 166.137 124.554C166.551 124.554 166.96 124.45 167.329 124.249Z" fill="#43C9D5"/>
<line x1="166.294" y1="44.7779" x2="166.294" y2="101.941" stroke="#43C9D5" stroke-width="0.952721" stroke-linejoin="round" stroke-dasharray="4.76 4.76"/>
<path fill-rule="evenodd" clip-rule="evenodd" d="M141.435 12.9043L136.497 22.8536L145.191 32.9339L129.055 34.7664L154.094 35.0285L141.435 12.9043Z" fill="#035BDA"/>
<path fill-rule="evenodd" clip-rule="evenodd" d="M140.462 8.97685L129.125 18.4681L120.708 32.6721L127.873 31.9519L140.462 8.97685Z" fill="#035BDA"/>
<path d="M163.559 19.0222L158.136 32.3238H159.98L161.39 28.5948H167.384L168.883 32.3238H170.717L165.274 19.0222H163.559ZM164.367 20.636H164.407C164.479 21.0442 164.551 21.3412 164.624 21.5267L166.842 27.1943H161.942L164.141 21.5267C164.226 21.3103 164.302 21.0133 164.367 20.636ZM206.296 22.6027C204.975 22.6027 203.867 23.0695 202.973 24.0032C202.086 24.9308 201.642 26.1338 201.642 27.6118C201.642 29.1763 202.05 30.3913 202.865 31.257C203.68 32.1166 204.8 32.5464 206.227 32.5464C207.686 32.5464 208.859 32.2435 209.746 31.6375V30.209C208.793 30.914 207.748 31.2662 206.611 31.2662C205.599 31.2662 204.804 30.9787 204.226 30.4036C203.647 29.8285 203.345 29.0122 203.318 27.9548H210.447V27.1571C210.447 25.7286 210.085 24.6125 209.362 23.8086C208.639 23.0047 207.617 22.6027 206.296 22.6027ZM199.072 22.6584C198.487 22.6584 197.958 22.8471 197.485 23.2243C197.012 23.5953 196.66 24.1146 196.43 24.7825H196.39V22.8253H194.774V32.3238H196.39V27.4819C196.39 26.4244 196.621 25.5895 197.081 24.9773C197.547 24.3651 198.126 24.0589 198.816 24.0589C199.348 24.0589 199.756 24.1609 200.038 24.365V22.7881C199.815 22.7015 199.493 22.6584 199.072 22.6584ZM172.36 22.8253V24.1239H177.773L171.798 31.8509V32.3238H180.09V31.0252H174.174L180.149 23.2612V22.8253H172.36ZM182.581 22.8253V28.5022C182.581 31.1984 183.784 32.5464 186.189 32.5464C187.596 32.5464 188.634 31.9713 189.305 30.8211H189.344V32.3238H190.961V22.8253H189.344V28.298C189.344 29.1823 189.088 29.8997 188.575 30.4501C188.069 30.9943 187.422 31.2662 186.633 31.2662C185.003 31.2662 184.188 30.2647 184.188 28.2611V22.8253H182.581ZM206.266 23.8828C207.055 23.8828 207.67 24.127 208.11 24.6156C208.557 25.1041 208.784 25.7873 208.79 26.6654H203.338C203.463 25.8368 203.792 25.1658 204.324 24.6525C204.856 24.1393 205.504 23.8828 206.266 23.8828Z" fill="#035BDA"/>
</g>
<g clip-path="url(#clip1)">
<path d="M261.648 210.849L261.648 210.849L261.652 210.851C262.958 211.542 264.417 211.891 265.893 211.864C267.367 211.892 268.823 211.543 270.124 210.851L270.124 210.851L270.128 210.849L292.317 198.04C292.86 197.847 293.331 197.491 293.664 197.02C294 196.546 294.18 195.979 294.18 195.398C294.18 194.817 294 194.251 293.664 193.777C293.331 193.306 292.86 192.95 292.317 192.756L270.128 179.948L270.128 179.947L270.122 179.944C268.809 179.28 267.359 178.934 265.888 178.934C264.417 178.934 262.967 179.28 261.654 179.944L261.654 179.944L261.648 179.948L239.466 192.759C238.951 192.99 238.508 193.355 238.181 193.815C237.852 194.277 237.654 194.818 237.605 195.382L237.604 195.393L237.605 195.404C237.656 195.969 237.856 196.51 238.184 196.973C238.51 197.434 238.952 197.801 239.466 198.038L261.648 210.849ZM292.025 197.454L292.013 197.457L292.002 197.464L269.817 210.299C268.599 210.914 267.253 211.235 265.888 211.235C264.523 211.235 263.177 210.914 261.958 210.299L239.774 197.464L239.763 197.457L239.751 197.454C239.315 197.309 238.935 197.03 238.666 196.657C238.397 196.284 238.252 195.836 238.252 195.376C238.252 194.916 238.397 194.468 238.666 194.095C238.935 193.722 239.315 193.443 239.751 193.298L239.763 193.294L239.774 193.288L261.958 180.475C263.177 179.86 264.523 179.539 265.888 179.539C267.253 179.539 268.599 179.86 269.817 180.475L292.002 193.288L292.013 193.294L292.025 193.298C292.461 193.443 292.841 193.722 293.11 194.095C293.379 194.468 293.524 194.916 293.524 195.376C293.524 195.836 293.379 196.284 293.11 196.657C292.841 197.03 292.461 197.309 292.025 197.454Z" fill="#42E8E0" stroke="#42E8E0" stroke-width="0.24467"/>
<path opacity="0.4" d="M294.733 190.478V182.881L293.342 182.107C292.949 184.475 290.167 186.046 287.823 186.371L271.928 195.662L264.985 198.176L242.842 186.741L243.358 186.45C241.462 185.563 240.441 183.532 239.421 181.692L237.929 182.578L237.042 182.825V190.557C237.101 191.142 237.312 191.702 237.655 192.18C237.997 192.659 238.459 193.039 238.994 193.283L261.171 206.098C262.632 206.834 264.246 207.217 265.882 207.217C267.518 207.217 269.132 206.834 270.593 206.098L292.781 193.283C293.307 193.042 293.761 192.67 294.101 192.202C294.441 191.734 294.655 191.187 294.722 190.613V190.478H294.733Z" fill="#42E8E0"/>
<path d="M294.733 183.723V178.696L293.342 177.922C292.949 180.289 290.167 181.86 287.823 182.186L271.928 191.488L264.985 193.99L242.842 182.556L243.358 182.264C241.462 181.378 240.441 179.358 239.421 177.506L237.929 178.393L237.042 178.651V183.801C237.101 184.387 237.312 184.947 237.655 185.425C237.997 185.904 238.459 186.284 238.994 186.528L261.171 199.343C262.632 200.079 264.246 200.462 265.882 200.462C267.518 200.462 269.132 200.079 270.593 199.343L292.781 186.528C293.308 186.286 293.764 185.912 294.104 185.442C294.444 184.973 294.657 184.423 294.722 183.846V183.723H294.733Z" fill="url(#paint2_linear)"/>
<path opacity="0.3" d="M287.823 182.186L271.928 191.488L265.894 193.665V200.465C267.534 200.499 269.156 200.112 270.605 199.343L292.793 186.528C293.32 186.286 293.775 185.912 294.115 185.442C294.455 184.973 294.668 184.423 294.733 183.846V183.723V178.696L293.466 177.989H293.331C292.905 180.323 290.145 181.86 287.823 182.186Z" fill="#0F054C"/>
<path d="M261.171 194.203L238.995 181.411C236.392 179.919 236.392 177.473 238.995 175.969L261.171 163.155C262.633 162.419 264.246 162.035 265.883 162.035C267.519 162.035 269.132 162.419 270.594 163.155L292.781 175.969C295.373 177.473 295.373 179.919 292.781 181.411L270.605 194.203C269.144 194.946 267.527 195.334 265.888 195.334C264.249 195.334 262.633 194.946 261.171 194.203Z" fill="url(#paint3_linear)"/>
<path d="M292.793 181.411L270.605 194.203C269.145 194.945 267.531 195.331 265.894 195.331C264.256 195.331 262.642 194.945 261.182 194.203L238.995 181.411C238.51 181.186 238.084 180.852 237.75 180.436C237.415 180.02 237.181 179.532 237.065 179.01C236.908 180.132 237.548 181.254 238.995 182.04L261.171 194.854C262.631 195.595 264.245 195.982 265.882 195.982C267.52 195.982 269.134 195.595 270.594 194.854L292.781 182.04C293.374 181.793 293.876 181.37 294.219 180.828C294.562 180.286 294.73 179.651 294.699 179.01C294.585 179.529 294.354 180.015 294.024 180.431C293.693 180.848 293.272 181.183 292.793 181.411Z" fill="white"/>
<path opacity="0.3" d="M267.163 182.599L272.77 179.15C273.428 178.748 273.428 178.089 272.77 177.683L267.163 174.229C266.794 174.03 266.386 173.927 265.972 173.927C265.559 173.927 265.151 174.03 264.781 174.229L259.172 177.683C258.517 178.089 258.517 178.748 259.172 179.15L264.778 182.599C265.148 182.799 265.556 182.904 265.971 182.904C266.385 182.904 266.794 182.799 267.163 182.599Z" fill="#43C9D5"/>
<line x1="266.762" y1="104.144" x2="266.762" y2="161.307" stroke="#43C9D5" stroke-width="0.952721" stroke-linejoin="round" stroke-dasharray="4.76 4.76"/>
<path d="M219.352 79.0943H220.05L222.038 77.1195L222.135 76.2808C218.435 73.0363 212.788 73.3868 209.522 77.0622C208.614 78.0824 207.956 79.2975 207.597 80.6122C207.818 80.5222 208.064 80.5072 208.294 80.5713L212.27 79.9194C212.27 79.9194 212.472 79.5866 212.578 79.6071C214.346 77.6773 217.323 77.4523 219.366 79.0943H219.352Z" fill="#EA4335"/>
<path d="M224.871 80.6122C224.413 78.9402 223.476 77.4373 222.171 76.289L219.381 79.0602C220.559 80.0163 221.231 81.4578 221.202 82.9689V83.4612C222.574 83.4612 223.686 84.5659 223.686 85.9283C223.686 87.2908 222.574 88.3954 221.202 88.3954H216.234L215.739 88.8946V91.854L216.234 92.3463H221.202C224.769 92.3736 227.684 89.5233 227.711 85.9801C227.728 83.8281 226.661 81.8151 224.871 80.6122Z" fill="#4285F4"/>
<path d="M211.26 92.3149H216.227V88.3654H211.26C210.905 88.3654 210.557 88.289 210.234 88.1431L209.537 88.3586L207.535 90.3333L207.36 91.0261C208.482 91.869 209.852 92.3217 211.26 92.3149Z" fill="#34A853"/>
<path d="M211.26 79.5035C207.691 79.5239 204.817 82.4138 204.838 85.9583C204.85 87.9372 205.78 89.8001 207.36 91.0057L210.241 88.1445C208.991 87.584 208.435 86.122 209 84.8809C209.564 83.6399 211.036 83.0875 212.285 83.648C212.836 83.8949 213.277 84.334 213.526 84.8809L216.407 82.0197C215.182 80.4268 213.277 79.4953 211.26 79.5035Z" fill="#FBBC05"/>
<path d="M240.936 89.5574C239.207 89.5792 237.546 88.9014 236.332 87.6794C235.079 86.5093 234.378 84.87 234.4 83.1612C234.38 81.4523 235.08 79.8144 236.332 78.6429C237.54 77.4087 239.203 76.7172 240.936 76.7309C242.586 76.709 244.178 77.3459 245.352 78.4983L244.11 79.753C243.26 78.9361 242.118 78.4888 240.936 78.5052C239.696 78.4902 238.506 78.9934 237.657 79.8908C236.776 80.7595 236.29 81.9487 236.31 83.1816C236.299 84.4008 236.785 85.5724 237.657 86.4315C239.453 88.2099 242.349 88.244 244.187 86.5079C244.735 85.9133 245.07 85.155 245.143 84.3531H240.957V82.5802H246.88C246.937 82.9375 246.961 83.2989 246.95 83.6617C247.024 85.1741 246.472 86.6511 245.422 87.7503C244.253 88.9573 242.622 89.6146 240.936 89.5574ZM254.707 88.379C253.055 89.9515 250.449 89.9515 248.798 88.379C247.997 87.6085 247.561 86.5406 247.591 85.4346C247.561 84.3286 247.999 83.2607 248.798 82.4902C250.451 80.9218 253.054 80.9218 254.707 82.4902C255.506 83.2607 255.944 84.3286 255.914 85.4346C255.943 86.542 255.502 87.6099 254.7 88.379H254.707ZM250.102 87.2225C250.955 88.1281 252.385 88.1745 253.297 87.3262C253.333 87.2921 253.369 87.258 253.401 87.2225C253.867 86.7439 254.118 86.1001 254.099 85.4346C254.12 84.7677 253.868 84.1199 253.401 83.6399C252.524 82.7316 251.071 82.7002 250.156 83.5717C250.132 83.5935 250.109 83.6167 250.087 83.6399C249.62 84.1199 249.369 84.7677 249.39 85.4346C249.372 86.1001 249.626 86.7452 250.094 87.2225H250.102ZM263.79 88.379C262.138 89.9515 259.532 89.9515 257.88 88.379C257.08 87.6085 256.643 86.5406 256.673 85.4346C256.643 84.3286 257.081 83.2607 257.88 82.4902C259.532 80.9177 262.138 80.9177 263.79 82.4902C264.589 83.2607 265.027 84.3286 264.997 85.4346C265.028 86.5406 264.59 87.6085 263.79 88.379ZM259.186 87.2225C260.039 88.1281 261.469 88.1745 262.381 87.3262C262.417 87.2921 262.452 87.258 262.485 87.2225C262.951 86.7439 263.202 86.1001 263.183 85.4346C263.203 84.7677 262.952 84.1199 262.485 83.6399C261.608 82.7316 260.155 82.7002 259.241 83.5717C259.218 83.5935 259.194 83.6167 259.172 83.6399C258.705 84.1199 258.454 84.7677 258.475 85.4346C258.457 86.1001 258.711 86.7452 259.179 87.2225H259.186ZM269.761 93.2573C268.925 93.2833 268.105 93.0241 267.438 92.5223C266.846 92.0799 266.379 91.4925 266.084 90.8175L267.674 90.1588C267.847 90.5625 268.117 90.9171 268.462 91.1912C268.83 91.4858 269.293 91.6412 269.766 91.6276C270.373 91.6644 270.966 91.4367 271.392 91.0044C271.812 90.5011 272.019 89.8547 271.971 89.2028V88.6068H271.908C271.369 89.2423 270.56 89.5887 269.725 89.5424C268.667 89.5451 267.655 89.1087 266.935 88.3368C266.155 87.5717 265.724 86.5229 265.742 85.4332C265.723 84.3381 266.154 83.2825 266.935 82.5093C267.653 81.7346 268.665 81.2941 269.725 81.2968C270.169 81.2955 270.608 81.3937 271.009 81.5805C271.356 81.7305 271.665 81.9556 271.916 82.2392H271.98V81.5805H273.71V88.96C273.802 90.1397 273.401 91.3057 272.6 92.1827C271.838 92.9068 270.815 93.2942 269.761 93.2573ZM269.887 87.9358C270.49 87.9494 271.068 87.6944 271.463 87.243C271.893 86.7534 272.121 86.1192 272.098 85.4687C272.124 84.8073 271.897 84.1622 271.463 83.6603C271.068 83.2075 270.49 82.9539 269.887 82.9675C269.268 82.9552 268.673 83.2075 268.255 83.6603C267.793 84.1445 267.542 84.7895 267.557 85.4551C267.543 86.1151 267.793 86.7534 268.255 87.2294C268.671 87.6862 269.265 87.944 269.887 87.9358ZM276.787 77.1959V89.3078H274.966V77.1959H276.787ZM281.782 89.5574C280.679 89.586 279.615 89.1564 278.845 88.3722C278.063 87.5949 277.636 86.5325 277.665 85.4346C277.624 84.334 278.035 83.2634 278.802 82.4683C279.527 81.7101 280.54 81.29 281.592 81.3105C282.071 81.305 282.545 81.3978 282.987 81.5805C283.385 81.7401 283.748 81.976 284.054 82.2733C284.317 82.5256 284.551 82.8066 284.751 83.1121C284.913 83.3698 285.051 83.6412 285.163 83.9222L285.351 84.394L279.771 86.6743C280.117 87.4626 280.915 87.959 281.78 87.9222C282.616 87.9249 283.392 87.4898 283.825 86.7793L285.22 87.7149C284.864 88.2213 284.408 88.6506 283.879 88.9764C283.253 89.3692 282.523 89.571 281.782 89.5574ZM279.452 85.3091L283.163 83.7776C283.049 83.5076 282.844 83.2853 282.583 83.1475C282.292 82.9839 281.963 82.9007 281.628 82.9048C281.061 82.9198 280.521 83.1557 280.128 83.5635C279.652 84.0163 279.403 84.6559 279.452 85.3091Z" fill="#8686B3"/>
<path d="M294.89 89.5574C291.715 89.6119 289.098 87.0998 289.043 83.9467C289.042 83.8704 289.042 83.7926 289.045 83.7163C288.971 80.5632 291.485 77.9488 294.658 77.8751C294.735 77.8738 294.813 77.8738 294.89 77.8738C296.477 77.8247 298.001 78.4984 299.027 79.7026L298.021 80.6723C297.268 79.7299 296.106 79.2021 294.897 79.2512C293.736 79.2253 292.615 79.6712 291.792 80.4841C290.937 81.3392 290.48 82.5093 290.529 83.7135C290.478 84.9178 290.937 86.0879 291.792 86.943C292.615 87.7572 293.736 88.2018 294.897 88.1759C296.248 88.1909 297.531 87.5935 298.384 86.5543L299.389 87.5526C298.863 88.1772 298.203 88.6764 297.457 89.0146C296.653 89.3856 295.775 89.571 294.89 89.5574Z" fill="#8686B3"/>
<path d="M302.088 89.3079H300.644V78.1166H302.088V89.3079Z" fill="#8686B3"/>
<path d="M304.447 82.572C306.022 81.0187 308.565 81.0187 310.14 82.572C310.887 83.3562 311.289 84.4036 311.256 85.4824C311.289 86.5611 310.887 87.6085 310.14 88.3927C308.565 89.9461 306.022 89.9461 304.447 88.3927C303.7 87.6085 303.298 86.5611 303.331 85.4824C303.298 84.4036 303.699 83.3562 304.447 82.572ZM305.521 87.4926C306.445 88.4623 307.985 88.5045 308.963 87.5867C308.996 87.5567 309.028 87.524 309.058 87.4926C309.567 86.9498 309.836 86.2256 309.805 85.4837C309.838 84.7418 309.569 84.0176 309.058 83.4749C308.134 82.5052 306.593 82.4629 305.616 83.3808C305.583 83.4108 305.551 83.4435 305.521 83.4749C305.012 84.0176 304.742 84.7418 304.774 85.4837C304.745 86.2243 305.017 86.9457 305.528 87.4858L305.521 87.4926Z" fill="#8686B3"/>
<path d="M319.257 89.3078H317.862V88.2481H317.821C317.572 88.6505 317.221 88.9805 316.802 89.2042C316.368 89.4537 315.874 89.586 315.371 89.5847C314.545 89.6406 313.739 89.3187 313.181 88.7118C312.653 88.0477 312.388 87.2144 312.434 86.3702V81.6583H313.879V86.107C313.879 87.5349 314.513 88.2481 315.783 88.2481C316.356 88.2659 316.901 88.0081 317.248 87.5553C317.623 87.0848 317.822 86.4998 317.814 85.8997V81.6583H319.258V89.3078H319.257Z" fill="#8686B3"/>
<path d="M324.161 89.5575C323.17 89.5602 322.227 89.1334 321.58 88.386C320.856 87.5923 320.469 86.5531 320.498 85.4825C320.469 84.4119 320.856 83.3727 321.58 82.579C322.227 81.833 323.17 81.4047 324.161 81.4074C324.71 81.3993 325.253 81.5275 325.738 81.7811C326.165 81.9939 326.526 82.3171 326.784 82.7167H326.847L326.784 81.657V78.1166H328.228V89.3079H326.833V88.2483H326.77C326.512 88.6479 326.151 88.9711 325.724 89.1838C325.243 89.4348 324.706 89.5643 324.161 89.5575ZM324.399 88.2483C325.059 88.2578 325.692 87.9851 326.136 87.4995C326.626 86.9445 326.877 86.2203 326.833 85.4825C326.877 84.746 326.626 84.0205 326.136 83.4654C325.26 82.508 323.769 82.4385 322.805 83.3099C322.75 83.359 322.698 83.4122 322.648 83.4654C322.157 84.0164 321.905 84.7392 321.951 85.4743C321.905 86.2094 322.157 86.9322 322.648 87.4832C323.093 87.9796 323.732 88.2578 324.399 88.2483Z" fill="#8686B3"/>
</g>
<g clip-path="url(#clip2)">
<path d="M367.091 273.687L367.091 273.687L367.095 273.689C368.4 274.38 369.859 274.729 371.336 274.702C372.809 274.73 374.265 274.382 375.566 273.689L375.566 273.689L375.57 273.687L397.759 260.878C398.302 260.685 398.773 260.329 399.107 259.858C399.442 259.384 399.623 258.817 399.623 258.236C399.623 257.656 399.442 257.089 399.107 256.615C398.773 256.144 398.302 255.788 397.759 255.595L375.57 242.786L375.57 242.785L375.564 242.782C374.252 242.118 372.801 241.772 371.33 241.772C369.859 241.772 368.409 242.118 367.097 242.782L367.097 242.782L367.091 242.786L344.908 255.597C344.394 255.828 343.95 256.193 343.623 256.653C343.295 257.115 343.096 257.656 343.048 258.22L343.047 258.231L343.048 258.242C343.099 258.807 343.298 259.348 343.626 259.811C343.953 260.272 344.395 260.639 344.908 260.876L367.091 273.687ZM397.467 260.292L397.455 260.296L397.445 260.302L375.26 273.137C374.041 273.753 372.695 274.073 371.33 274.073C369.965 274.073 368.619 273.753 367.401 273.137L345.216 260.302L345.205 260.296L345.193 260.292C344.757 260.147 344.378 259.868 344.109 259.495C343.84 259.122 343.695 258.674 343.695 258.214C343.695 257.754 343.84 257.306 344.109 256.933C344.378 256.56 344.757 256.281 345.193 256.136L345.205 256.132L345.216 256.126L367.401 243.313C368.619 242.698 369.965 242.377 371.33 242.377C372.695 242.377 374.041 242.698 375.26 243.313L397.445 256.126L397.455 256.132L397.467 256.136C397.904 256.281 398.283 256.56 398.552 256.933C398.821 257.306 398.966 257.754 398.966 258.214C398.966 258.674 398.821 259.122 398.552 259.495C398.283 259.868 397.904 260.147 397.467 260.292Z" fill="#42E8E0" stroke="#42E8E0" stroke-width="0.24467"/>
<path opacity="0.4" d="M400.175 253.316V245.719L398.784 244.945C398.392 247.313 395.61 248.884 393.265 249.209L377.371 258.5L370.427 261.014L348.284 249.579L348.8 249.288C346.904 248.401 345.884 246.37 344.863 244.53L343.371 245.416L342.485 245.663V253.395C342.544 253.98 342.755 254.54 343.097 255.018C343.44 255.497 343.901 255.877 344.437 256.121L366.613 268.936C368.075 269.672 369.688 270.055 371.324 270.055C372.961 270.055 374.574 269.672 376.036 268.936L398.223 256.121C398.749 255.88 399.204 255.508 399.543 255.04C399.883 254.573 400.097 254.025 400.164 253.451V253.316H400.175Z" fill="#42E8E0"/>
<path d="M400.176 246.561V241.534L398.785 240.76C398.392 243.127 395.61 244.698 393.266 245.024L377.371 254.326L370.428 256.828L348.285 245.394L348.801 245.102C346.905 244.216 345.884 242.196 344.863 240.344L343.372 241.231L342.485 241.489V246.64C342.544 247.225 342.755 247.785 343.098 248.263C343.44 248.742 343.902 249.122 344.437 249.366L366.614 262.181C368.075 262.917 369.689 263.3 371.325 263.3C372.961 263.3 374.575 262.917 376.036 262.181L398.224 249.366C398.751 249.124 399.206 248.75 399.546 248.28C399.886 247.811 400.099 247.261 400.164 246.684V246.561H400.176Z" fill="url(#paint4_linear)"/>
<path opacity="0.3" d="M393.266 245.024L377.371 254.326L371.336 256.503V263.303C372.976 263.337 374.598 262.95 376.047 262.181L398.235 249.366C398.762 249.124 399.218 248.75 399.558 248.28C399.898 247.811 400.11 247.261 400.176 246.684V246.561V241.534L398.908 240.827H398.773C398.347 243.161 395.588 244.698 393.266 245.024Z" fill="#0F054C"/>
<path d="M366.613 257.041L344.437 244.249C341.834 242.757 341.834 240.311 344.437 238.807L366.613 225.993C368.075 225.257 369.688 224.873 371.324 224.873C372.961 224.873 374.574 225.257 376.036 225.993L398.223 238.807C400.815 240.311 400.815 242.757 398.223 244.249L376.047 257.041C374.586 257.785 372.969 258.172 371.33 258.172C369.691 258.172 368.075 257.785 366.613 257.041Z" fill="url(#paint5_linear)"/>
<path d="M398.235 244.249L376.047 257.042C374.587 257.783 372.973 258.169 371.336 258.169C369.699 258.169 368.085 257.783 366.625 257.042L344.437 244.249C343.953 244.024 343.527 243.691 343.192 243.274C342.857 242.858 342.623 242.37 342.508 241.848C342.351 242.97 342.99 244.092 344.437 244.878L366.613 257.692C368.073 258.434 369.688 258.82 371.325 258.82C372.962 258.82 374.576 258.434 376.036 257.692L398.224 244.878C398.816 244.632 399.318 244.208 399.661 243.666C400.005 243.124 400.173 242.489 400.142 241.848C400.028 242.367 399.797 242.853 399.466 243.27C399.136 243.686 398.715 244.021 398.235 244.249Z" fill="white"/>
<path opacity="0.3" d="M372.606 245.437L378.212 241.989C378.87 241.586 378.87 240.927 378.212 240.521L372.606 237.067C372.236 236.868 371.828 236.765 371.415 236.765C371.001 236.765 370.593 236.868 370.224 237.067L364.614 240.521C363.959 240.927 363.959 241.586 364.614 241.989L370.221 245.437C370.59 245.638 370.999 245.742 371.413 245.742C371.828 245.742 372.236 245.638 372.606 245.437Z" fill="#43C9D5"/>
<line x1="371.57" y1="164.78" x2="371.57" y2="221.943" stroke="#43C9D5" stroke-width="0.952721" stroke-linejoin="round" stroke-dasharray="4.76 4.76"/>
<path fill-rule="evenodd" clip-rule="evenodd" d="M337.541 155.632L332.265 153.739V146.004L337.541 147.802V155.632Z" fill="#FF9900"/>
<path fill-rule="evenodd" clip-rule="evenodd" d="M338.508 155.632L343.783 153.739V146.004L338.508 147.802V155.632Z" fill="#FF9900"/>
<path fill-rule="evenodd" clip-rule="evenodd" d="M332.807 145.425L338.146 143.922L343.097 145.519L338.146 147.2L332.807 145.425Z" fill="#FF9900"/>
<path fill-rule="evenodd" clip-rule="evenodd" d="M331.26 144.826L325.984 142.933V135.198L331.26 136.996V144.826Z" fill="#FF9900"/>
<path fill-rule="evenodd" clip-rule="evenodd" d="M332.227 144.826L337.503 142.933V135.198L332.227 136.996V144.826Z" fill="#FF9900"/>
<path fill-rule="evenodd" clip-rule="evenodd" d="M326.526 134.619L331.866 133.116L336.816 134.713L331.866 136.394L326.526 134.619Z" fill="#FF9900"/>
<path fill-rule="evenodd" clip-rule="evenodd" d="M343.569 144.826L338.293 142.933V135.198L343.569 136.996V144.826Z" fill="#FF9900"/>
<path fill-rule="evenodd" clip-rule="evenodd" d="M344.537 144.826L349.813 142.933V135.198L344.537 136.996V144.826Z" fill="#FF9900"/>
<path fill-rule="evenodd" clip-rule="evenodd" d="M338.836 134.619L344.175 133.116L349.126 134.713L344.175 136.394L338.836 134.619Z" fill="#FF9900"/>
<path fill-rule="evenodd" clip-rule="evenodd" d="M349.85 134.02L344.574 132.127V124.392L349.85 126.19V134.02Z" fill="#FF9900"/>
<path fill-rule="evenodd" clip-rule="evenodd" d="M350.818 134.02L356.093 132.127V124.392L350.818 126.19V134.02Z" fill="#FF9900"/>
<path fill-rule="evenodd" clip-rule="evenodd" d="M345.117 123.813L350.456 122.31L355.407 123.907L350.456 125.588L345.117 123.813Z" fill="#FF9900"/>
<path fill-rule="evenodd" clip-rule="evenodd" d="M362.159 134.02L356.884 132.127V124.392L362.159 126.19V134.02Z" fill="#FF9900"/>
<path fill-rule="evenodd" clip-rule="evenodd" d="M363.127 134.02L368.403 132.127V124.392L363.127 126.19V134.02Z" fill="#FF9900"/>
<path fill-rule="evenodd" clip-rule="evenodd" d="M357.426 123.813L362.765 122.31L367.716 123.907L362.765 125.588L357.426 123.813Z" fill="#FF9900"/>
<path d="M359.476 150.593L357.704 156.752H356.933L355.554 152.177L354.289 156.752H353.503L351.662 150.593H352.614L353.955 155.183L355.233 150.593H355.935L357.323 155.197L358.702 150.593H359.476Z" fill="#8686B3"/>
<path d="M359.476 150.593L357.704 156.752H356.933L355.554 152.177L354.289 156.752H353.503L351.662 150.593H352.614L353.955 155.183L355.233 150.593H355.935L357.323 155.197L358.702 150.593H359.476Z" stroke="#8686B3"/>
<path fill-rule="evenodd" clip-rule="evenodd" d="M359.476 150.593L357.704 156.752H356.933L355.554 152.177L354.289 156.752H353.503L351.662 150.593H352.614L353.955 155.183L355.233 150.593H355.935L357.323 155.197L358.702 150.593H359.476Z" fill="#8686B3"/>
<path d="M364.378 154.915L365.27 155.098C365.107 155.624 364.791 156.06 364.321 156.405C363.85 156.75 363.296 156.923 362.659 156.923C361.82 156.923 361.14 156.627 360.621 156.035C360.102 155.443 359.842 154.667 359.842 153.706C359.842 152.725 360.112 151.933 360.651 151.329C361.191 150.725 361.869 150.422 362.684 150.422C363.488 150.422 364.134 150.701 364.622 151.257C365.111 151.814 365.362 152.646 365.374 153.754H360.906C360.906 154.686 361.1 155.314 361.489 155.639C361.878 155.965 362.29 156.127 362.723 156.127C363.506 156.127 364.057 155.723 364.378 154.915ZM364.326 153.041C364.317 152.695 364.261 152.388 364.155 152.12C364.05 151.852 363.871 151.624 363.62 151.435C363.369 151.246 363.067 151.151 362.714 151.151C362.239 151.151 361.837 151.322 361.507 151.663C361.176 152.005 360.991 152.463 360.95 153.041H364.326Z" fill="#8686B3"/>
<path d="M364.378 154.915L365.27 155.098C365.107 155.624 364.791 156.06 364.321 156.405C363.85 156.75 363.296 156.923 362.659 156.923C361.82 156.923 361.14 156.627 360.621 156.035C360.102 155.443 359.842 154.667 359.842 153.706C359.842 152.725 360.112 151.933 360.651 151.329C361.191 150.725 361.869 150.422 362.684 150.422C363.488 150.422 364.134 150.701 364.622 151.257C365.111 151.814 365.362 152.646 365.374 153.754H360.906C360.906 154.686 361.1 155.314 361.489 155.639C361.878 155.965 362.29 156.127 362.723 156.127C363.506 156.127 364.057 155.723 364.378 154.915ZM364.326 153.041C364.317 152.695 364.261 152.388 364.155 152.12C364.05 151.852 363.871 151.624 363.62 151.435C363.369 151.246 363.067 151.151 362.714 151.151C362.239 151.151 361.837 151.322 361.507 151.663C361.176 152.005 360.991 152.463 360.95 153.041H364.326Z" stroke="#8686B3"/>
<path fill-rule="evenodd" clip-rule="evenodd" d="M364.378 154.915L365.27 155.098C365.107 155.624 364.791 156.06 364.321 156.405C363.85 156.75 363.296 156.923 362.659 156.923C361.82 156.923 361.14 156.627 360.621 156.035C360.102 155.443 359.842 154.667 359.842 153.706C359.842 152.725 360.112 151.933 360.651 151.329C361.191 150.725 361.869 150.422 362.684 150.422C363.488 150.422 364.134 150.701 364.622 151.257C365.111 151.814 365.362 152.646 365.374 153.754H360.906C360.906 154.686 361.1 155.314 361.489 155.639C361.878 155.965 362.29 156.127 362.723 156.127C363.506 156.127 364.057 155.723 364.378 154.915ZM364.326 153.041C364.317 152.695 364.261 152.388 364.155 152.12C364.05 151.852 363.871 151.624 363.62 151.435C363.369 151.246 363.067 151.151 362.714 151.151C362.239 151.151 361.837 151.322 361.507 151.663C361.176 152.005 360.991 152.463 360.95 153.041H364.326Z" fill="#8686B3"/>
<path d="M367.095 156.752H366.634V148.437H367.594V151.62C368.031 150.822 368.635 150.422 369.405 150.422C370.11 150.422 370.7 150.701 371.177 151.259C371.653 151.816 371.891 152.626 371.891 153.688C371.891 154.603 371.657 155.371 371.188 155.992C370.72 156.612 370.11 156.923 369.36 156.923C368.524 156.923 367.884 156.526 367.437 155.733L367.095 156.752ZM367.594 154.337C367.638 154.97 367.832 155.428 368.175 155.714C368.518 155.999 368.88 156.142 369.262 156.142C369.749 156.142 370.141 155.93 370.44 155.507C370.738 155.084 370.887 154.505 370.887 153.769C370.887 152.976 370.743 152.352 370.455 151.899C370.167 151.445 369.767 151.218 369.256 151.218C368.854 151.218 368.491 151.38 368.169 151.702C367.846 152.025 367.654 152.443 367.594 152.954V154.337Z" fill="#8686B3"/>
<path d="M367.095 156.752H366.634V148.437H367.594V151.62C368.031 150.822 368.635 150.422 369.405 150.422C370.11 150.422 370.7 150.701 371.177 151.259C371.653 151.816 371.891 152.626 371.891 153.688C371.891 154.603 371.657 155.371 371.188 155.992C370.72 156.612 370.11 156.923 369.36 156.923C368.524 156.923 367.884 156.526 367.437 155.733L367.095 156.752ZM367.594 154.337C367.638 154.97 367.832 155.428 368.175 155.714C368.518 155.999 368.88 156.142 369.262 156.142C369.749 156.142 370.141 155.93 370.44 155.507C370.738 155.084 370.887 154.505 370.887 153.769C370.887 152.976 370.743 152.352 370.455 151.899C370.167 151.445 369.767 151.218 369.256 151.218C368.854 151.218 368.491 151.38 368.169 151.702C367.846 152.025 367.654 152.443 367.594 152.954V154.337Z" stroke="#8686B3"/>
<path fill-rule="evenodd" clip-rule="evenodd" d="M367.095 156.752H366.634V148.437H367.594V151.62C368.031 150.822 368.635 150.422 369.405 150.422C370.11 150.422 370.7 150.701 371.177 151.259C371.653 151.816 371.891 152.626 371.891 153.688C371.891 154.603 371.657 155.371 371.188 155.992C370.72 156.612 370.11 156.923 369.36 156.923C368.524 156.923 367.884 156.526 367.437 155.733L367.095 156.752ZM367.594 154.337C367.638 154.97 367.832 155.428 368.175 155.714C368.518 155.999 368.88 156.142 369.262 156.142C369.749 156.142 370.141 155.93 370.44 155.507C370.738 155.084 370.887 154.505 370.887 153.769C370.887 152.976 370.743 152.352 370.455 151.899C370.167 151.445 369.767 151.218 369.256 151.218C368.854 151.218 368.491 151.38 368.169 151.702C367.846 152.025 367.654 152.443 367.594 152.954V154.337Z" fill="#8686B3"/>
<path d="M374.335 155.156L375.249 154.967C375.453 155.74 376.095 156.127 377.176 156.127C377.574 156.127 377.912 156.038 378.188 155.86C378.464 155.681 378.603 155.43 378.603 155.105C378.603 154.623 378.251 154.317 377.547 154.187L376.251 153.941C375.743 153.843 375.339 153.652 375.038 153.367C374.738 153.083 374.588 152.707 374.588 152.239C374.588 151.723 374.793 151.291 375.203 150.944C375.613 150.596 376.165 150.422 376.859 150.422C378.194 150.422 379.019 150.945 379.331 151.989L378.454 152.177C378.202 151.538 377.685 151.218 376.902 151.218C376.513 151.218 376.193 151.298 375.943 151.458C375.694 151.618 375.569 151.841 375.569 152.128C375.569 152.581 375.888 152.866 376.526 152.983L377.724 153.204C378.979 153.432 379.606 154.041 379.606 155.03C379.606 155.595 379.373 156.053 378.905 156.4C378.438 156.749 377.817 156.923 377.04 156.923C375.582 156.923 374.68 156.334 374.335 155.156Z" fill="#8686B3"/>
<path d="M374.335 155.156L375.249 154.967C375.453 155.74 376.095 156.127 377.176 156.127C377.574 156.127 377.912 156.038 378.188 155.86C378.464 155.681 378.603 155.43 378.603 155.105C378.603 154.623 378.251 154.317 377.547 154.187L376.251 153.941C375.743 153.843 375.339 153.652 375.038 153.367C374.738 153.083 374.588 152.707 374.588 152.239C374.588 151.723 374.793 151.291 375.203 150.944C375.613 150.596 376.165 150.422 376.859 150.422C378.194 150.422 379.019 150.945 379.331 151.989L378.454 152.177C378.202 151.538 377.685 151.218 376.902 151.218C376.513 151.218 376.193 151.298 375.943 151.458C375.694 151.618 375.569 151.841 375.569 152.128C375.569 152.581 375.888 152.866 376.526 152.983L377.724 153.204C378.979 153.432 379.606 154.041 379.606 155.03C379.606 155.595 379.373 156.053 378.905 156.4C378.438 156.749 377.817 156.923 377.04 156.923C375.582 156.923 374.68 156.334 374.335 155.156Z" stroke="#8686B3"/>
<path fill-rule="evenodd" clip-rule="evenodd" d="M374.335 155.156L375.249 154.967C375.453 155.74 376.095 156.127 377.176 156.127C377.574 156.127 377.912 156.038 378.188 155.86C378.464 155.681 378.603 155.43 378.603 155.105C378.603 154.623 378.251 154.317 377.547 154.187L376.251 153.941C375.743 153.843 375.339 153.652 375.038 153.367C374.738 153.083 374.588 152.707 374.588 152.239C374.588 151.723 374.793 151.291 375.203 150.944C375.613 150.596 376.165 150.422 376.859 150.422C378.194 150.422 379.019 150.945 379.331 151.989L378.454 152.177C378.202 151.538 377.685 151.218 376.902 151.218C376.513 151.218 376.193 151.298 375.943 151.458C375.694 151.618 375.569 151.841 375.569 152.128C375.569 152.581 375.888 152.866 376.526 152.983L377.724 153.204C378.979 153.432 379.606 154.041 379.606 155.03C379.606 155.595 379.373 156.053 378.905 156.4C378.438 156.749 377.817 156.923 377.04 156.923C375.582 156.923 374.68 156.334 374.335 155.156Z" fill="#8686B3"/>
<path d="M384.707 154.915L385.599 155.098C385.437 155.624 385.12 156.06 384.649 156.405C384.179 156.75 383.625 156.923 382.989 156.923C382.149 156.923 381.469 156.627 380.95 156.035C380.431 155.443 380.171 154.667 380.171 153.706C380.171 152.725 380.441 151.933 380.981 151.329C381.52 150.725 382.198 150.422 383.013 150.422C383.816 150.422 384.463 150.701 384.951 151.257C385.44 151.814 385.691 152.646 385.703 153.754H381.234C381.234 154.686 381.429 155.314 381.818 155.639C382.208 155.965 382.619 156.127 383.053 156.127C383.835 156.127 384.386 155.723 384.707 154.915ZM384.654 153.041C384.646 152.695 384.59 152.388 384.484 152.12C384.379 151.852 384.2 151.624 383.949 151.435C383.698 151.246 383.395 151.151 383.043 151.151C382.569 151.151 382.166 151.322 381.836 151.663C381.505 152.005 381.32 152.463 381.279 153.041H384.654Z" fill="#8686B3"/>
<path d="M384.707 154.915L385.599 155.098C385.437 155.624 385.12 156.06 384.649 156.405C384.179 156.75 383.625 156.923 382.989 156.923C382.149 156.923 381.469 156.627 380.95 156.035C380.431 155.443 380.171 154.667 380.171 153.706C380.171 152.725 380.441 151.933 380.981 151.329C381.52 150.725 382.198 150.422 383.013 150.422C383.816 150.422 384.463 150.701 384.951 151.257C385.44 151.814 385.691 152.646 385.703 153.754H381.234C381.234 154.686 381.429 155.314 381.818 155.639C382.208 155.965 382.619 156.127 383.053 156.127C383.835 156.127 384.386 155.723 384.707 154.915ZM384.654 153.041C384.646 152.695 384.59 152.388 384.484 152.12C384.379 151.852 384.2 151.624 383.949 151.435C383.698 151.246 383.395 151.151 383.043 151.151C382.569 151.151 382.166 151.322 381.836 151.663C381.505 152.005 381.32 152.463 381.279 153.041H384.654Z" stroke="#8686B3"/>
<path fill-rule="evenodd" clip-rule="evenodd" d="M384.707 154.915L385.599 155.098C385.437 155.624 385.12 156.06 384.649 156.405C384.179 156.75 383.625 156.923 382.989 156.923C382.149 156.923 381.469 156.627 380.95 156.035C380.431 155.443 380.171 154.667 380.171 153.706C380.171 152.725 380.441 151.933 380.981 151.329C381.52 150.725 382.198 150.422 383.013 150.422C383.816 150.422 384.463 150.701 384.951 151.257C385.44 151.814 385.691 152.646 385.703 153.754H381.234C381.234 154.686 381.429 155.314 381.818 155.639C382.208 155.965 382.619 156.127 383.053 156.127C383.835 156.127 384.386 155.723 384.707 154.915ZM384.654 153.041C384.646 152.695 384.59 152.388 384.484 152.12C384.379 151.852 384.2 151.624 383.949 151.435C383.698 151.246 383.395 151.151 383.043 151.151C382.569 151.151 382.166 151.322 381.836 151.663C381.505 152.005 381.32 152.463 381.279 153.041H384.654Z" fill="#8686B3"/>
<path d="M387.693 156.752H386.734V150.593H387.575V152.029C387.871 151.356 388.168 150.921 388.466 150.722C388.765 150.522 389.07 150.422 389.383 150.422C389.48 150.422 389.606 150.43 389.76 150.445V151.36H389.566C389.039 151.36 388.601 151.556 388.253 151.947C387.904 152.339 387.718 152.853 387.693 153.491V156.752Z" fill="#8686B3"/>
<path d="M387.693 156.752H386.734V150.593H387.575V152.029C387.871 151.356 388.168 150.921 388.466 150.722C388.765 150.522 389.07 150.422 389.383 150.422C389.48 150.422 389.606 150.43 389.76 150.445V151.36H389.566C389.039 151.36 388.601 151.556 388.253 151.947C387.904 152.339 387.718 152.853 387.693 153.491V156.752Z" stroke="#8686B3"/>
<path fill-rule="evenodd" clip-rule="evenodd" d="M387.693 156.752H386.734V150.593H387.575V152.029C387.871 151.356 388.168 150.921 388.466 150.722C388.765 150.522 389.07 150.422 389.383 150.422C389.48 150.422 389.606 150.43 389.76 150.445V151.36H389.566C389.039 151.36 388.601 151.556 388.253 151.947C387.904 152.339 387.718 152.853 387.693 153.491V156.752Z" fill="#8686B3"/>
<path d="M395.718 150.593L393.592 156.752H392.598L390.402 150.593H391.463L393.172 155.599L394.867 150.593H395.718Z" fill="#8686B3"/>
<path d="M395.718 150.593L393.592 156.752H392.598L390.402 150.593H391.463L393.172 155.599L394.867 150.593H395.718Z" stroke="#8686B3"/>
<path fill-rule="evenodd" clip-rule="evenodd" d="M395.718 150.593L393.592 156.752H392.598L390.402 150.593H391.463L393.172 155.599L394.867 150.593H395.718Z" fill="#8686B3"/>
<path d="M396.484 148.437H397.51V149.5H396.484V148.437ZM396.528 150.593H397.487V156.752H396.528V150.593Z" fill="#8686B3"/>
<path d="M396.484 148.437H397.51V149.5H396.484V148.437ZM396.528 150.593H397.487V156.752H396.528V150.593Z" stroke="#8686B3"/>
<path fill-rule="evenodd" clip-rule="evenodd" d="M396.484 148.437H397.51V149.5H396.484V148.437ZM396.528 150.593H397.487V156.752H396.528V150.593Z" fill="#8686B3"/>
<path d="M402.499 154.595L403.361 154.747C403.239 155.428 402.969 155.96 402.551 156.345C402.133 156.73 401.611 156.923 400.986 156.923C400.138 156.923 399.491 156.609 399.046 155.983C398.602 155.356 398.379 154.591 398.379 153.688C398.379 152.752 398.614 151.974 399.083 151.353C399.552 150.733 400.19 150.422 400.998 150.422C401.668 150.422 402.205 150.623 402.609 151.024C403.013 151.425 403.263 151.943 403.361 152.578L402.499 152.743C402.336 151.727 401.845 151.218 401.026 151.218C400.499 151.218 400.093 151.442 399.809 151.891C399.525 152.34 399.383 152.922 399.383 153.636C399.383 154.424 399.524 155.036 399.806 155.472C400.088 155.909 400.485 156.127 400.996 156.127C401.786 156.127 402.288 155.616 402.499 154.595Z" fill="#8686B3"/>
<path d="M402.499 154.595L403.361 154.747C403.239 155.428 402.969 155.96 402.551 156.345C402.133 156.73 401.611 156.923 400.986 156.923C400.138 156.923 399.491 156.609 399.046 155.983C398.602 155.356 398.379 154.591 398.379 153.688C398.379 152.752 398.614 151.974 399.083 151.353C399.552 150.733 400.19 150.422 400.998 150.422C401.668 150.422 402.205 150.623 402.609 151.024C403.013 151.425 403.263 151.943 403.361 152.578L402.499 152.743C402.336 151.727 401.845 151.218 401.026 151.218C400.499 151.218 400.093 151.442 399.809 151.891C399.525 152.34 399.383 152.922 399.383 153.636C399.383 154.424 399.524 155.036 399.806 155.472C400.088 155.909 400.485 156.127 400.996 156.127C401.786 156.127 402.288 155.616 402.499 154.595Z" stroke="#8686B3"/>
<path fill-rule="evenodd" clip-rule="evenodd" d="M402.499 154.595L403.361 154.747C403.239 155.428 402.969 155.96 402.551 156.345C402.133 156.73 401.611 156.923 400.986 156.923C400.138 156.923 399.491 156.609 399.046 155.983C398.602 155.356 398.379 154.591 398.379 153.688C398.379 152.752 398.614 151.974 399.083 151.353C399.552 150.733 400.19 150.422 400.998 150.422C401.668 150.422 402.205 150.623 402.609 151.024C403.013 151.425 403.263 151.943 403.361 152.578L402.499 152.743C402.336 151.727 401.845 151.218 401.026 151.218C400.499 151.218 400.093 151.442 399.809 151.891C399.525 152.34 399.383 152.922 399.383 153.636C399.383 154.424 399.524 155.036 399.806 155.472C400.088 155.909 400.485 156.127 400.996 156.127C401.786 156.127 402.288 155.616 402.499 154.595Z" fill="#8686B3"/>
<path d="M408.769 154.915L409.661 155.098C409.499 155.624 409.182 156.06 408.712 156.405C408.241 156.75 407.688 156.923 407.051 156.923C406.211 156.923 405.531 156.627 405.012 156.035C404.493 155.443 404.233 154.667 404.233 153.706C404.233 152.725 404.503 151.933 405.043 151.329C405.582 150.725 406.26 150.422 407.076 150.422C407.878 150.422 408.525 150.701 409.014 151.257C409.503 151.814 409.753 152.646 409.765 153.754H405.297C405.297 154.686 405.491 155.314 405.88 155.639C406.27 155.965 406.681 156.127 407.115 156.127C407.897 156.127 408.448 155.723 408.769 154.915ZM408.717 153.041C408.709 152.695 408.652 152.388 408.546 152.12C408.441 151.852 408.263 151.624 408.011 151.435C407.76 151.246 407.458 151.151 407.105 151.151C406.63 151.151 406.228 151.322 405.898 151.663C405.567 152.005 405.382 152.463 405.341 153.041H408.717Z" fill="#8686B3"/>
<path d="M408.769 154.915L409.661 155.098C409.499 155.624 409.182 156.06 408.712 156.405C408.241 156.75 407.688 156.923 407.051 156.923C406.211 156.923 405.531 156.627 405.012 156.035C404.493 155.443 404.233 154.667 404.233 153.706C404.233 152.725 404.503 151.933 405.043 151.329C405.582 150.725 406.26 150.422 407.076 150.422C407.878 150.422 408.525 150.701 409.014 151.257C409.503 151.814 409.753 152.646 409.765 153.754H405.297C405.297 154.686 405.491 155.314 405.88 155.639C406.27 155.965 406.681 156.127 407.115 156.127C407.897 156.127 408.448 155.723 408.769 154.915ZM408.717 153.041C408.709 152.695 408.652 152.388 408.546 152.12C408.441 151.852 408.263 151.624 408.011 151.435C407.76 151.246 407.458 151.151 407.105 151.151C406.63 151.151 406.228 151.322 405.898 151.663C405.567 152.005 405.382 152.463 405.341 153.041H408.717Z" stroke="#8686B3"/>
<path fill-rule="evenodd" clip-rule="evenodd" d="M408.769 154.915L409.661 155.098C409.499 155.624 409.182 156.06 408.712 156.405C408.241 156.75 407.688 156.923 407.051 156.923C406.211 156.923 405.531 156.627 405.012 156.035C404.493 155.443 404.233 154.667 404.233 153.706C404.233 152.725 404.503 151.933 405.043 151.329C405.582 150.725 406.26 150.422 407.076 150.422C407.878 150.422 408.525 150.701 409.014 151.257C409.503 151.814 409.753 152.646 409.765 153.754H405.297C405.297 154.686 405.491 155.314 405.88 155.639C406.27 155.965 406.681 156.127 407.115 156.127C407.897 156.127 408.448 155.723 408.769 154.915ZM408.717 153.041C408.709 152.695 408.652 152.388 408.546 152.12C408.441 151.852 408.263 151.624 408.011 151.435C407.76 151.246 407.458 151.151 407.105 151.151C406.63 151.151 406.228 151.322 405.898 151.663C405.567 152.005 405.382 152.463 405.341 153.041H408.717Z" fill="#8686B3"/>
<path d="M410.307 155.156L411.222 154.967C411.425 155.74 412.067 156.127 413.148 156.127C413.547 156.127 413.884 156.038 414.16 155.86C414.437 155.681 414.575 155.43 414.575 155.105C414.575 154.623 414.223 154.317 413.519 154.187L412.223 153.941C411.715 153.843 411.311 153.652 411.011 153.367C410.71 153.083 410.56 152.707 410.56 152.239C410.56 151.723 410.765 151.291 411.175 150.944C411.585 150.596 412.137 150.422 412.831 150.422C414.167 150.422 414.991 150.945 415.303 151.989L414.426 152.177C414.175 151.538 413.657 151.218 412.874 151.218C412.485 151.218 412.165 151.298 411.916 151.458C411.666 151.618 411.542 151.841 411.542 152.128C411.542 152.581 411.86 152.866 412.498 152.983L413.697 153.204C414.951 153.432 415.579 154.041 415.579 155.03C415.579 155.595 415.345 156.053 414.878 156.4C414.411 156.749 413.789 156.923 413.013 156.923C411.555 156.923 410.652 156.334 410.307 155.156Z" fill="#8686B3"/>
<path d="M410.307 155.156L411.222 154.967C411.425 155.74 412.067 156.127 413.148 156.127C413.547 156.127 413.884 156.038 414.16 155.86C414.437 155.681 414.575 155.43 414.575 155.105C414.575 154.623 414.223 154.317 413.519 154.187L412.223 153.941C411.715 153.843 411.311 153.652 411.011 153.367C410.71 153.083 410.56 152.707 410.56 152.239C410.56 151.723 410.765 151.291 411.175 150.944C411.585 150.596 412.137 150.422 412.831 150.422C414.167 150.422 414.991 150.945 415.303 151.989L414.426 152.177C414.175 151.538 413.657 151.218 412.874 151.218C412.485 151.218 412.165 151.298 411.916 151.458C411.666 151.618 411.542 151.841 411.542 152.128C411.542 152.581 411.86 152.866 412.498 152.983L413.697 153.204C414.951 153.432 415.579 154.041 415.579 155.03C415.579 155.595 415.345 156.053 414.878 156.4C414.411 156.749 413.789 156.923 413.013 156.923C411.555 156.923 410.652 156.334 410.307 155.156Z" stroke="#8686B3"/>
<path fill-rule="evenodd" clip-rule="evenodd" d="M410.307 155.156L411.222 154.967C411.425 155.74 412.067 156.127 413.148 156.127C413.547 156.127 413.884 156.038 414.16 155.86C414.437 155.681 414.575 155.43 414.575 155.105C414.575 154.623 414.223 154.317 413.519 154.187L412.223 153.941C411.715 153.843 411.311 153.652 411.011 153.367C410.71 153.083 410.56 152.707 410.56 152.239C410.56 151.723 410.765 151.291 411.175 150.944C411.585 150.596 412.137 150.422 412.831 150.422C414.167 150.422 414.991 150.945 415.303 151.989L414.426 152.177C414.175 151.538 413.657 151.218 412.874 151.218C412.485 151.218 412.165 151.298 411.916 151.458C411.666 151.618 411.542 151.841 411.542 152.128C411.542 152.581 411.86 152.866 412.498 152.983L413.697 153.204C414.951 153.432 415.579 154.041 415.579 155.03C415.579 155.595 415.345 156.053 414.878 156.4C414.411 156.749 413.789 156.923 413.013 156.923C411.555 156.923 410.652 156.334 410.307 155.156Z" fill="#8686B3"/>
<path fill-rule="evenodd" clip-rule="evenodd" d="M388.69 137.432V135.952C388.691 135.727 388.86 135.577 389.064 135.578L395.692 135.577C395.904 135.577 396.074 135.731 396.074 135.951L396.074 137.219C396.072 137.432 395.893 137.71 395.575 138.15L392.142 143.054C393.417 143.024 394.764 143.215 395.922 143.866C396.184 144.012 396.253 144.23 396.274 144.443V146.021C396.274 146.239 396.036 146.491 395.786 146.36C393.746 145.291 391.039 145.174 388.783 146.373C388.553 146.496 388.312 146.248 388.312 146.03V144.53C388.312 144.289 388.316 143.879 388.558 143.513L392.535 137.805L389.072 137.804C388.861 137.804 388.691 137.653 388.69 137.432Z" fill="#8686B3"/>
<path fill-rule="evenodd" clip-rule="evenodd" d="M364.97 146.671H362.954C362.762 146.658 362.609 146.514 362.593 146.33L362.595 135.978C362.595 135.771 362.769 135.605 362.984 135.605L364.861 135.604C365.058 135.614 365.216 135.763 365.228 135.952V137.304H365.266C365.755 135.997 366.678 135.387 367.92 135.387C369.181 135.387 369.971 135.997 370.536 137.304C371.025 135.997 372.136 135.387 373.322 135.387C374.169 135.387 375.091 135.735 375.656 136.519C376.295 137.391 376.164 138.654 376.164 139.765L376.162 146.298C376.162 146.505 375.988 146.671 375.773 146.671H373.76C373.557 146.658 373.397 146.497 373.397 146.299L373.397 140.811C373.397 140.375 373.435 139.286 373.34 138.872C373.19 138.175 372.738 137.979 372.155 137.979C371.665 137.979 371.157 138.306 370.95 138.829C370.743 139.351 370.762 140.223 370.762 140.811V146.298C370.762 146.505 370.588 146.671 370.373 146.671H368.359C368.157 146.658 367.997 146.497 367.997 146.299L367.995 140.811C367.995 139.656 368.183 137.957 366.753 137.957C365.304 137.957 365.36 139.613 365.36 140.811L365.359 146.298C365.359 146.505 365.185 146.671 364.97 146.671Z" fill="#8686B3"/>
<path fill-rule="evenodd" clip-rule="evenodd" d="M400.943 135.387C403.912 135.387 405.518 137.957 405.518 141.225C405.518 144.383 403.744 146.889 400.943 146.889C398.03 146.889 396.443 144.318 396.443 141.116C396.443 137.892 398.049 135.387 400.943 135.387ZM400.962 137.766C399.486 137.766 399.393 139.792 399.393 141.056C399.393 142.319 399.374 144.754 400.943 144.754C402.493 144.754 402.568 142.842 402.568 141.513C402.568 140.642 402.53 139.596 402.269 138.768C402.044 138.049 401.596 137.766 400.962 137.766Z" fill="#8686B3"/>
<path fill-rule="evenodd" clip-rule="evenodd" d="M409.814 146.671H407.805C407.604 146.658 407.444 146.497 407.444 146.299L407.44 135.943C407.457 135.754 407.625 135.605 407.828 135.605L409.698 135.604C409.874 135.613 410.019 135.734 410.057 135.894V137.478H410.094C410.659 136.062 411.449 135.387 412.842 135.387C413.746 135.387 414.63 135.713 415.195 136.607C415.722 137.434 415.722 138.829 415.722 139.831V146.345C415.699 146.528 415.535 146.671 415.336 146.671H413.314C413.128 146.659 412.977 146.522 412.955 146.345V140.724C412.955 139.591 413.087 137.935 411.694 137.935C411.204 137.935 410.753 138.262 410.527 138.763C410.245 139.395 410.207 140.027 410.207 140.724V146.298C410.203 146.505 410.029 146.671 409.814 146.671Z" fill="#8686B3"/>
<path fill-rule="evenodd" clip-rule="evenodd" d="M383.635 141.727C383.635 142.513 383.653 143.168 383.257 143.867C382.937 144.434 382.427 144.784 381.861 144.784C381.088 144.784 380.635 144.194 380.635 143.321C380.635 141.603 382.176 141.29 383.635 141.29V141.727ZM385.667 146.645C385.534 146.765 385.341 146.773 385.191 146.692C384.521 146.135 384.401 145.878 384.035 145.348C382.928 146.476 382.144 146.814 380.711 146.814C379.013 146.814 377.693 145.766 377.693 143.67C377.693 142.033 378.579 140.919 379.843 140.373C380.937 139.893 382.465 139.806 383.635 139.675V139.413C383.635 138.932 383.672 138.365 383.389 137.95C383.144 137.579 382.673 137.426 382.258 137.426C381.488 137.426 380.805 137.82 380.637 138.637C380.602 138.819 380.469 138.999 380.287 139.008L378.332 138.797C378.167 138.759 377.984 138.627 378.031 138.375C378.481 136.003 380.622 135.286 382.541 135.286C383.521 135.286 384.804 135.548 385.577 136.291C386.558 137.208 386.464 138.43 386.464 139.762V142.905C386.464 143.85 386.856 144.265 387.225 144.774C387.354 144.957 387.383 145.176 387.218 145.31C386.806 145.655 386.075 146.291 385.672 146.649L385.667 146.645Z" fill="#8686B3"/>
<path fill-rule="evenodd" clip-rule="evenodd" d="M357.43 141.727C357.43 142.513 357.449 143.168 357.053 143.867C356.733 144.434 356.223 144.784 355.657 144.784C354.884 144.784 354.431 144.194 354.431 143.321C354.431 141.603 355.972 141.29 357.43 141.29V141.727ZM359.464 146.645C359.33 146.765 359.137 146.773 358.987 146.692C358.317 146.135 358.197 145.878 357.831 145.348C356.724 146.476 355.94 146.814 354.507 146.814C352.809 146.814 351.489 145.766 351.489 143.67C351.489 142.033 352.375 140.919 353.639 140.373C354.733 139.893 356.261 139.806 357.43 139.675V139.413C357.43 138.932 357.468 138.365 357.185 137.95C356.94 137.579 356.468 137.426 356.054 137.426C355.285 137.426 354.601 137.82 354.433 138.637C354.398 138.819 354.265 138.999 354.082 139.008L352.128 138.797C351.963 138.759 351.78 138.627 351.828 138.375C352.276 136.003 354.418 135.286 356.336 135.286C357.317 135.286 358.6 135.548 359.373 136.291C360.354 137.208 360.26 138.43 360.26 139.762V142.905C360.26 143.85 360.652 144.265 361.021 144.774C361.15 144.957 361.179 145.176 361.014 145.31C360.603 145.655 359.871 146.291 359.468 146.649L359.464 146.645Z" fill="#8686B3"/>
</g>
<path d="M73.8961 311.461L231.474 218.023" stroke="#43C9D5" stroke-width="1.22335"/>
<rect opacity="0.1" width="105.151" height="105.151" rx="2.4467" transform="matrix(0.86597 -0.500096 0.86597 0.500096 0 300.414)" fill="#5D64D2"/>
<path d="M113.164 264.087V314.7L137.904 300.403V248.873L113.164 264.087Z" fill="#33369F"/>
<path d="M92.0134 221.425L43.6792 247.879L70.1752 264.087L91.937 251.854L113.164 264.087L137.904 248.873L92.0134 221.425Z" fill="#B7B9E7"/>
<path d="M43.6792 247.879L70.2515 264.087L70.0225 289.088L99.6491 305.143L99.9545 332.514L43.6792 300.556V247.879Z" fill="#7173CD"/>
<path d="M91.937 251.854L113.164 264.087C113.164 264.087 113.222 289.427 113.222 289.044C114.764 289.786 92.2424 277.849 92.2424 277.849L91.937 251.854Z" fill="#7173CD"/>
<path d="M70.0225 289.088L92.2424 277.849L91.937 251.854L70.2515 264.087L70.0225 289.088Z" fill="#33369F"/>
<path d="M99.6491 305.143L70.0225 289.088L92.2424 277.849L120.647 292.987L99.6491 305.143Z" fill="#B7B9E7"/>
<path d="M99.9544 332.514L120.265 318.829L120.647 292.987L99.6489 305.143L99.9544 332.514Z" fill="#33369F"/>
<defs>
<linearGradient id="paint0_linear" x1="14998.8" y1="2489.79" x2="16009.8" y2="3956.55" gradientUnits="userSpaceOnUse">
<stop stop-color="#BCBEFF"/>
<stop offset="0.23" stop-color="#AAADF8"/>
<stop offset="0.68" stop-color="#7C83E5"/>
<stop offset="1" stop-color="#5761D7"/>
</linearGradient>
<linearGradient id="paint1_linear" x1="14701.3" y1="3839.12" x2="17667.9" y2="3839.12" gradientUnits="userSpaceOnUse">
<stop stop-color="#E9E9FD"/>
<stop offset="0.36" stop-color="#D3D2F9"/>
<stop offset="0.71" stop-color="#C5C4F7"/>
<stop offset="1" stop-color="#C0BFF6"/>
</linearGradient>
<linearGradient id="paint2_linear" x1="15098.6" y1="2548.14" x2="16109.6" y2="4014.9" gradientUnits="userSpaceOnUse">
<stop stop-color="#BCBEFF"/>
<stop offset="0.23" stop-color="#AAADF8"/>
<stop offset="0.68" stop-color="#7C83E5"/>
<stop offset="1" stop-color="#5761D7"/>
</linearGradient>
<linearGradient id="paint3_linear" x1="14801.1" y1="3897.47" x2="17767.7" y2="3897.47" gradientUnits="userSpaceOnUse">
<stop stop-color="#E9E9FD"/>
<stop offset="0.36" stop-color="#D3D2F9"/>
<stop offset="0.71" stop-color="#C5C4F7"/>
<stop offset="1" stop-color="#C0BFF6"/>
</linearGradient>
<linearGradient id="paint4_linear" x1="15204.1" y1="2610.98" x2="16215.1" y2="4077.74" gradientUnits="userSpaceOnUse">
<stop stop-color="#BCBEFF"/>
<stop offset="0.23" stop-color="#AAADF8"/>
<stop offset="0.68" stop-color="#7C83E5"/>
<stop offset="1" stop-color="#5761D7"/>
</linearGradient>
<linearGradient id="paint5_linear" x1="14906.6" y1="3960.3" x2="17873.2" y2="3960.3" gradientUnits="userSpaceOnUse">
<stop stop-color="#E9E9FD"/>
<stop offset="0.36" stop-color="#D3D2F9"/>
<stop offset="0.71" stop-color="#C5C4F7"/>
<stop offset="1" stop-color="#C0BFF6"/>
</linearGradient>
<clipPath id="clip0">
<rect width="89.738" height="153.729" fill="white" transform="translate(120.708)"/>
</clipPath>
<clipPath id="clip1">
<rect width="123.39" height="146.996" fill="white" transform="translate(204.838 65.0823)"/>
</clipPath>
<clipPath id="clip2">
<rect width="90.8597" height="161.584" fill="white" transform="translate(325.984 113.333)"/>
</clipPath>
</defs>
</svg>
