<svg width="703" height="382" viewBox="0 0 703 382" fill="none" xmlns="http://www.w3.org/2000/svg">
<path d="M29.7622 308.188L500.254 31.9802" stroke="#43C9D5" stroke-width="1.22335"/>
<path d="M498.707 33.0664L554.666 1.51409" stroke="#43C9D5" stroke-width="1.22335" stroke-dasharray="6.12 6.12"/>
<rect opacity="0.1" width="389.575" height="114.342" rx="2.4467" transform="matrix(0.866044 -0.499967 0.866044 0.499967 90.8866 214.643)" fill="#C5EFF3"/>
<path d="M208.75 222.592L208.75 222.592L208.754 222.594C210.176 223.346 211.766 223.726 213.374 223.697C214.979 223.728 216.566 223.348 217.983 222.594L217.983 222.594L217.987 222.592L242.187 208.627C242.778 208.417 243.29 208.03 243.652 207.518C244.017 207.003 244.213 206.388 244.213 205.757C244.213 205.126 244.017 204.51 243.652 203.995C243.29 203.484 242.778 203.096 242.187 202.886L217.987 188.921L217.987 188.921L217.981 188.918C216.551 188.195 214.971 187.818 213.368 187.818C211.766 187.818 210.186 188.195 208.756 188.918L208.756 188.918L208.75 188.921L184.558 202.889C183.998 203.14 183.516 203.537 183.16 204.037C182.803 204.538 182.587 205.127 182.534 205.74L182.533 205.751L182.534 205.762C182.59 206.376 182.807 206.964 183.163 207.467C183.518 207.968 183.999 208.368 184.557 208.624L208.75 222.592ZM241.877 208.008L241.865 208.012L241.854 208.018L217.659 222.011C216.329 222.683 214.859 223.034 213.368 223.034C211.878 223.034 210.408 222.683 209.078 222.011L184.883 208.018L184.872 208.012L184.86 208.008C184.382 207.849 183.966 207.544 183.671 207.135C183.377 206.727 183.218 206.236 183.218 205.732C183.218 205.229 183.377 204.738 183.671 204.329C183.966 203.921 184.382 203.615 184.86 203.457L184.872 203.453L184.883 203.447L209.078 189.478C210.408 188.806 211.878 188.456 213.368 188.456C214.859 188.456 216.329 188.806 217.659 189.478L241.854 203.447L241.865 203.453L241.877 203.457C242.355 203.615 242.771 203.921 243.066 204.329C243.36 204.738 243.519 205.229 243.519 205.732C243.519 206.236 243.36 206.727 243.066 207.135C242.771 207.544 242.355 207.849 241.877 208.008Z" fill="#42E8E0" stroke="#42E8E0" stroke-width="0.24467"/>
<path opacity="0.4" d="M244.827 200.392V192.11L243.31 191.266C242.882 193.847 239.848 195.56 237.291 195.915L219.956 206.044L212.383 208.785L188.234 196.319L188.797 196C186.73 195.034 185.616 192.82 184.503 190.813L182.876 191.78L181.91 192.049V200.478C181.974 201.116 182.204 201.727 182.577 202.248C182.951 202.77 183.455 203.184 184.038 203.451L208.224 217.421C209.818 218.224 211.578 218.642 213.362 218.642C215.147 218.642 216.906 218.224 218.5 217.421L242.698 203.451C243.271 203.188 243.767 202.782 244.138 202.272C244.508 201.762 244.741 201.165 244.814 200.539V200.392H244.827Z" fill="#42E8E0"/>
<path d="M244.827 193.028V187.547L243.31 186.703C242.882 189.284 239.848 190.997 237.291 191.352L219.956 201.493L212.383 204.221L188.234 191.755L188.797 191.437C186.73 190.471 185.616 188.269 184.503 186.25L182.876 187.217L181.91 187.498V193.113C181.974 193.752 182.204 194.362 182.577 194.884C182.951 195.405 183.455 195.82 184.038 196.086L208.224 210.057C209.818 210.859 211.578 211.277 213.362 211.277C215.147 211.277 216.906 210.859 218.5 210.057L242.698 196.086C243.273 195.822 243.77 195.415 244.14 194.902C244.511 194.39 244.743 193.791 244.814 193.162V193.028H244.827Z" fill="url(#paint0_linear)"/>
<path opacity="0.3" d="M237.291 191.352L219.956 201.493L213.375 203.867V211.28C215.163 211.317 216.932 210.896 218.513 210.057L242.711 196.086C243.285 195.822 243.782 195.415 244.153 194.902C244.524 194.39 244.756 193.791 244.827 193.162V193.028V187.547L243.445 186.776H243.298C242.833 189.321 239.823 190.997 237.291 191.352Z" fill="#0F054C"/>
<path d="M208.224 204.454L184.038 190.508C181.2 188.881 181.2 186.214 184.038 184.575L208.224 170.604C209.818 169.801 211.577 169.383 213.362 169.383C215.146 169.383 216.906 169.801 218.5 170.604L242.698 184.575C245.524 186.214 245.524 188.881 242.698 190.508L218.512 204.454C216.918 205.264 215.156 205.686 213.368 205.686C211.58 205.686 209.818 205.264 208.224 204.454Z" fill="url(#paint1_linear)"/>
<path d="M242.711 190.508L218.513 204.454C216.92 205.262 215.16 205.683 213.375 205.683C211.589 205.683 209.829 205.262 208.236 204.454L184.039 190.508C183.51 190.262 183.046 189.898 182.681 189.444C182.316 188.99 182.061 188.458 181.934 187.89C181.763 189.113 182.46 190.336 184.039 191.193L208.224 205.164C209.816 205.972 211.577 206.393 213.362 206.393C215.148 206.393 216.908 205.972 218.5 205.164L242.698 191.193C243.344 190.924 243.892 190.463 244.266 189.872C244.641 189.281 244.824 188.589 244.79 187.89C244.666 188.456 244.414 188.986 244.053 189.439C243.693 189.893 243.234 190.259 242.711 190.508Z" fill="white"/>
<path d="M237.311 181.817V69.7997H188.381V181.961C188.381 185.169 190.516 184.849 194.921 187.303C203.645 192.114 222.063 192.114 230.788 187.303C235.259 184.817 237.427 185.073 237.311 181.817Z" fill="url(#paint2_linear)"/>
<g clip-path="url(#clip0)">
<path d="M224.167 132.117C223.82 131.997 223.469 131.887 223.116 131.785C223.175 131.543 223.23 131.303 223.278 131.068C224.074 127.204 223.554 124.091 221.777 123.067C220.072 122.084 217.286 123.109 214.471 125.558C214.194 125.8 213.922 126.049 213.657 126.304C213.48 126.134 213.3 125.968 213.116 125.805C210.166 123.185 207.21 122.082 205.434 123.109C203.732 124.095 203.228 127.021 203.944 130.683C204.015 131.046 204.096 131.407 204.186 131.765C203.767 131.884 203.363 132.011 202.977 132.145C199.518 133.351 197.31 135.241 197.31 137.201C197.31 139.225 199.681 141.256 203.283 142.487C203.575 142.586 203.869 142.678 204.166 142.763C204.07 143.149 203.984 143.538 203.909 143.929C203.226 147.528 203.76 150.385 205.458 151.364C207.211 152.375 210.155 151.336 213.021 148.83C213.253 148.627 213.481 148.417 213.703 148.202C213.989 148.479 214.284 148.748 214.586 149.008C217.362 151.397 220.104 152.362 221.8 151.38C223.552 150.365 224.122 147.296 223.382 143.562C223.324 143.269 223.259 142.978 223.187 142.689C223.393 142.627 223.596 142.564 223.794 142.499C227.539 141.258 229.975 139.252 229.975 137.201C229.975 135.234 227.695 133.331 224.167 132.117ZM223.355 141.174C223.176 141.233 222.993 141.29 222.806 141.346C222.393 140.037 221.835 138.646 221.152 137.208C221.804 135.804 222.34 134.43 222.742 133.13C223.076 133.227 223.4 133.329 223.713 133.436C226.736 134.477 228.58 136.015 228.58 137.201C228.58 138.464 226.588 140.103 223.355 141.174ZM222.013 143.833C222.34 145.484 222.387 146.977 222.17 148.144C221.976 149.193 221.585 149.892 221.101 150.172C220.072 150.768 217.87 149.993 215.496 147.95C215.215 147.708 214.941 147.458 214.674 147.201C215.595 146.195 216.515 145.024 217.413 143.725C218.992 143.584 220.484 143.355 221.837 143.043C221.903 143.311 221.962 143.575 222.013 143.833ZM208.446 150.069C207.44 150.424 206.639 150.434 206.155 150.155C205.125 149.561 204.696 147.267 205.28 144.19C205.35 143.826 205.429 143.464 205.519 143.105C206.857 143.401 208.338 143.614 209.921 143.742C210.825 145.014 211.771 146.183 212.725 147.207C212.522 147.403 212.315 147.594 212.103 147.78C210.835 148.888 209.565 149.674 208.446 150.069ZM203.734 141.167C202.141 140.622 200.826 139.915 199.924 139.142C199.114 138.449 198.705 137.76 198.705 137.201C198.705 136.011 200.478 134.494 203.436 133.463C203.795 133.338 204.171 133.22 204.56 133.109C204.969 134.439 205.505 135.829 206.153 137.235C205.497 138.661 204.953 140.074 204.54 141.419C204.27 141.342 204.001 141.257 203.734 141.167ZM205.314 130.415C204.7 127.278 205.107 124.911 206.134 124.317C207.226 123.684 209.643 124.586 212.19 126.848C212.356 126.996 212.519 127.147 212.68 127.3C211.731 128.32 210.793 129.48 209.897 130.744C208.361 130.886 206.89 131.115 205.538 131.421C205.455 131.088 205.38 130.752 205.314 130.415V130.415ZM219.404 133.894C219.085 133.343 218.754 132.798 218.411 132.261C219.453 132.393 220.452 132.567 221.389 132.781C221.108 133.684 220.757 134.627 220.344 135.594C220.042 135.021 219.729 134.455 219.404 133.894ZM213.658 128.298C214.302 128.995 214.946 129.774 215.58 130.618C214.294 130.557 213.006 130.557 211.72 130.617C212.354 129.781 213.004 129.003 213.658 128.298ZM207.875 133.904C207.555 134.46 207.247 135.023 206.953 135.593C206.547 134.629 206.199 133.682 205.915 132.767C206.847 132.558 207.841 132.388 208.877 132.258C208.53 132.799 208.196 133.347 207.875 133.904V133.904ZM208.906 142.243C207.836 142.123 206.828 141.962 205.896 141.759C206.184 140.827 206.54 139.86 206.955 138.875C207.25 139.446 207.559 140.009 207.881 140.565C208.212 141.137 208.554 141.697 208.906 142.243ZM213.697 146.202C213.035 145.489 212.375 144.699 211.731 143.85C212.357 143.875 212.994 143.887 213.642 143.887C214.308 143.887 214.966 143.872 215.614 143.843C214.978 144.708 214.336 145.498 213.697 146.202ZM220.357 138.825C220.794 139.82 221.162 140.783 221.454 141.698C220.507 141.915 219.484 142.089 218.407 142.218C218.752 141.671 219.086 141.116 219.41 140.556C219.738 139.986 220.054 139.409 220.357 138.825ZM218.201 139.859C217.706 140.718 217.183 141.561 216.634 142.387C215.638 142.457 214.64 142.492 213.642 142.492C212.626 142.492 211.637 142.46 210.685 142.399C210.121 141.575 209.588 140.73 209.088 139.866H209.088C208.591 139.007 208.126 138.129 207.695 137.234C208.125 136.339 208.588 135.461 209.084 134.601L209.084 134.601C209.58 133.741 210.108 132.9 210.668 132.08C211.639 132.006 212.635 131.968 213.642 131.968H213.642C214.654 131.968 215.651 132.006 216.622 132.08C217.176 132.899 217.701 133.738 218.196 134.593C218.694 135.452 219.164 136.326 219.605 137.214C219.168 138.112 218.7 138.994 218.201 139.859ZM221.08 124.275C222.173 124.906 222.599 127.45 221.912 130.786C221.868 130.999 221.818 131.216 221.765 131.436C220.409 131.123 218.938 130.89 217.397 130.746C216.499 129.468 215.569 128.306 214.636 127.3C214.88 127.064 215.131 126.834 215.387 126.611C217.799 124.512 220.053 123.683 221.08 124.275ZM213.642 134.284C215.253 134.284 216.559 135.59 216.559 137.201C216.559 138.812 215.253 140.118 213.642 140.118C212.031 140.118 210.725 138.812 210.725 137.201C210.725 135.59 212.031 134.284 213.642 134.284Z" fill="#00D8FF"/>
</g>
<path d="M306.51 158.667L306.51 158.667L306.514 158.669C307.936 159.421 309.526 159.801 311.134 159.772C312.739 159.802 314.326 159.423 315.743 158.669L315.743 158.669L315.747 158.667L339.947 144.702C340.538 144.492 341.05 144.104 341.412 143.593C341.777 143.078 341.973 142.462 341.973 141.831C341.973 141.2 341.777 140.585 341.412 140.07C341.05 139.558 340.538 139.171 339.947 138.961L315.747 124.996L315.747 124.996L315.741 124.993C314.311 124.269 312.731 123.892 311.128 123.892C309.526 123.892 307.946 124.269 306.516 124.993L306.516 124.993L306.51 124.996L282.318 138.964C281.758 139.215 281.276 139.611 280.92 140.111C280.563 140.613 280.347 141.201 280.294 141.815L280.293 141.826L280.294 141.836C280.35 142.45 280.567 143.038 280.923 143.542C281.278 144.043 281.759 144.442 282.317 144.699L306.51 158.667ZM339.637 144.082L339.625 144.086L339.614 144.093L315.419 158.086C314.089 158.758 312.619 159.108 311.128 159.108C309.638 159.108 308.168 158.758 306.838 158.086L282.643 144.093L282.632 144.086L282.62 144.082C282.142 143.924 281.726 143.618 281.431 143.21C281.137 142.802 280.978 142.311 280.978 141.807C280.978 141.303 281.137 140.812 281.431 140.404C281.726 139.995 282.142 139.69 282.62 139.531L282.632 139.527L282.643 139.521L306.838 125.552C308.168 124.88 309.638 124.53 311.128 124.53C312.619 124.53 314.089 124.88 315.419 125.552L339.614 139.521L339.625 139.527L339.637 139.531C340.115 139.69 340.531 139.995 340.826 140.404C341.12 140.812 341.279 141.303 341.279 141.807C341.279 142.311 341.12 142.802 340.826 143.21C340.531 143.618 340.115 143.924 339.637 144.082Z" fill="#42E8E0" stroke="#42E8E0" stroke-width="0.24467"/>
<path d="M388.157 108.423L388.157 108.423L388.161 108.425C389.583 109.177 391.172 109.557 392.781 109.528C394.386 109.558 395.972 109.179 397.389 108.425L397.389 108.425L397.393 108.423L421.593 94.4578C422.184 94.2478 422.696 93.8606 423.058 93.3489C423.423 92.8341 423.619 92.2186 423.619 91.5876C423.619 90.9565 423.423 90.3411 423.058 89.8262C422.696 89.3145 422.184 88.9273 421.593 88.7173L397.393 74.7523L397.393 74.7521L397.387 74.7491C395.957 74.0255 394.377 73.6485 392.775 73.6485C391.172 73.6485 389.592 74.0255 388.163 74.7491L388.162 74.7489L388.157 74.7523L363.964 88.7198C363.404 88.9712 362.922 89.3674 362.566 89.8675C362.209 90.3693 361.993 90.9575 361.941 91.5709L361.94 91.5817L361.941 91.5925C361.996 92.2064 362.213 92.7946 362.57 93.2977C362.925 93.7992 363.405 94.1984 363.964 94.455L388.157 108.423ZM421.283 93.8386L421.271 93.8426L421.26 93.8488L397.065 107.842C395.735 108.514 394.265 108.864 392.775 108.864C391.284 108.864 389.814 108.514 388.484 107.842L364.289 93.8488L364.278 93.8426L364.266 93.8386C363.788 93.6799 363.372 93.3746 363.078 92.9661C362.783 92.5577 362.624 92.0668 362.624 91.5631C362.624 91.0594 362.783 90.5685 363.078 90.16C363.372 89.7516 363.788 89.4463 364.266 89.2875L364.278 89.2836L364.289 89.2774L388.484 75.3084C389.814 74.6364 391.284 74.2863 392.775 74.2863C394.265 74.2863 395.735 74.6364 397.066 75.3084L421.26 89.2774L421.271 89.2836L421.283 89.2875C421.761 89.4463 422.177 89.7516 422.472 90.16C422.767 90.5685 422.925 91.0594 422.925 91.5631C422.925 92.0668 422.767 92.5577 422.472 92.9661C422.177 93.3746 421.761 93.6799 421.283 93.8386Z" fill="#42E8E0" stroke="#42E8E0" stroke-width="0.24467"/>
<rect x="0.1875" y="231.876" width="75.8478" height="28.1371" rx="3.67006" fill="#43C9D5" fill-opacity="0.83"/>
<path d="M10.0544 252.1V242.951H12.0531V244.431H12.1952C12.3904 243.907 12.7109 243.5 13.157 243.21C13.603 242.915 14.1298 242.767 14.7375 242.767C15.3564 242.767 15.8832 242.915 16.3181 243.21C16.7529 243.5 17.0679 243.907 17.2631 244.431H17.4052C17.6338 243.924 17.9962 243.52 18.4924 243.218C18.9886 242.917 19.5517 242.767 20.1817 242.767C21.096 242.767 21.8124 243.037 22.3309 243.578C22.855 244.119 23.117 244.863 23.117 245.811V252.1H21.0514V246.338C21.0514 245.161 20.4939 244.573 19.3788 244.573C18.8436 244.573 18.4116 244.746 18.0826 245.092C17.7537 245.437 17.5892 245.875 17.5892 246.405V252.1H15.5738V246.187C15.5738 245.685 15.426 245.292 15.1306 245.008C14.8351 244.718 14.4309 244.573 13.918 244.573C13.405 244.573 12.9785 244.76 12.6385 245.134C12.2984 245.507 12.1283 245.975 12.1283 246.538V252.1H10.0544ZM28.7033 250.62C29.3277 250.62 29.849 250.441 30.2672 250.084C30.6853 249.722 30.8944 249.276 30.8944 248.746V248.019L28.8288 248.153C27.6914 248.225 27.1228 248.638 27.1228 249.39C27.1228 249.769 27.2677 250.07 27.5576 250.293C27.8531 250.511 28.235 250.62 28.7033 250.62ZM28.0928 252.25C27.2008 252.25 26.4733 251.999 25.9102 251.498C25.3471 250.996 25.0655 250.332 25.0655 249.507C25.0655 248.682 25.3638 248.035 25.9603 247.567C26.5625 247.099 27.421 246.831 28.5361 246.764L30.8944 246.622V245.853C30.8944 245.401 30.7466 245.056 30.4511 244.816C30.1557 244.576 29.7292 244.456 29.1716 244.456C28.6922 244.456 28.2963 244.54 27.9841 244.707C27.6719 244.869 27.4684 245.103 27.3736 245.41H25.4168C25.5004 244.601 25.8906 243.96 26.5875 243.486C27.29 243.007 28.1848 242.767 29.272 242.767C30.4428 242.767 31.346 243.037 31.9815 243.578C32.6227 244.119 32.9432 244.877 32.9432 245.853V252.1H30.9445V250.845H30.8024C30.5459 251.286 30.178 251.631 29.6985 251.882C29.2246 252.128 28.6894 252.25 28.0928 252.25ZM35.2346 245.568C35.2346 244.743 35.5747 244.071 36.2549 243.553C36.9351 243.029 37.8159 242.767 38.8975 242.767C39.9847 242.767 40.8516 242.998 41.4983 243.461C42.1506 243.918 42.513 244.562 42.5855 245.393H40.637C40.5589 245.064 40.3694 244.807 40.0683 244.623C39.7728 244.434 39.3853 244.339 38.9059 244.339C38.4264 244.339 38.0306 244.442 37.7184 244.649C37.4062 244.855 37.2501 245.122 37.2501 245.451C37.2501 245.708 37.3588 245.92 37.5762 246.087C37.7992 246.254 38.1421 246.391 38.6048 246.497L40.2188 246.865C41.0997 247.065 41.7464 247.364 42.159 247.759C42.5716 248.155 42.7778 248.688 42.7778 249.357C42.7778 250.232 42.4155 250.94 41.6907 251.481C40.9659 252.016 40.0293 252.284 38.8808 252.284C37.7379 252.284 36.8236 252.05 36.1378 251.581C35.4576 251.113 35.0785 250.463 35.0005 249.633H37.0494C37.1497 249.978 37.3588 250.246 37.6766 250.436C37.9999 250.62 38.4181 250.712 38.931 250.712C39.455 250.712 39.8815 250.608 40.2105 250.402C40.5394 250.19 40.7039 249.914 40.7039 249.574C40.7039 249.067 40.283 248.721 39.4411 248.537L37.8187 248.161C36.9378 247.96 36.2856 247.651 35.8618 247.233C35.4437 246.809 35.2346 246.254 35.2346 245.568ZM45.4706 240.71H47.5362V243.009H49.4931V244.665H47.5362V249.156C47.5362 249.608 47.6366 249.939 47.8373 250.151C48.038 250.357 48.3558 250.461 48.7907 250.461C48.9802 250.461 49.2144 250.447 49.4931 250.419V252.041C49.1475 252.108 48.7851 252.142 48.406 252.142C47.3578 252.142 46.6052 251.949 46.148 251.565C45.6964 251.18 45.4706 250.544 45.4706 249.658V244.665H44.0239V243.009H45.4706V240.71ZM55.322 244.414C54.7031 244.414 54.193 244.618 53.7916 245.025C53.3902 245.432 53.1672 245.97 53.1226 246.639H57.4294C57.4071 245.959 57.2064 245.418 56.8273 245.016C56.4482 244.615 55.9464 244.414 55.322 244.414ZM57.4461 249.583H59.4114C59.2162 250.419 58.7563 251.079 58.0315 251.565C57.3123 252.044 56.4175 252.284 55.3471 252.284C54.0035 252.284 52.947 251.866 52.1776 251.029C51.4138 250.187 51.0319 249.031 51.0319 247.559C51.0319 246.087 51.4166 244.922 52.1859 244.063C52.9553 243.199 54.0035 242.767 55.3303 242.767C56.6349 242.767 57.6552 243.177 58.3911 243.996C59.1326 244.81 59.5034 245.939 59.5034 247.383V248.052H53.1142V248.161C53.1421 248.925 53.3595 249.53 53.7665 249.976C54.1791 250.416 54.7254 250.636 55.4056 250.636C56.4537 250.636 57.1339 250.285 57.4461 249.583ZM61.5857 252.1V242.951H63.5844V244.373H63.7265C63.8548 243.915 64.1419 243.539 64.5879 243.244C65.0395 242.948 65.558 242.8 66.1434 242.8C66.5169 242.8 66.804 242.831 67.0048 242.892V244.816C66.7929 244.738 66.4389 244.699 65.9427 244.699C65.2681 244.699 64.7189 244.894 64.2952 245.284C63.8715 245.669 63.6596 246.179 63.6596 246.814V252.1H61.5857Z" fill="white"/>
<path d="M264.234 366.806L646.174 142.382" stroke="#5D64D2" stroke-width="1.22335"/>
<line x1="96.7524" y1="268.815" x2="265.018" y2="367.153" stroke="#5D64D2" stroke-width="1.04675"/>
<circle cx="98.0584" cy="268.744" r="3.66362" fill="#3FC6C6"/>
<path d="M646.298 141.928L702.257 110.376" stroke="#5D64D2" stroke-width="1.22335" stroke-dasharray="6.12 6.12"/>
<rect opacity="0.1" width="389.575" height="114.342" rx="2.4467" transform="matrix(0.866044 -0.499967 0.866044 0.499967 238.478 324.552)" fill="#5D64D2"/>
<path d="M359.482 328.313L359.482 328.314L359.486 328.316C360.908 329.068 362.498 329.447 364.106 329.419C365.711 329.449 367.298 329.069 368.715 328.316L368.715 328.316L368.719 328.313L392.919 314.348C393.51 314.138 394.021 313.751 394.384 313.24C394.749 312.725 394.945 312.109 394.945 311.478C394.945 310.847 394.749 310.232 394.384 309.717C394.021 309.205 393.51 308.818 392.919 308.608L368.719 294.643L368.719 294.643L368.713 294.64C367.283 293.916 365.703 293.539 364.1 293.539C362.498 293.539 360.918 293.916 359.488 294.64L359.488 294.64L359.482 294.643L335.29 308.61C334.73 308.862 334.248 309.258 333.892 309.758C333.535 310.26 333.319 310.848 333.266 311.462L333.265 311.472L333.266 311.483C333.322 312.097 333.539 312.685 333.895 313.188C334.25 313.69 334.731 314.089 335.289 314.346L359.482 328.313ZM392.609 313.729L392.597 313.733L392.586 313.739L368.391 327.733C367.061 328.405 365.591 328.755 364.1 328.755C362.61 328.755 361.14 328.405 359.81 327.733L335.615 313.739L335.604 313.733L335.592 313.729C335.114 313.571 334.698 313.265 334.403 312.857C334.109 312.448 333.95 311.957 333.95 311.454C333.95 310.95 334.109 310.459 334.403 310.051C334.698 309.642 335.114 309.337 335.592 309.178L335.604 309.174L335.615 309.168L359.81 295.199C361.14 294.527 362.61 294.177 364.1 294.177C365.591 294.177 367.061 294.527 368.391 295.199L392.586 309.168L392.597 309.174L392.609 309.178C393.087 309.337 393.503 309.642 393.797 310.051C394.092 310.459 394.251 310.95 394.251 311.454C394.251 311.957 394.092 312.448 393.797 312.857C393.503 313.265 393.087 313.571 392.609 313.729Z" fill="#5D64D2" stroke="#5D64D2" stroke-width="0.24467"/>
<path opacity="0.4" d="M395.558 306.114V297.832L394.041 296.988C393.613 299.569 390.579 301.282 388.022 301.636L370.688 311.766L363.115 314.506L338.966 302.04L339.529 301.722C337.461 300.755 336.348 298.541 335.235 296.535L333.608 297.501L332.641 297.771V306.199C332.705 306.838 332.936 307.448 333.309 307.97C333.683 308.491 334.186 308.906 334.77 309.172L358.956 323.143C360.55 323.945 362.309 324.363 364.094 324.363C365.878 324.363 367.638 323.945 369.232 323.143L393.43 309.172C394.003 308.909 394.499 308.504 394.869 307.994C395.24 307.484 395.473 306.887 395.546 306.261V306.114H395.558Z" fill="#5D64D2"/>
<path d="M395.558 298.749V293.269L394.041 292.425C393.613 295.006 390.579 296.719 388.022 297.073L370.688 307.215L363.115 309.943L338.966 297.477L339.529 297.159C337.461 296.192 336.348 293.99 335.235 291.972L333.608 292.938L332.641 293.22V298.835C332.705 299.473 332.936 300.084 333.309 300.605C333.683 301.127 334.186 301.541 334.77 301.808L358.956 315.778C360.55 316.581 362.309 316.999 364.094 316.999C365.878 316.999 367.638 316.581 369.232 315.778L393.43 301.808C394.004 301.544 394.501 301.136 394.872 300.624C395.243 300.112 395.475 299.512 395.546 298.884V298.749H395.558Z" fill="url(#paint3_linear)"/>
<path opacity="0.3" d="M388.023 297.073L370.688 307.215L364.106 309.588V317.002C365.895 317.038 367.664 316.617 369.245 315.778L393.442 301.808C394.017 301.544 394.514 301.136 394.885 300.624C395.256 300.112 395.488 299.512 395.559 298.884V298.749V293.269L394.176 292.498H394.03C393.565 295.042 390.555 296.718 388.023 297.073Z" fill="#0F054C"/>
<path d="M358.956 310.175L334.77 296.229C331.932 294.602 331.932 291.935 334.77 290.296L358.956 276.325C360.55 275.523 362.309 275.105 364.094 275.105C365.878 275.105 367.638 275.523 369.232 276.325L393.43 290.296C396.256 291.935 396.256 294.602 393.43 296.229L369.244 310.175C367.65 310.986 365.888 311.408 364.1 311.408C362.312 311.408 360.549 310.986 358.956 310.175Z" fill="url(#paint4_linear)"/>
<path d="M393.442 296.229L369.244 310.176C367.652 310.984 365.892 311.405 364.106 311.405C362.321 311.405 360.56 310.984 358.968 310.176L334.77 296.229C334.242 295.984 333.778 295.62 333.413 295.166C333.048 294.712 332.792 294.18 332.666 293.611C332.495 294.835 333.192 296.058 334.77 296.914L358.956 310.885C360.548 311.693 362.309 312.114 364.094 312.114C365.88 312.114 367.64 311.693 369.232 310.885L393.43 296.914C394.076 296.646 394.624 296.185 394.998 295.594C395.372 295.002 395.555 294.31 395.522 293.611C395.398 294.177 395.146 294.707 394.785 295.161C394.425 295.615 393.965 295.98 393.442 296.229Z" fill="white"/>
<path d="M388.043 287.538V175.521H339.113V287.683C339.113 290.891 341.248 290.57 345.653 293.024C354.377 297.836 372.795 297.836 381.52 293.024C385.991 290.538 388.159 290.794 388.043 287.538Z" fill="url(#paint5_linear)"/>
<g clip-path="url(#clip1)">
<path d="M374.899 237.838C374.551 237.719 374.201 237.609 373.847 237.507C373.907 237.264 373.961 237.025 374.01 236.79C374.806 232.926 374.286 229.813 372.508 228.788C370.804 227.806 368.017 228.83 365.203 231.28C364.925 231.521 364.654 231.77 364.389 232.026C364.212 231.856 364.031 231.689 363.848 231.526C360.898 228.907 357.941 227.803 356.166 228.831C354.463 229.816 353.959 232.743 354.676 236.405C354.747 236.767 354.828 237.128 354.917 237.487C354.499 237.606 354.095 237.732 353.708 237.867C350.25 239.073 348.041 240.962 348.041 242.922C348.041 244.947 350.412 246.977 354.014 248.208C354.307 248.308 354.601 248.4 354.898 248.485C354.801 248.871 354.716 249.26 354.641 249.651C353.958 253.249 354.491 256.106 356.189 257.085C357.943 258.097 360.887 257.057 363.753 254.552C363.985 254.348 364.212 254.139 364.434 253.924C364.721 254.201 365.016 254.469 365.317 254.729C368.094 257.118 370.835 258.083 372.532 257.101C374.284 256.087 374.853 253.017 374.114 249.283C374.056 248.991 373.991 248.7 373.918 248.41C374.125 248.349 374.328 248.286 374.526 248.22C378.27 246.98 380.707 244.974 380.707 242.922C380.707 240.955 378.427 239.053 374.899 237.838ZM374.087 246.896C373.908 246.955 373.725 247.012 373.538 247.067C373.125 245.759 372.567 244.367 371.884 242.929C372.536 241.526 373.072 240.152 373.474 238.851C373.808 238.948 374.132 239.05 374.445 239.158C377.468 240.198 379.311 241.737 379.311 242.922C379.311 244.185 377.32 245.824 374.087 246.896ZM372.745 249.554C373.072 251.205 373.119 252.698 372.902 253.865C372.708 254.914 372.316 255.613 371.833 255.893C370.803 256.489 368.602 255.715 366.227 253.672C365.947 253.43 365.673 253.18 365.406 252.923C366.327 251.916 367.246 250.746 368.144 249.446C369.723 249.306 371.215 249.077 372.568 248.764C372.635 249.033 372.694 249.297 372.745 249.554ZM359.178 255.79C358.172 256.146 357.371 256.156 356.887 255.877C355.856 255.282 355.428 252.988 356.012 249.911C356.082 249.547 356.161 249.186 356.251 248.827C357.589 249.123 359.07 249.335 360.653 249.464C361.557 250.736 362.503 251.905 363.457 252.928C363.254 253.124 363.047 253.315 362.834 253.501C361.567 254.609 360.297 255.395 359.178 255.79ZM354.466 246.888C352.873 246.344 351.558 245.636 350.656 244.864C349.846 244.17 349.437 243.481 349.437 242.922C349.437 241.733 351.21 240.216 354.168 239.185C354.527 239.06 354.902 238.941 355.292 238.831C355.701 240.16 356.237 241.551 356.884 242.956C356.229 244.383 355.685 245.795 355.272 247.141C355.001 247.063 354.733 246.979 354.466 246.888ZM356.045 236.136C355.431 232.999 355.839 230.633 356.865 230.039C357.958 229.406 360.374 230.308 362.921 232.57C363.088 232.717 363.251 232.868 363.412 233.022C362.463 234.041 361.525 235.201 360.629 236.466C359.093 236.608 357.622 236.837 356.27 237.143C356.187 236.809 356.112 236.474 356.045 236.137V236.136ZM370.136 239.616C369.817 239.064 369.485 238.52 369.142 237.982C370.185 238.114 371.183 238.289 372.121 238.503C371.84 239.405 371.489 240.349 371.076 241.316C370.774 240.743 370.46 240.176 370.136 239.616ZM364.39 234.019C365.033 234.717 365.678 235.495 366.312 236.34C365.026 236.279 363.738 236.279 362.451 236.339C363.086 235.502 363.736 234.725 364.39 234.019ZM358.607 239.625C358.286 240.181 357.979 240.744 357.685 241.315C357.278 240.351 356.931 239.403 356.647 238.488C357.579 238.28 358.573 238.109 359.608 237.98C359.262 238.52 358.928 239.069 358.607 239.625V239.625ZM359.638 247.964C358.568 247.845 357.559 247.683 356.627 247.48C356.916 246.549 357.271 245.581 357.686 244.597C357.982 245.167 358.29 245.731 358.612 246.287C358.943 246.858 359.286 247.418 359.638 247.964ZM364.428 251.924C363.767 251.21 363.107 250.421 362.463 249.572C363.088 249.596 363.726 249.609 364.374 249.609C365.04 249.609 365.698 249.594 366.346 249.565C365.71 250.429 365.068 251.22 364.428 251.924ZM371.089 244.546C371.525 245.542 371.893 246.504 372.186 247.42C371.239 247.636 370.216 247.81 369.139 247.939C369.484 247.392 369.818 246.838 370.141 246.277C370.47 245.707 370.786 245.13 371.089 244.546ZM368.933 245.58C368.438 246.44 367.915 247.283 367.366 248.108C366.37 248.179 365.372 248.214 364.374 248.213C363.357 248.213 362.369 248.182 361.417 248.12C360.853 247.296 360.32 246.452 359.82 245.588H359.82C359.322 244.728 358.857 243.85 358.426 242.956C358.856 242.061 359.32 241.182 359.816 240.322L359.816 240.323C360.312 239.462 360.84 238.621 361.4 237.801C362.371 237.728 363.367 237.689 364.374 237.689H364.374C365.385 237.689 366.383 237.728 367.354 237.802C367.908 238.621 368.433 239.459 368.928 240.315C369.426 241.173 369.895 242.047 370.336 242.936C369.9 243.834 369.432 244.716 368.933 245.58ZM371.811 229.997C372.905 230.628 373.33 233.172 372.643 236.508C372.599 236.721 372.55 236.938 372.496 237.157C371.141 236.845 369.669 236.612 368.129 236.467C367.231 235.189 366.301 234.027 365.367 233.021C365.612 232.785 365.863 232.555 366.119 232.332C368.53 230.233 370.784 229.405 371.811 229.997ZM364.374 240.005C365.985 240.005 367.291 241.311 367.291 242.922C367.291 244.533 365.985 245.839 364.374 245.839C362.763 245.839 361.457 244.533 361.457 242.922C361.457 241.311 362.763 240.005 364.374 240.005Z" fill="#00D8FF"/>
</g>
<path d="M443.845 217.614C444.029 218.163 444.088 218.747 444.016 219.322C443.917 219.691 443.673 219.81 443.845 220.351C443.943 220.636 444.013 220.929 444.056 221.228C444.188 221.815 444.201 222.111 444.056 222.355C443.951 222.575 443.921 222.823 443.97 223.061C443.974 223.557 443.912 224.052 443.785 224.532C443.261 225.344 442.632 226.082 441.912 226.728C441.616 226.952 438.879 228.588 436.729 228.759C434.93 228.884 433.126 228.884 431.327 228.759C430.18 228.687 429.665 228.759 428.907 228.218C428.557 228.004 428.257 227.716 428.03 227.374C427.802 227.033 427.651 226.646 427.588 226.24C427.344 225.211 427.074 223.602 426.975 223.035C426.876 222.468 427.245 222.303 426.434 221.056C425.623 219.81 425.629 219.737 425.016 218.755C424.403 217.772 420.789 211.375 420.518 210.128C420.248 208.882 420.228 208.315 420.815 207.556C421.402 206.798 422.84 205.934 423.38 205.386C423.921 204.839 427.047 202.036 428.076 201.594C429.965 200.605 432.037 200.015 434.163 199.86C437.012 199.761 438.832 200.051 439.492 200.374C439.754 200.472 439.981 200.643 440.146 200.868C440.311 201.093 440.407 201.362 440.422 201.641C440.521 202.254 440.422 203.5 440.422 204.061C440.574 205.224 440.835 206.369 441.2 207.484C441.658 208.42 442.215 209.304 442.862 210.122C443.336 210.73 443.602 211.474 443.62 212.245C443.646 213.02 443.622 213.795 443.548 214.567C443.595 215.587 443.694 216.604 443.845 217.614Z" fill="#EFC0BE"/>
<path d="M428.907 228.218C429.666 228.786 430.18 228.687 431.328 228.759C433.126 228.884 434.931 228.884 436.729 228.759C438.879 228.588 441.616 226.952 441.913 226.728C442.632 226.082 443.262 225.344 443.786 224.532C443.859 224.271 443.908 224.004 443.931 223.734C444.228 224.619 444.468 225.522 444.65 226.438C444.65 226.781 442.77 231.714 437.758 232.057C432.746 232.4 430.279 231.397 429.237 230.883C428.175 230.269 427.151 229.59 426.17 228.851L427.72 226.741C427.93 227.358 428.35 227.881 428.907 228.218Z" fill="#454658"/>
<path d="M438.344 253.035C438.516 256.333 438.614 257.487 438.463 258.311C438.311 259.136 438.291 260.995 437.487 261.853C436.682 262.71 436.286 262.783 436.168 263.297C435.725 264.248 435.157 265.135 434.479 265.935C433.801 266.93 433.251 268.007 432.844 269.14C432.58 269.898 432.416 270.688 432.356 271.488C432.426 272.338 432.675 273.162 433.088 273.908C433.332 274.271 435.31 276.645 435.455 276.935C435.601 277.226 435.95 277.595 436.049 277.766C436.148 277.938 435.851 279.798 435.581 279.916C434.492 280.253 433.368 280.459 432.23 280.53C431.696 280.431 429.593 278.597 429.593 278.597C429.593 278.597 427.713 274.172 427.614 273.908C427.436 273.38 427.36 272.823 427.39 272.266C427.515 271.851 428.616 270.413 429.006 269.087C429.395 267.762 429.25 264.471 429.52 263.244C429.79 262.018 429.962 260.362 430.397 259.676C430.994 258.957 431.656 258.295 432.376 257.698C432.376 257.698 431.004 255.258 430.905 253.569C430.806 251.881 434.202 249.975 435.33 250.12C436.458 250.265 438.344 253.035 438.344 253.035Z" fill="#EFC0BE"/>
<path d="M436.022 277.773C436.509 278.247 436.899 278.812 437.17 279.435C437.315 280.158 437.315 280.902 437.17 281.625C436.938 282.005 436.605 282.314 436.208 282.517C435.811 282.719 435.365 282.808 434.921 282.772C434.08 282.684 433.256 282.475 432.474 282.152C431.776 281.773 431.114 281.331 430.496 280.833C430.409 280.736 430.33 280.632 430.258 280.523L431.729 279.864L436.022 277.773Z" fill="#454658"/>
<path d="M427.365 272.273C427.609 273.071 427.938 274.093 427.938 274.093C427.938 274.093 428.796 276.395 429.257 277.285C429.719 278.175 429.468 278.083 430.095 278.604C430.721 279.125 431.717 279.851 431.717 279.851L430.247 280.51C429.827 279.91 429.448 279.282 429.112 278.631C429.007 278.327 428.209 276.553 428.037 276.138C427.866 275.722 427.483 274.819 427.325 274.331C427.167 273.843 427.074 272.484 427.365 272.273Z" fill="#454658"/>
<path d="M445.091 256.9C444.025 258.46 443.053 260.083 442.183 261.76C441.958 262.42 441.523 263.699 441.523 263.699C442.07 264.446 442.684 265.141 443.356 265.777C444.306 266.627 444.985 267.096 445.249 267.36C445.513 267.623 446.568 268.435 446.568 268.435L443.132 270.723C442.199 270.056 441.317 269.32 440.494 268.52C439.068 267.379 437.954 265.895 437.256 264.207C437.192 263.877 437.169 263.54 437.19 263.205L436.663 264.161C436.64 264.125 436.621 264.087 436.603 264.049C436.778 263.66 436.999 263.295 437.263 262.961C437.673 262.277 437.995 261.543 438.219 260.778C438.318 260.514 438.714 257.533 438.76 256.781C438.806 256.029 438.865 254.73 439.215 254.288C439.564 253.846 440.033 252.494 440.31 252.039C440.587 251.584 448.322 249.685 448.322 249.685C448.764 251.347 449.226 251.591 448.81 252.791C448.395 253.991 447.689 253.912 446.779 254.842C446.125 255.448 445.557 256.14 445.091 256.9Z" fill="#EFC0BE"/>
<path d="M436.353 264.735L437.203 263.185C437.183 263.521 437.205 263.857 437.269 264.187C437.968 265.875 439.082 267.359 440.508 268.501C441.33 269.3 442.212 270.036 443.146 270.703L441.919 271.514C441.889 271.477 441.862 271.438 441.84 271.396C441.617 270.457 441.053 269.634 440.257 269.087C439.419 268.626 438.793 268.428 438.278 268.138C437.713 267.88 437.202 267.515 436.775 267.063C436.485 266.321 436.342 265.531 436.353 264.735Z" fill="#454658"/>
<path d="M446.608 268.435C446.608 268.435 448.323 270.67 448.323 271.33C448.323 271.989 448.138 273.355 446.259 273.209C444.379 273.064 442.645 272.484 441.952 271.528L443.179 270.717L446.608 268.435Z" fill="#454658"/>
<path d="M424.165 245.557C424.237 245.115 423.967 230.711 426.143 228.852C427.123 229.59 428.148 230.269 429.21 230.883C430.252 231.41 432.719 232.426 437.731 232.057C442.743 231.687 444.596 226.781 444.623 226.438C446.318 229.775 447.623 232.373 448.83 234.015C450.037 235.658 453.394 240.729 453.519 240.861C453.733 241.164 453.929 241.479 454.106 241.804C453.969 242.195 453.688 242.52 453.321 242.712C452.954 242.904 452.527 242.95 452.128 242.839C451.884 243.453 451.739 245.141 450.103 245.702C450.763 246.651 451.224 247.997 450.71 248.584C450.195 249.171 448.125 250.76 447.9 251.03C446.808 251.883 445.648 252.644 444.431 253.306C443.91 253.573 443.349 253.754 442.769 253.84C442.274 253.695 441.766 253.598 441.253 253.55C440.903 253.52 440.551 253.57 440.224 253.695C439.707 253.871 439.156 253.925 438.615 253.853C438.163 253.702 437.679 253.682 437.216 253.794C436.709 253.865 436.209 253.986 435.726 254.157C435.341 254.29 434.93 254.333 434.526 254.282C434.526 254.282 434.381 255.311 434.235 255.403C433.771 255.667 433.252 255.818 432.719 255.845C432.376 255.746 432.303 255.456 431.597 255.258C430.906 255.068 430.203 254.921 429.494 254.816C428.922 254.753 428.357 254.641 427.805 254.48C427.001 254.255 425.998 253.965 425.827 253.477C425.727 253.157 425.727 252.815 425.827 252.495C425.476 252.458 425.124 252.442 424.772 252.448C424.45 252.417 424.136 252.325 423.848 252.178C423.848 252.178 424.092 245.992 424.165 245.557Z" fill="#FF6240"/>
<path d="M421.119 208.084C420.393 208.43 419.798 209.001 419.424 209.713C419.21 210.227 419.051 210.762 418.949 211.309C418.903 211.737 419.015 218.102 418.949 218.491C418.883 218.88 418.593 220.693 418.395 221.788C418.197 222.883 418.078 224.426 417.927 225.04C417.742 226.35 417.702 227.677 417.808 228.997C418.126 229.754 418.7 230.375 419.43 230.751C420.975 231.534 422.563 232.229 424.185 232.835C424.898 233.079 428.736 234.497 429.224 234.622L432.251 235.381C432.818 235.526 433.992 236.086 434.467 236.258C434.942 236.429 435.667 236.831 436.129 237.029C436.667 237.251 437.25 237.343 437.83 237.3C438.408 237.045 438.947 236.713 439.433 236.31C439.98 235.875 440.443 235.343 440.798 234.741C441.016 234.246 441.169 233.725 441.253 233.191C441.438 231.826 439.994 231.074 439.763 231.212C439.371 231.472 439.031 231.804 438.76 232.189C438.509 232.623 438.201 233.023 437.844 233.376C437.526 233.727 437.137 234.006 436.703 234.193C436.434 234.254 436.152 234.229 435.898 234.121C435.613 233.938 435.34 233.738 435.08 233.521C434.87 233.368 434.649 233.23 434.421 233.105C434.699 233.073 434.96 232.953 435.166 232.762C435.41 232.466 435.681 231.991 435.483 231.892C435.149 231.771 434.793 231.726 434.441 231.76C433.961 231.845 433.476 231.898 432.99 231.918C432.672 231.878 432.349 231.911 432.047 232.017C431.953 232.054 431.851 232.067 431.75 232.054C431.65 232.042 431.555 232.004 431.473 231.945C431.473 231.945 431.532 231.832 430.629 231.476C429.87 231.189 429.128 230.858 428.406 230.487C428.004 230.269 424.852 228.284 424.555 228.073C424.258 227.862 423.038 226.946 422.062 226.979C422.721 225.58 423.414 222.949 423.447 222.903C423.48 222.857 424.39 219.091 424.443 218.636C424.495 218.181 424.687 216.387 424.766 215.879C424.845 215.371 424.931 213.901 424.931 213.828C424.931 213.756 425.498 212.166 425.498 212.166L421.119 208.084Z" fill="#EFC0BE"/>
<path d="M426.902 217.178C427.044 215.893 426.968 214.593 426.678 213.333C426.48 212.865 423.334 209.845 420.433 208.295C420.522 208.055 420.651 207.832 420.815 207.635C421.402 206.877 422.84 206.013 423.38 205.465C423.611 205.235 424.317 204.588 425.128 203.883L427.324 204.799C428.485 205.294 430.259 206.837 431.281 207.721C433.465 209.855 435.518 212.119 437.428 214.501C437.009 211.176 435.704 208.026 433.649 205.38C434.876 204.127 435.462 202.531 436.096 199.926C437.25 199.897 438.4 200.073 439.492 200.447C439.754 200.544 439.981 200.716 440.146 200.941C440.311 201.166 440.407 201.434 440.422 201.713C440.521 202.326 440.422 203.573 440.422 204.133C440.574 205.296 440.835 206.442 441.2 207.556C441.658 208.492 442.215 209.377 442.862 210.194C443.336 210.802 443.602 211.547 443.62 212.318C443.646 213.092 443.622 213.868 443.548 214.639C443.588 215.639 443.678 216.636 443.818 217.627C444.003 218.176 444.061 218.76 443.99 219.335C443.891 219.704 443.647 219.823 443.818 220.364C443.916 220.649 443.987 220.942 444.029 221.241C444.161 221.828 444.174 222.124 444.029 222.368C443.925 222.588 443.895 222.836 443.944 223.074C443.948 223.57 443.886 224.065 443.759 224.545C443.235 225.357 442.605 226.095 441.886 226.741C441.589 226.965 438.852 228.601 436.702 228.772C434.904 228.897 433.099 228.897 431.301 228.772C430.154 228.7 429.639 228.772 428.881 228.231C428.53 228.017 428.231 227.729 428.003 227.387C427.775 227.046 427.625 226.659 427.562 226.253C427.318 225.224 427.047 223.615 426.948 223.048C426.849 222.481 427.219 222.316 426.408 221.069C425.596 219.823 425.603 219.75 424.99 218.768L424.488 217.917L424.554 217.317C425.728 218.787 426.718 217.6 426.902 217.178Z" fill="#FF6240"/>
<path d="M440.053 224.314C439.875 223.727 439.156 221.973 439.031 221.498C438.905 221.023 438.701 220.08 438.602 219.473C438.462 218.588 438.223 217.721 437.89 216.888C437.56 216.197 437.131 215.557 436.617 214.989C436.01 214.276 435.344 213.723 434.691 213.089C434.136 212.49 433.623 211.853 433.155 211.183C432 210.117 430.787 209.115 429.521 208.183C428.624 207.664 427.763 207.087 426.942 206.455C426.243 205.868 424.924 205.07 424.581 204.661L424.443 204.483L425.155 203.856L427.351 204.773C428.512 205.268 430.286 206.811 431.308 207.695C433.492 209.828 435.545 212.092 437.454 214.474C437.023 211.157 435.709 208.016 433.649 205.38C434.876 204.127 435.463 202.531 436.096 199.926H436.703L436.162 201.575C436.033 202.842 435.774 204.093 435.39 205.307C437.037 208.019 438.001 211.09 438.2 214.257C438.754 215.754 439.644 218.754 439.743 219.064C439.842 219.374 439.987 220.304 440.073 220.773C440.201 221.43 440.402 222.072 440.673 222.685C440.895 223.463 441.058 224.257 441.161 225.059C441.207 225.303 441.233 226.378 441.24 227.13C441.016 227.255 440.745 227.401 440.442 227.552C440.396 226.893 440.336 226.035 440.297 225.857C440.248 225.338 440.166 224.823 440.053 224.314Z" fill="#454658"/>
<path d="M427.264 202.142C427.629 200.978 427.787 199.759 427.732 198.541C427.561 196.925 429.124 198.541 429.124 198.541L434.525 202.821L433.773 203.942C433.773 203.942 428.293 202.274 427.264 202.142Z" fill="#EFC0BE"/>
<path d="M437.112 193.918C437.112 194.63 437.408 195.976 437.369 196.391C437.329 196.806 437.263 198.139 437.244 198.429C437.224 198.719 436.953 200.058 436.907 200.341C436.861 200.625 435.977 204.885 432.95 203.151C431.716 202.538 430.534 201.825 429.415 201.021C429.283 200.935 426.731 198.04 426.665 197.842C426.633 197.438 426.688 197.032 426.825 196.651C426.963 196.27 427.18 195.923 427.463 195.633C428.268 194.92 432.937 193.272 433.88 193.199C434.823 193.126 437.112 193.918 437.112 193.918Z" fill="#EFC0BE"/>
<path d="M437.361 193.43C437.291 194.086 437.144 194.733 436.926 195.356C436.704 196.04 436.302 196.652 435.763 197.128C435.223 197.603 434.566 197.925 433.859 198.059C431.577 198.613 430.99 198.91 429.948 198.943C428.906 198.976 428.418 198.877 427.732 198.943C427.046 199.009 426.037 197.835 425.417 197.341C424.798 196.846 423.953 193.206 424.244 191.445C424.534 189.684 424.765 187.824 425.714 186.947C427.285 185.785 429.188 185.161 431.142 185.166C432.837 185.331 437.803 187.343 438.1 191.478C438.003 192.175 437.75 192.843 437.361 193.43Z" fill="#454658"/>
<path d="M422.938 202.65C422.994 201.267 423.215 199.897 423.598 198.567C423.835 198 424.336 196.589 424.66 195.692C424.771 196.291 425.022 196.856 425.392 197.341C425.794 197.657 426.355 198.257 426.882 198.627C426.745 199.094 426.653 199.573 426.605 200.058C426.638 200.764 426.796 201.458 427.073 202.109C427.491 202.658 427.994 203.137 428.564 203.527C429.082 203.932 429.571 204.372 430.028 204.846C430.199 205.07 432.277 206.389 432.574 206.659C433.21 207.039 433.712 207.608 434.01 208.286C434.308 208.965 434.387 209.719 434.236 210.445C433.84 213.083 433.576 212.918 433.576 212.918C433.071 212.186 432.525 211.484 431.94 210.814C431.281 210.155 431.281 209.713 430.054 209.251C428.828 208.79 427.245 208.295 426.242 207.807C425.24 207.319 424.455 207.022 423.848 206.27C423.156 205.196 422.837 203.924 422.938 202.65Z" fill="#454658"/>
<path d="M443.845 217.614C443.704 216.623 443.614 215.626 443.574 214.626C443.648 213.855 443.672 213.079 443.647 212.305C443.628 211.534 443.362 210.789 442.888 210.181C442.242 209.364 441.685 208.479 441.226 207.543C440.861 206.429 440.601 205.283 440.448 204.12C440.448 203.56 440.521 202.313 440.448 201.7C440.448 201.588 440.409 201.489 440.382 201.39C441.879 202.709 442.585 203.692 442.697 204.76C442.809 205.828 443.798 210.036 445.434 212.212C446.68 214.046 446.997 215.121 447.656 215.345C448.316 215.569 450.954 217.693 451.739 218.154C452.524 218.616 455.089 220.944 455.386 221.162C455.683 221.379 455.676 221.551 455.907 221.491C456.138 221.432 456.606 220.832 456.751 220.7C456.949 220.528 457.088 220.297 457.147 220.041C457.232 219.698 457.107 218.966 457.476 218.807C457.846 218.649 458.222 218.682 458.294 219.038C458.367 219.394 458.354 220.027 458.406 220.357C458.474 220.792 458.711 221.183 459.066 221.445C459.422 221.617 460.998 221.861 461.156 222.045C461.268 222.161 461.356 222.297 461.415 222.447C461.474 222.596 461.502 222.755 461.499 222.916C461.427 223.193 461.255 223.167 461.427 223.536C461.598 223.905 461.644 224.525 461.427 224.624C461.209 224.723 461.084 224.815 461.097 224.927C461.11 225.04 461.242 225.343 461.044 225.554C460.846 225.765 460.457 225.818 460.345 225.917C460.233 226.016 460.253 226.477 460.009 226.728C459.891 226.859 459.745 226.962 459.582 227.03C459.418 227.097 459.242 227.127 459.066 227.117C458.351 227.002 457.657 226.78 457.008 226.457C456.118 225.898 455.257 225.292 454.43 224.644C453.955 224.222 452.82 223.252 452.365 222.916C451.91 222.58 450.229 221.716 449.668 221.386C448.952 220.937 448.202 220.545 447.426 220.212C446.852 219.994 445.289 219.032 444.056 218.491C444.001 218.195 443.931 217.902 443.845 217.614Z" fill="#EFC0BE"/>
<path d="M461.376 271.346L461.376 271.346L461.38 271.348C462.802 272.1 464.391 272.48 466 272.451C467.605 272.481 469.191 272.102 470.608 271.348L470.608 271.348L470.612 271.346L494.812 257.381C495.403 257.171 495.915 256.784 496.277 256.272C496.642 255.757 496.838 255.142 496.838 254.511C496.838 253.88 496.642 253.264 496.277 252.749C495.915 252.237 495.403 251.85 494.812 251.64L470.612 237.675L470.612 237.675L470.606 237.672C469.176 236.949 467.596 236.572 465.994 236.572C464.391 236.572 462.811 236.949 461.382 237.672L461.381 237.672L461.376 237.675L437.183 251.643C436.623 251.894 436.141 252.29 435.785 252.79C435.428 253.292 435.212 253.88 435.16 254.494L435.159 254.505L435.16 254.515C435.215 255.129 435.432 255.718 435.789 256.221C436.144 256.722 436.624 257.121 437.183 257.378L461.376 271.346ZM494.502 256.762L494.49 256.766L494.479 256.772L470.284 270.765C468.954 271.437 467.484 271.787 465.994 271.787C464.503 271.787 463.033 271.437 461.703 270.765L437.508 256.772L437.497 256.766L437.485 256.762C437.007 256.603 436.591 256.298 436.297 255.889C436.002 255.481 435.843 254.99 435.843 254.486C435.843 253.982 436.002 253.491 436.297 253.083C436.591 252.675 437.007 252.369 437.485 252.211L437.497 252.207L437.508 252.2L461.703 238.231C463.033 237.559 464.503 237.209 465.994 237.209C467.484 237.209 468.954 237.559 470.285 238.231L494.479 252.2L494.49 252.207L494.502 252.211C494.98 252.369 495.396 252.675 495.691 253.083C495.985 253.491 496.144 253.982 496.144 254.486C496.144 254.99 495.985 255.481 495.691 255.889C495.396 256.298 494.98 256.603 494.502 256.762Z" fill="#5D64D2" stroke="#5D64D2" stroke-width="0.24467"/>
<path opacity="0.4" d="M497.452 249.146V240.864L495.935 240.02C495.507 242.601 492.473 244.314 489.916 244.669L472.581 254.798L465.008 257.539L440.859 245.073L441.422 244.755C439.355 243.788 438.241 241.574 437.128 239.568L435.501 240.534L434.535 240.803V249.232C434.599 249.87 434.829 250.481 435.202 251.002C435.576 251.524 436.08 251.938 436.663 252.205L460.849 266.175C462.443 266.978 464.203 267.396 465.987 267.396C467.772 267.396 469.531 266.978 471.125 266.175L495.323 252.205C495.896 251.942 496.392 251.536 496.763 251.026C497.133 250.516 497.366 249.919 497.439 249.293V249.146H497.452Z" fill="#5D64D2"/>
<path d="M497.452 241.782V236.301L495.935 235.457C495.507 238.038 492.473 239.751 489.916 240.106L472.581 250.247L465.008 252.975L440.859 240.509L441.422 240.191C439.355 239.225 438.241 237.023 437.128 235.004L435.501 235.971L434.535 236.252V241.867C434.599 242.506 434.829 243.116 435.202 243.638C435.576 244.159 436.08 244.574 436.663 244.84L460.849 258.811C462.443 259.613 464.203 260.031 465.987 260.031C467.772 260.031 469.531 259.613 471.125 258.811L495.323 244.84C495.898 244.576 496.395 244.169 496.765 243.656C497.136 243.144 497.368 242.545 497.439 241.916V241.782H497.452Z" fill="url(#paint6_linear)"/>
<path opacity="0.3" d="M489.916 240.106L472.581 250.247L466 252.621V260.034C467.789 260.071 469.557 259.65 471.138 258.811L495.336 244.84C495.911 244.576 496.407 244.169 496.778 243.656C497.149 243.144 497.381 242.545 497.452 241.916V241.782V236.301L496.07 235.53H495.923C495.458 238.075 492.449 239.751 489.916 240.106Z" fill="#0F054C"/>
<path d="M460.849 253.208L436.664 239.262C433.825 237.635 433.825 234.968 436.664 233.328L460.849 219.358C462.443 218.555 464.203 218.137 465.987 218.137C467.772 218.137 469.531 218.555 471.125 219.358L495.323 233.328C498.149 234.968 498.149 237.635 495.323 239.262L471.138 253.208C469.544 254.018 467.781 254.44 465.993 254.44C464.206 254.44 462.443 254.018 460.849 253.208Z" fill="url(#paint7_linear)"/>
<path d="M495.336 239.262L471.138 253.208C469.546 254.016 467.785 254.437 466 254.437C464.214 254.437 462.454 254.016 460.862 253.208L436.664 239.262C436.135 239.016 435.671 238.652 435.306 238.198C434.941 237.744 434.686 237.212 434.559 236.644C434.388 237.867 435.086 239.09 436.664 239.947L460.849 253.917C462.442 254.726 464.202 255.147 465.987 255.147C467.773 255.147 469.533 254.726 471.125 253.917L495.323 239.947C495.969 239.678 496.517 239.217 496.891 238.626C497.266 238.035 497.449 237.343 497.415 236.644C497.291 237.21 497.039 237.74 496.678 238.193C496.318 238.647 495.859 239.012 495.336 239.262Z" fill="white"/>
<path d="M489.94 234.62V118.101H441.006V234.771C441.006 238.107 443.142 237.774 447.546 240.327C456.272 245.332 474.691 245.332 483.417 240.327C487.888 237.741 490.057 238.007 489.94 234.62Z" fill="url(#paint8_linear)"/>
<g clip-path="url(#clip2)">
<g clip-path="url(#clip3)">
<path d="M479.029 195.011C478.864 194.512 478.433 194.165 477.875 194.081C477.612 194.042 477.31 194.059 476.954 194.132C476.332 194.261 475.871 194.309 475.534 194.319C476.805 192.174 477.838 189.728 478.432 187.426C479.394 183.703 478.88 182.007 478.279 181.24C476.69 179.209 474.372 178.118 471.575 178.085C470.083 178.067 468.773 178.361 468.09 178.573C467.453 178.461 466.769 178.398 466.052 178.387C464.706 178.365 463.517 178.659 462.502 179.261C461.939 179.071 461.037 178.803 459.994 178.632C457.543 178.23 455.567 178.543 454.122 179.564C452.372 180.8 451.561 182.948 451.711 185.948C451.758 186.9 452.291 189.798 453.13 192.546C453.612 194.125 454.126 195.437 454.658 196.445C455.412 197.874 456.219 198.715 457.125 199.017C457.633 199.187 458.555 199.305 459.525 198.497C459.648 198.646 459.812 198.794 460.03 198.931C460.307 199.106 460.645 199.248 460.983 199.333C462.2 199.637 463.34 199.561 464.313 199.134C464.319 199.307 464.323 199.473 464.327 199.615C464.334 199.847 464.34 200.074 464.348 200.286C464.406 201.721 464.504 202.838 464.793 203.618C464.809 203.661 464.83 203.727 464.853 203.796C464.997 204.238 465.239 204.978 465.853 205.557C466.489 206.158 467.258 206.342 467.962 206.342C468.315 206.342 468.653 206.295 468.948 206.232C470.002 206.006 471.199 205.662 472.065 204.429C472.884 203.264 473.282 201.508 473.354 198.742C473.363 198.664 473.371 198.589 473.38 198.518L473.397 198.372L473.59 198.389L473.639 198.392C474.713 198.441 476.025 198.214 476.832 197.839C477.468 197.544 479.51 196.466 479.029 195.011Z" fill="black"/>
<path d="M477.194 195.294C474.002 195.952 473.782 194.872 473.782 194.872C477.152 189.871 478.561 183.524 477.345 181.971C474.029 177.733 468.288 179.737 468.192 179.789L468.161 179.795C467.53 179.664 466.825 179.586 466.032 179.573C464.587 179.549 463.492 179.951 462.661 180.582C462.661 180.582 452.419 176.363 452.895 185.888C452.997 187.915 455.8 201.222 459.143 197.202C460.365 195.732 461.546 194.49 461.546 194.49C462.133 194.879 462.835 195.078 463.571 195.007L463.628 194.958C463.61 195.141 463.618 195.319 463.651 195.53C462.789 196.493 463.043 196.662 461.321 197.016C459.578 197.375 460.602 198.015 461.27 198.182C462.08 198.384 463.955 198.671 465.221 196.898L465.171 197.101C465.508 197.371 465.745 198.859 465.705 200.208C465.666 201.557 465.639 202.483 465.905 203.206C466.171 203.929 466.436 205.557 468.7 205.072C470.591 204.667 471.571 203.616 471.707 201.864C471.804 200.619 472.023 200.803 472.037 199.689L472.213 199.162C472.415 197.473 472.245 196.929 473.41 197.182L473.693 197.207C474.551 197.246 475.673 197.069 476.332 196.763C477.751 196.104 478.592 195.005 477.193 195.294H477.194Z" fill="#336791"/>
<path d="M463.26 186.795C462.972 186.755 462.712 186.792 462.58 186.891C462.506 186.947 462.483 187.013 462.477 187.057C462.46 187.176 462.544 187.307 462.595 187.375C462.739 187.566 462.95 187.698 463.159 187.727C463.189 187.731 463.219 187.733 463.249 187.733C463.598 187.733 463.914 187.462 463.942 187.261C463.977 187.011 463.613 186.844 463.26 186.795" fill="white"/>
<path d="M472.788 186.802C472.761 186.606 472.411 186.55 472.079 186.596C471.748 186.642 471.427 186.792 471.453 186.989C471.475 187.142 471.752 187.403 472.079 187.403C472.107 187.403 472.134 187.401 472.163 187.398C472.381 187.367 472.541 187.228 472.618 187.149C472.733 187.027 472.801 186.891 472.788 186.802Z" fill="white"/>
<path d="M478.255 195.219C478.134 194.851 477.742 194.733 477.091 194.867C475.159 195.266 474.467 194.99 474.24 194.822C475.742 192.534 476.977 189.768 477.644 187.188C477.96 185.965 478.134 184.83 478.148 183.905C478.164 182.889 477.991 182.143 477.634 181.687C476.196 179.849 474.085 178.863 471.53 178.836C469.773 178.817 468.289 179.266 468.001 179.393C467.395 179.242 466.734 179.149 466.015 179.138C464.697 179.116 463.557 179.432 462.613 180.076C462.203 179.923 461.143 179.559 459.848 179.351C457.608 178.99 455.828 179.263 454.557 180.163C453.042 181.237 452.342 183.156 452.477 185.868C452.523 186.781 453.043 189.587 453.863 192.275C454.943 195.813 456.117 197.816 457.352 198.228C457.497 198.276 457.663 198.309 457.847 198.309C458.298 198.309 458.85 198.106 459.425 197.415C460.126 196.575 460.851 195.754 461.599 194.955C462.085 195.216 462.618 195.361 463.164 195.376C463.165 195.39 463.166 195.404 463.167 195.418C463.073 195.53 462.982 195.644 462.892 195.759C462.514 196.239 462.435 196.339 461.218 196.589C460.872 196.661 459.953 196.85 459.939 197.495C459.925 198.199 461.026 198.494 461.151 198.526C461.589 198.635 462.01 198.689 462.412 198.689C463.389 198.689 464.248 198.368 464.935 197.747C464.914 200.257 465.019 202.73 465.32 203.483C465.567 204.1 466.17 205.608 468.075 205.608C468.354 205.608 468.662 205.575 469 205.502C470.988 205.076 471.851 204.198 472.185 202.261C472.363 201.226 472.67 198.754 472.814 197.428C473.119 197.523 473.51 197.567 473.934 197.567C474.818 197.567 475.837 197.379 476.476 197.082C477.195 196.749 478.491 195.93 478.255 195.219ZM473.522 186.26C473.515 186.651 473.462 187.007 473.404 187.378C473.343 187.777 473.279 188.189 473.263 188.69C473.248 189.177 473.309 189.683 473.367 190.173C473.486 191.163 473.608 192.182 473.136 193.187C473.057 193.048 472.988 192.904 472.927 192.756C472.868 192.614 472.74 192.386 472.564 192.069C471.877 190.838 470.269 187.953 471.092 186.776C471.337 186.426 471.96 186.066 473.522 186.26ZM471.628 179.629C473.918 179.679 475.729 180.536 477.011 182.175C477.995 183.431 476.912 189.15 473.777 194.084C473.745 194.044 473.714 194.004 473.682 193.964L473.642 193.914C474.452 192.576 474.294 191.253 474.153 190.079C474.095 189.597 474.04 189.142 474.054 188.715C474.068 188.262 474.128 187.874 474.186 187.498C474.257 187.035 474.33 186.556 474.31 185.992C474.325 185.932 474.331 185.862 474.323 185.779C474.272 185.238 473.654 183.617 472.394 182.151C471.705 181.349 470.7 180.451 469.327 179.845C469.917 179.723 470.725 179.609 471.628 179.629ZM458.817 196.91C458.183 197.671 457.746 197.525 457.602 197.477C456.665 197.165 455.578 195.184 454.62 192.044C453.79 189.327 453.306 186.595 453.267 185.829C453.146 183.406 453.734 181.717 455.013 180.809C457.096 179.333 460.519 180.216 461.895 180.665C461.875 180.684 461.855 180.703 461.835 180.722C459.578 183.002 459.631 186.898 459.637 187.136C459.637 187.228 459.644 187.358 459.655 187.537C459.694 188.192 459.766 189.411 459.573 190.792C459.393 192.075 459.789 193.331 460.658 194.238C460.747 194.331 460.841 194.419 460.939 194.503C460.552 194.917 459.711 195.833 458.817 196.91ZM461.229 193.691C460.529 192.96 460.211 191.943 460.356 190.902C460.56 189.443 460.485 188.172 460.444 187.49C460.439 187.394 460.434 187.311 460.431 187.245C460.761 186.952 462.289 186.133 463.379 186.383C463.876 186.497 464.179 186.836 464.305 187.418C464.957 190.434 464.392 191.691 463.937 192.701C463.843 192.91 463.755 193.106 463.679 193.31L463.621 193.467C463.472 193.865 463.334 194.235 463.249 194.586C462.504 194.584 461.78 194.266 461.229 193.691V193.691ZM461.343 197.758C461.126 197.704 460.93 197.61 460.816 197.531C460.912 197.486 461.082 197.425 461.378 197.364C462.809 197.069 463.03 196.861 463.513 196.249C463.624 196.108 463.749 195.949 463.923 195.755L463.923 195.754C464.182 195.465 464.3 195.514 464.515 195.603C464.689 195.675 464.858 195.893 464.927 196.133C464.959 196.246 464.996 196.461 464.876 196.629C463.868 198.041 462.399 198.022 461.343 197.758ZM468.834 204.729C467.083 205.104 466.463 204.211 466.055 203.189C465.791 202.53 465.661 199.557 465.753 196.273C465.754 196.229 465.748 196.187 465.736 196.147C465.725 196.069 465.709 195.991 465.687 195.915C465.551 195.438 465.217 195.038 464.818 194.872C464.659 194.806 464.367 194.686 464.017 194.775C464.092 194.467 464.221 194.12 464.362 193.743L464.421 193.585C464.487 193.407 464.57 193.222 464.658 193.026C465.134 191.969 465.786 190.521 465.078 187.251C464.813 186.026 463.929 185.428 462.588 185.567C461.784 185.65 461.049 185.974 460.682 186.16C460.603 186.2 460.531 186.239 460.464 186.276C460.566 185.042 460.953 182.736 462.4 181.276C463.311 180.358 464.524 179.904 466.002 179.928C468.915 179.976 470.783 181.471 471.837 182.717C472.745 183.79 473.237 184.871 473.433 185.454C471.957 185.304 470.953 185.596 470.444 186.323C469.337 187.906 471.05 190.978 471.873 192.454C472.024 192.725 472.154 192.959 472.195 193.058C472.464 193.708 472.811 194.142 473.064 194.458C473.142 194.555 473.217 194.649 473.274 194.732C472.827 194.86 472.024 195.158 472.097 196.647C472.038 197.394 471.619 200.891 471.405 202.127C471.124 203.759 470.523 204.367 468.834 204.729V204.729ZM476.143 196.365C475.686 196.577 474.921 196.736 474.194 196.77C473.391 196.808 472.983 196.681 472.887 196.602C472.842 195.674 473.187 195.577 473.552 195.475C473.61 195.459 473.666 195.443 473.72 195.424C473.753 195.451 473.79 195.479 473.831 195.505C474.476 195.931 475.627 195.977 477.251 195.642L477.269 195.638C477.05 195.843 476.675 196.118 476.143 196.365Z" fill="white"/>
</g>
</g>
<path d="M547.365 216.989L547.365 216.989L547.369 216.991C548.791 217.743 550.381 218.122 551.989 218.094C553.594 218.124 555.181 217.744 556.598 216.991L556.598 216.991L556.602 216.989L580.802 203.023C581.393 202.814 581.904 202.426 582.267 201.915C582.632 201.4 582.828 200.784 582.828 200.153C582.828 199.522 582.632 198.907 582.267 198.392C581.904 197.88 581.393 197.493 580.802 197.283L556.602 183.318L556.602 183.318L556.596 183.315C555.166 182.591 553.586 182.214 551.983 182.214C550.381 182.214 548.801 182.591 547.371 183.315L547.371 183.315L547.365 183.318L523.173 197.285C522.613 197.537 522.131 197.933 521.775 198.433C521.418 198.935 521.202 199.523 521.149 200.137L521.148 200.147L521.149 200.158C521.205 200.772 521.422 201.36 521.778 201.863C522.133 202.365 522.614 202.764 523.172 203.021L547.365 216.989ZM580.492 202.404L580.48 202.408L580.469 202.415L556.274 216.408C554.944 217.08 553.474 217.43 551.983 217.43C550.493 217.43 549.023 217.08 547.693 216.408L523.498 202.415L523.487 202.408L523.475 202.404C522.997 202.246 522.581 201.94 522.286 201.532C521.992 201.123 521.833 200.632 521.833 200.129C521.833 199.625 521.992 199.134 522.286 198.726C522.581 198.317 522.997 198.012 523.475 197.853L523.487 197.849L523.498 197.843L547.693 183.874C549.023 183.202 550.493 182.852 551.983 182.852C553.474 182.852 554.944 183.202 556.274 183.874L580.469 197.843L580.48 197.849L580.492 197.853C580.97 198.012 581.386 198.317 581.681 198.726C581.975 199.134 582.134 199.625 582.134 200.129C582.134 200.632 581.975 201.123 581.681 201.532C581.386 201.94 580.97 202.246 580.492 202.404Z" fill="#5D64D2" stroke="#5D64D2" stroke-width="0.24467"/>
<path opacity="0.4" d="M583.442 194.789V186.507L581.925 185.663C581.496 188.244 578.463 189.957 575.906 190.311L558.571 200.441L550.998 203.181L526.849 190.715L527.412 190.397C525.345 189.431 524.231 187.216 523.118 185.21L521.491 186.177L520.525 186.446V194.875C520.589 195.513 520.819 196.123 521.192 196.645C521.566 197.166 522.07 197.581 522.653 197.847L546.839 211.818C548.433 212.62 550.193 213.038 551.977 213.038C553.762 213.038 555.521 212.62 557.115 211.818L581.313 197.847C581.886 197.585 582.382 197.179 582.753 196.669C583.123 196.159 583.356 195.562 583.429 194.936V194.789H583.442Z" fill="#5D64D2"/>
<path d="M583.442 187.424V181.944L581.925 181.099C581.496 183.681 578.463 185.393 575.906 185.748L558.571 195.89L550.998 198.618L526.849 186.152L527.412 185.834C525.345 184.867 524.231 182.665 523.118 180.647L521.491 181.613L520.525 181.895V187.51C520.589 188.148 520.819 188.759 521.192 189.28C521.566 189.802 522.07 190.216 522.653 190.483L546.839 204.453C548.433 205.256 550.193 205.674 551.977 205.674C553.762 205.674 555.521 205.256 557.115 204.453L581.313 190.483C581.888 190.219 582.385 189.811 582.755 189.299C583.126 188.787 583.358 188.187 583.429 187.559V187.424H583.442Z" fill="url(#paint9_linear)"/>
<path opacity="0.3" d="M575.906 185.748L558.571 195.89L551.99 198.263V205.677C553.779 205.714 555.547 205.292 557.128 204.453L581.326 190.483C581.901 190.219 582.397 189.811 582.768 189.299C583.139 188.787 583.371 188.187 583.442 187.559V187.424V181.944L582.06 181.173H581.913C581.448 183.718 578.439 185.394 575.906 185.748Z" fill="#0F054C"/>
<path d="M546.839 198.85L522.654 184.904C519.815 183.277 519.815 180.61 522.654 178.971L546.839 165C548.433 164.198 550.193 163.78 551.977 163.78C553.762 163.78 555.521 164.198 557.115 165L581.313 178.971C584.139 180.61 584.139 183.277 581.313 184.904L557.128 198.85C555.534 199.661 553.771 200.083 551.983 200.083C550.196 200.083 548.433 199.661 546.839 198.85Z" fill="url(#paint10_linear)"/>
<path d="M581.326 184.904L557.128 198.85C555.536 199.658 553.775 200.08 551.99 200.08C550.204 200.08 548.444 199.658 546.852 198.85L522.654 184.904C522.125 184.659 521.661 184.295 521.296 183.841C520.931 183.387 520.676 182.855 520.549 182.286C520.378 183.509 521.076 184.733 522.654 185.589L546.839 199.56C548.432 200.368 550.192 200.789 551.977 200.789C553.763 200.789 555.523 200.368 557.115 199.56L581.313 185.589C581.959 185.321 582.507 184.859 582.881 184.268C583.256 183.677 583.439 182.985 583.405 182.286C583.281 182.852 583.029 183.382 582.668 183.836C582.308 184.29 581.849 184.655 581.326 184.904Z" fill="white"/>
<path d="M575.931 180.263V63.7435H526.997V180.413C526.997 183.75 529.132 183.417 533.537 185.969C542.262 190.974 560.682 190.974 569.407 185.969C573.879 183.383 576.047 183.65 575.931 180.263Z" fill="url(#paint11_linear)"/>
<g clip-path="url(#clip4)">
<path d="M566.147 145.995C564.544 146.832 556.243 150.252 554.476 151.176C552.709 152.099 551.727 152.09 550.331 151.422C548.935 150.753 540.101 147.176 538.509 146.414C537.714 146.033 537.296 145.712 537.296 145.408V142.366C537.296 142.366 548.797 139.857 550.653 139.189C552.51 138.522 553.154 138.497 554.734 139.077C556.314 139.658 565.762 141.366 567.323 141.939L567.322 144.938C567.323 145.239 566.962 145.569 566.147 145.995Z" fill="#912626"/>
<path d="M566.146 142.971C564.544 143.807 556.243 147.228 554.476 148.151C552.708 149.075 551.727 149.066 550.331 148.397C548.934 147.729 540.101 144.152 538.51 143.39C536.919 142.628 536.885 142.103 538.448 141.49C540.011 140.876 548.796 137.422 550.653 136.754C552.51 136.087 553.154 136.062 554.734 136.643C556.314 137.223 564.565 140.514 566.127 141.087C567.688 141.661 567.748 142.134 566.146 142.971Z" fill="#C6302B"/>
<path d="M566.147 141.073C564.544 141.91 556.243 145.33 554.476 146.254C552.709 147.177 551.727 147.168 550.331 146.5C548.934 145.831 540.101 142.254 538.509 141.492C537.714 141.111 537.296 140.79 537.296 140.486V137.444C537.296 137.444 548.797 134.935 550.653 134.267C552.51 133.6 553.154 133.576 554.734 134.156C556.314 134.736 565.762 136.444 567.323 137.017L567.322 140.016C567.323 140.317 566.962 140.647 566.147 141.073Z" fill="#912626"/>
<path d="M566.146 138.049C564.544 138.886 556.243 142.306 554.476 143.23C552.708 144.153 551.727 144.144 550.331 143.475C548.934 142.807 540.101 139.23 538.51 138.468C536.919 137.706 536.885 137.181 538.448 136.568C540.011 135.954 548.797 132.5 550.653 131.832C552.51 131.165 553.154 131.141 554.734 131.721C556.314 132.301 564.565 135.592 566.127 136.165C567.688 136.739 567.748 137.212 566.146 138.049Z" fill="#C6302B"/>
<path d="M566.147 135.968C564.544 136.805 556.243 140.226 554.476 141.15C552.709 142.073 551.727 142.064 550.331 141.395C548.934 140.727 540.101 137.15 538.509 136.388C537.714 136.007 537.296 135.685 537.296 135.382V132.34C537.296 132.34 548.797 129.831 550.653 129.163C552.51 128.495 553.154 128.471 554.734 129.051C556.314 129.632 565.762 131.339 567.323 131.913L567.322 134.912C567.323 135.212 566.962 135.542 566.147 135.968Z" fill="#912626"/>
<path d="M566.146 132.944C564.544 133.781 556.243 137.202 554.475 138.125C552.708 139.049 551.727 139.04 550.331 138.371C548.935 137.702 540.101 134.126 538.51 133.364C536.918 132.602 536.885 132.077 538.448 131.463C540.011 130.85 548.796 127.396 550.653 126.728C552.51 126.06 553.154 126.036 554.734 126.617C556.314 127.197 564.565 130.488 566.126 131.061C567.688 131.635 567.748 132.107 566.146 132.944Z" fill="#C6302B"/>
<path d="M555.979 129.985L553.397 130.254L552.819 131.648L551.886 130.092L548.905 129.824L551.129 129.02L550.462 127.786L552.544 128.602L554.508 127.958L553.977 129.234L555.979 129.985ZM552.665 136.747L547.847 134.744L554.751 133.682L552.665 136.747ZM545.985 130.76C548.023 130.76 549.675 131.402 549.675 132.193C549.675 132.985 548.023 133.627 545.985 133.627C543.947 133.627 542.295 132.985 542.295 132.193C542.295 131.402 543.947 130.76 545.985 130.76Z" fill="white"/>
<path d="M559.03 130.366L563.116 131.984L559.033 133.601L559.03 130.366" fill="#621B1C"/>
<path d="M554.51 132.158L559.03 130.366L559.034 133.601L558.59 133.775L554.51 132.158Z" fill="#9A2928"/>
</g>
<rect x="125.849" y="345.209" width="84.1187" height="27.5686" rx="3.67006" fill="#5D64D2"/>
<path d="M139.55 365.433V357.998H138.053V356.342H139.55V355.447C139.55 354.533 139.804 353.867 140.311 353.449C140.824 353.031 141.593 352.822 142.619 352.822C142.937 352.822 143.285 352.852 143.665 352.914V354.461C143.43 354.416 143.166 354.394 142.87 354.394C142.435 354.394 142.112 354.491 141.9 354.686C141.694 354.882 141.591 355.188 141.591 355.606V356.342H143.581V357.998H141.616V365.433H139.55ZM149.092 357.747C148.473 357.747 147.963 357.951 147.562 358.358C147.16 358.765 146.937 359.303 146.893 359.972H151.199C151.177 359.292 150.976 358.751 150.597 358.349C150.218 357.948 149.716 357.747 149.092 357.747ZM151.216 362.915H153.181C152.986 363.752 152.526 364.412 151.801 364.897C151.082 365.377 150.187 365.617 149.117 365.617C147.773 365.617 146.717 365.198 145.948 364.362C145.184 363.52 144.802 362.363 144.802 360.892C144.802 359.42 145.187 358.255 145.956 357.396C146.725 356.532 147.773 356.1 149.1 356.1C150.405 356.1 151.425 356.51 152.161 357.329C152.903 358.143 153.273 359.272 153.273 360.716V361.385H146.884V361.494C146.912 362.258 147.129 362.862 147.536 363.308C147.949 363.749 148.495 363.969 149.176 363.969C150.224 363.969 150.904 363.618 151.216 362.915ZM158.483 363.952C159.108 363.952 159.629 363.774 160.047 363.417C160.465 363.055 160.674 362.609 160.674 362.079V361.352L158.609 361.485C157.471 361.558 156.903 361.97 156.903 362.723C156.903 363.102 157.048 363.403 157.338 363.626C157.633 363.844 158.015 363.952 158.483 363.952ZM157.873 365.583C156.981 365.583 156.253 365.332 155.69 364.83C155.127 364.329 154.846 363.665 154.846 362.84C154.846 362.015 155.144 361.368 155.74 360.9C156.342 360.432 157.201 360.164 158.316 360.097L160.674 359.955V359.186C160.674 358.734 160.527 358.388 160.231 358.149C159.936 357.909 159.509 357.789 158.952 357.789C158.472 357.789 158.076 357.873 157.764 358.04C157.452 358.202 157.248 358.436 157.154 358.742H155.197C155.28 357.934 155.671 357.293 156.368 356.819C157.07 356.34 157.965 356.1 159.052 356.1C160.223 356.1 161.126 356.37 161.762 356.911C162.403 357.452 162.723 358.21 162.723 359.186V365.433H160.725V364.178H160.582C160.326 364.619 159.958 364.964 159.478 365.215C159.005 365.46 158.469 365.583 157.873 365.583ZM165.884 354.043H167.95V356.342H169.907V357.998H167.95V362.489C167.95 362.941 168.05 363.272 168.251 363.484C168.452 363.69 168.77 363.794 169.204 363.794C169.394 363.794 169.628 363.78 169.907 363.752V365.374C169.561 365.441 169.199 365.474 168.82 365.474C167.772 365.474 167.019 365.282 166.562 364.897C166.11 364.513 165.884 363.877 165.884 362.991V357.998H164.438V356.342H165.884V354.043ZM179.942 356.284V365.433H177.943V363.977H177.801C177.339 365.07 176.427 365.617 175.067 365.617C174.069 365.617 173.291 365.321 172.733 364.73C172.176 364.134 171.897 363.3 171.897 362.23V356.284H173.971V361.711C173.971 362.414 174.119 362.938 174.414 363.283C174.71 363.623 175.167 363.794 175.786 363.794C176.455 363.794 176.968 363.601 177.325 363.216C177.687 362.832 177.868 362.297 177.868 361.611V356.284H179.942ZM182.484 365.433V356.284H184.483V357.705H184.625C184.754 357.248 185.041 356.872 185.487 356.576C185.938 356.281 186.457 356.133 187.042 356.133C187.416 356.133 187.703 356.164 187.903 356.225V358.149C187.692 358.071 187.338 358.032 186.841 358.032C186.167 358.032 185.618 358.227 185.194 358.617C184.77 359.002 184.558 359.512 184.558 360.147V365.433H182.484ZM193.214 357.747C192.595 357.747 192.085 357.951 191.683 358.358C191.282 358.765 191.059 359.303 191.014 359.972H195.321C195.299 359.292 195.098 358.751 194.719 358.349C194.34 357.948 193.838 357.747 193.214 357.747ZM195.338 362.915H197.303C197.108 363.752 196.648 364.412 195.923 364.897C195.204 365.377 194.309 365.617 193.239 365.617C191.895 365.617 190.839 365.198 190.069 364.362C189.306 363.52 188.924 362.363 188.924 360.892C188.924 359.42 189.308 358.255 190.078 357.396C190.847 356.532 191.895 356.1 193.222 356.1C194.527 356.1 195.547 356.51 196.283 357.329C197.024 358.143 197.395 359.272 197.395 360.716V361.385H191.006V361.494C191.034 362.258 191.251 362.862 191.658 363.308C192.071 363.749 192.617 363.969 193.297 363.969C194.346 363.969 195.026 363.618 195.338 362.915Z" fill="white"/>
<path opacity="0.1" d="M590.802 281.312C589.719 281.332 588.65 281.077 587.693 280.571L571.208 271.053C570.839 270.884 570.522 270.621 570.287 270.29C570.053 269.96 569.911 269.573 569.874 269.169C569.909 268.766 570.051 268.38 570.285 268.05C570.52 267.72 570.838 267.459 571.208 267.294L587.693 257.776C588.655 257.289 589.719 257.036 590.797 257.036C591.876 257.036 592.939 257.289 593.902 257.776L610.396 267.294C610.785 267.431 611.122 267.685 611.361 268.022C611.599 268.358 611.728 268.761 611.728 269.174C611.728 269.586 611.599 269.989 611.361 270.325C611.122 270.662 610.785 270.916 610.396 271.053L593.902 280.571C592.948 281.078 591.881 281.333 590.802 281.312Z" fill="#E9EAFA"/>
<path opacity="0.1" d="M630.73 292.98C629.647 293 628.578 292.744 627.621 292.238L611.136 282.721C610.767 282.552 610.45 282.289 610.216 281.958C609.982 281.627 609.839 281.241 609.802 280.837C609.837 280.434 609.979 280.047 610.213 279.718C610.448 279.388 610.766 279.127 611.136 278.962L627.621 269.444C628.583 268.957 629.647 268.703 630.726 268.703C631.804 268.703 632.868 268.957 633.83 269.444L650.324 278.962C650.713 279.098 651.05 279.353 651.289 279.689C651.528 280.026 651.656 280.428 651.656 280.841C651.656 281.254 651.528 281.656 651.289 281.993C651.05 282.33 650.713 282.584 650.324 282.721L633.83 292.238C632.877 292.746 631.81 293.001 630.73 292.98Z" fill="#E9EAFA"/>
<path d="M578.805 195.164C578.522 194.693 578.149 194.283 577.707 193.958C577.109 193.565 576.558 193.104 576.066 192.585C575.738 191.975 575.355 191.396 574.921 190.857C574.549 190.581 574.216 190.256 573.929 189.893C573.775 189.618 573.695 189.223 573.822 189.109C573.949 188.995 574.144 188.808 574.358 188.908C574.634 189.1 574.886 189.325 575.108 189.578C575.431 189.913 575.778 190.225 576.146 190.509C576.352 190.617 576.583 190.671 576.816 190.663C576.963 190.556 577.083 190.416 577.165 190.254C577.248 190.093 577.291 189.914 577.291 189.732C577.262 188.776 577.127 187.826 576.89 186.899C576.591 186.469 576.267 186.057 575.918 185.666C575.684 185.385 575.59 185.191 575.959 185.097C576.327 185.003 576.628 185.298 576.816 185.492C577.084 185.714 577.339 185.951 577.579 186.202C577.7 186.396 578.088 186.765 577.874 186.35C577.604 185.842 577.302 185.352 576.97 184.883C576.84 184.641 576.782 184.366 576.803 184.092C576.887 184.079 576.973 184.083 577.055 184.107C577.137 184.13 577.213 184.171 577.278 184.226C577.425 184.38 578.129 184.896 578.209 184.99C578.294 185.125 578.366 185.269 578.423 185.419L578.973 185.539C579.19 185.58 579.389 185.688 579.542 185.847C579.695 186.085 579.827 186.336 579.937 186.597C579.962 186.718 580.02 186.829 580.104 186.919C580.258 187.1 580.58 187.287 580.774 187.455C581.006 187.914 581.156 188.41 581.216 188.921C581.216 189.243 581.216 190.16 581.277 190.315C581.337 190.469 581.216 191.446 581.277 191.654C581.337 191.862 581.397 192.585 581.457 192.933C581.518 193.282 581.538 193.603 581.585 193.744C581.632 193.884 581.719 194.3 581.719 194.3L581.779 194.755C581.779 194.755 581.076 195.552 580.727 195.612C580.072 195.535 579.427 195.384 578.805 195.164Z" fill="#EFC0BE"/>
<path d="M582.321 194.474C582.109 194.431 581.899 194.378 581.692 194.313C581.282 194.66 580.762 194.85 580.225 194.849C579.1 194.976 578.43 195.01 578.43 195.01C578.43 195.01 578.43 195.358 578.43 195.632C578.463 196.095 578.618 196.541 578.879 196.925C579.16 197.233 579.247 197.715 579.783 197.97C580.366 198.306 580.999 198.545 581.658 198.68H582.328C580.908 196.356 581.799 195.097 582.321 194.474Z" fill="#6360EF"/>
<path d="M595.817 194.166C595.302 194.061 594.792 193.929 594.29 193.77C593.828 193.63 582.63 194.527 582.355 194.48H582.322C581.799 195.103 580.908 196.362 582.322 198.687H582.623C582.623 198.687 583.045 199.45 583.393 199.53C583.889 199.654 584.396 199.723 584.907 199.738C585.222 199.705 590.707 199.812 591.276 199.738C591.845 199.664 597.873 198.794 598.335 198.653C598.798 198.512 600.345 195.19 600.345 195.19C599.367 194.708 596.165 194.259 595.817 194.166Z" fill="#B5B3EF"/>
<path d="M586.488 201.72C586.428 202.986 586.046 204.641 586.3 205.404C586.559 206.12 586.97 206.772 587.506 207.313C588.209 208.17 588.966 209.215 589.348 209.63C589.915 210.236 590.447 210.873 590.942 211.539C591.411 212.314 591.803 213.133 592.114 213.984C592.208 214.332 592.114 215.732 592.114 215.926C592.078 216.12 591.991 216.302 591.863 216.452C591.735 216.602 591.57 216.717 591.384 216.783C591.002 216.844 590.399 217.132 590.044 216.783C589.689 216.435 587.888 214.714 587.76 214.526C587.422 214.071 587.154 213.567 586.963 213.033C586.803 212.43 586.836 211.599 586.394 211.218C585.429 210.627 584.34 210.27 583.213 210.173C582.101 210.106 579.529 210.106 578.732 209.979C577.964 209.786 577.226 209.487 576.542 209.088C576.381 208.994 575.363 209.088 574.854 208.934C574.345 208.78 574.566 208.807 574.03 208.519C573.495 208.231 573.14 208.297 572.122 207.849C571.299 207.614 570.524 207.238 569.831 206.737C569.041 206.101 568.659 205.592 568.15 205.277C567.641 204.962 567.353 204.674 567.386 204.353C567.42 204.031 567.453 202.826 568.056 202.343C568.659 201.861 569.57 201.104 570.286 201.091C571.143 201.053 572.001 201.111 572.845 201.265C573.585 201.541 574.344 201.765 575.115 201.935C575.599 201.987 576.088 201.96 576.562 201.854C577.37 201.715 578.187 201.641 579.007 201.633C579.63 201.68 580.346 201.808 580.849 201.808C581.351 201.808 582.503 201.232 583.253 201.104C583.947 200.964 584.658 200.927 585.363 200.997C585.764 201.196 586.141 201.438 586.488 201.72Z" fill="#B5B3EF"/>
<path d="M631.575 279.54L632.245 282.333C632.245 282.333 630.37 284.684 626.666 283.639C626.666 282.842 626.666 282.601 626.666 282.601C625.581 281.709 624.55 280.754 623.578 279.741C623.271 279.197 623.011 278.628 622.801 278.04C622.801 277.979 622.513 277.665 622.42 277.484C622.366 276.887 622.366 276.286 622.42 275.689C622.438 275.305 622.574 274.936 622.808 274.631C623.126 274.372 623.492 274.179 623.886 274.064C624.279 273.949 624.691 273.914 625.099 273.961C626.438 274.028 628.166 274.631 628.514 274.992C628.863 275.354 631.575 279.54 631.575 279.54Z" fill="#231F20"/>
<path d="M588.108 267.431C588.617 267.605 590.352 268.335 590.573 268.475C590.794 268.616 591.243 268.938 591.243 268.938C591.243 268.938 592.991 269.748 593.252 269.782C593.996 269.741 594.73 269.589 595.429 269.333C595.786 268.999 596.107 268.629 596.387 268.228C596.192 266.573 596.192 266.567 596.192 266.567L588.785 261.959C587.405 261.195 585.577 260.927 585.068 261.135C584.6 261.308 584.218 261.656 584.003 262.106C583.934 262.459 583.921 262.821 583.963 263.178C584.632 264.082 585.67 265.314 585.891 265.535C586.555 266.25 587.299 266.886 588.108 267.431Z" fill="#58595B"/>
<path d="M596.393 268.228C596.113 268.628 595.792 268.999 595.435 269.333C594.736 269.589 594.002 269.741 593.258 269.781C593.004 269.748 591.249 268.938 591.249 268.938C591.249 268.938 590.787 268.616 590.579 268.475C590.372 268.335 588.624 267.605 588.115 267.431C587.308 266.885 586.566 266.249 585.904 265.535C585.683 265.314 584.672 264.082 583.976 263.178C583.976 263.245 583.989 263.305 584.016 263.358C584.179 263.922 584.404 264.465 584.686 264.979C585.48 265.963 586.361 266.873 587.318 267.698C587.86 267.986 590.198 269.038 590.372 269.252C590.495 269.584 590.55 269.937 590.533 270.29C590.533 270.29 592.361 271.63 593.171 271.63C593.947 271.573 594.699 271.345 595.375 270.96C595.582 270.786 596.614 270.371 596.393 268.482V268.228Z" fill="black"/>
<path d="M631.221 277.182C630.952 276.387 630.602 275.622 630.176 274.898C629.815 273.899 629.513 272.879 629.272 271.844C629.172 271.322 628.891 268.844 628.743 267.986C628.53 266.83 628.212 265.696 627.792 264.597C627.363 263.499 625.93 260.693 625.548 259.782C625.167 258.871 623.539 253.493 623.358 252.729C623.177 251.966 621.972 248.148 621.831 247.626C621.691 247.103 620.492 242.194 620.492 240.714C620.492 239.234 620.016 234.8 619.869 233.661C619.63 231.99 619.297 230.333 618.871 228.698C618.536 227.553 616.346 222.55 614.772 220.501L613.901 220.534C613.747 219.911 613.627 219.449 613.627 219.449C613.627 219.449 607.17 220.058 606.541 220.279C605.911 220.501 601.183 222.758 600.432 223.836C599.682 224.914 597.445 228.417 597.445 228.417C597.72 229.274 597.767 231.176 597.318 231.766C596.91 232.314 596.362 232.742 595.731 233.005C594.907 233.447 593.052 234.592 592.683 235.135C592.315 235.677 591.25 237.291 590.808 237.894C590.366 238.497 588.799 240.185 588.705 240.506C588.611 240.828 588.136 242.027 587.881 242.984C587.575 245.122 587.394 247.275 587.339 249.434C587.339 250.358 587.593 253.855 587.66 254.839C587.727 255.824 587.72 259.065 587.848 259.862C587.983 260.746 588.285 261.596 588.738 262.367C589.299 263.552 589.778 264.774 590.172 266.024C590.221 266.614 590.417 267.183 590.741 267.678C591.19 268.154 591.886 269.138 592.904 269.359C593.922 269.58 594.914 269.46 595.255 269.138C595.678 268.509 596.031 267.835 596.307 267.129C596.434 266.814 596.715 265.12 596.876 264.209C597.037 263.298 596.782 260.077 596.809 259.28C596.836 258.483 596.494 255.817 596.461 255.147C596.427 254.477 596.782 252.247 596.749 251.423C596.715 250.6 596.307 249.206 596.333 248.349C596.36 247.492 596.4 245.55 597.318 244.853C598.382 244.053 599.549 243.399 600.787 242.911C601.993 242.469 602.408 242.053 604.183 241.39C605.958 240.727 606.601 240.915 607.78 240.178C608.117 239.962 608.433 239.716 608.724 239.441C609.605 240.607 610.353 241.867 610.954 243.199C611.43 244.485 614.531 254.786 615.294 256.976C616.058 259.166 618.489 265.013 619.253 266.178C620.016 267.343 620.539 269.527 620.78 270.706C621.021 271.884 622.253 273.947 622.494 274.664C622.735 275.381 623.492 277.671 623.586 278.013C623.68 278.354 624.396 279.634 626.935 281.971C630.317 283.357 631.797 280.015 631.797 280.015C631.67 279.059 631.478 278.112 631.221 277.182Z" fill="#454658"/>
<path d="M587.646 214.305C588.326 215.609 589.16 216.826 590.131 217.929C590.688 218.703 591.366 219.382 592.141 219.938C592.796 220.371 593.376 220.91 593.855 221.532C594.181 222.022 594.394 222.578 594.478 223.16C594.451 223.861 594.491 224.563 594.599 225.256C594.739 225.956 594.978 226.632 595.308 227.265C595.68 227.998 596.154 228.674 596.715 229.274C597.123 229.536 598.436 229.228 598.985 228.94C599.535 228.652 601.149 227.982 601.798 227.533C602.448 227.084 603.58 225.718 604.477 225.028C605.375 224.338 606.333 223.387 607.719 222.979C608.898 222.692 610.092 222.468 611.296 222.309C612.367 222.095 613.225 222.101 614.055 221.86C614.886 221.619 615.033 221.954 615.676 221.19C616.319 220.427 616.848 219.73 616.466 219.282C616.084 218.833 613.392 216.703 612.916 216.328C612.441 215.953 612.247 215.92 612.387 214.989C612.563 212.774 612.548 210.549 612.34 208.338C611.884 207.104 611.3 205.921 610.599 204.808C610.003 203.904 608.59 201.687 608.168 201.212C607.746 200.736 605.489 198.265 605.181 197.977C604.551 197.594 603.876 197.29 603.171 197.072C602.493 196.805 601.851 196.451 601.263 196.021C600.452 195.478 600.405 195.211 599.803 195.003C599.1 194.858 598.375 194.858 597.673 195.003C597.226 195.171 596.802 195.396 596.414 195.673C596.261 195.788 596.15 195.95 596.099 196.135C596.046 196.354 596.014 196.579 596.005 196.805C595.999 196.924 596.019 197.043 596.065 197.153C596.065 197.153 593.045 198.445 592.442 198.633C591.617 198.976 590.816 199.374 590.044 199.825C589.594 200.125 589.172 200.465 588.785 200.843C588.493 201.214 588.096 201.487 587.646 201.627L586.488 201.754C586.427 203.02 586.046 204.674 586.3 205.438C586.559 206.154 586.97 206.805 587.506 207.347C588.209 208.204 588.966 209.249 589.348 209.664C589.915 210.269 590.447 210.907 590.942 211.573C591.411 212.348 591.803 213.166 592.114 214.017C592.207 214.366 592.114 215.765 592.114 215.96C592.077 216.154 591.991 216.335 591.863 216.486C591.735 216.636 591.57 216.75 591.384 216.817C591.002 216.877 590.399 217.165 590.044 216.817C589.689 216.469 587.774 214.5 587.646 214.305Z" fill="#C4C3EF"/>
<path d="M587.646 201.627C588.118 201.493 588.535 201.214 588.839 200.83C589.226 200.452 589.647 200.111 590.098 199.812C590.869 199.361 591.67 198.963 592.496 198.62C593.098 198.432 596.119 197.139 596.119 197.139L593.574 196.958C591.89 197.394 590.326 198.205 588.999 199.329C588.362 199.977 587.883 200.763 587.6 201.627H587.646Z" fill="black"/>
<path d="M583.326 193.844C583.393 194.012 583.708 194.856 583.755 194.949C583.802 195.043 584.331 196.825 584.358 196.999C584.385 197.173 584.298 195.82 584.358 195.586C584.418 195.351 584.405 195.023 584.532 194.849C584.659 194.675 584.934 194.547 585.074 194.628C585.379 194.796 585.666 194.993 585.932 195.217C586.139 195.425 586.729 196.074 586.936 196.296C587.247 196.659 587.587 196.995 587.954 197.3C588.457 197.461 588.981 197.547 589.508 197.555C590.068 197.484 590.622 197.367 591.163 197.206C591.323 197.139 592.194 196.851 592.335 196.778C592.592 196.618 592.833 196.432 593.051 196.222C593.051 196.175 593.245 196.007 593.413 195.84C593.366 195.077 593.366 194.166 593.353 193.945C593.353 193.583 593.212 191.788 593.199 191.5C593.12 190.864 593.002 190.233 592.844 189.611C592.48 188.892 592.057 188.204 591.578 187.555C591.256 187.126 589.287 186.51 588.524 186.383C587.586 186.351 586.649 186.484 585.758 186.778C585.07 187.038 584.454 187.458 583.963 188.004C583.486 188.668 583.155 189.426 582.991 190.227C582.891 190.67 582.813 191.117 582.757 191.567C582.806 191.984 582.88 192.398 582.978 192.806C583.072 193.087 583.293 193.683 583.326 193.844Z" fill="black"/>
<path d="M593.339 193.945C593.339 194.126 593.339 194.748 593.372 195.391C593.955 194.641 594.712 192.866 593.218 192.043C593.272 192.672 593.339 193.684 593.339 193.945Z" fill="#E4A685"/>
<path d="M565.571 202.826C564.814 201.54 564.064 200.589 563.763 200.147C563.339 199.39 562.959 198.609 562.624 197.809C562.193 196.883 561.699 195.988 561.144 195.13C560.729 194.541 560.474 194.052 560.555 193.791C560.635 193.529 560.782 193.429 560.99 193.57C561.198 193.71 562.524 195.793 562.684 195.914C562.845 196.034 563.435 196.001 563.113 195.385C562.792 194.768 561.311 192.431 561.218 192.136C561.147 191.873 561.147 191.596 561.218 191.333C561.258 191.245 561.479 191.024 561.686 191.158C561.942 191.428 562.145 191.744 562.283 192.089C562.363 192.277 563.026 193.643 563.126 193.851C563.321 194.223 563.564 194.568 563.85 194.876C563.793 194.341 563.665 193.816 563.468 193.315C563.321 192.893 562.457 191.641 562.289 191.306C562.135 191.003 562.055 190.668 562.055 190.328C562.102 190.234 562.437 190.006 562.611 190.16C562.785 190.315 563.562 191.413 563.562 191.413C563.562 191.413 563.435 190.361 563.89 190.743C564.53 191.359 565.113 192.032 565.631 192.752C565.899 193.188 566.75 195.01 566.877 195.284C567.004 195.559 567.192 196.222 567.272 196.403C567.353 196.583 567.467 196.738 567.607 196.985C567.822 197.435 568.001 197.901 568.143 198.378C568.143 198.559 568.23 199.001 568.25 199.242C568.27 199.484 568.538 200.515 568.585 200.696C568.632 200.877 568.699 201.171 568.699 201.171L565.906 202.846L565.571 202.826Z" fill="#EFC0BE"/>
<path d="M567.419 204.386C567.453 204.071 567.486 202.859 568.089 202.377C568.623 201.897 569.228 201.504 569.884 201.212C569.345 201.04 568.795 200.91 568.236 200.823C566.836 200.903 565.437 202.906 565.457 203.033C566.073 203.612 566.719 204.157 567.392 204.668H567.433C567.402 204.577 567.398 204.479 567.419 204.386Z" fill="#6360EF"/>
<path d="M588.999 199.296C590.325 198.171 591.889 197.361 593.573 196.925C593.466 196.573 593.412 196.208 593.412 195.84C593.245 196.007 593.084 196.175 593.051 196.222C592.832 196.432 592.592 196.618 592.334 196.778C592.193 196.851 591.323 197.139 591.162 197.206C590.621 197.367 590.068 197.484 589.508 197.555C588.98 197.547 588.456 197.461 587.954 197.3C587.586 196.995 587.246 196.659 586.936 196.295C586.728 196.074 586.139 195.425 585.931 195.217C585.665 194.993 585.378 194.796 585.074 194.628C584.933 194.547 584.658 194.675 584.531 194.849C584.404 195.023 584.424 195.344 584.357 195.586C584.29 195.827 584.357 197.173 584.357 196.999C584.357 196.825 583.801 195.043 583.754 194.949C583.707 194.855 583.393 194.012 583.326 193.844C583.259 193.677 583.071 193.087 582.977 192.833C582.879 192.425 582.805 192.011 582.756 191.594C582.618 192.353 582.58 193.128 582.643 193.898C582.8 194.349 583.026 194.774 583.312 195.157C583.5 195.539 583.312 195.947 583.312 196.376C583.368 196.88 583.56 197.359 583.868 197.762C584.123 198.124 585.013 199.41 585.208 199.698C585.498 200.232 585.836 200.739 586.219 201.212C586.705 201.316 587.202 201.359 587.699 201.339C587.98 200.572 588.423 199.875 588.999 199.296Z" fill="#EFC0BE"/>
<defs>
<linearGradient id="paint0_linear" x1="16390" y1="2770.77" x2="17492" y2="4370.22" gradientUnits="userSpaceOnUse">
<stop stop-color="#BCBEFF"/>
<stop offset="0.23" stop-color="#AAADF8"/>
<stop offset="0.68" stop-color="#7C83E5"/>
<stop offset="1" stop-color="#5761D7"/>
</linearGradient>
<linearGradient id="paint1_linear" x1="16065.5" y1="4241.85" x2="19300.9" y2="4241.85" gradientUnits="userSpaceOnUse">
<stop stop-color="#E9E9FD"/>
<stop offset="0.36" stop-color="#D3D2F9"/>
<stop offset="0.71" stop-color="#C5C4F7"/>
<stop offset="1" stop-color="#C0BFF6"/>
</linearGradient>
<linearGradient id="paint2_linear" x1="212.848" y1="114.279" x2="212.848" y2="190.912" gradientUnits="userSpaceOnUse">
<stop stop-color="#151B2B" stop-opacity="0"/>
<stop offset="0.515094" stop-color="#6273A0" stop-opacity="0.49"/>
<stop offset="1" stop-color="#E9E9FD"/>
</linearGradient>
<linearGradient id="paint3_linear" x1="16540.7" y1="2876.49" x2="17642.7" y2="4475.95" gradientUnits="userSpaceOnUse">
<stop stop-color="#BCBEFF"/>
<stop offset="0.23" stop-color="#AAADF8"/>
<stop offset="0.68" stop-color="#7C83E5"/>
<stop offset="1" stop-color="#5761D7"/>
</linearGradient>
<linearGradient id="paint4_linear" x1="16216.2" y1="4347.57" x2="19451.6" y2="4347.57" gradientUnits="userSpaceOnUse">
<stop stop-color="#E9E9FD"/>
<stop offset="0.36" stop-color="#D3D2F9"/>
<stop offset="0.71" stop-color="#C5C4F7"/>
<stop offset="1" stop-color="#C0BFF6"/>
</linearGradient>
<linearGradient id="paint5_linear" x1="363.58" y1="220" x2="363.58" y2="296.633" gradientUnits="userSpaceOnUse">
<stop stop-color="#151B2B" stop-opacity="0"/>
<stop offset="0.515094" stop-color="#6273A0" stop-opacity="0.49"/>
<stop offset="1" stop-color="#E9E9FD"/>
</linearGradient>
<linearGradient id="paint6_linear" x1="16642.6" y1="2819.53" x2="17744.6" y2="4418.98" gradientUnits="userSpaceOnUse">
<stop stop-color="#BCBEFF"/>
<stop offset="0.23" stop-color="#AAADF8"/>
<stop offset="0.68" stop-color="#7C83E5"/>
<stop offset="1" stop-color="#5761D7"/>
</linearGradient>
<linearGradient id="paint7_linear" x1="16318.1" y1="4290.6" x2="19553.5" y2="4290.6" gradientUnits="userSpaceOnUse">
<stop stop-color="#E9E9FD"/>
<stop offset="0.36" stop-color="#D3D2F9"/>
<stop offset="0.71" stop-color="#C5C4F7"/>
<stop offset="1" stop-color="#C0BFF6"/>
</linearGradient>
<linearGradient id="paint8_linear" x1="465.476" y1="164.367" x2="465.476" y2="244.08" gradientUnits="userSpaceOnUse">
<stop stop-color="#151B2B" stop-opacity="0"/>
<stop offset="0.515094" stop-color="#6273A0" stop-opacity="0.49"/>
<stop offset="1" stop-color="#E9E9FD"/>
</linearGradient>
<linearGradient id="paint9_linear" x1="16728.6" y1="2765.17" x2="17830.6" y2="4364.62" gradientUnits="userSpaceOnUse">
<stop stop-color="#BCBEFF"/>
<stop offset="0.23" stop-color="#AAADF8"/>
<stop offset="0.68" stop-color="#7C83E5"/>
<stop offset="1" stop-color="#5761D7"/>
</linearGradient>
<linearGradient id="paint10_linear" x1="16404.1" y1="4236.24" x2="19639.5" y2="4236.24" gradientUnits="userSpaceOnUse">
<stop stop-color="#E9E9FD"/>
<stop offset="0.36" stop-color="#D3D2F9"/>
<stop offset="0.71" stop-color="#C5C4F7"/>
<stop offset="1" stop-color="#C0BFF6"/>
</linearGradient>
<linearGradient id="paint11_linear" x1="551.466" y1="110.01" x2="551.466" y2="189.723" gradientUnits="userSpaceOnUse">
<stop stop-color="#151B2B" stop-opacity="0"/>
<stop offset="0.515094" stop-color="#6273A0" stop-opacity="0.49"/>
<stop offset="1" stop-color="#E9E9FD"/>
</linearGradient>
<clipPath id="clip0">
<rect width="32.6656" height="29.0928" fill="white" transform="translate(197.31 122.697)"/>
</clipPath>
<clipPath id="clip1">
<rect width="32.6656" height="29.0928" fill="white" transform="translate(348.041 228.418)"/>
</clipPath>
<clipPath id="clip2">
<rect width="27.4743" height="28.3328" fill="white" transform="translate(451.661 178.045)"/>
</clipPath>
<clipPath id="clip3">
<rect width="27.4743" height="28.3328" fill="white" transform="translate(451.661 178.045)"/>
</clipPath>
<clipPath id="clip4">
<rect width="30.0333" height="25.862" fill="white" transform="translate(537.296 126.134)"/>
</clipPath>
</defs>
</svg>
