<svg width="461" height="259" viewBox="0 0 461 259" fill="none" xmlns="http://www.w3.org/2000/svg">
<path d="M21.3594 14.4453C22.9948 14.4453 24.2891 14.9766 25.2422 16.0391C26.2005 17.1016 26.6797 18.5417 26.6797 20.3594C26.6797 22.1771 26.2031 23.6198 25.25 24.6875C24.2969 25.75 23 26.2812 21.3594 26.2812C19.7083 26.2812 18.4036 25.75 17.4453 24.6875C16.4922 23.625 16.0156 22.1823 16.0156 20.3594C16.0156 18.5417 16.4948 17.1016 17.4531 16.0391C18.4167 14.9766 19.7188 14.4453 21.3594 14.4453ZM21.3594 16.2344C20.3542 16.2344 19.5547 16.6068 18.9609 17.3516C18.3724 18.0964 18.0781 19.099 18.0781 20.3594C18.0781 21.625 18.3698 22.6302 18.9531 23.375C19.5417 24.1198 20.3438 24.4922 21.3594 24.4922C22.3594 24.4922 23.151 24.1198 23.7344 23.375C24.3229 22.625 24.6172 21.6198 24.6172 20.3594C24.6172 19.099 24.3229 18.0964 23.7344 17.3516C23.151 16.6068 22.3594 16.2344 21.3594 16.2344ZM33.3438 26H31.3281V16.4688H27.8594V14.7266H36.8203V16.4688H33.3438V26ZM48.4375 26H46.4297V21.1328H40.9453V26H38.9297V14.7266H40.9453V19.3906H46.4297V14.7266H48.4375V26ZM58.5234 24.2578V26H51.2266V14.7266H58.5234V16.4688H53.2422V19.4609H58.2344V21.1016H53.2422V24.2578H58.5234ZM63.0391 16.3984V20.1719H65.3672C66.0078 20.1719 66.5026 20.0078 66.8516 19.6797C67.2057 19.3516 67.3828 18.888 67.3828 18.2891C67.3828 17.7005 67.1979 17.2396 66.8281 16.9062C66.4635 16.5677 65.9609 16.3984 65.3203 16.3984H63.0391ZM63.0391 21.7734V26H61.0234V14.7266H65.6016C66.7839 14.7266 67.7214 15.0443 68.4141 15.6797C69.1068 16.3099 69.4531 17.1667 69.4531 18.25C69.4531 19 69.2656 19.6641 68.8906 20.2422C68.5156 20.8151 67.9948 21.2214 67.3281 21.4609L69.7891 26H67.4844L65.2734 21.7734H63.0391ZM75.6484 22.9375H77.6172C77.6797 23.4427 77.9427 23.8464 78.4062 24.1484C78.8698 24.4453 79.4583 24.5938 80.1719 24.5938C80.8385 24.5938 81.3854 24.4427 81.8125 24.1406C82.2448 23.8333 82.4609 23.4427 82.4609 22.9688C82.4609 22.5625 82.2969 22.2318 81.9688 21.9766C81.6458 21.7214 81.1224 21.5104 80.3984 21.3438L78.9375 21.0078C77.9167 20.7786 77.1589 20.4062 76.6641 19.8906C76.1745 19.3698 75.9297 18.6901 75.9297 17.8516C75.9297 16.8255 76.3125 16.0026 77.0781 15.3828C77.849 14.7578 78.8646 14.4453 80.125 14.4453C81.3073 14.4453 82.2865 14.7526 83.0625 15.3672C83.8385 15.9818 84.25 16.7734 84.2969 17.7422H82.3672C82.2995 17.2474 82.0625 16.8542 81.6562 16.5625C81.25 16.2708 80.737 16.125 80.1172 16.125C79.4661 16.125 78.9427 16.2708 78.5469 16.5625C78.1562 16.849 77.9609 17.2318 77.9609 17.7109C77.9609 18.0911 78.1146 18.401 78.4219 18.6406C78.7292 18.875 79.2318 19.0729 79.9297 19.2344L81.2266 19.5312C82.3672 19.7865 83.1927 20.1667 83.7031 20.6719C84.2188 21.1771 84.4766 21.8594 84.4766 22.7188C84.4766 23.8177 84.0781 24.6875 83.2812 25.3281C82.4896 25.9635 81.4115 26.2812 80.0469 26.2812C78.7552 26.2812 77.7109 25.9792 76.9141 25.375C76.1224 24.7708 75.7005 23.9583 75.6484 22.9375ZM94.0391 24.2578V26H86.7422V14.7266H94.0391V16.4688H88.7578V19.4609H93.75V21.1016H88.7578V24.2578H94.0391ZM98.5547 16.3984V20.1719H100.883C101.523 20.1719 102.018 20.0078 102.367 19.6797C102.721 19.3516 102.898 18.888 102.898 18.2891C102.898 17.7005 102.714 17.2396 102.344 16.9062C101.979 16.5677 101.477 16.3984 100.836 16.3984H98.5547ZM98.5547 21.7734V26H96.5391V14.7266H101.117C102.299 14.7266 103.237 15.0443 103.93 15.6797C104.622 16.3099 104.969 17.1667 104.969 18.25C104.969 19 104.781 19.6641 104.406 20.2422C104.031 20.8151 103.51 21.2214 102.844 21.4609L105.305 26H103L100.789 21.7734H98.5547ZM112.555 26H110.234L106.297 14.7266H108.523L111.359 23.6484H111.492L114.305 14.7266H116.453L112.555 26ZM120.414 26H118.398V14.7266H120.414V26ZM127.898 26.2812C126.299 26.2812 125.036 25.7526 124.109 24.6953C123.182 23.6328 122.719 22.1901 122.719 20.3672C122.719 18.5339 123.18 17.0885 124.102 16.0312C125.029 14.974 126.292 14.4453 127.891 14.4453C129.172 14.4453 130.258 14.8229 131.148 15.5781C132.039 16.3281 132.544 17.2917 132.664 18.4688H130.68C130.539 17.7917 130.216 17.2526 129.711 16.8516C129.206 16.4453 128.599 16.2422 127.891 16.2422C126.932 16.2422 126.174 16.612 125.617 17.3516C125.06 18.0859 124.781 19.0885 124.781 20.3594C124.781 21.6302 125.06 22.6354 125.617 23.375C126.174 24.1146 126.935 24.4844 127.898 24.4844C128.612 24.4844 129.221 24.2995 129.727 23.9297C130.232 23.5547 130.552 23.0521 130.688 22.4219H132.672C132.536 23.5781 132.031 24.5104 131.156 25.2188C130.281 25.9271 129.195 26.2812 127.898 26.2812ZM142.211 24.2578V26H134.914V14.7266H142.211V16.4688H136.93V19.4609H141.922V21.1016H136.93V24.2578H142.211ZM144.195 22.9375H146.164C146.227 23.4427 146.49 23.8464 146.953 24.1484C147.417 24.4453 148.005 24.5938 148.719 24.5938C149.385 24.5938 149.932 24.4427 150.359 24.1406C150.792 23.8333 151.008 23.4427 151.008 22.9688C151.008 22.5625 150.844 22.2318 150.516 21.9766C150.193 21.7214 149.669 21.5104 148.945 21.3438L147.484 21.0078C146.464 20.7786 145.706 20.4062 145.211 19.8906C144.721 19.3698 144.477 18.6901 144.477 17.8516C144.477 16.8255 144.859 16.0026 145.625 15.3828C146.396 14.7578 147.411 14.4453 148.672 14.4453C149.854 14.4453 150.833 14.7526 151.609 15.3672C152.385 15.9818 152.797 16.7734 152.844 17.7422H150.914C150.846 17.2474 150.609 16.8542 150.203 16.5625C149.797 16.2708 149.284 16.125 148.664 16.125C148.013 16.125 147.49 16.2708 147.094 16.5625C146.703 16.849 146.508 17.2318 146.508 17.7109C146.508 18.0911 146.661 18.401 146.969 18.6406C147.276 18.875 147.779 19.0729 148.477 19.2344L149.773 19.5312C150.914 19.7865 151.74 20.1667 152.25 20.6719C152.766 21.1771 153.023 21.8594 153.023 22.7188C153.023 23.8177 152.625 24.6875 151.828 25.3281C151.036 25.9635 149.958 26.2812 148.594 26.2812C147.302 26.2812 146.258 25.9792 145.461 25.375C144.669 24.7708 144.247 23.9583 144.195 22.9375Z" fill="#8686B3"/>
<path d="M143.5 71.1821H28.5001C22.1491 71.1821 17 76.3313 17 82.6822V104.644H155V82.6822C155 76.3313 149.851 71.1821 143.5 71.1821Z" fill="#E9EAFA"/>
<path d="M136.729 87.909C136.729 92.4026 133.089 96.0453 128.593 96.0453C124.099 96.0453 120.462 92.4026 120.462 87.909C120.462 83.4154 124.102 79.7726 128.593 79.7726C133.089 79.7726 136.729 83.4154 136.729 87.909Z" fill="white"/>
<path d="M51.546 87.909C51.546 92.4026 47.9006 96.0453 43.4097 96.0453C38.9188 96.0453 35.2793 92.4026 35.2793 87.909C35.2793 83.4154 38.919 79.7726 43.4097 79.7726C47.9004 79.7726 51.546 83.4154 51.546 87.909Z" fill="white"/>
<path d="M128.677 63C125.689 63 123.263 65.4207 123.263 68.4135L123.18 85.9624C123.18 88.9524 125.606 91.376 128.599 91.376C131.586 91.376 134.013 88.9524 134.013 85.9624L134.096 68.4135C134.096 65.4207 131.669 63 128.677 63Z" fill="#A8A8C1"/>
<path d="M43.4932 63C40.5059 63 38.0796 65.4207 38.0796 68.4135L37.9963 85.9597C37.9963 88.9497 40.4229 91.3733 43.4099 91.3733C46.4027 91.3733 48.8234 88.9497 48.8234 85.9597L48.9067 68.4108C48.907 65.4207 46.486 63 43.4932 63Z" fill="#A8A8C1"/>
<g filter="url(#filter0_d)">
<rect x="17" y="107.984" width="67" height="87" rx="2" fill="white"/>
</g>
<g filter="url(#filter1_d)">
<rect x="88" y="107.984" width="67" height="87" rx="2" fill="white"/>
</g>
<circle cx="156" cy="196" r="17" fill="#FF6240"/>
<path fill-rule="evenodd" clip-rule="evenodd" d="M166.225 197.038L164.177 194.811C164.041 194.678 163.859 194.603 163.668 194.603C163.478 194.603 163.295 194.678 163.159 194.811L161.108 197.038C161.041 197.104 160.988 197.183 160.952 197.27C160.916 197.357 160.897 197.45 160.897 197.544C160.897 197.639 160.916 197.732 160.952 197.819C160.988 197.906 161.041 197.984 161.108 198.051H162.805C162.488 199.243 161.861 200.331 160.989 201.204C160.116 202.076 159.029 202.703 157.836 203.021C156.443 203.386 154.971 203.315 153.619 202.818C152.267 202.321 151.099 201.422 150.273 200.242L148.842 201.227C149.873 202.699 151.33 203.821 153.017 204.441C154.704 205.06 156.541 205.148 158.279 204.693C159.843 204.278 161.261 203.438 162.376 202.265C163.49 201.092 164.257 199.633 164.591 198.051H166.224C166.291 197.984 166.344 197.906 166.38 197.819C166.417 197.732 166.435 197.639 166.436 197.545C166.436 197.451 166.417 197.357 166.381 197.27C166.345 197.183 166.292 197.105 166.225 197.038Z" fill="white"/>
<path fill-rule="evenodd" clip-rule="evenodd" d="M151.379 195.875C151.446 195.809 151.499 195.73 151.535 195.643C151.571 195.556 151.59 195.463 151.59 195.369C151.59 195.275 151.571 195.181 151.535 195.094C151.499 195.008 151.446 194.929 151.379 194.863H149.468C149.793 193.685 150.42 192.613 151.288 191.753C152.156 190.893 153.233 190.275 154.413 189.96C155.807 189.595 157.279 189.666 158.631 190.164C159.983 190.661 161.15 191.561 161.975 192.742L163.407 191.756C162.376 190.282 160.919 189.16 159.231 188.54C157.543 187.92 155.706 187.832 153.966 188.287C152.414 188.7 151.006 189.532 149.896 190.691C148.786 191.851 148.016 193.294 147.671 194.863H145.767C145.7 194.929 145.647 195.008 145.611 195.094C145.574 195.181 145.556 195.275 145.556 195.369C145.556 195.463 145.574 195.556 145.611 195.643C145.647 195.73 145.7 195.809 145.767 195.875L147.915 198.022C148.051 198.155 148.234 198.23 148.424 198.23C148.614 198.23 148.797 198.155 148.933 198.022L151.379 195.875Z" fill="white"/>
<path d="M51.5332 168V138.958H51.2412C50.9417 139.138 49.5267 140.111 46.9961 141.878C44.4805 143.63 43.0804 144.603 42.7959 144.798V141.541C42.8857 141.481 43.6045 140.979 44.9521 140.036C46.2998 139.093 47.6325 138.172 48.9502 137.273C50.2829 136.36 51.1439 135.784 51.5332 135.544H54.5879V168H51.5332Z" fill="#A8A8C1"/>
<path d="M117.3 152.592V149.941H121.096C123.192 149.941 124.892 149.365 126.194 148.212C127.512 147.044 128.171 145.532 128.171 143.675C128.171 141.908 127.52 140.455 126.217 139.317C124.914 138.179 123.259 137.61 121.253 137.61C119.246 137.61 117.584 138.164 116.267 139.272C114.964 140.366 114.238 141.833 114.088 143.675H111.101C111.28 141.024 112.299 138.906 114.155 137.318C116.027 135.716 118.43 134.915 121.365 134.915C124.12 134.915 126.464 135.731 128.396 137.363C130.327 138.995 131.293 140.979 131.293 143.315C131.293 145.277 130.761 146.932 129.698 148.279C128.635 149.612 127.16 150.488 125.273 150.907V151.199C127.594 151.454 129.421 152.307 130.754 153.76C132.102 155.197 132.775 157.024 132.775 159.24C132.775 161.906 131.69 164.144 129.519 165.956C127.347 167.768 124.674 168.674 121.5 168.674C118.37 168.674 115.765 167.835 113.684 166.158C111.617 164.481 110.532 162.332 110.427 159.712H113.392C113.526 161.539 114.35 163.044 115.862 164.227C117.39 165.395 119.261 165.979 121.478 165.979C123.828 165.979 125.768 165.335 127.295 164.047C128.837 162.759 129.608 161.134 129.608 159.173C129.608 157.136 128.86 155.534 127.362 154.366C125.865 153.183 123.821 152.592 121.23 152.592H117.3Z" fill="#A8A8C1"/>
<path d="M59.4907 224.542L53.9443 244H51.4331L46.6455 227.849H46.4106L41.623 244H39.1299L33.6196 224.542H36.0225L40.3403 241.055H40.5571L45.3628 224.542H47.7295L52.5352 241.055H52.752L57.106 224.542H59.4907ZM70.7642 226.313C68.9937 226.313 67.5423 226.921 66.4102 228.138C65.278 229.342 64.6577 230.944 64.5493 232.943H76.6719C76.6478 230.932 76.0938 229.324 75.0098 228.12C73.9378 226.915 72.5226 226.313 70.7642 226.313ZM76.437 239.194H78.8398C78.3581 240.784 77.4066 242.037 75.9854 242.952C74.5641 243.868 72.8358 244.325 70.8003 244.325C68.1265 244.325 66.0067 243.422 64.4409 241.615C62.8752 239.797 62.0923 237.352 62.0923 234.28C62.0923 231.221 62.8752 228.782 64.4409 226.963C66.0187 225.133 68.1325 224.217 70.7822 224.217C73.3717 224.217 75.4132 225.078 76.9067 226.801C78.4002 228.523 79.147 230.872 79.147 233.847V234.895H64.5312V235.003C64.5915 237.207 65.1877 238.959 66.3198 240.26C67.464 241.561 68.9756 242.211 70.8545 242.211C72.2275 242.211 73.3958 241.952 74.3594 241.435C75.3229 240.905 76.0155 240.158 76.437 239.194ZM91.9741 226.313C90.2036 226.313 88.7523 226.921 87.6201 228.138C86.488 229.342 85.8677 230.944 85.7593 232.943H97.8818C97.8577 230.932 97.3037 229.324 96.2197 228.12C95.1478 226.915 93.7326 226.313 91.9741 226.313ZM97.647 239.194H100.05C99.568 240.784 98.6165 242.037 97.1953 242.952C95.7741 243.868 94.0457 244.325 92.0103 244.325C89.3364 244.325 87.2166 243.422 85.6509 241.615C84.0851 239.797 83.3022 237.352 83.3022 234.28C83.3022 231.221 84.0851 228.782 85.6509 226.963C87.2287 225.133 89.3424 224.217 91.9922 224.217C94.5817 224.217 96.6232 225.078 98.1167 226.801C99.6102 228.523 100.357 230.872 100.357 233.847V234.895H85.7412V235.003C85.8014 237.207 86.3976 238.959 87.5298 240.26C88.674 241.561 90.1855 242.211 92.0645 242.211C93.4375 242.211 94.6058 241.952 95.5693 241.435C96.5329 240.905 97.2254 240.158 97.647 239.194ZM108.252 233.648L117.755 224.542H120.718L112.028 232.889L121.115 244H118.08L110.239 234.407L108.035 236.448V244H105.668V216.792H108.035V233.648H108.252ZM124.078 229.691C124.078 228.138 124.753 226.837 126.102 225.789C127.463 224.741 129.131 224.217 131.106 224.217C133.069 224.217 134.695 224.675 135.984 225.59C137.273 226.494 138.025 227.716 138.242 229.258H135.912C135.695 228.342 135.153 227.614 134.286 227.072C133.431 226.518 132.365 226.241 131.088 226.241C129.799 226.241 128.703 226.56 127.8 227.198C126.909 227.837 126.463 228.638 126.463 229.601C126.463 230.396 126.776 231.04 127.402 231.534C128.029 232.028 129.004 232.431 130.329 232.745L133.003 233.377C134.918 233.835 136.327 234.479 137.23 235.31C138.134 236.129 138.585 237.231 138.585 238.616C138.585 240.278 137.869 241.645 136.436 242.717C135.002 243.789 133.214 244.325 131.07 244.325C128.95 244.325 127.204 243.861 125.831 242.934C124.458 241.995 123.675 240.724 123.482 239.122H125.939C126.204 240.11 126.788 240.887 127.691 241.453C128.595 242.019 129.745 242.302 131.142 242.302C132.575 242.302 133.768 241.971 134.719 241.308C135.671 240.646 136.146 239.809 136.146 238.797C136.146 237.954 135.839 237.273 135.225 236.755C134.611 236.225 133.647 235.804 132.334 235.491L129.39 234.786C127.559 234.34 126.216 233.72 125.361 232.925C124.506 232.118 124.078 231.04 124.078 229.691Z" fill="#A8A8C1"/>
<path d="M315.224 16.9574V28.7707L321 25.4337V13.4063L315.224 16.9574Z" fill="#33369F"/>
<path d="M310.285 7L299 13.1743L305.186 16.9574L310.267 14.1022L315.224 16.9574L321 13.4063L310.285 7Z" fill="#B7B9E7"/>
<path d="M299 13.1743L305.204 16.9575L305.151 22.7927L312.068 26.5401L312.139 32.9286L299 25.4694V13.1743Z" fill="#7173CD"/>
<path d="M310.267 14.1022L315.224 16.9574C315.224 16.9574 315.237 22.8718 315.237 22.7825C315.597 22.9557 310.339 20.1695 310.339 20.1695L310.267 14.1022Z" fill="#7173CD"/>
<path d="M305.151 22.7927L310.339 20.1695L310.267 14.1022L305.204 16.9574L305.151 22.7927Z" fill="#33369F"/>
<path d="M312.068 26.5401L305.151 22.7927L310.339 20.1695L316.971 23.7027L312.068 26.5401Z" fill="#B7B9E7"/>
<path d="M312.139 32.9286L316.882 29.7343L316.971 23.7028L312.068 26.5401L312.139 32.9286Z" fill="#33369F"/>
<path d="M299.608 13.549C301.462 14.6911 303.35 15.8163 305.204 16.9584C306.898 16.0126 308.574 15.0481 310.268 14.1024C311.926 15.0481 313.567 16.0116 315.225 16.9574C316.919 15.8867 318.632 14.8889 320.317 13.8256L310.269 7.78516C306.721 9.7124 303.173 11.6218 299.608 13.549Z" fill="#B7B9E7"/>
<path d="M338.93 17.9799L336.648 25.9643H334.75L331.727 14.6909H333.828L335.758 23.0815H335.875L338.094 14.6909H339.883L342.133 23.0815H342.242L344.172 14.6909H346.258L343.234 25.9643H341.344L339.047 17.9799H338.93ZM350.352 25.9643H348.336V14.6909H350.352V25.9643ZM357.953 25.9643H355.938V16.433H352.469V14.6909H361.43V16.433H357.953V25.9643ZM373.047 25.9643H371.039V21.0971H365.555V25.9643H363.539V14.6909H365.555V19.3549H371.039V14.6909H373.047V25.9643ZM389.836 27.1284H387.812L386.953 25.933C386.344 26.1414 385.682 26.2455 384.969 26.2455C383.318 26.2455 382.013 25.7169 381.055 24.6596C380.102 23.6023 379.625 22.1596 379.625 20.3315C379.625 18.5086 380.104 17.0659 381.062 16.0034C382.026 14.9409 383.328 14.4096 384.969 14.4096C386.599 14.4096 387.893 14.9409 388.852 16.0034C389.81 17.0659 390.289 18.5086 390.289 20.3315C390.289 21.3784 390.128 22.308 389.805 23.1205C389.487 23.9278 389.029 24.5711 388.43 25.0502L389.836 27.1284ZM384.969 24.4565C385.292 24.4565 385.609 24.4122 385.922 24.3237L384.57 22.4018H386.508L387.219 23.2924C387.891 22.6674 388.227 21.6804 388.227 20.3315C388.227 19.0659 387.932 18.0606 387.344 17.3159C386.755 16.5711 385.964 16.1987 384.969 16.1987C383.964 16.1987 383.164 16.5711 382.57 17.3159C381.982 18.0554 381.688 19.0606 381.688 20.3315C381.688 21.5971 381.982 22.6023 382.57 23.3471C383.164 24.0867 383.964 24.4565 384.969 24.4565ZM397.469 14.4096C399.104 14.4096 400.398 14.9409 401.352 16.0034C402.31 17.0659 402.789 18.506 402.789 20.3237C402.789 22.1414 402.312 23.5841 401.359 24.6518C400.406 25.7143 399.109 26.2455 397.469 26.2455C395.818 26.2455 394.513 25.7143 393.555 24.6518C392.602 23.5893 392.125 22.1466 392.125 20.3237C392.125 18.506 392.604 17.0659 393.562 16.0034C394.526 14.9409 395.828 14.4096 397.469 14.4096ZM397.469 16.1987C396.464 16.1987 395.664 16.5711 395.07 17.3159C394.482 18.0606 394.188 19.0633 394.188 20.3237C394.188 21.5893 394.479 22.5945 395.062 23.3393C395.651 24.0841 396.453 24.4565 397.469 24.4565C398.469 24.4565 399.26 24.0841 399.844 23.3393C400.432 22.5893 400.727 21.5841 400.727 20.3237C400.727 19.0633 400.432 18.0606 399.844 17.3159C399.26 16.5711 398.469 16.1987 397.469 16.1987ZM410.148 25.9643H407.828L403.891 14.6909H406.117L408.953 23.6127H409.086L411.898 14.6909H414.047L410.148 25.9643ZM423.289 24.2221V25.9643H415.992V14.6909H423.289V16.433H418.008V19.4252H423V21.0659H418.008V24.2221H423.289ZM427.805 16.3627V20.1362H430.133C430.773 20.1362 431.268 19.9721 431.617 19.644C431.971 19.3159 432.148 18.8523 432.148 18.2534C432.148 17.6648 431.964 17.2039 431.594 16.8705C431.229 16.532 430.727 16.3627 430.086 16.3627H427.805ZM427.805 21.7377V25.9643H425.789V14.6909H430.367C431.549 14.6909 432.487 15.0086 433.18 15.644C433.872 16.2742 434.219 17.131 434.219 18.2143C434.219 18.9643 434.031 19.6284 433.656 20.2065C433.281 20.7794 432.76 21.1856 432.094 21.4252L434.555 25.9643H432.25L430.039 21.7377H427.805ZM441.453 25.9643H439.438V21.558L435.484 14.6909H437.695L440.383 19.5112H440.516L443.195 14.6909H445.406L441.453 21.558V25.9643Z" fill="#454658"/>
<path d="M429.5 71.1821H314.5C308.149 71.1821 303 76.3313 303 82.6822V104.644H441V82.6822C441 76.3313 435.851 71.1821 429.5 71.1821Z" fill="#454658"/>
<path d="M422.729 87.909C422.729 92.4026 419.089 96.0453 414.593 96.0453C410.099 96.0453 406.462 92.4026 406.462 87.909C406.462 83.4154 410.102 79.7726 414.593 79.7726C419.089 79.7726 422.729 83.4154 422.729 87.909Z" fill="white"/>
<path d="M337.546 87.909C337.546 92.4026 333.901 96.0453 329.41 96.0453C324.919 96.0453 321.279 92.4026 321.279 87.909C321.279 83.4154 324.919 79.7726 329.41 79.7726C333.9 79.7726 337.546 83.4154 337.546 87.909Z" fill="white"/>
<path d="M414.677 63C411.689 63 409.263 65.4207 409.263 68.4135L409.18 85.9624C409.18 88.9524 411.606 91.376 414.599 91.376C417.586 91.376 420.013 88.9524 420.013 85.9624L420.096 68.4135C420.096 65.4207 417.669 63 414.677 63Z" fill="#A8A8C1"/>
<path d="M329.493 63C326.506 63 324.08 65.4207 324.08 68.4135L323.996 85.9597C323.996 88.9497 326.423 91.3733 329.41 91.3733C332.403 91.3733 334.823 88.9497 334.823 85.9597L334.907 68.4108C334.907 65.4207 332.486 63 329.493 63Z" fill="#A8A8C1"/>
<g filter="url(#filter2_d)">
<rect x="303" y="107.984" width="67" height="87" rx="2" fill="white"/>
</g>
<g filter="url(#filter3_d)">
<rect x="374" y="107.984" width="67" height="87" rx="2" fill="white"/>
</g>
<path d="M336.522 167.674C332.914 167.674 330.099 166.191 328.077 163.227C326.071 160.247 325.067 156.099 325.067 150.783C325.067 145.512 326.078 141.387 328.1 138.407C330.136 135.412 332.944 133.915 336.522 133.915C340.086 133.915 342.871 135.412 344.878 138.407C346.899 141.402 347.91 145.542 347.91 150.828C347.91 156.129 346.907 160.262 344.9 163.227C342.894 166.191 340.101 167.674 336.522 167.674ZM330.368 161.25C331.836 163.736 333.887 164.979 336.522 164.979C339.158 164.979 341.202 163.736 342.654 161.25C344.107 158.764 344.833 155.275 344.833 150.783C344.833 146.321 344.099 142.847 342.632 140.361C341.179 137.876 339.143 136.633 336.522 136.633C333.902 136.633 331.851 137.883 330.368 140.384C328.901 142.869 328.167 146.336 328.167 150.783C328.167 155.275 328.901 158.764 330.368 161.25Z" fill="#454658"/>
<path d="M396.69 143.528C396.705 141.687 397.147 140.032 398.016 138.564C398.899 137.097 400.112 135.959 401.654 135.15C403.197 134.327 404.934 133.915 406.865 133.915C409.71 133.915 412.099 134.784 414.03 136.521C415.962 138.243 416.928 140.376 416.928 142.922C416.928 144.599 416.449 146.254 415.49 147.886C414.532 149.518 412.72 151.757 410.055 154.602L401.295 163.945V164.215H417.736V167H396.87V164.844L408.19 152.603C410.451 150.177 411.956 148.327 412.705 147.055C413.469 145.767 413.851 144.427 413.851 143.034C413.851 141.222 413.169 139.702 411.807 138.475C410.459 137.232 408.789 136.61 406.798 136.61C404.716 136.61 403.017 137.254 401.699 138.542C400.382 139.815 399.708 141.477 399.678 143.528V143.551H396.69V143.528Z" fill="#454658"/>
<path d="M342.51 244.325C340.029 244.325 338.035 243.41 336.53 241.579C335.024 239.736 334.271 237.303 334.271 234.28C334.271 231.269 335.024 228.842 336.53 227C338.047 225.145 340.041 224.217 342.51 224.217C343.991 224.217 345.316 224.585 346.484 225.319C347.653 226.054 348.514 227.06 349.068 228.336H349.285V216.792H351.651V244H349.375V240.116H349.158C348.58 241.417 347.695 242.446 346.502 243.205C345.322 243.952 343.991 244.325 342.51 244.325ZM343.016 226.349C341.089 226.349 339.553 227.066 338.409 228.499C337.277 229.932 336.71 231.853 336.71 234.262C336.71 236.683 337.277 238.61 338.409 240.043C339.553 241.465 341.089 242.175 343.016 242.175C344.931 242.175 346.46 241.459 347.604 240.025C348.749 238.592 349.321 236.671 349.321 234.262C349.321 231.877 348.743 229.962 347.586 228.517C346.442 227.072 344.919 226.349 343.016 226.349ZM363.756 242.229C365.502 242.229 366.96 241.706 368.128 240.658C369.308 239.598 369.898 238.297 369.898 236.755V234.479L364.135 234.895C360.871 235.123 359.239 236.352 359.239 238.58C359.239 239.688 359.661 240.573 360.504 241.236C361.347 241.898 362.431 242.229 363.756 242.229ZM363.358 244.325C361.431 244.325 359.854 243.807 358.625 242.771C357.409 241.724 356.8 240.339 356.8 238.616C356.8 236.93 357.403 235.605 358.607 234.642C359.811 233.666 361.546 233.1 363.81 232.943L369.898 232.546V230.667C369.898 229.27 369.483 228.198 368.652 227.451C367.833 226.704 366.634 226.331 365.057 226.331C363.72 226.331 362.594 226.602 361.678 227.144C360.775 227.674 360.209 228.409 359.98 229.348H357.577C357.806 227.806 358.607 226.566 359.98 225.626C361.365 224.687 363.081 224.217 365.129 224.217C367.405 224.217 369.164 224.783 370.404 225.916C371.657 227.036 372.283 228.613 372.283 230.649V244H370.007V240.658H369.79C369.2 241.814 368.339 242.717 367.207 243.368C366.074 244.006 364.792 244.325 363.358 244.325ZM379.04 250.883C378.715 250.883 378.347 250.859 377.938 250.811V248.751C378.179 248.8 378.534 248.824 379.004 248.824C379.895 248.824 380.618 248.565 381.172 248.047C381.726 247.529 382.244 246.626 382.726 245.337L383.123 244.126L375.824 224.542H378.39L384.279 241.417H384.496L390.368 224.542H392.897L385.327 244.939C384.46 247.276 383.593 248.848 382.726 249.655C381.858 250.474 380.63 250.883 379.04 250.883ZM396.293 229.691C396.293 228.138 396.968 226.837 398.317 225.789C399.678 224.741 401.346 224.217 403.321 224.217C405.285 224.217 406.91 224.675 408.199 225.59C409.488 226.494 410.241 227.716 410.458 229.258H408.127C407.91 228.342 407.368 227.614 406.501 227.072C405.646 226.518 404.58 226.241 403.303 226.241C402.014 226.241 400.918 226.56 400.015 227.198C399.124 227.837 398.678 228.638 398.678 229.601C398.678 230.396 398.991 231.04 399.618 231.534C400.244 232.028 401.22 232.431 402.544 232.745L405.218 233.377C407.133 233.835 408.542 234.479 409.446 235.31C410.349 236.129 410.801 237.231 410.801 238.616C410.801 240.278 410.084 241.645 408.651 242.717C407.218 243.789 405.429 244.325 403.285 244.325C401.165 244.325 399.419 243.861 398.046 242.934C396.673 241.995 395.89 240.724 395.697 239.122H398.154C398.419 240.11 399.003 240.887 399.907 241.453C400.81 242.019 401.96 242.302 403.357 242.302C404.791 242.302 405.983 241.971 406.935 241.308C407.886 240.646 408.362 239.809 408.362 238.797C408.362 237.954 408.055 237.273 407.44 236.755C406.826 236.225 405.863 235.804 404.55 235.491L401.605 234.786C399.774 234.34 398.431 233.72 397.576 232.925C396.721 232.118 396.293 231.04 396.293 229.691Z" fill="#454658"/>
<circle cx="438" cy="195" r="17" fill="#44C979"/>
<path d="M445.32 186.905L436.895 198.013L431.914 193.035L429.615 195.334L437.276 202.994L448.003 189.203L445.32 186.905Z" fill="white"/>
<defs>
<filter id="filter0_d" x="13" y="105.984" width="75" height="95" filterUnits="userSpaceOnUse" color-interpolation-filters="sRGB">
<feFlood flood-opacity="0" result="BackgroundImageFix"/>
<feColorMatrix in="SourceAlpha" type="matrix" values="0 0 0 0 0 0 0 0 0 0 0 0 0 0 0 0 0 0 127 0"/>
<feOffset dy="2"/>
<feGaussianBlur stdDeviation="2"/>
<feColorMatrix type="matrix" values="0 0 0 0 0 0 0 0 0 0 0 0 0 0 0 0 0 0 0.07 0"/>
<feBlend mode="normal" in2="BackgroundImageFix" result="effect1_dropShadow"/>
<feBlend mode="normal" in="SourceGraphic" in2="effect1_dropShadow" result="shape"/>
</filter>
<filter id="filter1_d" x="84" y="105.984" width="75" height="95" filterUnits="userSpaceOnUse" color-interpolation-filters="sRGB">
<feFlood flood-opacity="0" result="BackgroundImageFix"/>
<feColorMatrix in="SourceAlpha" type="matrix" values="0 0 0 0 0 0 0 0 0 0 0 0 0 0 0 0 0 0 127 0"/>
<feOffset dy="2"/>
<feGaussianBlur stdDeviation="2"/>
<feColorMatrix type="matrix" values="0 0 0 0 0 0 0 0 0 0 0 0 0 0 0 0 0 0 0.07 0"/>
<feBlend mode="normal" in2="BackgroundImageFix" result="effect1_dropShadow"/>
<feBlend mode="normal" in="SourceGraphic" in2="effect1_dropShadow" result="shape"/>
</filter>
<filter id="filter2_d" x="299" y="105.984" width="75" height="95" filterUnits="userSpaceOnUse" color-interpolation-filters="sRGB">
<feFlood flood-opacity="0" result="BackgroundImageFix"/>
<feColorMatrix in="SourceAlpha" type="matrix" values="0 0 0 0 0 0 0 0 0 0 0 0 0 0 0 0 0 0 127 0"/>
<feOffset dy="2"/>
<feGaussianBlur stdDeviation="2"/>
<feColorMatrix type="matrix" values="0 0 0 0 0 0 0 0 0 0 0 0 0 0 0 0 0 0 0.07 0"/>
<feBlend mode="normal" in2="BackgroundImageFix" result="effect1_dropShadow"/>
<feBlend mode="normal" in="SourceGraphic" in2="effect1_dropShadow" result="shape"/>
</filter>
<filter id="filter3_d" x="370" y="105.984" width="75" height="95" filterUnits="userSpaceOnUse" color-interpolation-filters="sRGB">
<feFlood flood-opacity="0" result="BackgroundImageFix"/>
<feColorMatrix in="SourceAlpha" type="matrix" values="0 0 0 0 0 0 0 0 0 0 0 0 0 0 0 0 0 0 127 0"/>
<feOffset dy="2"/>
<feGaussianBlur stdDeviation="2"/>
<feColorMatrix type="matrix" values="0 0 0 0 0 0 0 0 0 0 0 0 0 0 0 0 0 0 0.07 0"/>
<feBlend mode="normal" in2="BackgroundImageFix" result="effect1_dropShadow"/>
<feBlend mode="normal" in="SourceGraphic" in2="effect1_dropShadow" result="shape"/>
</filter>
</defs>
</svg>
