<svg width="640" height="386" viewBox="0 0 640 386" fill="none" xmlns="http://www.w3.org/2000/svg">
<path d="M180.41 140.01C179.69 162.66 191.01 172.69 191.29 179.06C191.157 180.357 190.715 181.602 190.002 182.693C189.288 183.784 188.324 184.688 187.19 185.33L174.39 194.29C172.734 195.451 170.781 196.117 168.76 196.21C168.33 196.19 160.57 198.04 148.28 170.6C140.782 179.96 131.242 187.48 120.389 192.584C109.537 197.689 97.6611 200.242 85.67 200.05C69.39 200.94 25.27 190.81 27.54 143.84C25.95 105.56 61.6 81.78 98.47 83.79C105.57 83.81 120.07 84.16 145.46 90.06V74.44C148.15 47.98 130.76 27.45 100.65 30.53C98.25 30.54 81.25 30.03 54.81 40.64C47.45 44.02 46.51 43.46 44.06 43.46C36.65 43.46 39.7 21.98 41.12 19.26C46.33 12.86 76.98 0.91002 107.06 1.08002C127.172 -0.698707 147.177 5.50851 162.75 18.36C169.08 25.4408 173.91 33.7312 176.947 42.7306C179.984 51.7299 181.165 61.2514 180.42 70.72L180.41 140.01ZM93.99 172.4C126.42 171.93 140.15 152.43 143.28 141.93C145.74 131.88 145.33 125.52 145.33 114.53C135.66 112.21 121.74 109.68 105.77 109.66C90.62 108.52 62.95 115.29 64.03 141.92C62.79 158.71 75.15 173.32 93.99 172.4ZM264.91 195.45C257.05 196.17 253.39 190.59 252.23 185.08L202.43 20.43C201.46 17.65 200.82 14.78 200.51 11.85C200.326 10.642 200.63 9.41056 201.353 8.42614C202.077 7.44173 203.162 6.78491 204.37 6.60002C204.61 6.56002 202.24 6.60002 226.62 6.60002C235.4 5.72002 238.26 12.63 239.17 16.97L274.89 157.8L308.05 16.97C308.58 13.75 310.99 5.90002 320.85 6.73002H338.01C340.18 6.55002 349.12 6.23002 350.69 17.1L384.11 159.73L420.98 17.1C421.46 14.92 423.7 5.73002 433.66 6.73002H453.38C454.23 6.60002 459.53 5.92002 458.63 15.31C458.2 17.16 462.04 4.65002 405.88 185.21C404.73 190.72 401.06 196.3 393.2 195.58H374.51C363.57 196.73 362 185.92 361.83 184.83L328.67 47.7L295.89 184.69C295.73 185.78 294.16 196.59 283.21 195.44H264.91V195.45ZM538.39 201.08C532.51 201.09 504.47 200.78 481.03 188.79C478.695 187.801 476.706 186.142 475.316 184.021C473.925 181.901 473.196 179.415 473.22 176.88V166.13C473.22 157.68 479.42 159.23 482.05 160.24C492.09 164.3 498.53 167.38 510.86 169.84C547.51 177.37 563.63 167.54 567.58 165.36C580.73 157.55 581.77 139.68 572.83 130.41C562.35 121.62 557.35 121.29 519.7 109.41C515.06 108.12 476 95.8 475.91 57.05C475.3 28.81 500.96 0.870017 545.43 1.10002C558.1 1.09002 591.86 5.23002 601 16.72C602.35 18.81 603.02 21.27 602.92 23.76V33.87C602.92 38.31 601.3 40.53 598.05 40.53C590.34 39.67 576.66 29.36 548.89 29.78C542 29.42 509 30.69 510.48 54.75C510.05 73.71 537.09 80.82 540.18 81.64C576.64 92.61 588.83 94.43 603.3 111.22C620.44 133.47 611.2 159.52 607.65 166.66C588.57 204.15 539.23 201.1 538.39 201.08ZM578.59 305.94C508.56 357.66 406.9 385.19 320.1 385.19C202.981 385.962 89.8081 342.897 2.82999 264.46C-3.70001 258.57 2.05999 250.5 9.99999 254.99C106.485 310.182 215.725 339.181 326.88 339.11C409.887 338.665 491.989 321.826 568.47 289.56C580.25 284.56 590.24 297.36 578.59 305.94ZM607.78 272.65C598.82 261.13 548.5 267.27 525.97 269.96C519.18 270.73 518.03 264.84 524.18 260.49C564.25 232.32 630.06 240.39 637.62 249.86C645.17 259.33 635.57 325.27 598.06 356.77C592.3 361.64 586.79 359.07 589.35 352.67C597.79 331.42 616.74 284.18 607.78 272.65Z" fill="white"/>
</svg>
