<svg width="59" height="44" viewBox="0 0 59 44" fill="none" xmlns="http://www.w3.org/2000/svg">
<path d="M29.34 23.6917V29.3635C38.9533 29.3635 46.4385 20.0763 43.2937 10.0027C41.9195 5.60051 38.4214 2.10243 34.0192 0.728176C23.9453 -2.41658 14.6582 5.06858 14.6582 14.6819H20.343C20.3437 14.6819 20.3444 14.6806 20.3444 14.6806C20.3453 8.64724 26.3157 3.98314 32.6587 6.28489C35.0087 7.13754 36.883 9.01159 37.7363 11.3613C40.0383 17.7004 35.3808 23.6688 29.353 23.6773V18.0239L29.3521 18.0234H23.6848C23.6843 18.0234 23.6838 18.0244 23.6838 18.0244V23.6917H29.34ZM23.6827 28.0477H19.3283L19.3274 28.0466V23.6917H23.6838V28.0468C23.6838 28.0468 23.6834 28.0477 23.6827 28.0477ZM19.3303 23.6917H15.6801C15.6784 23.6917 15.6773 23.6908 15.6773 23.6908V20.0421C15.6773 20.0421 15.6784 20.0394 15.6801 20.0394H19.3276C19.3292 20.0394 19.3303 20.0405 19.3303 20.0405V23.6917Z" fill="#0080FF"/>
<path d="M5.07276 35.1169C4.33375 34.604 3.41406 34.3442 2.3394 34.3442H0V41.7662H2.3394C3.41153 41.7662 4.33145 41.4918 5.07368 40.9512C5.47773 40.6644 5.79501 40.2638 6.01724 39.7611C6.2381 39.2606 6.35013 38.6706 6.35013 38.0071C6.35013 37.3512 6.2381 36.7685 6.01678 36.2754C5.79501 35.7795 5.47727 35.3899 5.07276 35.1169ZM1.36645 35.5986H2.10064C2.91771 35.5986 3.59014 35.7593 4.10027 36.0768C4.66618 36.4182 4.95338 37.0674 4.95338 38.0068C4.95338 38.9745 4.66549 39.6532 4.09797 40.0248H4.09751C3.6092 40.3476 2.94067 40.5115 2.11074 40.5115H1.36645V35.5986ZM7.30816 41.7662H8.62364V36.5387H7.30816V41.7662ZM7.97853 34.2528C7.75354 34.2528 7.56001 34.3324 7.40389 34.4886C7.24617 34.6389 7.16605 34.8297 7.16605 35.0552C7.16605 35.2801 7.24571 35.4737 7.40298 35.6307C7.56001 35.7882 7.75377 35.8679 7.97853 35.8679C8.20329 35.8679 8.39682 35.7882 8.55431 35.6307C8.7118 35.4735 8.79123 35.2797 8.79123 35.0552C8.79123 34.8299 8.71134 34.6394 8.55431 34.4897C8.47948 34.4132 8.38983 34.3527 8.29083 34.3119C8.19183 34.2712 8.08557 34.2511 7.97853 34.2528ZM13.4007 36.9756C13.004 36.6225 12.5611 36.4168 12.0822 36.4168C11.3561 36.4168 10.7525 36.6679 10.2885 37.1629C9.81883 37.6538 9.58029 38.2856 9.58029 39.0409C9.58029 39.7785 9.81492 40.4082 10.2787 40.9133C10.7459 41.4018 11.3529 41.6493 12.0822 41.6493C12.5894 41.6493 13.0253 41.5081 13.3805 41.2292V41.3497C13.3805 41.7834 13.2643 42.1209 13.0354 42.3525C12.8066 42.5839 12.4893 42.7013 12.0926 42.7013C11.4853 42.7013 11.1047 42.4625 10.6414 41.8364L9.74559 42.6971L9.7697 42.7311C9.96323 43.0025 10.2596 43.2683 10.6508 43.5209C11.042 43.7722 11.5338 43.9001 12.1128 43.9001C12.8938 43.9001 13.5254 43.6593 13.9907 43.1847C14.4584 42.7075 14.6955 42.0685 14.6955 41.2861V36.5385H13.4007V36.9753V36.9756ZM13.0556 40.0627C12.8258 40.324 12.5306 40.4505 12.1534 40.4505C11.7762 40.4505 11.4826 40.324 11.256 40.0632C11.0308 39.8038 10.9162 39.4594 10.9162 39.0406C10.9162 38.615 11.0308 38.2667 11.2562 38.0052C11.4796 37.7467 11.7815 37.6154 12.1534 37.6154C12.5301 37.6154 12.8256 37.7431 13.0556 38.0059C13.2845 38.2672 13.4007 38.6152 13.4007 39.0406C13.4007 39.4594 13.2845 39.8035 13.0556 40.0627ZM15.8214 41.7662H17.1369V36.5387H15.8214V41.7662ZM16.4917 34.2528C16.267 34.2528 16.0732 34.3324 15.9171 34.4886C15.7594 34.6389 15.6793 34.8297 15.6793 35.0552C15.6793 35.2801 15.7589 35.4737 15.9162 35.6307C16.0732 35.7882 16.267 35.8679 16.492 35.8679C16.599 35.8696 16.7053 35.8494 16.8043 35.8086C16.9033 35.7678 16.9929 35.7073 17.0678 35.6307C17.225 35.4735 17.3047 35.2797 17.3047 35.0552C17.3047 34.8299 17.2243 34.6394 17.0678 34.4897C16.9929 34.4132 16.9032 34.3527 16.8043 34.312C16.7053 34.2712 16.599 34.2511 16.492 34.2528H16.4917ZM20.0201 35.1263H18.7253V36.5387H17.973V37.7376H18.7251V39.9089C18.7251 40.5884 18.8608 41.0747 19.1287 41.3539C19.3973 41.6344 19.8741 41.7765 20.5461 41.7765C20.7598 41.7765 20.9749 41.7694 21.1852 41.7559L21.2445 41.7517V40.5538L20.7936 40.5774C20.4802 40.5774 20.2713 40.5223 20.1719 40.4142C20.0709 40.304 20.0201 40.0712 20.0201 39.7225V37.7376H21.2445V36.5387H20.0201V35.1263ZM25.7591 36.9297C25.3603 36.5894 24.8094 36.4168 24.1213 36.4168C23.6835 36.4168 23.2742 36.5127 22.9041 36.7005C22.5616 36.8743 22.2252 37.162 22.0115 37.5385L22.0248 37.5546L22.8671 38.3609C23.214 37.8076 23.5999 37.6154 24.1114 37.6154C24.3862 37.6154 24.6142 37.6893 24.7896 37.8347C24.9641 37.9791 25.049 38.1627 25.049 38.3953V38.6492C24.7355 38.552 24.4092 38.5017 24.0809 38.5C23.4262 38.5 22.8935 38.6538 22.498 38.9575C22.0971 39.2652 21.8942 39.7048 21.8942 40.2652C21.8942 40.7563 22.0652 41.1553 22.4043 41.4519C22.7464 41.7379 23.1734 41.8833 23.6746 41.8833C24.1753 41.8833 24.6438 41.6812 25.0692 41.3357V41.7662H26.3643V38.4056C26.3643 37.7695 26.1607 37.2729 25.7591 36.9297ZM23.4236 39.7686C23.5729 39.6646 23.7836 39.6121 24.0504 39.6121C24.367 39.6121 24.7026 39.6756 25.049 39.8012V40.3141C24.763 40.5797 24.381 40.7147 23.9133 40.7147C23.6856 40.7147 23.5086 40.6642 23.3869 40.5639C23.2675 40.4661 23.2094 40.3414 23.2094 40.1837C23.2094 40.0044 23.2795 39.8685 23.4236 39.7686ZM27.4123 41.7662H28.7278V34.3439H27.4123V41.7662ZM33.5007 41.878C31.3909 41.878 29.6743 40.1617 29.6743 38.0518C29.6743 35.942 31.3907 34.2255 33.5005 34.2255C35.6103 34.2255 37.3266 35.942 37.3266 38.0518C37.3266 40.1617 35.6103 41.878 33.5005 41.878H33.5007ZM33.5007 35.5738C32.1343 35.5738 31.0229 36.6854 31.0229 38.0518C31.0229 39.4181 32.1343 40.5294 33.5005 40.5294C34.8667 40.5294 35.9783 39.4183 35.9783 38.0518C35.9783 36.6854 34.8667 35.574 33.5005 35.574L33.5007 35.5738ZM42.0172 39.897C41.7818 40.1607 41.5412 40.3894 41.3557 40.5081V40.5083C41.1739 40.625 40.9443 40.6844 40.6737 40.6844C40.2859 40.6844 39.9744 40.5432 39.7205 40.2523C39.4679 39.9631 39.34 39.5916 39.34 39.1472C39.34 38.7032 39.4663 38.3322 39.7156 38.045C39.9661 37.7557 40.276 37.6156 40.6633 37.6156C41.0871 37.6156 41.5339 37.879 41.9166 38.3317L42.786 37.4979C42.219 36.76 41.496 36.4168 40.633 36.4168C39.9108 36.4168 39.2847 36.6799 38.7723 37.1985C38.2626 37.7132 38.0041 38.3691 38.0041 39.1472C38.0041 39.9254 38.2624 40.5829 38.7716 41.1013C39.2813 41.6202 39.9076 41.8833 40.633 41.8833C41.5853 41.8833 42.3542 41.4721 42.8723 40.7189L42.0172 39.897ZM47.4159 37.269C47.2295 37.0091 46.9756 36.8 46.6606 36.6468C46.347 36.4942 45.9811 36.4168 45.5738 36.4168C44.8396 36.4168 44.2386 36.6877 43.7877 37.2226C43.3496 37.7529 43.1279 38.4125 43.1279 39.183C43.1279 39.975 43.3712 40.6309 43.8515 41.1319C44.329 41.6303 44.9684 41.8833 45.7515 41.8833C46.6386 41.8833 47.3666 41.5244 47.915 40.8169L47.9446 40.7788L47.0865 39.9541C47.007 40.0501 46.8943 40.1589 46.7912 40.2558C46.6615 40.3784 46.5394 40.4732 46.409 40.5382C46.2122 40.636 45.9918 40.6844 45.745 40.6844C45.3807 40.6844 45.0788 40.5772 44.8481 40.3658C44.6323 40.1679 44.506 39.9011 44.4725 39.5717H47.9575L47.9694 39.0916C47.9694 38.7518 47.9231 38.4244 47.8319 38.1182C47.7417 37.8139 47.6011 37.5268 47.4159 37.269ZM44.5409 38.4997C44.6043 38.2495 44.7195 38.0415 44.8846 37.8799C45.0627 37.7043 45.2948 37.6154 45.574 37.6154C45.8931 37.6154 46.1399 37.7061 46.3077 37.8856C46.4634 38.0514 46.5511 38.2578 46.5695 38.4997H44.5409ZM52.4678 36.9297C52.069 36.5894 51.5178 36.4168 50.83 36.4168C50.3922 36.4168 49.9828 36.5127 49.6128 36.7005C49.27 36.8743 48.9337 37.162 48.7201 37.5385L48.7335 37.5546L49.5758 38.3609C49.9227 37.8076 50.3086 37.6154 50.8201 37.6154C51.0949 37.6154 51.3229 37.6893 51.4983 37.8347C51.6728 37.9791 51.7577 38.1627 51.7577 38.3953V38.6492C51.444 38.552 51.1177 38.5017 50.7893 38.5C50.135 38.5 49.602 38.6538 49.2064 38.9575C48.8058 39.2652 48.6026 39.7048 48.6026 40.2652C48.6026 40.7563 48.7739 41.1553 49.113 41.4519C49.4548 41.7379 49.882 41.8833 50.383 41.8833C50.8839 41.8833 51.3525 41.6812 51.7777 41.3357V41.7662H53.073V38.4056C53.073 37.7695 52.8693 37.2729 52.4678 36.9297ZM50.1323 39.7686C50.2815 39.6646 50.492 39.6121 50.759 39.6121C51.0756 39.6121 51.4113 39.6756 51.7577 39.8012V40.3141C51.4714 40.5797 51.0896 40.7147 50.6217 40.7147C50.3942 40.7147 50.2172 40.6642 50.0956 40.5639C49.9762 40.4661 49.9181 40.3414 49.9181 40.1837C49.9181 40.0044 49.9881 39.8685 50.1323 39.7686ZM58.1333 37.0323C57.7669 36.6241 57.2522 36.4168 56.6027 36.4168C56.0809 36.4168 55.6571 36.5667 55.34 36.8622V36.5385H54.05V41.7662H55.3655V38.8831C55.3655 38.4871 55.4596 38.1726 55.6456 37.9481C55.8311 37.7245 56.0859 37.6154 56.425 37.6154C56.723 37.6154 56.9487 37.7128 57.1154 37.9127C57.2827 38.1136 57.3674 38.3902 57.3674 38.736V41.7662H58.6829V38.736C58.6829 38.0119 58.4981 37.4389 58.1333 37.0325V37.0323Z" fill="#0080FF"/>
</svg>
