<svg width="432" height="384" viewBox="0 0 432 384" fill="none" xmlns="http://www.w3.org/2000/svg">
<path d="M282.4 76.9001L238.3 0.100098H122.6C112.3 0.100098 102.7 5.6001 97.6999 14.6001L4.0999 177.7C-1.0001 186.6 -1.0001 197.4 4.0999 206.4L39.6999 268.5L83.6999 192.1L149.9 76.9001H282.4V76.9001Z" fill="#FFFFFC"/>
<path d="M428.2 177.7L334.6 14.6001C329.4 5.7001 319.9 0.100098 309.7 0.100098H238.3L282.4 76.9001L348.6 192.1L282.4 307.3H370.4L428.2 206.4C433.2 197.5 433.2 186.6 428.2 177.7" fill="#FFFFFD"/>
<path d="M370.3 307.2H149.7L83.5 192L39.5 268.4L97.5 369.4C102.7 378.3 112.2 383.9 122.4 383.9H309.5C319.8 383.9 329.4 378.4 334.4 369.4L370.3 307.2V307.2Z" fill="#FFFFFE"/>
</svg>
