<?xml version="1.0" encoding="UTF-8" standalone="no"?>
<!-- Created with Inkscape (http://www.inkscape.org/) -->

<svg
   xmlns:dc="http://purl.org/dc/elements/1.1/"
   xmlns:cc="http://creativecommons.org/ns#"
   xmlns:rdf="http://www.w3.org/1999/02/22-rdf-syntax-ns#"
   xmlns:svg="http://www.w3.org/2000/svg"
   xmlns="http://www.w3.org/2000/svg"
   xmlns:sodipodi="http://sodipodi.sourceforge.net/DTD/sodipodi-0.dtd"
   xmlns:inkscape="http://www.inkscape.org/namespaces/inkscape"
   id="svg3390"
   version="1.1"
   inkscape:version="0.91 r13725"
   width="1000"
   height="1406"
   viewBox="0 0 1000 1406"
   sodipodi:docname="color2.svg">
  <metadata
     id="metadata3396">
    <rdf:RDF>
      <cc:Work
         rdf:about="">
        <dc:format>image/svg+xml</dc:format>
        <dc:type
           rdf:resource="http://purl.org/dc/dcmitype/StillImage" />
        <dc:title></dc:title>
      </cc:Work>
    </rdf:RDF>
  </metadata>
  <defs
     id="defs3394" />
  <sodipodi:namedview
     pagecolor="#ffffff"
     bordercolor="#666666"
     borderopacity="1"
     objecttolerance="10"
     gridtolerance="10"
     guidetolerance="10"
     inkscape:pageopacity="0"
     inkscape:pageshadow="2"
     inkscape:window-width="1440"
     inkscape:window-height="852"
     id="namedview3392"
     showgrid="false"
     inkscape:zoom="0.46230441"
     inkscape:cx="449.31596"
     inkscape:cy="838.54753"
     inkscape:window-x="9"
     inkscape:window-y="30"
     inkscape:window-maximized="0"
     inkscape:current-layer="svg3390" />
  <g
     id="g3511"
     transform="translate(-0.13210845,0.29400431)">
    <path
       style="fill:#f3d71d"
       d="m 492,1404.8533 c -116.50975,-4.9858 -197.51466,-20.4796 -262.1632,-50.1441 -9.4364,-4.3299 -8.02073,-1.4319 -18.19799,-37.2541 C 193.91346,1255.065 180.44076,1198.5374 166.00769,1126 158.69111,1089.2285 155.2648,1073.8568 138.36845,1002 108.0496,873.06005 96.534447,813.77314 89.908654,752.5 c -1.678025,-15.51782 1.342853,-36.73614 6.089244,-42.7702 2.8096,-3.57183 2.866643,-12.69096 0.08394,-13.41865 -1.623462,-0.42455 -2.025948,-1.79556 -2.619721,-8.92372 -0.492962,-5.91794 -1.260627,-9.13286 -2.581837,-10.8125 C 89.605567,674.9544 89,672.56352 89,669.15129 89,666.383 88.55,663.83992 88,663.5 c -0.600821,-0.37133 -1,-7.15738 -1,-17 0,-9.84262 -0.399179,-16.62867 -1,-17 -0.55,-0.33992 -1,0.28197 -1,1.38197 0,12.32641 -8.858324,-10.12363 -14.0221,-35.53684 -13.251656,-65.2172 -35.000727,-130.02417 -29.997483,-89.38525 1.76018,14.29709 5.003803,28.35355 14.316174,62.04012 10.939974,39.57425 15.9237,67.59469 13.698757,77.01971 C 65.815838,658.48833 45.270453,577.60372 33.429142,505 30.424115,486.575 25.911983,458.9 23.402181,443.5 17.794179,409.08962 12.577689,383.24803 5.4503108,354.56954 -1.6838929,325.86359 -1.4823116,321.20737 7.3834668,309.91664 25.658582,286.64294 79.286275,268.5496 85.083364,283.70163 89.056636,294.08669 77.346124,301.28078 45.5,308.01877 17.898731,313.85864 15.34585,318.03409 30.32942,332.83154 45.309614,347.62565 132.19745,360.84805 235,363.97785 c 182.07521,5.54324 297.50429,7.00274 330,4.17255 7.975,-0.69458 19.31373,-1.52516 25.19718,-1.84574 10.69718,-0.58288 10.69718,-0.58288 10.21053,-3.19377 -0.36856,-1.97735 0.48377,-3.82415 3.51255,-7.61089 2.19956,-2.75 5.48291,-7.025 7.29634,-9.5 6.16847,-8.41885 16.52767,-11.62784 20.82426,-6.45076 5.37534,6.47689 0.62791,21.46796 -8.25291,26.06041 -4.1008,2.12061 -2.92351,2.77334 6.54263,3.62749 4.49318,0.40543 10.74685,1.00899 13.89705,1.34125 9.52978,1.00514 16.79566,-2.43736 12.79193,-6.06069 -8.82018,-7.98215 7.77675,-24.08248 33.48044,-32.47865 3.85,-1.25762 7.4275,-2.68088 7.95,-3.16281 0.5225,-0.48193 1.66267,-0.87624 2.53372,-0.87624 3.27864,0 12.66071,-7.27169 23.09215,-17.89785 5.93589,-6.04669 12.60279,-12.13675 14.81533,-13.53347 2.21254,-1.39672 4.50799,-3.44605 5.10099,-4.55408 1.79854,-3.36061 -1.7058,-2.4551 -9.49219,2.45274 -3.85,2.42669 -9.25,5.78715 -12,7.46768 -5.70934,3.489 -18.4146,11.91333 -30.63625,20.31363 -4.60006,3.16175 -9.48875,6.51073 -10.86375,7.44218 -1.375,0.93144 -3.31691,2.37841 -4.31536,3.21549 -2.21128,1.85388 -12.47382,2.29895 -18.18464,0.78863 -14.82921,-3.92183 -15.89521,-16.94093 -3.23835,-39.55014 C 660.80309,284.24603 676.0735,264 677.99814,264 c 0.47832,0 2.13691,-1.87906 3.68576,-4.17569 2.80314,-4.15648 4.57875,-5.49861 13.50124,-10.20521 6.41661,-3.38476 10.16585,-3.75276 11.18465,-1.09782 0.60522,1.57718 -3.89188,11.47421 -8.95813,19.71464 -10.61955,17.27308 -11.54561,19.03013 -10.55294,20.0228 1.41667,1.41667 12.22826,-5.07059 13.83015,-8.29848 0.67151,-1.35313 2.46819,-5.14821 3.99262,-8.43351 10.31328,-22.22618 34.99806,-24.41485 50.18195,-4.44936 4.01331,5.27714 5.13102,5.87492 5.15301,2.75596 0.0688,-9.75939 13.65712,-17.76679 30.23355,-17.81619 6.87101,-0.0205 7.32259,-1.14485 1.37246,-3.41722 -8.13346,-3.1062 -8.59978,-4.65999 -3.23807,-10.78923 7.43317,-8.49723 3.90625,-10.14871 -10.21487,-4.78311 -13.62469,5.17698 -26.8687,7.97972 -35.92565,7.6027 -4.80913,-0.20019 -9.82445,0.0408 -11.14516,0.53563 -1.32071,0.4948 -4.84783,1.10781 -7.83805,1.36226 -2.99022,0.25445 -5.80057,0.68748 -6.24522,0.96229 -0.44465,0.27481 -2.99253,0.20149 -5.66195,-0.16292 -14.84185,-2.02611 -13.46378,-14.89465 5.12179,-47.82754 2.48313,-4.4 5.90971,-10.925 7.61464,-14.5 1.70492,-3.575 8.63417,-17.75 15.39833,-31.5 6.76415,-13.75 14.15677,-29.05 16.42804,-34 2.27126,-4.95 5.24425,-11.13773 6.60664,-13.75052 C 763.88532,99.136691 765,96.546985 765,95.994575 c 0,-0.552409 1.15235,-3.364675 2.56079,-6.249478 9.09119,-18.620923 23.58868,-64.586039 21.82236,-69.18902 C 789.02475,19.622119 789.32508,19 790.13435,19 c 0.74158,0 3.60223,-1.500129 6.35699,-3.333619 2.75476,-1.83349 6.23438,-4.086145 7.73248,-5.005899 2.23455,-1.3718918 2.62214,-2.1807022 2.15774,-4.5026908 -2.57951,-12.8975223 21.23718,-4.653366 50.87122,17.6090928 43.59121,32.747733 82.28665,88.084936 114.61993,163.914576 28.73569,67.39237 36.28089,181.68749 17.64719,267.31854 -13.06374,60.03412 -21.95523,152.16648 -31.50979,326.5 -6.08322,110.99502 -9.56022,161.08312 -14.57768,210 -1.35395,13.2 -3.12534,33 -3.93643,44 -4.07228,55.2283 -10.20926,106.5048 -20.6455,172.5 -3.56773,22.5611 -4.06796,27.8626 -4.34038,46 -1.02713,68.3833 -26.09446,107.2161 -73.63067,114.0642 -4.6087,0.664 -14.22945,2.9247 -21.37945,5.0238 -57.95623,17.015 -119.78547,26.0377 -204.5,29.8425 -68.69973,3.0856 -88.5685,3.3962 -123,1.9228 z M 255.99497,1301.424 c -12.33665,-50.3017 -19.55327,-74.1832 -28.23133,-93.424 -9.28927,-20.5959 -11.40002,-23.3238 -10.25264,-13.25 5.27398,46.3043 17.98448,89.2473 38.6725,130.6568 10.90865,21.835 10.90402,21.2462 -0.18853,-23.9828 z m -21.62526,33.326 c 3.60046,-13.4351 -2.15782,-41.6948 -18.9247,-92.876 -9.56358,-29.1929 -16.6112,-54.5817 -17.93853,-64.6229 -0.86997,-6.5812 -1.77408,-7.1373 -5.51755,-3.3939 -6.00441,6.0044 -4.18903,18.4285 9.33383,63.8787 3.63872,12.2297 7.13097,26.1797 7.76054,31 3.69976,28.3271 22.34288,76.9978 25.28641,66.0141 z m 339.07802,-148.9232 c 18.24693,-12.0862 15.85285,-47.3136 -3.97882,-58.546 -17.85326,-10.1118 -27.44132,11.9228 -19.86109,45.6432 3.40023,15.1257 12.80181,20.2142 23.83991,12.9028 z m -53.78653,-2.6639 c 13.6067,-6.9767 18.12587,-30.2567 9.60024,-49.4547 -8.40539,-18.9272 -25.26686,-9.3353 -28.30534,16.1019 -0.43951,3.6795 -1.47713,11.0105 -2.30583,16.2912 -2.97051,18.929 4.90167,25.3215 21.01093,17.0616 z m -331.10006,-34.806 c 2.18122,-17.4578 -2.34296,-42.6832 -16.97916,-94.6706 -4.15193,-14.7476 -8.93909,-33.8726 -10.63813,-42.5 -5.55541,-28.20951 -13.96638,-41.9556 -9.90407,-16.1863 1.97187,12.5086 13.10387,69.5914 15.50368,79.5 1.33208,5.5 3.58235,19.3735 5.00061,30.83 3.53195,28.5305 6.63026,39.8349 12.72285,46.42 3.01993,3.2641 3.51094,2.8761 4.29422,-3.3931 z m 231.43648,-96.4898 C 496.17255,1034.4118 520.73529,939.15507 460.61169,894.36169 421.84449,865.47929 397.5664,863.38043 337,883.67536 c -12.375,4.14669 -23.51572,8.17858 -24.75715,8.95977 -4.41348,2.77725 -11.24155,12.62514 -11.24222,16.21428 -3.5e-4,1.84217 -1.76722,7.73108 -3.92639,13.08647 -28.6114,70.96481 44.23367,147.96272 122.92338,129.93122 z M 323.5,997.35257 c -29.96542,-4.47505 -36.42366,-29.98961 -13.48742,-53.28472 16.66141,-16.9221 36.06221,-18.38706 50.30515,-3.79854 28.18276,28.86653 5.87153,63.45849 -36.81773,57.08326 z m 379.93242,40.48983 c 52.32409,-8.7894 85.13209,-68.94317 63.55542,-116.52949 -50.52236,-111.42467 -231.96878,-57.89831 -192.176,56.69157 17.01323,48.99242 63.74861,70.73502 128.62058,59.83792 z M 601.5,991.59878 c -23.32333,-5.74281 -30.88856,-27.05718 -18.39093,-51.81484 15.62531,-30.95358 49.05847,-30.58837 65.55222,0.71606 9.96183,18.90711 7.70351,25.20768 -8.45148,23.57909 -14.52954,-1.46473 -19.29674,0.6123 -12.19385,5.31277 5.1757,3.42512 11.79482,9.38606 13.07168,11.77189 3.98986,7.45513 -22.90165,14.54355 -39.58764,10.43503 z M 355.61806,578.16683 c 3.91072,-0.56786 6.68541,-1.91366 11.76226,-5.705 3.65431,-2.72901 9.45119,-7.02188 12.88194,-9.53972 30.93099,-22.70033 40.8803,-30.6554 52.23774,-41.76717 3.85,-3.76672 15.1,-13.91501 25,-22.55176 9.9,-8.63675 19.84758,-17.36818 22.10574,-19.40318 2.25815,-2.035 6.30815,-5.64941 9,-8.03203 8.44555,-7.47536 23.3992,-21.1442 34.89426,-31.89616 13.49317,-12.62091 42.65976,-42.1208 42.45706,-42.94224 -0.4843,-1.96262 -9.08698,-3.60462 -19.45706,-3.71378 -10.76546,-0.11332 -10.99825,-0.16426 -10.91811,-2.38893 0.10867,-3.01682 0.23441,-3.00092 -29.08189,-3.67784 C 271.9809,381.1339 114.83746,373.04713 29.905092,362.02293 20.013079,360.73895 19,360.77019 19,362.35921 c 0,2.7807 8.096712,10.47228 14.496476,13.77111 8.053211,4.15113 8.174605,5.96987 0.4919,7.36968 -8.236744,1.50076 -7.988378,0.52789 -4.754604,18.62429 C 42.206464,474.72032 61.27829,491.15387 101.541,464.429 124.69715,449.05883 273.07633,433.13938 371,435.51902 c 16.80812,0.40845 28.39729,0.23391 34,-0.51208 4.675,-0.62246 11.06461,-1.36748 14.19914,-1.6556 3.13453,-0.28812 6.22713,-1.16004 6.87245,-1.9376 0.64531,-0.77756 2.8889,-1.41374 4.98576,-1.41374 2.09685,0 5.07925,-0.52035 6.62755,-1.15633 10.59973,-4.35395 91.3151,-6.02605 91.3151,-1.89169 0,0.72559 -4.15334,4.68448 -13.7874,13.14191 -2.25164,1.97665 -13.9081,10.97228 -25.90324,19.99029 -18.18888,13.6745 -30.33776,23.11445 -35.80936,27.82466 -0.55,0.47347 -6.56428,6.78274 -13.36507,14.0206 -27.96899,29.7665 -57.17712,50.25153 -82.27868,57.70589 -3.51041,1.04248 -4.93274,2.06562 -5.73507,4.12548 -1.35171,3.47032 -5.71429,11.2323 -7.08147,12.59948 -2.27572,2.27572 -1.16247,3.89158 2.21029,3.20821 1.7875,-0.36217 5.55313,-0.99293 8.36806,-1.40167 z M 403.5,569 c 0.37653,-0.60925 7.95853,-1 19.40345,-1 C 445.0697,568 463,567.03769 463,565.84803 463,565.38162 462.35714,565 461.57143,565 c -4.25905,0 -5.58903,-4.97283 -2.90153,-10.84887 3.33441,-7.29048 6.44463,-10.79533 40.51101,-45.65113 13.43858,-13.75 26.25281,-27.25 28.47605,-30 19.23358,-23.79062 34.74416,-46.43222 33.00185,-48.17453 -0.75127,-0.75127 -15.51335,13.0638 -17.76918,16.62925 -0.8857,1.39991 -5.1607,6.05693 -9.5,10.34894 -8.50692,8.41423 -9.00132,8.96307 -24.94927,27.69634 -5.85281,6.875 -11.91655,13.85 -13.47498,15.5 -1.55844,1.65 -5.0566,5.475 -7.77368,8.5 -8.93971,9.95279 -25.35291,25.84635 -32.6917,31.65666 -16.4854,13.05194 -41.95155,25.91572 -50,25.25664 -2.71564,-0.22239 -8.5,1.16929 -8.5,2.04503 0,2.10901 6.2996,2.98395 7.5,1.04167 z m 229.37197,-3.935 c 1.27377,-1.91718 2.3475,-2.06608 15,-2.08006 18.57048,-0.0205 28.50832,-3.88484 21.61168,-8.4037 -1.40578,-0.9211 -2.48789,-2.59381 -2.49342,-3.85429 -0.034,-7.74917 -5.75903,-14.14752 -8.92705,-9.97695 -9.21329,12.12889 -10.93224,13.92223 -15.57592,16.25 -30.15559,15.1163 -48.06443,-19.64179 -32.98742,-64.02312 13.00307,-38.27641 14.04329,-41.7389 17.1173,-56.97688 1.48889,-7.38044 0.10921,-21.89185 -2.11714,-22.26812 -4.69683,-0.79379 -26.39178,67.8962 -35.45861,112.26812 -3.9042,19.10667 -3.98593,19.30665 -9.25327,22.64242 -18.49921,11.71543 -25.92137,6.30208 -20.07599,-14.64242 1.82954,-6.55541 7.69098,-22.79211 10.3748,-28.7391 1.05219,-2.33151 1.91307,-4.4937 1.91307,-4.80487 0,-0.31116 0.92457,-2.67857 2.0546,-5.26089 13.16034,-30.07375 16.25702,-41.03307 11.9454,-42.27543 -12.43306,-3.58247 -29.51773,5.96713 -36.97731,20.66875 -0.81252,1.60135 -2.49178,4.57705 -3.73169,6.61266 -2.82259,4.63398 -7.73641,13.74051 -16.07927,29.79888 -11.37022,21.88546 -13.87597,26.05819 -21.54092,35.8713 -8.12499,10.40209 -16.57676,15.4901 -30.17081,18.16299 -9.71713,1.9106 -9.55746,2.40363 1,3.0877 27.42227,1.77683 152.93598,0.10437 154.37197,-2.05699 z m -112.6664,-5.1126 c -4.28179,-1.71841 -6.47874,-10.66099 -4.09178,-16.65535 4.7158,-11.8427 11.05257,-21.69992 32.97666,-51.29705 4.68525,-6.325 10.22534,-14.0875 12.31133,-17.25 11.12299,-16.86325 12.78765,12.94156 2.10842,37.75 -11.40989,26.50581 -30.14722,49.135 -40.1063,48.43661 -0.49714,-0.0349 -1.93639,-0.47775 -3.19833,-0.98421 z m 265.58384,-4.03107 c 5.5693,-0.61865 10.38388,-1.68483 11.28933,-2.5 1.09064,-0.98189 4.08683,-1.42133 9.69098,-1.42133 4.46174,0 8.39036,-0.45 8.73028,-1 0.33992,-0.55 1.43899,-1 2.44239,-1 1.66936,0 3.62336,-3.76759 2.52411,-4.86684 -0.2498,-0.2498 -2.81945,0.0737 -5.71034,0.71895 -5.11232,1.14101 -9.49976,1.81735 -18.75616,2.8913 -12.28358,1.42517 -46.52754,0.46895 -55.95489,-1.56248 -3.3099,-0.71323 -3.50119,-1.00052 -4.55827,-6.84561 -1.90712,-10.54538 -7.49339,-15.49879 -14.64912,-12.98954 -7.07483,2.48088 -7.47421,3.78227 -1.85122,6.03214 4.08253,1.63351 8.0135,4.86486 8.0135,6.58728 0,1.83074 -6.21161,8.0348 -8.04458,8.0348 -1.01056,0 -2.08829,0.40597 -2.39495,0.90216 -0.67662,1.09478 -12.43428,4.73957 -18.31047,5.6761 -11.04721,1.76068 -1.00481,2.42174 36.78941,2.42174 22.68677,0 45.38195,-0.48238 50.75,-1.07867 z M 850.7768,501.54188 C 856.16585,500.62615 862,495.45835 862,491.60054 c 0,-2.88584 -2.27547,-4.41079 -4.26273,-2.85675 -1.23649,0.96694 -8.90422,2.9877 -11.73727,3.09325 -0.825,0.0307 -3.39832,0.36232 -5.71848,0.73686 -15.33965,2.47625 -58.00727,-11.04815 -77.9617,-24.7116 -2.29909,-1.57426 -4.44121,-2.8623 -4.76025,-2.8623 -0.9326,0 -10.80824,-7.01748 -13.80957,-9.81287 -10.34346,-9.63374 8.99432,-10.56516 34.25,-1.64967 15.96848,5.63701 18.06879,6.45111 22.35796,8.66607 6.61622,3.41668 7.38641,3.74974 14.44141,6.24507 16.24607,5.74617 17.5943,4.37335 4.70063,-4.78634 -19.20286,-13.64175 -39.63362,-22.09339 -47.29537,-19.56478 -8.30482,2.74084 -27.27792,-2.20809 -45.20334,-11.79079 -32.10654,-17.16376 -44.25159,-20.27621 -33.30052,-8.53402 14.67449,15.73461 33.70585,33.29046 45.7038,42.16037 7.45861,5.51403 17.6352,12.46688 19.59543,13.38799 0.825,0.38766 3.525,1.88145 6,3.31953 5.76879,3.35192 24.86543,11.93224 29.74904,13.36656 9.54555,2.80353 14.31444,3.93008 19.33091,4.56654 2.98103,0.37821 5.97119,0.97789 6.6448,1.33262 1.60792,0.84675 24.56248,0.56841 30.05205,-0.3644 z M 733,354.32465 c 2.475,-0.21004 6.525,-0.5866 9,-0.83682 4.81149,-0.48642 19.65925,-3.48928 29.5,-5.96618 3.3,-0.8306 17.475,-3.07906 31.5,-4.99658 51.85139,-7.08918 67.19362,-12.86978 80.07756,-30.17134 5.64279,-7.57759 5.66665,-8.54898 0.45797,-18.64461 -10.42311,-20.20235 0.51835,-26.42631 24.96447,-14.20084 8.56985,4.28577 8.5,4.28535 8.5,0.0507 0,-3.84241 -0.76179,-4.56583 -5.92294,-5.62467 -28.09864,-5.76458 -41.08,-27.00941 -26.32631,-43.08467 2.6511,-2.88858 2.43365,-6.06411 -1.34212,-19.59968 -1.66274,-5.96068 -2.62506,-6.3025 -7.46435,-2.65138 -1.89435,1.42924 -5.39284,3.4537 -7.77441,4.49881 -4.33014,1.90019 -4.33014,1.90019 0.0987,6.32905 14.11975,14.11975 -3.73547,31.59645 -34.26858,33.54209 -20.0013,1.27454 -21.73067,1.89103 -12.68295,4.52127 15.29016,4.44497 17.57644,13.9594 4.84197,20.15001 -11.8605,5.76576 -11.33175,6.20637 3.41232,2.84355 23.6475,-5.39352 41.83502,-4.60692 44.12482,1.90838 6.30799,17.94853 -5.9767,36.33613 -30.69616,45.94571 -5.91367,2.29892 -9.45158,3.37443 -21.5,6.53596 -6.09205,1.59857 -23.67319,4.2867 -24.25182,3.70807 -0.28113,-0.28114 -1.25963,-0.11057 -2.17445,0.37902 -0.91482,0.4896 -5.24315,1.18627 -9.61852,1.54816 -25.60446,2.11777 -39.10958,3.90139 -67.67951,8.93839 C 701.95943,352.23557 700,352.7455 700,354.07316 c 0,0.96973 19.62521,1.84071 25,1.10951 1.925,-0.26188 5.525,-0.64799 8,-0.85802 z m 85.34254,-142.12837 c 3.9366,-2.6375 12.33646,-8.22102 18.66635,-12.40781 19.99316,-13.22412 33.60337,-27.47335 36.43988,-38.15077 0.75067,-2.82574 1.65888,-5.87033 2.01824,-6.76576 1.10024,-2.74152 -2.58095,-12.65375 -3.89481,-10.48743 -6.04112,9.96075 -10.58635,15.6605 -19.54726,24.5124 -14.87217,14.69125 -20.291,19.78115 -22.0965,20.75523 -2.97511,1.60508 -19.09284,19.8528 -20.5096,23.21998 -2.7926,6.6371 -1.88906,6.56867 8.9237,-0.67584 z M 105,286.1438 c 0,-1.02091 1.50724,-3.83341 3.34943,-6.25 C 112.97425,273.82694 115,269.62802 115,266.10868 c 0,-3.90908 -1.33299,-3.40667 22.61664,-8.52423 53.58467,-11.44999 76.53593,-14.39299 117.55711,-15.07415 216.37599,-3.59295 279.88598,-5.57835 348.65689,-10.89944 17.5001,-1.35406 17.46805,-1.363 22.27369,6.2147 10.38656,16.37791 -19.02244,27.14299 -64.60433,23.64821 -4.4,-0.33735 -25.325,-0.74359 -46.5,-0.90276 -38.5,-0.28938 -38.5,-0.28938 -59.40674,-4.49961 -30.5187,-6.14589 -39.45594,-5.78921 -48.24228,1.9253 -4.12084,3.61814 -2.80316,3.6053 -12.68102,0.12353 -24.97218,-8.80228 -55.86547,-9.3413 -105.66996,-1.84372 -16.775,2.52531 -36.35,5.08747 -43.5,5.6937 -37.14882,3.14972 -71.98727,9.58757 -116.6788,21.56124 C 110.24128,288.50934 105,289.08413 105,286.1438 Z"
       id="path3525"
       inkscape:connector-curvature="0" />
    <path
       style="fill:#d5ad2d"
       d="m 492,1404.8533 c -116.50975,-4.9858 -197.51466,-20.4796 -262.1632,-50.1441 -9.4364,-4.3299 -8.02073,-1.4319 -18.19799,-37.2541 C 193.91346,1255.065 180.44076,1198.5374 166.00769,1126 158.69111,1089.2285 155.2648,1073.8568 138.36845,1002 108.0496,873.06005 96.534447,813.77314 89.908654,752.5 c -1.678025,-15.51782 1.342853,-36.73614 6.089244,-42.7702 2.8096,-3.57183 2.866643,-12.69096 0.08394,-13.41865 -1.623462,-0.42455 -2.025948,-1.79556 -2.619721,-8.92372 -0.492962,-5.91794 -1.260627,-9.13286 -2.581837,-10.8125 C 89.605567,674.9544 89,672.56352 89,669.15129 89,666.383 88.55,663.83992 88,663.5 c -0.600821,-0.37133 -1,-7.15738 -1,-17 0,-9.84262 -0.399179,-16.62867 -1,-17 -0.55,-0.33992 -1,0.28197 -1,1.38197 0,12.32641 -8.858324,-10.12363 -14.0221,-35.53684 -13.251656,-65.2172 -35.000727,-130.02417 -29.997483,-89.38525 1.76018,14.29709 5.003803,28.35355 14.316174,62.04012 10.939974,39.57425 15.9237,67.59469 13.698757,77.01971 C 65.815838,658.48833 45.270453,577.60372 33.429142,505 30.424115,486.575 25.911983,458.9 23.402181,443.5 17.794179,409.08962 12.577689,383.24803 5.4503108,354.56954 -1.6838929,325.86359 -1.4823116,321.20737 7.3834668,309.91664 25.658582,286.64294 79.286275,268.5496 85.083364,283.70163 89.056636,294.08669 77.346124,301.28078 45.5,308.01877 17.898731,313.85864 15.34585,318.03409 30.32942,332.83154 45.309614,347.62565 132.19745,360.84805 235,363.97785 c 182.07521,5.54324 297.50429,7.00274 330,4.17255 7.975,-0.69458 19.31373,-1.52516 25.19718,-1.84574 10.69718,-0.58288 10.69718,-0.58288 10.21053,-3.19377 -0.36856,-1.97735 0.48377,-3.82415 3.51255,-7.61089 2.19956,-2.75 5.48291,-7.025 7.29634,-9.5 6.55285,-8.94346 17.05034,-11.74007 21.29903,-5.67422 2.81239,4.01525 1.51183,5.16322 -1.58843,1.40206 -4.92106,-5.97009 -12.37834,-3.57803 -19.4272,6.23163 -1.65,2.29625 -4.4625,5.98732 -6.25,8.20238 -6.96001,8.6248 -0.63972,14.7343 11.59609,11.20934 C 625.4925,364.88028 633,356.03191 633,348.33212 c 0,-1.8291 0.33192,-2.4002 1.00424,-1.72788 2.84847,2.84847 -4.15049,15.86867 -10.21629,19.00541 -4.1008,2.12061 -2.92351,2.77334 6.54263,3.62749 4.49318,0.40543 10.74685,1.00899 13.89705,1.34125 9.52978,1.00514 16.79566,-2.43736 12.79193,-6.06069 -8.82018,-7.98215 7.77675,-24.08248 33.48044,-32.47865 3.85,-1.25762 7.4275,-2.68088 7.95,-3.16281 0.5225,-0.48193 1.66267,-0.87624 2.53372,-0.87624 3.27566,0 12.65664,-7.26755 23.0589,-17.86398 10.61956,-10.81779 15.51041,-14.91632 16.55427,-13.87247 0.29396,0.29396 -1.18259,1.80076 -3.28121,3.34844 -15.51938,11.44511 -16.16476,15.84991 -1.18149,8.06372 21.77425,-11.31519 30.85604,-13.6409 23.80257,-6.09549 -9.05693,9.68859 -38.9777,23.97884 -42.60721,20.34933 -0.7606,-0.7606 -2.65511,-0.0568 -6.54505,2.4316 -3.01102,1.92613 -9.93182,5.06426 -15.37954,6.97362 -18.69222,6.55139 -23.55854,9.28384 -34.38507,19.3073 -34.63602,32.06684 151.40342,18.72102 253.6155,-18.19349 17.14608,-6.19241 20.42031,-9.88704 19.04595,-21.49136 -2.36239,-19.94664 -41.39103,-44.81066 -52.14087,-33.21744 -2.5611,2.76203 -3.61217,1.99779 -1.29047,-0.93831 3.9962,-5.05371 14.80244,-4.0183 28.25,2.70681 8.57445,4.28807 8.5,4.28783 8.5,0.0269 0,-3.72192 -1.93068,-5.47312 -6.18426,-5.60934 -2.24493,-0.0719 -11.17114,-3.70253 -9.46965,-3.85168 0.46535,-0.0408 3.33568,0.64958 6.3785,1.53415 21.6202,6.28517 29.65174,-4.56576 19.2698,-26.03426 C 925.9108,243.33332 922.80082,232.725 920.08331,222 905.82517,165.72826 876.87725,105.00331 864.30902,105.00049 c -2.97089,-6.6e-4 -2.91125,0.14342 -7.86653,-19.00163 C 847.93825,53.142264 841.66327,41.051131 829.53448,34.150367 803.17847,19.154916 796.72802,-8.1008491 822,2.3141007 876.23445,24.664904 931.51963,93.043378 971.87271,187.68146 1000.6084,255.07383 1008.1536,369.36895 989.5199,455 c -13.06374,60.03412 -21.95523,152.16648 -31.50979,326.5 -6.08322,110.99502 -9.56022,161.08312 -14.57768,210 -1.35395,13.2 -3.12534,33 -3.93643,44 -4.07228,55.2283 -10.20926,106.5048 -20.6455,172.5 -3.56773,22.5611 -4.06796,27.8626 -4.34038,46 -1.02713,68.3833 -26.09446,107.2161 -73.63067,114.0642 -4.6087,0.664 -14.22945,2.9247 -21.37945,5.0238 -57.95623,17.015 -119.78547,26.0377 -204.5,29.8425 -68.69973,3.0856 -88.5685,3.3962 -123,1.9228 z M 255.99497,1301.424 c -12.33665,-50.3017 -19.55327,-74.1832 -28.23133,-93.424 -9.28927,-20.5959 -11.40002,-23.3238 -10.25264,-13.25 5.27398,46.3043 17.98448,89.2473 38.6725,130.6568 10.90865,21.835 10.90402,21.2462 -0.18853,-23.9828 z m -21.62526,33.326 c 3.60046,-13.4351 -2.15782,-41.6948 -18.9247,-92.876 -9.56358,-29.1929 -16.6112,-54.5817 -17.93853,-64.6229 -0.86997,-6.5812 -1.77408,-7.1373 -5.51755,-3.3939 -6.00441,6.0044 -4.18903,18.4285 9.33383,63.8787 3.63872,12.2297 7.13097,26.1797 7.76054,31 3.69976,28.3271 22.34288,76.9978 25.28641,66.0141 z m 339.07802,-148.9232 c 18.24693,-12.0862 15.85285,-47.3136 -3.97882,-58.546 -17.85326,-10.1118 -27.44132,11.9228 -19.86109,45.6432 3.40023,15.1257 12.80181,20.2142 23.83991,12.9028 z m -53.78653,-2.6639 c 13.6067,-6.9767 18.12587,-30.2567 9.60024,-49.4547 -8.40539,-18.9272 -25.26686,-9.3353 -28.30534,16.1019 -0.43951,3.6795 -1.47713,11.0105 -2.30583,16.2912 -2.97051,18.929 4.90167,25.3215 21.01093,17.0616 z m -331.10006,-34.806 c 2.18122,-17.4578 -2.34296,-42.6832 -16.97916,-94.6706 -4.15193,-14.7476 -8.93909,-33.8726 -10.63813,-42.5 -5.55541,-28.20951 -13.96638,-41.9556 -9.90407,-16.1863 1.97187,12.5086 13.10387,69.5914 15.50368,79.5 1.33208,5.5 3.58235,19.3735 5.00061,30.83 3.53195,28.5305 6.63026,39.8349 12.72285,46.42 3.01993,3.2641 3.51094,2.8761 4.29422,-3.3931 z m 231.43648,-96.4898 C 496.17255,1034.4118 520.73529,939.15507 460.61169,894.36169 421.84449,865.47929 397.5664,863.38043 337,883.67536 c -12.375,4.14669 -23.51572,8.17858 -24.75715,8.95977 -4.41348,2.77725 -11.24155,12.62514 -11.24222,16.21428 -3.5e-4,1.84217 -1.76722,7.73108 -3.92639,13.08647 -28.6114,70.96481 44.23367,147.96272 122.92338,129.93122 z M 323.5,997.35257 c -29.96542,-4.47505 -36.42366,-29.98961 -13.48742,-53.28472 16.66141,-16.9221 36.06221,-18.38706 50.30515,-3.79854 28.18276,28.86653 5.87153,63.45849 -36.81773,57.08326 z m 379.93242,40.48983 c 52.32409,-8.7894 85.13209,-68.94317 63.55542,-116.52949 -50.52236,-111.42467 -231.96878,-57.89831 -192.176,56.69157 17.01323,48.99242 63.74861,70.73502 128.62058,59.83792 z M 601.5,991.59878 c -23.32333,-5.74281 -30.88856,-27.05718 -18.39093,-51.81484 15.62531,-30.95358 49.05847,-30.58837 65.55222,0.71606 9.96183,18.90711 7.70351,25.20768 -8.45148,23.57909 -14.52954,-1.46473 -19.29674,0.6123 -12.19385,5.31277 5.1757,3.42512 11.79482,9.38606 13.07168,11.77189 3.98986,7.45513 -22.90165,14.54355 -39.58764,10.43503 z M 355.63278,578.16521 c 3.94071,-0.57182 6.66434,-1.89678 11.72735,-5.705 3.62701,-2.72812 9.19226,-6.85361 12.36722,-9.16777 17.45597,-12.72328 32.47213,-24.14789 37.77265,-28.73821 6.87607,-5.95478 8.5,-7.05059 8.5,-5.73572 0,0.51509 -2.5875,3.04027 -5.75,5.61151 -3.1625,2.57123 -6.53153,5.31684 -7.48674,6.10134 -2.66265,2.1868 -21.40146,16.14271 -32.15133,23.94502 -11.52509,8.36496 -11.65874,8.82705 -2.36193,8.16652 13.15452,-0.93463 15.89518,-1.61013 15.21591,-3.75031 -0.68624,-2.16216 3.40472,-4.26925 6.96855,-3.58921 1.61983,0.3091 1.35582,0.56333 -1.22352,1.1782 -1.80899,0.43122 -3.12428,1.28678 -2.92288,1.90123 0.49777,1.51866 5.69651,2.03262 7.03376,0.69537 C 404.01562,568.38438 411.04689,568 423.04444,568 445.08441,568 463,567.03508 463,565.84803 463,565.38162 462.35714,565 461.57143,565 459.96994,565 457,562.3549 457,560.92857 c 0,-0.51071 0.9,-0.0286 2,1.07143 1.42117,1.42117 3.33333,2 6.60699,2 3.5277,0 4.48172,0.32645 4.07227,1.39346 -1.46479,3.81718 160.60792,3.45368 163.19271,-0.36602 1.26471,-1.86893 2.43743,-2.02862 15,-2.0425 18.57048,-0.0205 28.50832,-3.88484 21.61168,-8.4037 -1.40578,-0.9211 -2.48789,-2.59381 -2.49342,-3.85429 -0.005,-1.22482 -1.10967,-4.58945 -2.45399,-7.47695 -1.34433,-2.8875 -2.04149,-5.25 -1.54925,-5.25 1.28616,0 2.04565,1.48738 4.53763,8.88645 2.15106,6.38685 2.34095,6.60855 6.59511,7.69986 4.2595,1.09269 4.29756,1.13732 1.38027,1.61885 -1.65,0.27235 1.05,0.50336 6,0.51337 6.3182,0.0128 7.95708,-0.20134 5.5,-0.71853 -1.925,-0.40519 -3.19506,-0.79596 -2.82236,-0.86836 0.3727,-0.0724 4.17914,-0.61865 8.45876,-1.21389 13.50882,-1.87891 23.17558,-5.44645 23.54942,-8.69098 0.28347,-2.46024 0.70366,-2.72677 4.29877,-2.72677 6.97984,0 5.24866,-6.70901 -2.08625,-8.08505 -3.64165,-0.68318 -5.94059,-2.72856 -4.92102,-4.37826 0.99107,-1.60358 6.50542,-4.21561 7.84047,-3.71385 0.67334,0.25306 0.32133,0.7407 -0.81779,1.13289 -6.28019,2.16219 -6.72157,3.83834 -1.55509,5.90555 4.11826,1.6478 8.05509,4.87539 8.05509,6.60392 0,1.83074 -6.21161,8.0348 -8.04458,8.0348 -1.01056,0 -2.08829,0.40597 -2.39495,0.90216 -0.67662,1.09478 -12.43428,4.73957 -18.31047,5.6761 -11.04721,1.76068 -1.00481,2.42174 36.78941,2.42174 41.7775,0 59.1793,-1.0038 62.03933,-3.57867 1.09064,-0.98189 4.08683,-1.42133 9.69098,-1.42133 4.46174,0 8.39036,-0.45 8.73028,-1 0.33992,-0.55 1.43899,-1 2.44239,-1 1.66936,0 3.62336,-3.76759 2.52411,-4.86684 -0.2498,-0.2498 -2.81945,0.0413 -5.71034,0.64697 C 804.23203,547.98489 803,548.1438 803,547.29646 c 0,-0.47435 3.2115,-1.45639 7.13666,-2.18233 34.90672,-6.45579 61.68168,-25.99832 72.90313,-53.21062 1.55764,-3.77732 6.08221,-12.83838 10.05459,-20.13569 24.29255,-44.62567 38.47977,-83.1876 34.85438,-94.73685 -0.43696,-1.39203 -1.05992,-4.14029 -1.38434,-6.10724 -1.12201,-6.80265 -1.67986,-7.02659 -13.56442,-5.44543 -53.13293,7.06901 -156.38431,17.63767 -219.5,22.46771 -44.32473,3.39203 -104.6251,7.03108 -116.78012,7.04752 -4.78012,0.006 -4.78012,0.006 -22.4632,16.95993 -22.12802,21.215 -23.98409,21.3051 -2.84827,0.13827 8.69737,-8.71014 15.42599,-16.06315 14.9525,-16.34004 -3.22637,-1.88667 -15.2184,-3.76392 -22.51738,-3.52491 -8.11164,0.26563 -8.34125,0.21004 -8.26164,-1.99992 0.10867,-3.01682 0.23441,-3.00092 -29.08189,-3.67784 C 271.9809,381.1339 114.83746,373.04713 29.905092,362.02293 20.013079,360.73895 19,360.77019 19,362.35921 c 0,2.7807 8.096712,10.47228 14.496476,13.77111 8.053211,4.15113 8.174605,5.96987 0.4919,7.36968 -8.236744,1.50076 -7.988378,0.52789 -4.754604,18.62429 C 42.206464,474.72032 61.27829,491.15387 101.541,464.429 124.69715,449.05883 273.07633,433.13938 371,435.51902 c 16.80812,0.40845 28.39729,0.23391 34,-0.51208 4.675,-0.62246 11.06461,-1.36748 14.19914,-1.6556 3.13453,-0.28812 6.22713,-1.16004 6.87245,-1.9376 0.64531,-0.77756 2.8889,-1.41374 4.98576,-1.41374 2.09685,0 5.07925,-0.52035 6.62755,-1.15633 10.59973,-4.35395 91.3151,-6.02605 91.3151,-1.89169 0,0.72559 -4.15334,4.68448 -13.7874,13.14191 -2.25164,1.97665 -13.9081,10.97228 -25.90324,19.99029 -18.18888,13.6745 -30.33776,23.11445 -35.80936,27.82466 -0.55,0.47347 -6.56428,6.78274 -13.36507,14.0206 -27.96899,29.7665 -57.17712,50.25153 -82.27868,57.70589 -3.51041,1.04248 -4.93274,2.06562 -5.73507,4.12548 -1.35171,3.47032 -5.71429,11.2323 -7.08147,12.59948 -2.27572,2.27572 -1.16247,3.89158 2.21029,3.20821 1.7875,-0.36217 5.55975,-0.99365 8.38278,-1.40329 z M 105,286.1438 c 0,-1.02091 1.50724,-3.83341 3.34943,-6.25 C 112.97425,273.82694 115,269.62802 115,266.10868 c 0,-3.90908 -1.33299,-3.40667 22.61664,-8.52423 53.58467,-11.44999 76.53593,-14.39299 117.55711,-15.07415 216.37599,-3.59295 279.88598,-5.57835 348.65689,-10.89944 17.5001,-1.35406 17.46805,-1.363 22.27369,6.2147 10.38656,16.37791 -19.02244,27.14299 -64.60433,23.64821 -4.4,-0.33735 -25.325,-0.74359 -46.5,-0.90276 -38.5,-0.28938 -38.5,-0.28938 -59.40674,-4.49961 -30.5187,-6.14589 -39.45594,-5.78921 -48.24228,1.9253 -4.12084,3.61814 -2.80316,3.6053 -12.68102,0.12353 -24.97218,-8.80228 -55.86547,-9.3413 -105.66996,-1.84372 -16.775,2.52531 -36.35,5.08747 -43.5,5.6937 -37.14882,3.14972 -71.98727,9.58757 -116.6788,21.56124 C 110.24128,288.50934 105,289.08413 105,286.1438 Z"
       id="path3523"
       inkscape:connector-curvature="0" />
    <path
       style="fill:#28a8dd"
       d="m 492,1404.8533 c -116.50975,-4.9858 -197.51466,-20.4796 -262.1632,-50.1441 -9.4364,-4.3299 -8.02073,-1.4319 -18.19799,-37.2541 C 193.91346,1255.065 180.44076,1198.5374 166.00769,1126 158.69111,1089.2285 155.2648,1073.8568 138.36845,1002 108.0496,873.06005 96.534447,813.77314 89.908654,752.5 c -1.678025,-15.51782 1.342853,-36.73614 6.089244,-42.7702 2.8096,-3.57183 2.866643,-12.69096 0.08394,-13.41865 -1.623462,-0.42455 -2.025948,-1.79556 -2.619721,-8.92372 -0.492962,-5.91794 -1.260627,-9.13286 -2.581837,-10.8125 C 89.605567,674.9544 89,672.56352 89,669.15129 89,666.383 88.55,663.83992 88,663.5 c -0.600821,-0.37133 -1,-7.15738 -1,-17 0,-9.84262 -0.399179,-16.62867 -1,-17 -0.55,-0.33992 -1,0.28197 -1,1.38197 0,12.32641 -8.858324,-10.12363 -14.0221,-35.53684 -13.251656,-65.2172 -35.000727,-130.02417 -29.997483,-89.38525 1.76018,14.29709 5.003803,28.35355 14.316174,62.04012 10.939974,39.57425 15.9237,67.59469 13.698757,77.01971 C 65.815838,658.48833 45.270453,577.60372 33.429142,505 30.424115,486.575 25.911983,458.9 23.402181,443.5 17.794179,409.08962 12.577689,383.24803 5.4503108,354.56954 -1.6838929,325.86359 -1.4823116,321.20737 7.3834668,309.91664 25.658582,286.64294 79.286275,268.5496 85.083364,283.70163 89.056636,294.08669 77.346124,301.28078 45.5,308.01877 17.898731,313.85864 15.34585,318.03409 30.32942,332.83154 45.309614,347.62565 132.19745,360.84805 235,363.97785 c 181.91818,5.53846 297.43917,7.00115 330,4.17837 32.16178,-2.78819 34.09743,-2.76947 39.47459,0.38175 4.7931,2.80895 4.7931,2.80895 10.90925,1.28981 6.12105,-1.52036 7.58721,-1.48208 28.91702,0.75486 4.64353,0.48698 6.87757,0.17136 11.19756,-1.582 4.79158,-1.94476 5.82306,-2.04857 9.19914,-0.92586 7.00676,2.33009 73.78193,1.65788 97.30244,-0.97952 65.4062,-7.33414 142.82932,-25.19288 168.57673,-38.88464 3.03088,-1.61173 22.94347,-6.43821 35.92327,-8.7072 12.46261,-2.17858 20.51758,-4.09938 26.5,-6.31921 5.5,-2.04082 5.5,-2.04082 6.14621,6.63748 2.87289,38.58186 -1.42171,100.84283 -9.15181,132.67831 -2.02739,8.34954 -4.41305,21.67289 -7.96811,44.5 -1.15636,7.425 -2.59554,14.48293 -3.19819,15.68429 -0.60265,1.20136 -0.82346,3.22547 -0.49068,4.49802 0.33278,1.27254 -0.50182,11.31461 -1.85467,22.3157 -7.11805,57.88274 -11.59915,116.58754 -18.47264,242.00199 -6.08322,110.99502 -9.56022,161.08312 -14.57768,210 -1.35395,13.2 -3.12534,33 -3.93643,44 -4.07228,55.2283 -10.20926,106.5048 -20.6455,172.5 -3.56773,22.5611 -4.06796,27.8626 -4.34038,46 -1.02713,68.3833 -26.09446,107.2161 -73.63067,114.0642 -4.6087,0.664 -14.22945,2.9247 -21.37945,5.0238 -57.95623,17.015 -119.78547,26.0377 -204.5,29.8425 -68.69973,3.0856 -88.5685,3.3962 -123,1.9228 z M 255.99497,1301.424 c -12.33665,-50.3017 -19.55327,-74.1832 -28.23133,-93.424 -9.28927,-20.5959 -11.40002,-23.3238 -10.25264,-13.25 5.27398,46.3043 17.98448,89.2473 38.6725,130.6568 10.90865,21.835 10.90402,21.2462 -0.18853,-23.9828 z m -21.62526,33.326 c 3.60046,-13.4351 -2.15782,-41.6948 -18.9247,-92.876 -9.56358,-29.1929 -16.6112,-54.5817 -17.93853,-64.6229 -0.86997,-6.5812 -1.77408,-7.1373 -5.51755,-3.3939 -6.00441,6.0044 -4.18903,18.4285 9.33383,63.8787 3.63872,12.2297 7.13097,26.1797 7.76054,31 3.69976,28.3271 22.34288,76.9978 25.28641,66.0141 z m 339.07802,-148.9232 c 18.24693,-12.0862 15.85285,-47.3136 -3.97882,-58.546 -17.85326,-10.1118 -27.44132,11.9228 -19.86109,45.6432 3.40023,15.1257 12.80181,20.2142 23.83991,12.9028 z m -53.78653,-2.6639 c 13.6067,-6.9767 18.12587,-30.2567 9.60024,-49.4547 -8.40539,-18.9272 -25.26686,-9.3353 -28.30534,16.1019 -0.43951,3.6795 -1.47713,11.0105 -2.30583,16.2912 -2.97051,18.929 4.90167,25.3215 21.01093,17.0616 z m -331.10006,-34.806 c 2.18122,-17.4578 -2.34296,-42.6832 -16.97916,-94.6706 -4.15193,-14.7476 -8.93909,-33.8726 -10.63813,-42.5 -5.55541,-28.20951 -13.96638,-41.9556 -9.90407,-16.1863 1.97187,12.5086 13.10387,69.5914 15.50368,79.5 1.33208,5.5 3.58235,19.3735 5.00061,30.83 3.53195,28.5305 6.63026,39.8349 12.72285,46.42 3.01993,3.2641 3.51094,2.8761 4.29422,-3.3931 z m 300.70006,-32.3564 c 10.18632,-5.4944 20.58321,-8.0019 33.14876,-7.9947 9.66722,0.01 16.95696,1.0034 44.59004,6.1039 33.72409,6.2248 53.54714,1.5385 51.20741,-12.1057 -5.30061,-30.9108 -21.01781,-37.6945 -69.28402,-29.9034 -28.1536,4.5445 -48.54215,4.7584 -59.99857,0.6295 -9.05032,-3.2617 -8.4988,-3.2356 -15.21665,-0.7221 -24.29094,9.0884 -23.22283,38.0461 1.69474,45.9465 3.3534,1.0632 6.17504,1.9584 6.27031,1.9893 0.0953,0.031 3.50986,-1.7436 7.58798,-3.9433 z m -69.26358,-64.1334 C 496.17255,1034.4118 520.73529,939.15507 460.61169,894.36169 421.84449,865.47929 397.5664,863.38043 337,883.67536 c -12.375,4.14669 -23.51572,8.17858 -24.75715,8.95977 -4.41348,2.77725 -11.24155,12.62514 -11.24222,16.21428 -3.5e-4,1.84217 -1.76722,7.73108 -3.92639,13.08647 -28.6114,70.96481 44.23367,147.96272 122.92338,129.93122 z M 323.5,997.35257 c -29.96542,-4.47505 -36.42366,-29.98961 -13.48742,-53.28472 16.66141,-16.9221 36.06221,-18.38706 50.30515,-3.79854 28.18276,28.86653 5.87153,63.45849 -36.81773,57.08326 z m 379.93242,40.48983 c 52.32409,-8.7894 85.13209,-68.94317 63.55542,-116.52949 -50.52236,-111.42467 -231.96878,-57.89831 -192.176,56.69157 17.01323,48.99242 63.74861,70.73502 128.62058,59.83792 z M 601.5,991.59878 c -23.32333,-5.74281 -30.88856,-27.05718 -18.39093,-51.81484 15.62531,-30.95358 49.05847,-30.58837 65.55222,0.71606 9.96183,18.90711 7.70351,25.20768 -8.45148,23.57909 -14.52954,-1.46473 -19.29674,0.6123 -12.19385,5.31277 5.1757,3.42512 11.79482,9.38606 13.07168,11.77189 3.98986,7.45513 -22.90165,14.54355 -39.58764,10.43503 z M 349.94155,579.03128 c 0.99554,-0.5328 4.61625,-1.07954 8.04602,-1.21499 5.02349,-0.19839 6.36935,-0.60692 6.92212,-2.10119 0.60005,-1.62208 2.06093,-1.89666 11.63824,-2.18741 14.39958,-0.43715 20.10398,-1.23948 24.95207,-3.50957 4.32961,-2.0273 45.95459,-3.65422 73.5,-2.87275 48.98594,1.38975 156.50184,-0.0155 157.86153,-2.06334 1.28714,-1.93855 2.32159,-2.08307 15.01044,-2.09709 14.2548,-0.0158 20.0709,-1.15697 22.44532,-4.40418 1.21046,-1.6554 4.62558,-1.76076 53.23807,-1.64244 52.93994,0.12886 70.40154,-0.70642 73.52338,-3.51699 1.09064,-0.98189 4.08683,-1.42133 9.69098,-1.42133 4.46174,0 8.39036,-0.45 8.73028,-1 0.39552,-0.63997 15.16532,-1 41.02383,-1 38.94895,0 40.44319,-0.0699 41.4428,-1.93765 0.89627,-1.67469 2.49564,-2.0106 11.78518,-2.47522 22.10582,-1.10563 27.72655,-1.7266 29.41932,-3.25022 1.29855,-1.16878 3.85078,-1.4407 11.44718,-1.21959 9.77603,0.28454 9.77603,0.28454 10.98701,-4.16639 0.66603,-2.44801 2.11332,-6.92593 3.21619,-9.95093 1.60085,-4.39088 2.14544,-9.23069 2.70057,-24 0.75956,-20.20868 1.46316,-26.65348 4.14855,-38 2.1536,-9.09957 2.20774,-69.78407 0.0834,-93.5 -1.32577,-14.80082 -28.63438,-20.35986 -48.85173,-9.94443 -3.33697,1.71912 -84.30231,11.31687 -146.90231,17.414 -63.29311,6.16465 -143.13755,12.02079 -186,13.64206 -11.40438,0.43137 -18.42383,1.12811 -20.15225,2.00028 -2.26874,1.14483 -3.4255,1.09279 -8,-0.35989 -3.58831,-1.13951 -8.80231,-1.70709 -15.84775,-1.72513 -10.27037,-0.0263 -10.49821,-0.0766 -10.41811,-2.30003 0.10867,-3.01682 0.23441,-3.00092 -29.08189,-3.67784 C 271.9809,381.1339 114.83746,373.04713 29.905092,362.02293 20.013079,360.73895 19,360.77019 19,362.35921 c 0,2.7807 8.096712,10.47228 14.496476,13.77111 8.053211,4.15113 8.174605,5.96987 0.4919,7.36968 -8.236744,1.50076 -7.988378,0.52789 -4.754604,18.62429 C 42.206464,474.72032 61.27829,491.15387 101.541,464.429 124.69715,449.05883 273.07633,433.13938 371,435.51902 c 16.80812,0.40845 28.39729,0.23391 34,-0.51208 4.675,-0.62246 11.06461,-1.36748 14.19914,-1.6556 3.13453,-0.28812 6.22713,-1.16004 6.87245,-1.9376 0.64531,-0.77756 2.8889,-1.41374 4.98576,-1.41374 2.09685,0 5.07925,-0.52035 6.62755,-1.15633 10.59973,-4.35395 91.3151,-6.02605 91.3151,-1.89169 0,0.72559 -4.15334,4.68448 -13.7874,13.14191 -2.25164,1.97665 -13.9081,10.97228 -25.90324,19.99029 -18.18888,13.6745 -30.33776,23.11445 -35.80936,27.82466 -0.55,0.47347 -6.56428,6.78274 -13.36507,14.0206 -27.96899,29.7665 -57.17712,50.25153 -82.27868,57.70589 -3.51041,1.04248 -4.93274,2.06562 -5.73507,4.12548 -1.35171,3.47032 -5.71429,11.2323 -7.08147,12.59948 -2.90591,2.90591 0.74537,4.89547 4.90184,2.67099 z M 105,286.1438 c 0,-1.02091 1.50724,-3.83341 3.34943,-6.25 C 112.97425,273.82694 115,269.62802 115,266.10868 c 0,-3.90908 -1.33299,-3.40667 22.61664,-8.52423 53.58467,-11.44999 76.53593,-14.39299 117.55711,-15.07415 216.37599,-3.59295 279.88598,-5.57835 348.65689,-10.89944 17.5001,-1.35406 17.46805,-1.363 22.27369,6.2147 10.38656,16.37791 -19.02244,27.14299 -64.60433,23.64821 -4.4,-0.33735 -25.325,-0.74359 -46.5,-0.90276 -38.5,-0.28938 -38.5,-0.28938 -59.40674,-4.49961 -30.5187,-6.14589 -39.45594,-5.78921 -48.24228,1.9253 -4.12084,3.61814 -2.80316,3.6053 -12.68102,0.12353 -24.97218,-8.80228 -55.86547,-9.3413 -105.66996,-1.84372 -16.775,2.52531 -36.35,5.08747 -43.5,5.6937 -37.14882,3.14972 -71.98727,9.58757 -116.6788,21.56124 C 110.24128,288.50934 105,289.08413 105,286.1438 Z"
       id="path3521"
       inkscape:connector-curvature="0" />
    <path
       style="fill:#3698a6"
       d="m 492,1404.8533 c -116.50975,-4.9858 -197.51466,-20.4796 -262.1632,-50.1441 -9.4364,-4.3299 -8.02073,-1.4319 -18.19799,-37.2541 C 193.91346,1255.065 180.44076,1198.5374 166.00769,1126 158.69111,1089.2285 155.2648,1073.8568 138.36845,1002 108.0496,873.06005 96.534447,813.77314 89.908654,752.5 c -1.85458,-17.15055 1.59276,-38.15526 7.178944,-43.74144 3.647402,-3.64741 4.127852,-10.54829 0.941083,-13.51721 -1.457733,-1.35809 -2.212016,-3.98797 -2.895202,-10.09442 -0.530477,-4.74149 -1.565342,-8.97942 -2.430291,-9.95239 -1.917646,-2.15714 -2.663562,-8.49052 -3.517338,-29.86479 -0.377218,-9.44364 -1.047818,-17.53061 -1.490223,-17.97104 -0.964458,-0.96016 -2.658854,1.46246 -2.680314,3.83227 C 84.90835,643.00283 76.081694,620.46314 70.9779,595.34513 57.726244,530.12793 35.977173,465.32096 40.980417,505.95988 42.740597,520.25697 45.98422,534.31343 55.296591,568 c 10.939974,39.57425 15.9237,67.59469 13.698757,77.01971 C 65.815838,658.48833 45.270453,577.60372 33.429142,505 30.424115,486.575 25.911983,458.9 23.402181,443.5 17.794179,409.08962 12.577689,383.24803 5.4503108,354.56954 -1.6838929,325.86359 -1.4823116,321.20737 7.3834668,309.91664 25.658582,286.64294 79.286275,268.5496 85.083364,283.70163 89.056636,294.08669 77.346124,301.28078 45.5,308.01877 17.898731,313.85864 15.34585,318.03409 30.32942,332.83154 45.309614,347.62565 132.19745,360.84805 235,363.97785 c 181.91818,5.53846 297.43917,7.00115 330,4.17837 32.16178,-2.78819 34.09743,-2.76947 39.47459,0.38175 4.7931,2.80895 4.7931,2.80895 10.90925,1.28981 6.12105,-1.52036 7.58721,-1.48208 28.91702,0.75486 4.64353,0.48698 6.87757,0.17136 11.19756,-1.582 4.79158,-1.94476 5.82306,-2.04857 9.19914,-0.92586 7.00676,2.33009 73.78193,1.65788 97.30244,-0.97952 65.4062,-7.33414 142.82932,-25.19288 168.57673,-38.88464 3.03088,-1.61173 22.94347,-6.43821 35.92327,-8.7072 12.46261,-2.17858 20.51758,-4.09938 26.5,-6.31921 5.5,-2.04082 5.5,-2.04082 6.14621,6.63748 2.87289,38.58186 -1.42171,100.84283 -9.15181,132.67831 -2.02739,8.34954 -4.41305,21.67289 -7.96811,44.5 -1.15636,7.425 -2.59554,14.48293 -3.19819,15.68429 -0.60265,1.20136 -0.82346,3.22547 -0.49068,4.49802 0.33278,1.27254 -0.50182,11.31461 -1.85467,22.3157 -7.11805,57.88274 -11.59915,116.58754 -18.47264,242.00199 -6.08322,110.99502 -9.56022,161.08312 -14.57768,210 -1.35395,13.2 -3.12534,33 -3.93643,44 -4.07228,55.2283 -10.20926,106.5048 -20.6455,172.5 -3.56773,22.5611 -4.06796,27.8626 -4.34038,46 -1.02713,68.3833 -26.09446,107.2161 -73.63067,114.0642 -4.6087,0.664 -14.22945,2.9247 -21.37945,5.0238 -57.95623,17.015 -119.78547,26.0377 -204.5,29.8425 -68.69973,3.0856 -88.5685,3.3962 -123,1.9228 z M 255.99497,1301.424 c -12.33665,-50.3017 -19.55327,-74.1832 -28.23133,-93.424 -9.28927,-20.5959 -11.40002,-23.3238 -10.25264,-13.25 5.27398,46.3043 17.98448,89.2473 38.6725,130.6568 10.90865,21.835 10.90402,21.2462 -0.18853,-23.9828 z m -21.62526,33.326 c 3.60046,-13.4351 -2.15782,-41.6948 -18.9247,-92.876 -9.56358,-29.1929 -16.6112,-54.5817 -17.93853,-64.6229 -0.86997,-6.5812 -1.77408,-7.1373 -5.51755,-3.3939 -6.00441,6.0044 -4.18903,18.4285 9.33383,63.8787 3.63872,12.2297 7.13097,26.1797 7.76054,31 3.69976,28.3271 22.34288,76.9978 25.28641,66.0141 z m 339.07802,-148.9232 c 18.24693,-12.0862 15.85285,-47.3136 -3.97882,-58.546 -17.85326,-10.1118 -27.44132,11.9228 -19.86109,45.6432 3.40023,15.1257 12.80181,20.2142 23.83991,12.9028 z m -53.78653,-2.6639 c 13.6067,-6.9767 18.12587,-30.2567 9.60024,-49.4547 -8.40539,-18.9272 -25.26686,-9.3353 -28.30534,16.1019 -0.43951,3.6795 -1.47713,11.0105 -2.30583,16.2912 -2.97051,18.929 4.90167,25.3215 21.01093,17.0616 z m -331.10006,-34.806 c 2.18122,-17.4578 -2.34296,-42.6832 -16.97916,-94.6706 -4.15193,-14.7476 -8.93909,-33.8726 -10.63813,-42.5 -5.55541,-28.20951 -13.96638,-41.9556 -9.90407,-16.1863 1.97187,12.5086 13.10387,69.5914 15.50368,79.5 1.33208,5.5 3.58235,19.3735 5.00061,30.83 3.53195,28.5305 6.63026,39.8349 12.72285,46.42 3.01993,3.2641 3.51094,2.8761 4.29422,-3.3931 z m 300.70006,-32.3564 c 10.18632,-5.4944 20.58321,-8.0019 33.14876,-7.9947 9.66722,0.01 16.95696,1.0034 44.59004,6.1039 33.72409,6.2248 53.54714,1.5385 51.20741,-12.1057 -5.30061,-30.9108 -21.01781,-37.6945 -69.28402,-29.9034 -28.1536,4.5445 -48.54215,4.7584 -59.99857,0.6295 -9.05032,-3.2617 -8.4988,-3.2356 -15.21665,-0.7221 -24.29094,9.0884 -23.22283,38.0461 1.69474,45.9465 3.3534,1.0632 6.17504,1.9584 6.27031,1.9893 0.0953,0.031 3.50986,-1.7436 7.58798,-3.9433 z m -69.26358,-64.1334 c 76.17493,-17.4553 100.73767,-112.71203 40.61407,-157.50541 -39.751,-29.61535 -65.0895,-31.29454 -129.82749,-8.60372 -13.57855,4.75932 -20.03773,6.5885 -20.75,5.87623 -0.71227,-0.71227 -1.0342,-0.49524 -1.0342,0.69718 0,0.95227 -0.63708,1.97586 -1.41573,2.27466 -2.9537,1.13344 -6.31167,7.78301 -6.50888,12.88913 -0.11992,3.10503 -1.65617,8.62445 -4.05992,14.58647 -28.55319,70.82044 44.38675,147.79536 122.98215,129.78546 z M 323.5,997.35257 c -29.96542,-4.47505 -36.42366,-29.98961 -13.48742,-53.28472 16.66141,-16.9221 36.06221,-18.38706 50.30515,-3.79854 28.18276,28.86653 5.87153,63.45849 -36.81773,57.08326 z m 379.93242,40.48983 c 52.32409,-8.7894 85.13209,-68.94317 63.55542,-116.52949 -50.52236,-111.42467 -231.96878,-57.89831 -192.176,56.69157 17.01323,48.99242 63.74861,70.73502 128.62058,59.83792 z M 601.5,991.59878 c -23.32333,-5.74281 -30.88856,-27.05718 -18.39093,-51.81484 15.62531,-30.95358 49.05847,-30.58837 65.55222,0.71606 9.96183,18.90711 7.70351,25.20768 -8.45148,23.57909 -14.52954,-1.46473 -19.29674,0.6123 -12.19385,5.31277 5.1757,3.42512 11.79482,9.38606 13.07168,11.77189 3.98986,7.45513 -22.90165,14.54355 -39.58764,10.43503 z M 543.30915,649.43099 c 0.73619,-2.57815 0.38685,-3.84089 -2.18419,-7.895 -19.65122,-30.98676 2.27597,-74.04851 33.31734,-65.43031 12.69753,3.52529 12.74091,10.538 0.2343,37.87464 -11.81341,25.82147 -10.90795,30.51968 5.8819,30.51968 11.88665,0 11.33657,0.82229 12.44849,-18.60892 2.85777,-49.94078 17.91632,-66.7913 49.99301,-55.94215 8.32462,2.8156 8.46692,2.98286 10.98012,12.90594 9.64115,38.06707 22.78889,48.86722 57.51988,47.24942 24.63621,-1.14758 30.11602,-6.36874 39.54953,-37.68273 8.031,-26.65846 13.5968,-33.19175 30.21148,-35.46305 3.98145,-0.54428 9.26399,-1.41301 11.73899,-1.9305 10.49523,-2.19445 20.89244,-0.64799 23.61884,3.51302 2.32054,3.5416 3.68283,1.95032 3.1427,-3.67096 C 819.29359,550 819.29359,550 858.11161,550 c 37.3782,0 38.85649,-0.0719 39.85502,-1.93765 0.89627,-1.67469 2.49564,-2.0106 11.78518,-2.47522 22.10582,-1.10563 27.72655,-1.7266 29.41932,-3.25022 1.29855,-1.16878 3.85078,-1.4407 11.44718,-1.21959 9.77603,0.28454 9.77603,0.28454 10.98701,-4.16639 0.66603,-2.44801 2.11332,-6.92593 3.21619,-9.95093 1.60085,-4.39088 2.14544,-9.23069 2.70057,-24 0.75956,-20.20868 1.46316,-26.65348 4.14855,-38 2.1536,-9.09957 2.20774,-69.78407 0.0834,-93.5 -1.32577,-14.80082 -28.63438,-20.35986 -48.85173,-9.94443 -3.33697,1.71912 -84.30231,11.31687 -146.90231,17.414 -63.29311,6.16465 -143.13755,12.02079 -186,13.64206 -11.40438,0.43137 -18.42383,1.12811 -20.15225,2.00028 -2.26874,1.14483 -3.4255,1.09279 -8,-0.35989 -3.58831,-1.13951 -8.80231,-1.70709 -15.84775,-1.72513 -10.27037,-0.0263 -10.49821,-0.0766 -10.41811,-2.30003 0.10867,-3.01682 0.23441,-3.00092 -29.08189,-3.67784 C 271.9809,381.1339 114.83746,373.04713 29.905092,362.02293 20.013079,360.73895 19,360.77019 19,362.35921 c 0,2.7807 8.096712,10.47228 14.496476,13.77111 8.053211,4.15113 8.174605,5.96987 0.4919,7.36968 -8.236744,1.50076 -7.988378,0.52789 -4.754604,18.62429 12.972692,72.59603 32.044518,89.02958 72.307228,62.30471 19.15934,-12.71724 96.52414,-23.12702 207.583,-27.93123 88.53508,-3.82987 68.67035,1.79487 -47.624,13.48484 -57.28574,5.75839 -84.21389,9.47783 -112,15.46996 -6.05,1.30469 -14.15979,2.60181 -18.02176,2.88248 -33.639907,2.44481 -65.759665,42.95824 -48.875137,61.64739 4.990584,5.52398 12.209742,8.0135 26.025107,8.97473 6.12052,0.42584 11.55229,1.03635 12.07059,1.35668 0.5183,0.32033 6.98561,1.68842 14.37178,3.0402 15.73173,2.87915 18.93891,3.96624 19.64282,6.65799 0.47402,1.81267 1.38057,1.98796 10.28126,1.98796 8.86091,0 9.8923,0.19715 11.18042,2.13716 1.18549,1.78545 2.68042,2.21812 9.08378,2.62906 5.78573,0.3713 8.07984,0.95056 9.35793,2.36284 1.08629,1.20032 3.05023,1.87094 5.47918,1.87094 2.0823,0 4.06411,0.45 4.40403,1 0.33992,0.55 2.92497,1 5.74457,1 3.94075,0 5.67999,0.52043 7.51935,2.25 2.28822,2.15165 3.25981,2.26416 22.22644,2.574 18.07368,0.29526 19.98827,0.49491 21.57661,2.25 1.81173,2.00195 11.43303,2.8833 11.43303,1.04732 0,-3.50423 17.26219,-6.41844 39.5,-6.6684 15.94561,-0.17923 21.92193,-0.64713 29.48077,-2.3081 12.55921,-2.75974 12.97479,-2.11866 6.06454,9.35518 -1.65622,2.75 -3.44392,5.97595 -3.97267,7.16877 -0.52875,1.19282 -2.18987,2.76782 -3.69137,3.5 -1.50151,0.73218 -4.51425,3.95214 -6.69499,7.15547 -3.01842,4.43381 -5.18506,6.40133 -9.07564,8.24157 C 307.82925,605.50339 294.20808,619 302.97865,619 c 2.25044,0 5.1666,0.70429 6.48034,1.56508 2.16736,1.42011 2.66896,1.42011 5.41515,0 1.6646,-0.86079 3.65993,-1.56508 4.43406,-1.56508 0.77414,0 3.13492,-2.8125 5.24619,-6.25 6.65002,-10.82738 34.31218,-36.5059 37.85954,-35.14465 1.03754,0.39814 1.84707,-0.13668 2.37756,-1.57074 0.74734,-2.02023 1.58104,-2.19872 11.75644,-2.51694 12.899,-0.4034 21.52754,-1.37794 23.03135,-2.60124 0.65211,-0.53046 3.74107,0.15072 7.80443,1.72106 11.56192,4.46824 12.40702,9.45527 2.49387,14.71665 -17.5301,9.30408 -20.49791,29.43501 -6.65751,45.15853 11.92675,13.5495 31.96393,10.83054 20.62189,-2.7983 -21.62106,-25.98033 -6.47432,-47.70502 39.15968,-56.16603 29.09216,-5.39398 71.77638,3.83637 63.92108,13.82278 -6.81855,8.66838 -6.81424,20.75237 0.0173,48.60379 1.68296,6.8612 3.05993,13.52018 3.05993,14.79772 0,4.12484 12.0964,2.90545 13.30915,-1.34164 z m 146.57313,-35.81157 c -28.98412,-10.35748 -28.64999,-42.34671 0.43353,-41.50562 8.11701,0.23474 9.88138,-0.0442 15.18419,-2.40036 20.68536,-9.19108 40.13073,5.92886 34.12228,26.5321 -3.53548,12.1233 -10.60067,16.68758 -27.62228,17.84465 -15.69913,1.06717 -17.94793,1.01931 -22.11772,-0.47077 z M 105,286.1438 c 0,-1.02091 1.50724,-3.83341 3.34943,-6.25 C 112.97425,273.82694 115,269.62802 115,266.10868 c 0,-3.90908 -1.33299,-3.40667 22.61664,-8.52423 53.58467,-11.44999 76.53593,-14.39299 117.55711,-15.07415 216.37599,-3.59295 279.88598,-5.57835 348.65689,-10.89944 17.5001,-1.35406 17.46805,-1.363 22.27369,6.2147 10.38656,16.37791 -19.02244,27.14299 -64.60433,23.64821 -4.4,-0.33735 -25.325,-0.74359 -46.5,-0.90276 -38.5,-0.28938 -38.5,-0.28938 -59.40674,-4.49961 -30.5187,-6.14589 -39.45594,-5.78921 -48.24228,1.9253 -4.12084,3.61814 -2.80316,3.6053 -12.68102,0.12353 -24.97218,-8.80228 -55.86547,-9.3413 -105.66996,-1.84372 -16.775,2.52531 -36.35,5.08747 -43.5,5.6937 -37.14882,3.14972 -71.98727,9.58757 -116.6788,21.56124 C 110.24128,288.50934 105,289.08413 105,286.1438 Z"
       id="path3519"
       inkscape:connector-curvature="0" />
    <path
       style="fill:#008ecf"
       d="M 510.5,1405.3656 C 378.91339,1398.32 316.26984,1387.9709 251,1362.4948 c -28.38889,-11.0807 -28.46283,-11.1294 -31.36303,-20.6467 -17.5798,-57.6901 -35.91623,-132.42 -51.2405,-208.83 C 159.48359,1088.5766 156.40675,1074.7352 138.592,998.94078 93.400287,806.66856 82.033015,727.69924 97.080992,710.56054 c 3.692498,-4.20552 4.192978,-12.29575 0.947689,-15.31919 -1.457733,-1.35809 -2.212016,-3.98797 -2.895202,-10.09442 -0.530477,-4.74149 -1.565342,-8.97942 -2.430291,-9.95239 -1.921292,-2.16124 -2.665195,-8.50263 -3.517338,-29.98346 -0.53511,-13.48906 -1.005034,-17.48564 -2.138104,-18.18401 -2.039941,-1.25733 -3.042515,-0.35164 -3.079549,2.78195 C 83.859234,639.02872 75.720421,614.71839 70.97539,591 56.42065,518.24704 30.685236,452.91747 41.583307,516.38795 43.376651,526.8324 48.624568,547.72855 56.36393,575.24143 62.985396,598.78026 66.692357,616.70552 67.894856,631 71.726544,676.54846 47.265866,585.01938 34.489245,506 16.980964,397.71679 12.023826,372.11806 2.3437017,340 -1.8353083,326.1343 0.16071409,318.88482 11.387567,307.15302 35.009938,282.46818 88.505279,268.7236 84.580493,288.34753 82.960193,296.44904 72.234974,301.55129 45.05793,307.1494 16.945499,312.94019 14.098144,317.77817 29.718253,333.21326 42.025795,345.37503 109.22644,358.08014 187,362.94932 c 14.46339,0.90551 31.36201,1.47995 120,4.0792 119.323,3.49907 229.60355,4.40045 257.5,2.10467 32.44167,-2.66983 36.1795,-2.6816 40.72261,-0.12823 3.65032,2.05159 4.57027,2.17927 8.68022,1.20471 4.38769,-1.04042 7.76505,-0.88843 31.23346,1.40557 4.71471,0.46085 6.53552,0.12553 11.13589,-2.05079 4.7099,-2.22814 5.91085,-2.43775 8.3637,-1.4598 5.62701,2.24349 74.77415,1.52807 97.36412,-1.00735 65.44773,-7.34565 142.83206,-25.19639 168.57673,-38.88668 3.03088,-1.61173 22.94347,-6.43821 35.92327,-8.7072 12.63545,-2.2088 20.61629,-4.09861 25.79692,-6.10854 8.77278,-3.40358 10.84938,43.02197 4.1617,93.0401 -3.65476,27.3343 -4.4684,32.63227 -6.38337,41.56502 -1.12011,5.225 -2.66482,12.425 -3.43267,16 -11.08379,51.6041 -20.62825,154.19344 -29.63183,318.5 -6.53673,119.28869 -9.682,163.46916 -15.98251,224.5 -1.05042,10.175 -2.18405,22.775 -2.51919,28 -2.95484,46.068 -9.57811,101.5666 -21.03462,176.2562 -3.55495,23.1762 -4.29737,30.2589 -3.82597,36.5 4.84756,64.1789 -24.77407,111.9732 -74.14846,119.6381 -4.95,0.7684 -16.92095,3.696 -26.60212,6.5056 -48.91457,14.196 -104.4072,22.6691 -177.39788,27.0864 -47.24841,2.8595 -111.40535,5.1072 -125,4.3793 z m -4.33533,-14.1303 c 3.67055,-3.6705 -7.17002,-5.4178 -54.16467,-8.7301 -11.275,-0.7947 -26.125,-2.1149 -33,-2.9338 -37.56107,-4.474 -67.32322,-4.73 -56.31017,-0.4843 19.96214,7.6957 137.93817,17.6849 143.47484,12.1482 z M 266,1339.6258 c 0,-2.5838 -17.85353,-74.0967 -22.3755,-89.6258 -8.34313,-28.6514 -23.15694,-64 -26.82101,-64 -3.42613,0 5.07424,48.6432 13.28094,76 10.8196,36.0668 35.91557,90.3078 35.91557,77.6258 z m -30.86831,-4.2083 c 3.46953,-16.0244 -1.55817,-41.1861 -18.66629,-93.4175 -9.40406,-28.7108 -16.56362,-54.3566 -18.00646,-64.5 -0.92301,-6.4888 -1.8928,-7.7151 -4.98669,-6.3054 -8.93116,4.0693 -7.55201,18.3517 6.15456,63.7359 3.55974,11.7868 7.16145,25.9618 8.0038,31.5 5.39998,35.5036 24.42022,83.2162 27.50108,68.987 z m 337.98194,-148.2746 c 15.93644,-10.1066 18.7243,-33.2372 6.15891,-51.0997 -20.83813,-29.6227 -42.28071,-0.4589 -29.82841,40.5693 3.77106,12.4249 13.70981,16.8466 23.6695,10.5304 z m -53.45243,-2.9857 c 17.32204,-8.9076 20.22893,-42.9179 5.03483,-58.9072 -9.07996,-9.5552 -22.4086,4.2584 -24.80875,25.7114 -0.50673,4.5292 -1.35266,10.1033 -1.87986,12.3868 -4.70672,20.3868 4.76823,29.4921 21.65378,20.809 z m -330.24617,-35.7371 c 2.32491,-15.0418 -2.54794,-43.2511 -15.4754,-89.5884 -4.96105,-17.7824 -10.5778,-40.1086 -12.48166,-49.6138 C 156.83023,986.11362 149,970.43636 149,984.27527 c 0,6.98536 11.09746,67.38753 16.48478,89.72473 1.39282,5.775 3.67696,19.725 5.07585,31 3.71223,29.9204 6.06987,38.8718 12.09088,45.906 4.52147,5.2823 5.62557,4.8765 6.76352,-2.4859 z m 299.96326,-32.4178 c 17.82505,-9.783 32.77665,-10.3648 72.12171,-2.8064 52.11274,10.0111 72.97524,-5.094 46.97568,-34.0117 -10.64659,-11.8416 -21.77964,-13.1233 -60.47568,-6.9625 -25.82121,4.111 -48.07352,4.4572 -57.5,0.8947 -11.4712,-4.3354 -18.67979,-2.8289 -27.52952,5.7531 -15.13447,14.6765 -5.01219,36.7618 18.82662,41.0767 0.16341,0.03 3.57494,-1.7452 7.58119,-3.9439 z m -68.15185,-63.4078 c 10.99807,-2.7899 13.79445,-4.0876 31.09561,-14.4298 57.34453,-34.2792 57.44284,-117.37168 0.17795,-150.40408 -3.85,-2.22082 -9.475,-5.49571 -12.5,-7.27753 -27.4722,-16.18205 -53.86461,-15.30438 -107,3.55824 -9.625,3.41679 -18.75984,6.18474 -20.29964,6.15098 -2.07669,-0.0455 -3.03867,0.56731 -3.72525,2.37316 C 308.46602,893.90446 307.66465,895 307.19427,895 304.94394,895 300,903.94252 300,908.01288 c 0,2.55406 -1.53881,8.00264 -3.9472,13.97617 -28.80475,71.44439 46.92073,150.45585 125.17364,130.60545 z M 320.94189,995.99273 c -26.5734,-4.5009 -31.61117,-28.51579 -10.63869,-50.71433 16.21884,-17.16702 34.39126,-18.81896 48.72833,-4.4296 29.2387,29.34534 6.23331,62.6512 -38.08964,55.14393 z m 384.07463,42.50837 c 63.51975,-12.6343 89.28569,-82.4733 50.70933,-137.44846 -58.62578,-83.54758 -202.93949,-34.95951 -185.67487,62.5137 10.32047,58.26766 65.29794,88.79196 134.96554,74.93476 z M 602.40709,990.9694 c -27.73169,-5.49816 -32.81284,-39.47696 -9.42462,-63.02452 20.62665,-20.76719 49.94655,-8.79282 59.49808,24.29925 2.97532,10.30824 1.12654,11.74529 -14.14601,10.99561 -17.61417,-0.86463 -19.01579,0.7414 -7.91496,9.06921 8.80021,6.6019 11.4312,9.96099 9.56402,12.21081 -4.57777,5.51588 -24.78896,8.98493 -37.57651,6.44964 z M 603.5,749.54014 c 7.15,-0.29431 14.575,-0.7981 16.5,-1.11953 1.925,-0.32144 4.85,-0.73827 6.5,-0.92629 1.65,-0.18802 5.025,-0.60044 7.5,-0.91648 2.475,-0.31604 6.075,-0.77327 8,-1.01607 1.925,-0.2428 5.075,-0.69627 7,-1.00771 1.925,-0.31144 4.85,-0.76013 6.5,-0.9971 3.03986,-0.43657 13.04206,-2.17166 28.5,-4.94392 66.29517,-11.88953 112.53063,-33.25218 162.12493,-74.90826 1.44371,-1.21263 4.53418,-3.77978 6.8677,-5.70478 2.33352,-1.925 6.14481,-5.3 8.46953,-7.5 2.32472,-2.2 7.26445,-6.7 10.97718,-10 3.71272,-3.3 9.10953,-8.25 11.9929,-11 10.32268,-9.8452 21.38116,-19.82939 30.68816,-27.70694 2.40878,-2.03881 5.7296,-4.85927 7.3796,-6.26768 1.65,-1.40841 5.11951,-4.24029 7.71002,-6.29306 3.30058,-2.61545 4.90759,-4.71918 5.37027,-7.03018 0.59386,-2.96626 0.97008,-3.26792 3.74159,-3 2.41981,0.23391 3.34433,-0.22151 4.30627,-2.12128 0.67371,-1.33052 1.93298,-2.81538 2.79839,-3.29969 C 947.544,573.15581 948,571.3898 948,567.68744 c 0,-4.44711 0.33063,-5.35824 2.25,-6.20031 1.2375,-0.54292 2.38572,-1.93798 2.5516,-3.10012 0.16588,-1.16215 1.36776,-2.59878 2.67086,-3.19251 1.94912,-0.88807 2.49384,-2.10936 3.07179,-6.887 0.38639,-3.19413 1.03112,-6.2575 1.43273,-6.8075 0.40161,-0.55 1.20418,-2.8 1.7835,-5 0.57931,-2.2 1.95621,-6.475 3.05977,-9.5 1.60256,-4.39279 2.14646,-9.22424 2.70183,-24 0.75956,-20.20868 1.46316,-26.65348 4.14855,-38 2.1536,-9.09957 2.20774,-69.78407 0.0834,-93.5 -1.32577,-14.80082 -28.63438,-20.35986 -48.85173,-9.94443 -3.3375,1.7194 -84.34766,11.3222 -146.90231,17.41356 -48.24611,4.69803 -110.05947,9.53562 -154,12.05222 -10.725,0.61425 -26.7,1.55571 -35.5,2.09214 -20.84458,1.27062 -24.38463,1.22697 -26.25435,-0.32371 -1.09562,-0.90866 -4.93423,-1.24565 -12.99071,-1.14044 -10.89,0.14221 -11.41117,0.0561 -10.92451,-1.80489 0.81691,-3.12386 -1.9612,-3.509 -30.33043,-4.20479 C 257.62378,379.54796 122.46601,372.56854 28.526234,360.98337 18.046229,359.69092 18,359.69491 18,361.89185 c 0,3.07521 8.40554,11.51266 14.93741,14.99411 7.306602,3.89437 7.516094,4.79402 1.31259,5.63683 -9.886235,1.34313 -9.597753,0.0355 -5.214134,23.63408 12.873051,69.30014 34.539337,86.68942 73.315324,58.84261 11.78309,-8.46197 77.71365,-19.85755 138.64881,-23.96436 26.61524,-1.79377 31.58135,-2.05792 67,-3.56369 40.90925,-1.7392 50.76942,-1.84085 49.43824,-0.50967 -1.31201,1.31201 -37.52209,6.40078 -67.93824,9.54767 -89.29452,9.23853 -101.17981,10.74613 -133.5,16.93396 -9.625,1.84275 -21.55,3.85305 -26.5,4.46735 -53.579595,6.6492 -72.002115,68.144 -21.5,71.7675 18.02761,1.29347 46,7.89553 46,10.85694 0,1.19233 1.93057,1.46482 10.37803,1.46482 9.49073,0 10.49935,0.18272 11.79705,2.13716 1.18549,1.78545 2.68042,2.21812 9.08378,2.62906 5.78573,0.3713 8.07984,0.95056 9.35793,2.36284 1.08629,1.20032 3.05023,1.87094 5.47918,1.87094 2.0823,0 4.06411,0.45 4.40403,1 0.33992,0.55 2.92497,1 5.74457,1 3.94075,0 5.67999,0.52043 7.51934,2.25 2.28668,2.1502 3.26532,2.26433 22.06445,2.573 17.54072,0.288 19.88829,0.52486 21.67164,2.18654 2.74428,2.55706 11.3948,3.09566 13.64112,0.84934 3.55352,-3.55352 19.11721,-6.07687 36.51102,-5.91954 14.36498,0.12993 30.69738,-1.40532 37.59786,-3.53422 4.66487,-1.43917 -5.51429,18.62337 -10.5,20.69491 -1.5125,0.62844 -2.75855,1.65052 -2.769,2.27129 -0.0593,3.52144 -6.28589,10.79709 -11.24436,13.13877 -42.73118,20.18018 -43.4883,64.06289 -1.57539,91.30965 27.15045,17.64997 32.21257,20.72383 43.83875,26.62014 27.37976,13.88586 63.50609,25.1636 93,29.03228 2.475,0.32465 5.625,0.79132 7,1.03706 2.93862,0.52519 10.46535,1.4207 17.5,2.0821 2.75,0.25856 7.25,0.6974 10,0.9752 2.75,0.2778 9.15252,0.629 14.22783,0.78045 5.0753,0.15144 9.42539,0.47283 9.66687,0.71419 0.57963,0.57936 68.46988,0.16373 85.1053,-0.52102 z M 106,285.6438 c 0,-0.74591 1.50724,-3.33341 3.34943,-5.75 C 113.95721,273.8493 116,269.63022 116,266.15807 c 0,-2.22058 0.5513,-3.076 2.25,-3.49119 47.81241,-11.6861 95.71229,-18.5383 134.25,-19.2048 234.75351,-4.05997 284.38763,-5.60472 350.5,-10.90849 17.58702,-1.4109 17.91537,-1.33333 22.06712,5.21329 10.72211,16.90703 -5.51594,22.76341 -62.06712,22.38497 -90.33606,-0.60451 -84.11335,-0.31598 -107.27037,-4.97395 -30.48016,-6.131 -40.04296,-5.7102 -49.38044,2.17291 -3.15082,2.66006 -3.15082,2.66006 -13.55179,-0.82033 -25.83996,-8.64659 -51.51425,-8.81287 -107.2974,-0.6949 -19.25,2.80139 -41.09406,5.54022 -48.54237,6.08628 -25.94679,1.90224 -54.17662,7.14002 -97.88579,18.1618 C 110.86732,287.19577 106,288.01408 106,285.6438 Z"
       id="path3517"
       inkscape:connector-curvature="0" />
    <path
       style="fill:#1b6f95"
       d="M 510.5,1405.3656 C 378.91339,1398.32 316.26984,1387.9709 251,1362.4948 c -28.38889,-11.0807 -28.46283,-11.1294 -31.36303,-20.6467 -17.5798,-57.6901 -35.91623,-132.42 -51.2405,-208.83 C 159.48359,1088.5766 156.40675,1074.7352 138.592,998.94078 93.51194,807.1436 82.011408,727.44912 96.993859,710.68084 c 4.970201,-5.56262 8.967051,0.96111 13.367781,21.81916 25.09434,118.93926 66.10978,274.6535 96.80025,367.5 11.48009,34.7302 9.53509,31.3993 17.92415,30.696 8.69696,-0.7291 8.83711,-0.4276 4.49756,9.6759 -8.05144,18.7457 -4.07704,28.2409 21.1664,50.5683 10.70419,9.4677 9.71497,12.2454 -3.67399,10.3165 -9.27277,-1.3359 -8.6513,-2.6339 -5.19346,10.8469 1.60775,6.268 3.85962,15.8964 5.00417,21.3964 17.61014,84.6238 35.2927,114.6759 71.89204,122.1833 113.10775,23.2008 242.18308,27.2032 412.84066,12.8013 67.04892,-5.6582 119.28405,-26.4934 135.9949,-54.2445 4.32057,-7.175 4.43783,-6.8452 -2.69939,-7.5912 -11.51986,-1.2041 -11.21703,-3.9954 0.98204,-9.0518 18.0757,-7.4923 23.71824,-13.3864 23.43932,-24.4845 -0.12104,-4.8163 0.57704,-8.742 2.67855,-15.0633 7.13392,-21.4583 8.58211,-38.1077 6.92434,-79.6067 -1.39832,-35.0039 -0.97523,-48.9021 1.88562,-61.9426 4.41928,-20.1442 6.77882,-40.2358 10.68693,-91 2.64986,-34.42008 4.60661,-53.78806 6.97112,-69 2.22565,-14.31865 3.36978,-29.58708 4.98313,-66.5 1.82773,-41.81783 2.98544,-57.85757 5.59379,-77.5 3.24414,-24.43042 3.79633,-26.26086 9.70425,-32.16878 8.46514,-8.46515 8.21533,-14.40196 -1.18348,-28.12576 -14.34955,-20.95267 -14.36015,-31.93621 -0.0436,-45.13279 5.4821,-5.05322 5.65837,-12.39925 1.45347,-60.57267 -4.45127,-50.99602 -4.36743,-67.75159 0.33674,-67.29715 2.41387,0.23318 3.33971,-0.2236 4.30095,-2.12199 0.67371,-1.33052 1.93298,-2.81538 2.79839,-3.29969 C 947.544,573.15581 948,571.3898 948,567.68744 c 0,-4.44711 0.33063,-5.35824 2.25,-6.20031 1.2375,-0.54292 2.38572,-1.93798 2.5516,-3.10012 0.16588,-1.16215 1.36776,-2.59878 2.67086,-3.19251 1.94912,-0.88807 2.49384,-2.10936 3.07179,-6.887 0.38639,-3.19413 1.03112,-6.2575 1.43273,-6.8075 0.40161,-0.55 1.20418,-2.8 1.7835,-5 0.57931,-2.2 1.95621,-6.475 3.05977,-9.5 1.60256,-4.39279 2.14646,-9.22424 2.70183,-24 0.75956,-20.20868 1.46316,-26.65348 4.14855,-38 2.1536,-9.09957 2.20774,-69.78407 0.0834,-93.5 -1.32577,-14.80082 -28.63438,-20.35986 -48.85173,-9.94443 -3.3375,1.7194 -84.34766,11.3222 -146.90231,17.41356 -48.24611,4.69803 -110.05947,9.53562 -154,12.05222 -10.725,0.61425 -26.7,1.55571 -35.5,2.09214 -20.84458,1.27062 -24.38463,1.22697 -26.25435,-0.32371 -1.09562,-0.90866 -4.93423,-1.24565 -12.99071,-1.14044 -10.89,0.14221 -11.41117,0.0561 -10.92451,-1.80489 0.81691,-3.12386 -1.9612,-3.509 -30.33043,-4.20479 C 257.62378,379.54796 122.46601,372.56854 28.526234,360.98337 18.046229,359.69092 18,359.69491 18,361.89185 c 0,3.07521 8.40554,11.51266 14.93741,14.99411 7.306602,3.89437 7.516094,4.79402 1.31259,5.63683 -9.886235,1.34313 -9.597753,0.0355 -5.214134,23.63408 12.873051,69.30014 34.539337,86.68942 73.315324,58.84261 11.78309,-8.46197 77.71365,-19.85755 138.64881,-23.96436 26.61524,-1.79377 31.58135,-2.05792 67,-3.56369 40.90925,-1.7392 50.76942,-1.84085 49.43824,-0.50967 -1.31201,1.31201 -37.52209,6.40078 -67.93824,9.54767 -89.29452,9.23853 -101.17981,10.74613 -133.5,16.93396 -9.625,1.84275 -21.55,3.85305 -26.5,4.46735 -53.579595,6.6492 -72.002115,68.144 -21.5,71.7675 8.7515,0.62792 41.01295,6.72314 43.97473,8.30824 3.4442,1.84328 2.51353,4.88817 -2.0919,6.8441 -4.11717,1.74857 -4.11717,1.74857 0.0714,4.52046 3.42946,2.2695 3.97223,3.03261 2.99473,4.21042 -1.81767,2.19016 -2.69796,2.01221 -32.57025,-6.5839 C 82.844968,546.17676 74.750287,545.38109 85,553.5 c 7.851348,6.21914 6.818008,8.78826 -2.408931,5.98918 -8.326704,-2.526 -7.83443,-5.03303 -4.02744,20.51082 0.942662,6.325 1.675268,13.18886 1.628014,15.25303 -0.04725,2.06417 0.578502,6.78917 1.39057,10.5 3.78665,17.3035 4.14317,29.31963 0.731875,24.66705 C 79.953865,627.20103 74.251714,607.37695 70.97539,591 56.42065,518.24704 30.685236,452.91747 41.583307,516.38795 43.376651,526.8324 48.624568,547.72855 56.36393,575.24143 62.985396,598.78026 66.692357,616.70552 67.894856,631 71.726544,676.54846 47.265866,585.01938 34.489245,506 16.980964,397.71679 12.023826,372.11806 2.3437017,340 -1.8353083,326.1343 0.16071409,318.88482 11.387567,307.15302 35.009938,282.46818 88.505279,268.7236 84.580493,288.34753 82.960193,296.44904 72.234974,301.55129 45.05793,307.1494 16.945499,312.94019 14.098144,317.77817 29.718253,333.21326 42.025795,345.37503 109.22644,358.08014 187,362.94932 c 14.46339,0.90551 31.36201,1.47995 120,4.0792 119.323,3.49907 229.60355,4.40045 257.5,2.10467 32.44167,-2.66983 36.1795,-2.6816 40.72261,-0.12823 3.65032,2.05159 4.57027,2.17927 8.68022,1.20471 4.38769,-1.04042 7.76505,-0.88843 31.23346,1.40557 4.71471,0.46085 6.53552,0.12553 11.13589,-2.05079 4.7099,-2.22814 5.91085,-2.43775 8.3637,-1.4598 5.62701,2.24349 74.77415,1.52807 97.36412,-1.00735 65.44773,-7.34565 142.83206,-25.19639 168.57673,-38.88668 3.03088,-1.61173 22.94347,-6.43821 35.92327,-8.7072 12.63545,-2.2088 20.61629,-4.09861 25.79692,-6.10854 8.77278,-3.40358 10.84938,43.02197 4.1617,93.0401 -3.65476,27.3343 -4.4684,32.63227 -6.38337,41.56502 -1.12011,5.225 -2.66482,12.425 -3.43267,16 -11.08379,51.6041 -20.62825,154.19344 -29.63183,318.5 -6.53673,119.28869 -9.682,163.46916 -15.98251,224.5 -1.05042,10.175 -2.18405,22.775 -2.51919,28 -2.95484,46.068 -9.57811,101.5666 -21.03462,176.2562 -3.55495,23.1762 -4.29737,30.2589 -3.82597,36.5 4.84756,64.1789 -24.77407,111.9732 -74.14846,119.6381 -4.95,0.7684 -16.92095,3.696 -26.60212,6.5056 -48.91457,14.196 -104.4072,22.6691 -177.39788,27.0864 -47.24841,2.8595 -111.40535,5.1072 -125,4.3793 z m -4.33533,-14.1303 c 3.67055,-3.6705 -7.17002,-5.4178 -54.16467,-8.7301 -11.275,-0.7947 -26.125,-2.1149 -33,-2.9338 -37.56107,-4.474 -67.32322,-4.73 -56.31017,-0.4843 19.96214,7.6957 137.93817,17.6849 143.47484,12.1482 z M 266,1339.6258 c 0,-2.5838 -17.85353,-74.0967 -22.3755,-89.6258 -8.34313,-28.6514 -23.15694,-64 -26.82101,-64 -3.42613,0 5.07424,48.6432 13.28094,76 10.8196,36.0668 35.91557,90.3078 35.91557,77.6258 z m -30.86831,-4.2083 c 3.46953,-16.0244 -1.55817,-41.1861 -18.66629,-93.4175 -9.40406,-28.7108 -16.56362,-54.3566 -18.00646,-64.5 -0.92301,-6.4888 -1.8928,-7.7151 -4.98669,-6.3054 -8.93116,4.0693 -7.55201,18.3517 6.15456,63.7359 3.55974,11.7868 7.16145,25.9618 8.0038,31.5 5.39998,35.5036 24.42022,83.2162 27.50108,68.987 z m -45.71666,-186.9974 c 2.32491,-15.0418 -2.54794,-43.2511 -15.4754,-89.5884 -4.96105,-17.7824 -10.5778,-40.1086 -12.48166,-49.6138 C 156.83023,986.11362 149,970.43636 149,984.27527 c 0,6.98536 11.09746,67.38753 16.48478,89.72473 1.39282,5.775 3.67696,19.725 5.07585,31 3.71223,29.9204 6.06987,38.8718 12.09088,45.906 4.52147,5.2823 5.62557,4.8765 6.76352,-2.4859 z M 409,1247.3665 c -1.375,-0.1986 -6.55,-0.8493 -11.5,-1.4461 -4.95,-0.5967 -23.625,-3.9925 -41.5,-7.5461 -37.15083,-7.3858 -56.24206,-10.3362 -67.02749,-10.3587 -11.94168,-0.025 -15.86908,-5.2729 -9.04943,-12.0925 4.99851,-4.9985 14.67136,-3.8834 44.59214,5.1407 20.50457,6.1841 35.77454,9.8979 44.94986,10.9321 3.8692,0.4362 11.53492,1.7607 17.03492,2.9435 8.19968,1.7634 66.65549,9.0606 72.58144,9.0606 0.92691,0 1.92065,0.9 2.20831,2 0.49479,1.8921 -41.12205,2.9797 -52.28975,1.3665 z m 94.5,-44.7395 c -13.34243,-6.2803 -18.20993,-15.7384 -21.01362,-40.8318 -3.78707,-33.8947 -9.12101,-41.4527 -32.63511,-46.2429 -5.56378,-1.1334 -6.40112,-19.3029 -1.39364,-30.2407 5.30281,-11.5829 17.38179,-24.9216 36.9572,-40.8116 5.42051,-4.4 12.74934,-10.7977 16.28629,-14.2171 7.79209,-7.533 8.86106,-7.818 28.79888,-7.6763 44.76612,0.318 90.47044,35.6737 104.38394,80.7487 3.6714,11.8942 3.27228,12.5083 -16.38394,25.2091 -24.40003,15.7661 -29.56472,23.8021 -26.5287,41.2772 4.69019,26.9962 -7.50807,35.3349 -39.57888,27.0558 -21.38202,-5.5198 -31.19018,-4.2734 -38.14729,4.8479 -2.95321,3.8718 -4.17888,3.9724 -10.74513,0.8817 z m 69.61363,-15.4841 c 15.93644,-10.1066 18.7243,-33.2372 6.15891,-51.0997 -20.83813,-29.6227 -42.28071,-0.4589 -29.82841,40.5693 3.77106,12.4249 13.70981,16.8466 23.6695,10.5304 z m -53.45243,-2.9857 c 17.32204,-8.9076 20.22893,-42.9179 5.03483,-58.9072 -9.07996,-9.5552 -22.4086,4.2584 -24.80875,25.7114 -0.50673,4.5292 -1.35266,10.1033 -1.87986,12.3868 -4.70672,20.3868 4.76823,29.4921 21.65378,20.809 z m -30.28291,-68.1549 c 17.82505,-9.783 32.77665,-10.3648 72.12171,-2.8064 52.11274,10.0111 72.97524,-5.094 46.97568,-34.0117 -10.64659,-11.8416 -21.77964,-13.1233 -60.47568,-6.9625 -25.82121,4.111 -48.07352,4.4572 -57.5,0.8947 -11.4712,-4.3354 -18.67979,-2.8289 -27.52952,5.7531 -15.13447,14.6765 -5.01219,36.7618 18.82662,41.0767 0.16341,0.03 3.57494,-1.7452 7.58119,-3.9439 z m -116.4589,-49.0128 c -70.18777,-11.879 -118.09729,-89.84704 -90.02518,-146.50703 11.62934,-23.47233 22.71766,-22.20278 13.15859,1.50658 -30.997,76.88182 64.18853,163.14665 139.05187,126.02015 73.15295,-36.2784 82.53157,-122.67571 17.39533,-160.24858 -3.85,-2.22082 -9.475,-5.49571 -12.5,-7.27753 -27.37076,-16.1223 -53.67647,-15.29605 -106.5,3.3451 -16.80201,5.92934 -18.80447,6.52209 -21.25,6.29029 -2.19713,-0.20825 -1.38722,-1.5266 5.0029,-8.14359 58.71681,-60.80145 185.77984,-17.2844 193.68055,66.33249 6.9163,73.19852 -61.1116,131.69762 -138.01406,118.68212 z M 664,1059.3268 C 575.68293,1050.4163 522.37161,965.72673 563.78835,900.13213 618.94102,812.78299 745.98037,824.30227 782.48569,919.9625 809.60022,991.01466 744.6078,1067.4595 664,1059.3268 Z m 41.01652,-20.8257 c 63.51975,-12.6343 89.28569,-82.4733 50.70933,-137.44846 -58.62578,-83.54758 -202.93949,-34.95951 -185.67487,62.5137 10.32047,58.26766 65.29794,88.79196 134.96554,74.93476 z M 602.40709,990.9694 c -27.73169,-5.49816 -32.81284,-39.47696 -9.42462,-63.02452 20.62665,-20.76719 49.94655,-8.79282 59.49808,24.29925 2.97532,10.30824 1.12654,11.74529 -14.14601,10.99561 -17.61417,-0.86463 -19.01579,0.7414 -7.91496,9.06921 8.80021,6.6019 11.4312,9.96099 9.56402,12.21081 -4.57777,5.51588 -24.78896,8.98493 -37.57651,6.44964 z m -281.4652,5.02333 c -26.5734,-4.5009 -31.61117,-28.51579 -10.63869,-50.71433 16.21884,-17.16702 34.39126,-18.81896 48.72833,-4.4296 29.2387,29.34534 6.23331,62.6512 -38.08964,55.14393 z M 106,285.6438 c 0,-0.74591 1.50724,-3.33341 3.34943,-5.75 C 113.95721,273.8493 116,269.63022 116,266.15807 c 0,-2.22058 0.5513,-3.076 2.25,-3.49119 47.81241,-11.6861 95.71229,-18.5383 134.25,-19.2048 234.75351,-4.05997 284.38763,-5.60472 350.5,-10.90849 17.58702,-1.4109 17.91537,-1.33333 22.06712,5.21329 10.72211,16.90703 -5.51594,22.76341 -62.06712,22.38497 -90.33606,-0.60451 -84.11335,-0.31598 -107.27037,-4.97395 -30.48016,-6.131 -40.04296,-5.7102 -49.38044,2.17291 -3.15082,2.66006 -3.15082,2.66006 -13.55179,-0.82033 -25.83996,-8.64659 -51.51425,-8.81287 -107.2974,-0.6949 -19.25,2.80139 -41.09406,5.54022 -48.54237,6.08628 -25.94679,1.90224 -54.17662,7.14002 -97.88579,18.1618 C 110.86732,287.19577 106,288.01408 106,285.6438 Z"
       id="path3515"
       inkscape:connector-curvature="0" />
    <path
       style="fill:#0c0e0e"
       d="m 509,1405.0088 c -130.77221,-7.2176 -195.77409,-18.2094 -260.22884,-44.0048 -26.29825,-10.5247 -25.83315,-10.2154 -28.57713,-19.004 -15.60277,-49.9732 -35.64684,-131.8284 -51.75,-211.3345 -9.37427,-46.2836 -12.80438,-61.669 -30.58042,-137.1655 -44.050414,-187.08599 -57.255246,-283 -38.961648,-283 4.330388,0 5.605508,3.70177 13.606208,39.5 32.24182,144.26223 67.63675,276.8516 96.44115,361.2684 8.15687,23.9053 6.9295,22.0954 14.56823,21.4823 8.10348,-0.6505 8.03627,-0.798 3.90518,8.5694 -7.3275,16.6152 -2.78898,27.9495 19.15456,47.8356 12.35236,11.1941 12.31149,12.4816 -0.33767,10.638 -10.01433,-1.4596 -9.85262,-1.6216 -7.35445,7.367 1.12189,4.0366 4.32243,17.6893 7.1123,30.3393 18.63066,84.4764 35.48585,112.2492 72.78485,119.93 111.16169,22.8911 250.65699,26.7226 423.21768,11.6246 59.9127,-5.242 114.88084,-29.3902 128.4852,-56.4451 2.99825,-5.9626 2.86699,-6.2101 -3.7306,-7.0344 -10.34183,-1.2921 -10.20409,-2.0662 1.2454,-6.9988 17.11323,-7.3727 22.43215,-12.9992 22.62954,-23.9383 0.0897,-4.9717 1.06976,-10.1142 3.18742,-16.7251 6.73341,-21.0204 8.3161,-41.1809 6.39127,-81.4129 -1.46498,-30.6206 -1.0967,-42.9493 1.6886,-56.5275 4.74388,-23.1262 7.1107,-43.8349 11.65455,-101.9725 1.39706,-17.875 3.85026,-42.4 5.45158,-54.5 3.06764,-23.18001 4.56137,-40.20169 5.48469,-62.5 2.60206,-62.84068 4.50624,-85.27672 9.11763,-107.42855 1.25246,-6.01643 2.08624,-7.60938 6.33352,-12.10026 9.35552,-9.89208 9.03918,-15.04265 -1.94725,-31.70439 -13.02255,-19.74966 -13.02356,-26.83325 -0.006,-41.06539 6.05909,-6.62434 6.41472,-18.38412 2.04559,-67.64404 -3.23904,-36.51867 -3.25433,-60.26984 -0.0393,-61.04383 1.3706,-0.32997 3.02505,-1.66911 3.67654,-2.97587 0.65149,-1.30677 1.89259,-2.77219 2.758,-3.2565 1.09413,-0.6123 1.57346,-2.35878 1.57346,-5.73303 0,-4.49259 0.22251,-4.93006 3,-5.8983 1.65,-0.57519 3,-1.75386 3,-2.61926 0,-0.8654 1.06828,-2.0602 2.37396,-2.65511 2.8526,-1.29973 5.14964,-7.50748 4.31752,-11.66807 -0.60558,-3.02791 0.68839,-8.7245 4.13579,-18.2074 1.59305,-4.38206 2.1408,-9.26035 2.69481,-24 0.75956,-20.20868 1.46316,-26.65348 4.14855,-38 2.1536,-9.09957 2.20774,-69.78407 0.0834,-93.5 -1.32577,-14.80082 -28.63438,-20.35986 -48.85173,-9.94443 -3.33697,1.71912 -84.30231,11.31687 -146.90231,17.414 -63.15145,6.15085 -142.79099,11.99551 -186,13.65035 -9.625,0.36862 -18.34573,0.97391 -19.37941,1.34509 -1.03368,0.37118 -4.18368,0.0379 -7,-0.7406 -9.40641,-2.60021 -13.0734,-3.06076 -19.87059,-2.49558 -6.43764,0.53527 -6.75,0.46053 -6.75,-1.61518 0,-3.30591 9.59983,-2.83923 -157,-7.63228 -152.09331,-4.3757 -244.14494,-9.51072 -323.5,-18.04615 -42.084586,-4.52662 -41.590102,-4.55314 -37.531946,2.01309 2.809718,4.54622 8.001789,8.99598 14.105875,12.08915 6.025182,3.05319 5.710229,4.00918 -1.622682,4.92536 -7.213159,0.90123 -7.131682,0.41667 -3.481121,20.70284 13.157684,73.11724 32.969705,89.84174 74.119194,62.56843 13.62678,-9.03164 74.59363,-19.61487 139.41068,-24.20028 40.57594,-2.8705 107.72922,-5.4297 106.3526,-4.05307 -1.36614,1.36613 -39.29665,5.96532 -94.8526,11.50116 -48.55897,4.83863 -79.57807,9.17602 -101.5,14.1927 -4.95,1.13277 -12.90161,2.40826 -17.67025,2.83442 -58.285079,5.20879 -80.504129,70.66779 -25.43434,74.93147 6.10753,0.47287 11.77959,1.12787 12.60459,1.45557 0.825,0.3277 7.42339,1.68588 14.6631,3.01819 18.63075,3.42857 20.55807,4.84742 11.72673,8.63297 -5.37689,2.30481 -5.37655,2.29078 -0.13983,5.671 6.73563,4.34775 2.32914,3.978 -15.76599,-1.32294 -50.493306,-14.79192 -61.261524,-15.87695 -48.870187,-4.92427 5.849125,5.17003 5.550312,5.94436 -1.496743,3.87858 -3.67899,-1.07847 -5.629782,-1.23689 -6.35092,-0.51575 -1.100838,1.10084 1.463197,20.96617 8.733726,67.66616 2.479428,15.92584 -6.897492,-7.66034 -10.554709,-26.54872 -11.406344,-58.9102 -29.446569,-115.0392 -34.398904,-107.02615 -2.303681,3.72743 4.386609,37.94189 14.498445,74.14571 C 63.348277,601.9611 68,624.77695 68,638.42377 68,661.22471 45.707393,571.90355 35.074716,506.5 32.839374,492.75 28.558604,466.425 25.561894,448 19.132898,408.47191 14.510098,384.94786 8.465191,361 2.6133807,337.81712 2.864524,338.69506 1.6386954,337.13622 -2.3464251,332.06851 1.9137793,318.13681 10.423163,308.40931 31.047722,284.83234 84,269.92174 84,287.69113 c 0,7.83667 -11.231448,13.20446 -40.5,19.35596 -27.437126,5.76658 -29.853045,10.58156 -13.663918,27.2325 5.220285,5.3692 7.358871,6.17661 32.163918,12.14324 49.80783,11.98083 100.94971,17.19058 192,19.55878 21.725,0.56506 54.35,1.48769 72.5,2.05028 93.70934,2.9047 199.26821,3.80366 229.5,1.95448 38.49436,-2.35458 45.69589,-2.42725 49.9605,-0.50418 3.46611,1.563 4.55379,1.63374 8.43052,0.54832 2.44804,-0.68541 5.00623,-0.90303 5.68486,-0.48361 0.67864,0.41942 5.32669,1.13501 10.329,1.5902 5.00232,0.4552 11.21508,1.10448 13.80614,1.44286 4.85895,0.63455 12.5215,-1.42715 15.89913,-4.27785 1.27289,-1.07432 2.21543,-1.11773 4.5,-0.20724 5.65388,2.25327 74.72979,1.54572 97.38985,-0.99757 65.44773,-7.34565 142.83206,-25.19639 168.57673,-38.88668 3.01634,-1.604 22.86111,-6.4186 35.92327,-8.71545 14.92428,-2.62428 18.99063,-3.57384 24.30965,-5.67671 3.94382,-1.55919 5.60003,-1.80878 6.4385,-0.97031 2.77665,2.77663 3.31225,59.56945 0.73234,77.65185 -0.5493,3.85 -1.90523,14.425 -3.01318,23.5 -1.10795,9.075 -4.02119,26.4 -6.47387,38.5 -3.71019,18.30382 -9.24156,51.00088 -11.08065,65.5 -8.15291,64.2766 -13.85049,134.5871 -19.89396,245.5 -7.40564,135.91202 -10.09031,174.35848 -16.96843,243 -1.32268,13.2 -2.69383,28.725 -3.04699,34.5 -2.47771,40.5158 -9.33359,97.3084 -20.54798,170.2148 -3.33076,21.6538 -3.95543,28.1621 -3.95543,41.2108 0,69.3342 -24.98268,107.4807 -75.04018,114.5801 -4.09498,0.5808 -11.66596,2.4079 -16.8244,4.0603 -53.70587,17.2035 -132.11465,28.0499 -227.13542,31.4199 -9.075,0.3218 -21.675,1.0023 -28,1.5122 -16.68964,1.3453 -42.60965,1.8049 -57,1.0107 z m -3.34137,-13.0691 c 10.13573,-3.8536 -6.05913,-6.8516 -53.70102,-9.9412 -8.54832,-0.5543 -23.2641,-1.8905 -32.70174,-2.9693 -41.40298,-4.7324 -67.21928,-4.8263 -58.59916,-0.2129 14.29106,7.6483 131.50103,18.2564 145.00192,13.1234 z M 267,1340.9858 c 0,-17.5092 -33.78372,-128.3647 -45.63265,-149.7358 -13.10857,-23.643 -0.67505,49.7636 15.96395,94.25 12.8613,34.3863 29.6687,65.8191 29.6687,55.4858 z m -30.88059,-10.4269 c 0.46685,-23.6893 -2.31854,-36.6829 -18.66251,-87.0589 -11.45397,-35.3038 -14.48558,-45.9509 -17.47306,-61.3658 -2.62437,-13.5413 -3.94142,-15.0016 -8.83341,-9.7943 -6.60876,7.0347 -5.3237,18.1315 6.81208,58.8237 7.16176,24.0141 9.32459,32.9371 10.50412,43.3364 1.9791,17.4486 15.931,55.621 23.32467,63.8163 2.48881,2.7586 4.18062,-0.2737 4.32811,-7.7574 z m -46.7264,-177.1407 c 4.15646,-10.8316 -1.31109,-45.8857 -14.55002,-93.2848 -8.81048,-31.5439 -11.92683,-44.1279 -14.26087,-57.5862 -2.53169,-14.59792 -10.00888,-28.07942 -12.03427,-21.69797 -1.11217,3.50415 11.99496,77.26577 16.90789,95.15077 0.83096,3.025 2.67214,14.725 4.09153,26 4.95883,39.3907 14.73824,64.7282 19.84574,51.4182 z M 413,1246.3098 c -10.14543,-0.7684 -34.01243,-4.7646 -58.5,-9.795 -31.05549,-6.3796 -42.41896,-8.2068 -61,-9.8082 -14,-1.2066 -14,-1.2066 -14.29405,-4.2066 -1.00037,-10.2059 9.60239,-10.2303 43.79702,-0.1006 25.98605,7.698 33.48966,9.5474 41.49703,10.2277 3.85,0.3271 10.375,1.4522 14.5,2.5002 8.03677,2.0417 27.28074,4.776 51.5,7.3174 20.90395,2.1935 23.49057,2.6399 21,3.6243 -1.93302,0.764 -29.3295,0.9353 -38.5,0.2408 z m 90.5,-45.4643 c -12.66947,-6.5443 -16.92802,-15.5791 -19.96737,-42.3623 -2.33097,-20.5408 -4.29113,-26.9964 -10.17455,-33.5086 -4.41726,-4.8894 -11.62311,-8.7751 -17.85781,-9.6296 -22.3248,-3.06 -7.99087,-36.9503 28.49973,-67.3831 6.875,-5.7337 15.48137,-13.2097 19.12526,-16.6134 7.77359,-7.2612 10.12791,-7.9246 27.37474,-7.7144 42.97888,0.5238 87.9988,35.431 102.44351,79.4318 3.87593,11.8067 4.07704,11.5104 -17.1589,25.2802 -23.85384,15.4674 -29.09238,25.1319 -24.7068,45.5811 4.41691,20.5954 -10.86766,29.4712 -37.07781,21.5313 -18.5926,-5.6322 -33.94373,-3.8639 -40.22635,4.6338 -2.52669,3.4175 -4.79376,3.5837 -10.27365,0.7532 z m 66.20502,-11.3667 c 27.92843,-11.6693 18.65658,-71.4592 -10.24076,-66.0381 -16.77129,3.1463 -19.6159,53.712 -3.61153,64.1985 5.19253,3.4022 8.92576,3.898 13.85229,1.8396 z m -50.74156,-4.6382 c 18.66051,-8.0143 22.02166,-46.2323 5.3531,-60.8675 -8.03066,-7.051 -21.18881,4.2783 -23.79298,20.486 -0.26873,1.6725 -1.39647,8.5134 -2.50609,15.2019 -4.40513,26.5532 1.42601,33.5629 20.94597,25.1796 z m -28.66636,-68.7689 c 17.06442,-9.3064 32.09271,-9.9492 68.38925,-2.925 36.28646,7.0222 61.30414,4.0344 60.49645,-7.2249 -0.83153,-11.5918 -5.83212,-23.6507 -12.08357,-29.1395 -11.99169,-10.5289 -22.04243,-10.9799 -72.09923,-3.2355 -20.11052,3.1113 -40.60001,1.8141 -50.26171,-3.1821 -6.0287,-3.1176 -20.68267,4.0767 -26.0408,12.7846 -12.2006,19.8281 11.09892,44.103 31.59961,32.9224 z m -113.71235,-50.111 c -74.99041,-11.7912 -125.56823,-98.12274 -88.65433,-151.32453 10.92949,-15.75202 15.14241,-12.02022 7.7619,6.87548 -31.33661,80.22855 64.7173,164.91815 142.32686,125.48795 73.77659,-37.4828 79.04039,-124.55808 9.82959,-162.60403 -4.59182,-2.52418 -10.59877,-5.88506 -13.34877,-7.46864 -23.03757,-13.26606 -52.27434,-11.02044 -105.82857,8.1285 -18.20062,6.50785 -18.62877,6.27866 -7.92143,-4.24034 38.97438,-38.28883 116.57651,-32.80637 160.38531,11.33096 71.16789,71.7016 -0.1297,190.23345 -104.55056,173.81465 z M 667,1057.8633 C 583.19914,1050.747 527.85753,973.82713 560.25699,909.5 610.67668,809.39483 754.05664,824.96857 785.27661,933.94133 802.88533,995.40424 737.5533,1063.8546 667,1057.8633 Z m 15.20956,-17.0501 C 768.5151,1043.2886 805.8671,946.41299 742.47872,884.5 697.1312,840.20796 606.86285,853.63884 578.08141,908.9604 c -30.95574,59.50085 17.77594,136.7494 83.41859,132.2336 5.5,-0.3784 14.8193,-0.5497 20.70956,-0.3808 z m -82.92352,-51.26395 c -21.47029,-6.70998 -27.07053,-30.55348 -12.47881,-53.1297 18.7933,-29.0769 52.01536,-22.31381 64.18811,13.06691 4.2991,12.49555 2.95937,14.022 -11.4451,13.04019 -18.11663,-1.23484 -21.55793,1.43404 -11.30024,8.76382 12.0898,8.63895 14.24953,12.36561 8.79958,15.18389 -8.1439,4.21137 -28.75663,5.88976 -37.76354,3.07489 z M 327.5,996.04447 c -26.84549,-2.6274 -36.1589,-16.7416 -25.42905,-38.53703 12.3506,-25.08762 40.27331,-33.24554 56.79939,-16.59455 26.99039,27.19441 8.85384,59.06836 -31.37034,55.13158 z M 106.56024,286.09746 c -0.30679,-0.49639 1.45015,-3.5737 3.90431,-6.83846 C 115.24259,272.9028 117,269.22838 117,265.59457 c 0,-2.17035 1.16386,-2.5136 25.25,-7.44684 67.98813,-13.92506 58.27437,-13.21648 220.75,-16.10282 123.91859,-2.20137 189.32203,-4.66927 242.97116,-9.16815 14.5958,-1.22396 18.44246,0.53587 20.90493,9.56394 4.04171,14.81792 -7.71811,17.09809 -86.87609,16.84485 -67.29981,-0.21529 -56.58836,0.59257 -98,-7.39122 -17.33256,-3.34156 -29.40316,-1.63716 -35.40499,4.99926 -2.41849,2.67421 -3.3633,2.64379 -11.74035,-0.37798 -14.98777,-5.40639 -25.55444,-6.90567 -48.35466,-6.86093 -21.84508,0.0429 -24.52119,0.31438 -71.5,7.25424 -11.275,1.66558 -26.575,3.50327 -34,4.08375 -32.22138,2.51908 -65.62697,8.85719 -115.88706,21.9875 -16.47105,4.30302 -17.69299,4.50834 -18.5527,3.11729 z"
       id="path3513"
       inkscape:connector-curvature="0" />
  </g>
</svg>
