<svg width="300" height="175" viewBox="0 0 300 175" fill="none" xmlns="http://www.w3.org/2000/svg">
<path d="M125 112.5L112.5 87.5L125 62.5L137.5 87.5L125 112.5Z" fill="#F54E00"/>
<path d="M125 175L112.5 150L125 125L137.5 150L125 175Z" fill="#F54E00"/>
<path d="M62.5 112.5L50 87.5L62.5 62.5L75 87.5L62.5 112.5Z" fill="#1D4AFF"/>
<path d="M62.5 175L50 150L62.5 125L75 150L62.5 175Z" fill="#1D4AFF"/>
<path d="M0 125L50 175H0V125ZM0 112.5L62.5 175H112.5L0 62.5V112.5ZM0 50L125 175H175L0 0V50ZM62.5 50L187.5 175V125L62.5 0V50ZM125 0V50L187.5 112.5V62.5L125 0Z" fill="#F9BD2B"/>
<path d="M265.86 140.86L196.34 71.34V175H300V155C287.19 155 274.91 149.91 265.86 140.86ZM226.34 155C220.82 155 216.34 150.52 216.34 145C216.34 139.48 220.82 135 226.34 135C231.86 135 236.34 139.48 236.34 145C236.34 150.52 231.86 155 226.34 155Z" fill="black"/>
<path d="M0 175H50L0 125V175Z" fill="#1D4AFF"/>
<path d="M62.5 62.5L0 0V50L62.5 112.5V62.5Z" fill="#1D4AFF"/>
<path d="M0 62.5V112.5L62.5 175V125L0 62.5Z" fill="#1D4AFF"/>
<path d="M125 62.5L62.5 0V50L125 112.5V62.5Z" fill="#F54E00"/>
<path d="M62.5 175H112.5L62.5 125V175Z" fill="#F54E00"/>
<path d="M62.5 62.5V112.5L125 175V125L62.5 62.5Z" fill="#F54E00"/>
</svg>
