<svg width="330" height="328" viewBox="0 0 330 328" fill="none" xmlns="http://www.w3.org/2000/svg">
  <path d="M276.212 182.797L265.587 249.633L328.798 273.877L328.789 213.146L276.212 182.797Z" fill="#A299FF"/>
  <path d="M0.814453 243.506V84.4956L53.416 101.175V213.136L138.523 262.271L144.881 286.511L138.523 323.008L0.814453 243.506Z" fill="#7366FF"/>
  <path d="M138.536 65.7373L53.4162 114.863L0.814697 84.4957L138.504 5L276.213 84.4957L247.158 107.644L223.643 114.872L138.536 65.7373Z" fill="#7366FF"/>
  <path d="M328.814 273.854L276.213 304.243L223.643 273.854V213.139L328.814 273.854Z" fill="#5219FF"/>
  <path d="M138.536 103.424L138.504 164.145L191.121 194.503L191.112 133.772L138.536 103.424Z" fill="#A299FF"/>
  <path d="M138.504 164.146L85.9217 194.503L138.514 224.877L191.122 194.503L138.504 164.146Z" fill="#5219FF"/>
  <path d="M138.536 103.424L85.928 133.797L85.9217 194.503L138.504 164.145L138.536 103.424Z" fill="#7366FF"/>
  <path d="M276.213 84.4956V182.797L223.643 213.139V114.872L276.213 84.4956Z" fill="url(#paint0_linear)"/>
  <path d="M276.228 182.766L138.523 262.271V323.008L276.212 243.497L276.228 182.766Z" fill="url(#paint1_linear)"/>
  <defs>
    <linearGradient id="paint0_linear" x1="249.928" y1="84.4953" x2="249.928" y2="213.14" gradientUnits="userSpaceOnUse">
      <stop offset="0.25" stop-color="#7366FF"/>
      <stop offset="1" stop-color="#5219FF"/>
    </linearGradient>
    <linearGradient id="paint1_linear" x1="138.521" y1="252.888" x2="276.227" y2="252.888" gradientUnits="userSpaceOnUse">
      <stop stop-color="#7366FF"/>
      <stop offset="1" stop-color="#A299FF"/>
    </linearGradient>
  </defs>
</svg>
