<svg width="144" height="144" viewBox="0 0 144 144" fill="none" xmlns="http://www.w3.org/2000/svg">
<path d="M142.121 70.2558L136.152 66.5607C136.101 65.9793 136.044 65.3992 135.982 64.8219L141.112 60.0373C141.633 59.5509 141.867 58.8309 141.726 58.134C141.588 57.4344 141.098 56.8584 140.431 56.6098L133.874 54.1577C133.709 53.5899 133.537 53.0261 133.36 52.465L137.45 46.7838C137.868 46.2065 137.953 45.4552 137.681 44.7964C137.41 44.1402 136.816 43.6702 136.114 43.5547L129.199 42.4299C128.93 41.9055 128.65 41.3893 128.368 40.8771L131.273 34.499C131.571 33.8496 131.51 33.0943 131.113 32.5047C130.718 31.9124 130.048 31.566 129.333 31.5932L122.316 31.8377C121.953 31.384 121.583 30.9343 121.207 30.4928L122.82 23.6569C122.983 22.9627 122.777 22.2359 122.272 21.7319C121.771 21.2293 121.043 21.0214 120.348 21.1844L113.514 22.7956C113.071 22.4207 112.621 22.0498 112.166 21.6871L112.412 14.6691C112.439 13.9586 112.093 13.2835 111.501 12.8895C110.907 12.4928 110.156 12.433 109.508 12.7278L103.131 15.635C102.616 15.3524 102.1 15.0726 101.578 14.8023L100.451 7.88617C100.337 7.18519 99.8665 6.59017 99.209 6.31848C98.5528 6.04542 97.8002 6.13372 97.2229 6.54942L91.5376 10.6398C90.9779 10.4619 90.4155 10.2907 89.8476 10.1277L87.3955 3.56889C87.1469 2.90051 86.5709 2.4101 85.8713 2.27153C85.173 2.13432 84.4544 2.36663 83.9694 2.88557L79.1848 8.01931C78.6075 7.95546 78.026 7.89704 77.4459 7.8495L73.7509 1.87893C73.3773 1.2744 72.7157 0.90625 72.0038 0.90625C71.292 0.90625 70.6304 1.2744 70.2582 1.87893L66.5631 7.8495C65.9816 7.89704 65.4002 7.95546 64.8228 8.01931L60.0369 2.88557C59.5519 2.36663 58.8319 2.13432 58.135 2.27153C57.4354 2.41146 56.8594 2.90051 56.6108 3.56889L54.1587 10.1277C53.5909 10.2907 53.0284 10.4632 52.4674 10.6398L46.7835 6.54942C46.2061 6.13236 45.4535 6.04406 44.796 6.31848C44.1398 6.59017 43.6684 7.18519 43.5543 7.88617L42.4268 14.8023C41.9051 15.0726 41.3889 15.3511 40.874 15.635L34.4973 12.7278C33.8493 12.4317 33.0939 12.4928 32.5044 12.8895C31.9121 13.2835 31.5656 13.9586 31.5928 14.6691L31.8373 21.6871C31.3836 22.0498 30.9339 22.4207 30.4897 22.7956L23.6551 21.1844C22.961 21.0228 22.2328 21.2293 21.7302 21.7319C21.2248 22.2359 21.0197 22.9627 21.1827 23.6569L22.7925 30.4928C22.4189 30.9357 22.0494 31.384 21.6867 31.8377L14.6687 31.5932C13.961 31.5728 13.2844 31.9124 12.8891 32.5047C12.4924 33.0943 12.4327 33.8496 12.7275 34.499L15.6346 40.8771C15.3521 41.3893 15.0722 41.9055 14.8019 42.4299L7.88715 43.5547C7.18481 43.6688 6.59251 44.1389 6.31945 44.7964C6.04775 45.4552 6.13606 46.2065 6.5504 46.7838L10.6408 52.465C10.4628 53.0261 10.2903 53.5899 10.1273 54.1577L3.56851 56.6098C2.90285 56.8584 2.41243 57.4344 2.27387 58.134C2.1353 58.8323 2.3676 59.5509 2.88791 60.0373L8.01893 64.8219C7.95508 65.3992 7.89802 65.9807 7.84911 66.5607L1.87991 70.2558C1.27538 70.6294 0.907227 71.2896 0.907227 72.0029C0.907227 72.7161 1.27538 73.3763 1.87991 73.7485L7.84911 77.4436C7.89802 78.025 7.95508 78.6051 8.01893 79.1825L2.88791 83.9684C2.3676 84.4534 2.1353 85.1734 2.27387 85.8703C2.41243 86.5699 2.90285 87.1446 3.56851 87.3946L10.1273 89.8466C10.2903 90.4145 10.4628 90.9782 10.6408 91.5393L6.5504 97.2219C6.1347 97.8006 6.0464 98.5518 6.31945 99.208C6.59251 99.8669 7.18617 100.337 7.88851 100.45L14.8019 101.574C15.0722 102.099 15.3493 102.615 15.6346 103.13L12.7275 109.505C12.4313 110.153 12.4924 110.907 12.8891 111.5C13.2858 112.093 13.961 112.44 14.6687 112.411L21.684 112.165C22.0494 112.622 22.4176 113.069 22.7925 113.513L21.1827 120.35C21.0197 121.043 21.2248 121.767 21.7302 122.271C22.2315 122.778 22.961 122.98 23.6551 122.817L30.4897 121.207C30.9339 121.585 31.3836 121.952 31.8373 122.313L31.5928 129.333C31.5656 130.043 31.9121 130.717 32.5044 131.113C33.0939 131.509 33.8493 131.569 34.4973 131.272L40.874 128.367C41.3875 128.652 41.9038 128.929 42.4268 129.199L43.5543 136.111C43.6684 136.815 44.1385 137.41 44.796 137.68C45.4521 137.953 46.2061 137.865 46.7835 137.451L52.4647 133.358C53.0257 133.536 53.5895 133.71 54.1573 133.873L56.6094 140.429C56.858 141.094 57.434 141.587 58.1336 141.723C58.8319 141.865 59.5506 141.631 60.0355 141.109L64.8215 135.978C65.3988 136.045 65.9803 136.101 66.5617 136.152L70.2568 142.121C70.629 142.723 71.2906 143.094 72.0025 143.094C72.7143 143.094 73.3759 142.725 73.7495 142.121L77.4446 136.152C78.026 136.101 78.6061 136.045 79.1835 135.978L83.9681 141.109C84.453 141.631 85.173 141.865 85.8699 141.723C86.5696 141.586 87.1456 141.094 87.3942 140.429L89.8462 133.873C90.4141 133.71 90.9779 133.536 91.5389 133.358L97.2215 137.451C97.7989 137.865 98.5515 137.953 99.2076 137.68C99.8651 137.41 100.335 136.814 100.449 136.111L101.577 129.199C102.098 128.929 102.615 128.648 103.13 128.367L109.506 131.272C110.154 131.569 110.908 131.509 111.499 131.113C112.092 130.717 112.437 130.044 112.411 129.333L112.166 122.313C112.62 121.95 113.07 121.585 113.513 121.207L120.347 122.817C121.041 122.98 121.769 122.778 122.271 122.271C122.776 121.767 122.981 121.043 122.818 120.35L121.208 113.513C121.583 113.069 121.953 112.622 122.314 112.165L129.332 112.411C130.04 112.44 130.716 112.093 131.112 111.5C131.508 110.907 131.57 110.153 131.272 109.505L128.366 103.13C128.65 102.615 128.929 102.099 129.198 101.574L136.112 100.45C136.816 100.337 137.408 99.8669 137.68 99.208C137.952 98.5518 137.866 97.8006 137.449 97.2219L133.359 91.5393C133.535 90.9782 133.708 90.4145 133.872 89.8466L140.43 87.3946C141.097 87.1446 141.588 86.5699 141.724 85.8703C141.866 85.1721 141.632 84.4534 141.11 83.9684L135.981 79.1825C136.043 78.6051 136.1 78.0237 136.15 77.4436L142.12 73.7485C142.724 73.3763 143.092 72.7147 143.092 72.0029C143.092 71.291 142.725 70.6294 142.121 70.2558V70.2558ZM102.169 119.774C99.8896 119.282 98.4401 117.035 98.9291 114.749C99.4168 112.466 101.662 111.012 103.941 111.504C106.22 111.991 107.672 114.242 107.183 116.525C106.694 118.807 104.447 120.262 102.169 119.774ZM100.141 106.056C98.061 105.611 96.0152 106.934 95.5696 109.018L93.4503 118.907C86.9106 121.876 79.6481 123.525 71.9998 123.525C64.1762 123.525 56.7561 121.794 50.0995 118.7L47.9816 108.81C47.5361 106.729 45.4902 105.403 43.4117 105.85L34.6807 107.724C33.06 106.056 31.5521 104.279 30.1664 102.403H72.6491C73.13 102.403 73.4506 102.316 73.4506 101.879V86.8512C73.4506 86.4137 73.13 86.3268 72.6491 86.3268H60.2244V76.801H73.6625C74.8893 76.801 80.2213 77.1515 81.9262 83.9671C82.4601 86.0632 83.6325 92.8815 84.434 95.0646C85.2328 97.5126 88.485 102.403 91.9505 102.403H113.12C113.36 102.403 113.617 102.376 113.887 102.327C112.419 104.323 110.808 106.211 109.073 107.976L100.141 106.056V106.056ZM41.3835 119.568C39.1039 120.059 36.8597 118.606 36.3693 116.322C35.8816 114.035 37.3311 111.789 39.6106 111.297C41.8902 110.809 44.1358 112.263 44.6248 114.547C45.1125 116.829 43.6616 119.079 41.3835 119.568ZM25.2677 54.2175C26.2132 56.3517 25.2514 58.8527 23.1199 59.7968C20.9884 60.7437 18.4942 59.7805 17.5487 57.645C16.6032 55.5094 17.565 53.0125 19.6965 52.0656C21.8293 51.1201 24.3222 52.0819 25.2677 54.2175ZM20.3146 65.9589L29.4097 61.9174C31.3524 61.0548 32.2299 58.7779 31.3673 56.8312L29.4939 52.5955H36.861V85.8024H21.9978C20.7086 81.2705 20.0171 76.4872 20.0171 71.5437C20.0171 69.6567 20.119 67.7915 20.3146 65.9589V65.9589ZM60.2271 62.7339V52.9459H77.7706C78.6767 52.9459 84.1691 53.9933 84.1691 58.1001C84.1691 61.5099 79.9564 62.7325 76.4923 62.7325H60.2271V62.7339ZM123.984 71.5437C123.984 72.8424 123.936 74.1275 123.841 75.4032H118.508C117.974 75.4032 117.759 75.7537 117.759 76.2767V78.726C117.759 84.4915 114.508 85.7453 111.66 86.0646C108.947 86.3702 105.939 84.9289 105.568 83.2688C103.968 74.2675 101.301 72.3452 97.0897 69.0237C102.316 65.7049 107.754 60.8089 107.754 54.2555C107.754 47.1792 102.903 42.7219 99.5961 40.5361C94.9569 37.4782 89.8204 36.8655 88.4348 36.8655H33.276C40.7558 28.5176 50.8929 22.6041 62.3585 20.4522L68.8603 27.2732C70.3302 28.8124 72.7646 28.8694 74.3024 27.3982L81.5771 20.44C96.8207 23.2779 109.726 32.7669 117.164 45.7853L112.184 57.0336C111.324 58.9804 112.202 61.2572 114.143 62.1198L123.731 66.3787C123.897 68.0809 123.984 69.8007 123.984 71.5437V71.5437ZM68.863 14.6501C70.5475 13.0362 73.2197 13.1001 74.8322 14.7873C76.442 16.4786 76.3809 19.1535 74.6923 20.766C73.0078 22.3799 70.3356 22.3174 68.7231 20.6275C67.1146 18.9389 67.1758 16.264 68.863 14.6501V14.6501ZM118.285 54.4226C119.229 52.2884 121.723 51.3253 123.855 52.2721C125.986 53.2176 126.948 55.7173 126.002 57.8515C125.058 59.987 122.564 60.9502 120.431 60.0033C118.303 59.0578 117.341 56.5595 118.285 54.4226V54.4226Z" fill="white"/>
</svg>
