<svg width="106" height="125" viewBox="0 0 106 125" fill="none" xmlns="http://www.w3.org/2000/svg">
<path d="M48.17 96.0705H68.68C73.1807 95.5287 76.6336 91.8181 76.85 87.2901V57.7101C76.85 53.7834 73.6667 50.6001 69.74 50.6001C65.8132 50.6001 62.63 53.7834 62.63 57.7101V76.5101C62.63 77.9281 62.066 79.2879 61.0624 80.2896C60.0588 81.2913 58.698 81.8528 57.28 81.8501H47.99C46.0894 81.8553 44.2698 82.6201 42.9363 83.9743C41.6027 85.3285 40.8659 87.1597 40.89 89.0601C40.9989 92.9911 44.2377 96.1098 48.17 96.0705Z" fill="white"/>
<path d="M57.41 28.5398H36.9C32.3992 29.0815 28.9464 32.7921 28.73 37.3201V66.9001C28.73 70.8269 31.9132 74.0101 35.84 74.0101C39.7667 74.0101 42.95 70.8269 42.95 66.9001V48.1101C42.95 45.1554 45.3453 42.7601 48.3 42.7601H57.59C59.4923 42.7576 61.3145 41.9939 62.6502 40.6394C63.9859 39.2849 64.724 37.4523 64.7 35.5501C64.5805 31.6199 61.3419 28.5057 57.41 28.5398Z" fill="white"/>
<path d="M60.84 14.2301C77.5271 14.2245 91.0669 27.733 91.1 44.4201V102.54C90.4134 106.578 87.1636 109.689 83.1 110.2H44.46C27.7628 110.195 14.23 96.6572 14.23 79.9601V23.5801C14.2273 21.0995 15.2116 18.7197 16.9656 16.9657C18.7197 15.2116 21.0994 14.2274 23.58 14.2301H60.84ZM60.84 2.8054e-05H23.58C10.5571 2.8054e-05 0 10.5572 0 23.5801V79.9901C0.0165606 104.533 19.9171 124.42 44.46 124.42H83.84C95.1038 123.497 104.126 114.706 105.34 103.47V44.4201C105.332 32.6277 100.639 21.3218 92.2926 12.9909C83.9467 4.65992 72.6323 -0.0132112 60.84 2.8054e-05Z" fill="white"/>
</svg>
