<?xml version="1.0" encoding="UTF-8"?>
<svg height="64px" version="1.1" viewBox="0 0 64 64" width="64px" xmlns="http://www.w3.org/2000/svg"
     xmlns:xlink="http://www.w3.org/1999/xlink">
    <!-- Generator: Sketch 63.1 (92452) - https://sketch.com -->
    <defs>
        <linearGradient id="lokiGradient-1" x1="7299.87913%" x2="428.581596%" y1="36256.5306%" y2="1952.52231%">
            <stop offset="0%" stop-color="#F9EC1C"></stop>
            <stop offset="100%" stop-color="#F05A2B"></stop>
        </linearGradient>
        <linearGradient id="lokiGradient-2" x1="101.768778%" x2="-151.781231%" y1="309.444414%" y2="-961.074776%">
            <stop offset="0%" stop-color="#F9EC1C"></stop>
            <stop offset="100%" stop-color="#F05A2B"></stop>
        </linearGradient>
        <linearGradient id="lokiGradient-3" x1="70.3205688%" x2="3.99528401%" y1="91.4612826%" y2="-43.7353422%">
            <stop offset="0%" stop-color="#F9EC1C"></stop>
            <stop offset="100%" stop-color="#F05A2B"></stop>
        </linearGradient>
        <linearGradient id="lokiGradient-4" x1="128.083548%" x2="-126.409026%" y1="438.252519%" y2="-827.561044%">
            <stop offset="0%" stop-color="#F9EC1C"></stop>
            <stop offset="100%" stop-color="#F05A2B"></stop>
        </linearGradient>
        <linearGradient id="lokiGradient-5" x1="101.966469%" x2="-152.526105%" y1="308.516577%" y2="-957.296986%">
            <stop offset="0%" stop-color="#F9EC1C"></stop>
            <stop offset="100%" stop-color="#F05A2B"></stop>
        </linearGradient>
        <linearGradient id="lokiGradient-6" x1="128.072338%" x2="-126.420236%" y1="438.186526%" y2="-827.627037%">
            <stop offset="0%" stop-color="#F9EC1C"></stop>
            <stop offset="100%" stop-color="#F05A2B"></stop>
        </linearGradient>
        <linearGradient id="lokiGradient-7" x1="63.563812%" x2="-2.76147275%" y1="77.6279133%" y2="-57.5687116%">
            <stop offset="0%" stop-color="#F9EC1C"></stop>
            <stop offset="100%" stop-color="#F05A2B"></stop>
        </linearGradient>
        <linearGradient id="lokiGradient-8" x1="101.779946%" x2="-151.770063%" y1="309.510652%" y2="-961.008538%">
            <stop offset="0%" stop-color="#F9EC1C"></stop>
            <stop offset="100%" stop-color="#F05A2B"></stop>
        </linearGradient>
        <linearGradient id="lokiGradient-9" x1="127.788404%" x2="-125.761605%" y1="439.662791%" y2="-830.856399%">
            <stop offset="0%" stop-color="#F9EC1C"></stop>
            <stop offset="100%" stop-color="#F05A2B"></stop>
        </linearGradient>
        <linearGradient id="lokiGradient-10" x1="55.8650899%" x2="46.8739074%" y1="166.897573%" y2="-12.2567841%">
            <stop offset="0%" stop-color="#F9EC1C"></stop>
            <stop offset="100%" stop-color="#F05A2B"></stop>
        </linearGradient>
        <linearGradient id="lokiGradient-11" x1="55.7869857%" x2="46.9181108%" y1="166.990329%" y2="-12.3254538%">
            <stop offset="0%" stop-color="#F9EC1C"></stop>
            <stop offset="100%" stop-color="#F05A2B"></stop>
        </linearGradient>
        <linearGradient id="lokiGradient-12" x1="55.6730003%" x2="46.9811582%" y1="167.162429%" y2="-12.3885225%">
            <stop offset="0%" stop-color="#F9EC1C"></stop>
            <stop offset="100%" stop-color="#F05A2B"></stop>
        </linearGradient>
        <linearGradient id="lokiGradient-13" x1="55.7411652%" x2="46.9442363%" y1="167.045482%" y2="-12.3134164%">
            <stop offset="0%" stop-color="#F9EC1C"></stop>
            <stop offset="100%" stop-color="#F05A2B"></stop>
        </linearGradient>
        <linearGradient id="lokiGradient-14" x1="55.9595494%" x2="46.8265318%" y1="166.789239%" y2="-12.1751193%">
            <stop offset="0%" stop-color="#F9EC1C"></stop>
            <stop offset="100%" stop-color="#F05A2B"></stop>
        </linearGradient>
        <linearGradient id="lokiGradient-15" x1="55.9094441%" x2="46.8535751%" y1="166.851585%" y2="-12.2384033%">
            <stop offset="0%" stop-color="#F9EC1C"></stop>
            <stop offset="100%" stop-color="#F05A2B"></stop>
        </linearGradient>
    </defs>
    <desc>Created with Sketch.</desc>
    <g fill="none" fill-rule="evenodd" id="Icon" stroke="none" stroke-width="1">
        <g fill-rule="nonzero" id="loki-logo" transform="translate(5.000000, 0.000000)">
            <polygon fill="url(#lokiGradient-1)" id="Path"
                     points="10.3609121 0.3752443 10.3192182 0.18762215 10.152443 0.229315961"></polygon>
            <polygon fill="url(#lokiGradient-2)" id="Path"
                     points="14.3218241 58.2254072 9.65211726 59.1635179 10.590228 63.8540717 15.2599349 62.9159609"></polygon>
            <polygon fill="url(#lokiGradient-3)" id="Path"
                     points="31.1035831 52.1172638 51.7628664 47.9687296 50.8247557 43.2990228 30.1654723 47.4267101"></polygon>
            <polygon fill="url(#lokiGradient-4)" id="Path"
                     points="22.8273616 48.9068404 23.7654723 53.5765472 28.4560261 52.6384365 27.5179153 47.9687296"></polygon>
            <polygon fill="url(#lokiGradient-5)" id="Path"
                     points="22.5980456 61.4358306 21.6599349 56.7661238 16.9693811 57.7042345 17.9074919 62.3739414"></polygon>
            <polygon fill="url(#lokiGradient-6)" id="Path"
                     points="9.11009772 56.5159609 13.8006515 55.5778502 12.8625407 50.9081433 8.17198697 51.8462541"></polygon>
            <polygon fill="url(#lokiGradient-7)" id="Path"
                     points="52.2840391 50.6162866 31.6247557 54.7648208 32.5628664 59.4345277 53.2221498 55.3068404"></polygon>
            <polygon fill="url(#lokiGradient-8)" id="Path"
                     points="24.3074919 56.2241042 25.2456026 60.914658 29.9153094 59.9765472 28.9771987 55.2859935"></polygon>
            <polygon fill="url(#lokiGradient-9)" id="Path"
                     points="16.4482085 55.0566775 21.1179153 54.1185668 20.1798046 49.428013 15.5100977 50.3661238"></polygon>
            <polygon fill="url(#lokiGradient-10)" id="Path"
                     points="7.65081433 49.1986971 9.63127036 48.8026059 2.12638436 11.3407166 0.145928339 11.7368078"></polygon>
            <polygon fill="url(#lokiGradient-11)" id="Path"
                     points="10.3609121 48.6566775 12.3413681 48.2605863 4.29446254 8.04690554 2.31400651 8.44299674"></polygon>
            <polygon fill="url(#lokiGradient-12)" id="Path"
                     points="15.009772 47.7185668 16.990228 47.3224756 7.77589577 1.39674267 5.79543974 1.79283388"></polygon>
            <polygon fill="url(#lokiGradient-13)" id="Path"
                     points="17.7198697 47.1765472 19.7003257 46.780456 11.257329 4.60716612 9.27687296 5.00325733"></polygon>
            <polygon fill="url(#lokiGradient-14)" id="Path"
                     points="22.3061889 46.2592834 24.286645 45.8631922 17.3654723 11.3198697 15.3850163 11.7159609"></polygon>
            <polygon fill="url(#lokiGradient-15)" id="Path"
                     points="25.0162866 45.7172638 26.9967427 45.3211726 19.8254072 9.46449511 17.8449511 9.86058632"></polygon>
        </g>
    </g>
    <title>Icon</title>
</svg>
