<svg viewBox="0 0 281 124" fill="currentColor" xmlns="http://www.w3.org/2000/svg"><path d="M236.014 0C260.431 9.71106e-05 280.602 17.4115 280.603 44.7432C280.602 73.5337 260.065 94.1657 233.52 94.166C224.158 94.166 215.639 92.4222 208.63 88.4902C202.886 85.2698 198.203 80.6054 194.919 74.3379L188.115 121.822L187.946 123.016H174.214L174.448 121.423L191.772 2.49414H205.372L203.937 11.3369C212.143 3.86078 223.2 0.000153635 236.014 0ZM47.082 0.154297C56.4435 0.154297 65.0012 1.8991 72.0488 5.84863C77.8222 9.08305 82.5323 13.7713 85.8271 20.085L88.1201 3.69238L88.2861 2.49316H101.863L89.1611 90.6328L88.9873 91.8262H75.4092L76.7227 82.8555C68.5854 90.4564 57.3981 94.3231 44.5889 94.3232C20.1709 94.3232 0.000167223 76.9087 0 49.5771C0.000149745 20.7854 20.54 0.154871 47.082 0.154297ZM116.234 90.6357L116.061 91.8271H102.485L115.351 3.68555L115.521 2.49414H129.083L116.234 90.6357ZM140.673 90.6357L140.499 91.8271H126.924L139.789 3.68555L139.96 2.49414H153.521L140.673 90.6357ZM177.958 2.49414L165.108 90.6357L164.935 91.8271H151.36L164.225 3.68555L164.396 2.49414H177.958ZM48.4854 11.9844C27.8638 11.985 14.0133 28.3799 14.0127 48.9521C14.0127 57.7907 16.8094 66.1771 22.3145 72.334C27.7973 78.4657 36.0631 82.4932 47.2402 82.4932C67.8534 82.4925 81.7122 65.9487 81.7129 45.3682C81.7129 35.4076 78.2493 27.0792 72.4131 21.2441C66.5794 15.4088 58.2871 11.9844 48.4854 11.9844ZM233.362 11.8291C212.749 11.8297 198.89 28.3716 198.89 48.9521C198.89 58.9123 202.356 67.2403 208.189 73.0742C214.023 78.9107 222.315 82.3358 232.116 82.3359C252.738 82.3355 266.589 65.9407 266.59 45.3682C266.59 36.5296 263.795 28.1424 258.29 21.9863C252.807 15.8551 244.542 11.8291 233.362 11.8291Z"/></svg>