<svg viewBox="0 0 512 512" xmlns="http://www.w3.org/2000/svg" fill-rule="evenodd" clip-rule="evenodd" stroke-linejoin="round" stroke-miterlimit="2"><path d="M20.34 3.66L3.66 20.34A12.508 12.508 0 000 29.18V59c0 2.76 2.24 5 5 5h29.82c3.32 0 6.49-1.32 8.84-3.66l16.68-16.68c2.34-2.34 3.66-5.52 3.66-8.84V5c0-2.76-2.24-5-5-5H29.18c-3.32 0-6.49 1.32-8.84 3.66z" fill="url(#prefix___Linear1)" fill-rule="nonzero" transform="matrix(7.81247 0 0 7.81247 6 6)"/><path fill-rule="nonzero" d="M68.5 131h312.499v312.499h-312.5z"/><path fill="#fff" fill-rule="nonzero" d="M107.562 373.186h132.812v31.25H107.562z"/><defs><linearGradient id="prefix___Linear1" x1="0" y1="0" x2="1" y2="0" gradientUnits="userSpaceOnUse" gradientTransform="rotate(-44.6 76.892 30.324) scale(86.75)"><stop offset="0" stop-color="#ff9419"/><stop offset=".43" stop-color="#ff021d"/><stop offset=".99" stop-color="#e600ff"/><stop offset="1" stop-color="#e600ff"/></linearGradient></defs></svg>