<svg xmlns="http://www.w3.org/2000/svg" xmlns:xlink="http://www.w3.org/1999/xlink" width="264" height="264" viewBox="0 0 264 264"><defs><clipPath id="b"><rect width="264" height="264"/></clipPath></defs><g id="a" clip-path="url(#b)"><g transform="translate(-4 -203)"><g transform="translate(-75 229)"><g transform="translate(0 0)"><g transform="translate(135.483 20.9)"><path d="M28.946,35.812v81.144L68.66,94.034V11.419Z" transform="translate(82.596 32.584)" fill="#33369f"/><path d="M77.589,0,0,42.411,42.533,68.4,77.467,48.784,111.542,68.4,151.256,44Z" fill="#b7b9e7"/><path d="M0,11.006,42.656,36.992l-.368,40.082,47.559,25.741.49,43.881L0,95.459Z" transform="translate(0 31.405)" fill="#7173cd"/><path d="M20.1,12.66,54.179,32.272s.093,40.625.093,40.012c2.475,1.19-33.678-17.949-33.678-17.949Z" transform="translate(57.363 36.124)" fill="#7173cd"/><path d="M10.974,72.353,46.643,54.335l-.49-41.675L11.342,32.272Z" transform="translate(31.314 36.124)" fill="#33369f"/><path d="M58.533,67.234,10.974,41.493,46.643,23.475l45.6,24.27Z" transform="translate(31.314 66.984)" fill="#b7b9e7"/><path d="M23.807,93.144,56.411,71.2l.613-41.43L23.316,49.262Z" transform="translate(66.531 84.956)" fill="#33369f"/><path d="M1.084,40.991c12.748,7.845,25.729,15.574,38.477,23.418,11.645-6.5,23.171-13.121,34.815-19.618,11.4,6.5,22.684,13.114,34.083,19.611,11.645-7.354,23.422-14.208,35.008-21.512L74.383,1.4C49.991,14.638,25.6,27.753,1.084,40.991Z" transform="translate(3.094 3.994)" fill="#b7b9e7"/></g><path d="M422.4,0h0Z" transform="translate(422.402) rotate(180)" fill="#b7b9e7" opacity="0.503"/></g></g></g></g></svg>
