<svg width="702" height="216" viewBox="0 0 1065 328" fill="none" xmlns="http://www.w3.org/2000/svg">
    <path d="M251.867 180.969L242.265 241.365L299.387 263.274L299.378 208.393L251.867 180.969Z" fill="#A299FF"/>
    <path d="M3 235.829V92.1372L50.534 107.21V208.384L127.442 252.786L133.188 274.691L127.442 307.672L3 235.829Z" fill="#7366FF"/>
    <path d="M127.454 75.1861L50.5343 119.579L3.00024 92.1374L127.425 20.3L251.867 92.1374L225.612 113.056L204.362 119.587L127.454 75.1861Z" fill="#7366FF"/>
    <path d="M299.401 263.254L251.867 290.715L204.362 263.254V208.387L299.401 263.254Z" fill="#5219FF"/>
    <path d="M127.454 109.242L127.425 164.114L174.973 191.547L174.965 136.667L127.454 109.242Z" fill="#A299FF"/>
    <path d="M127.425 164.114L79.9082 191.547L127.434 218.994L174.973 191.547L127.425 164.114Z" fill="#5219FF"/>
    <path d="M127.454 109.242L79.9139 136.689L79.9082 191.547L127.425 164.114L127.454 109.242Z" fill="#7366FF"/>
    <path d="M251.867 92.1372V180.968L204.362 208.387V119.587L251.867 92.1372Z" fill="url(#paint0_linear)"/>
    <path d="M251.881 180.94L127.442 252.786V307.672L251.867 235.821L251.881 180.94Z" fill="url(#paint1_linear)"/>
    <path d="M547.334 226.706C539.205 218.666 533.659 208.385 531.404 197.176C529.148 185.968 530.287 174.342 534.675 163.784C539.062 153.226 546.499 144.217 556.034 137.908C565.568 131.599 576.768 128.277 588.201 128.367C595.781 128.286 603.301 129.716 610.323 132.573C617.345 135.43 623.727 139.657 629.098 145.007C634.468 150.357 638.719 156.724 641.603 163.735C644.486 170.745 645.945 178.26 645.892 185.841C645.799 197.218 642.359 208.315 636.002 217.75C629.644 227.185 620.649 234.54 610.14 238.897C599.63 243.255 588.071 244.422 576.902 242.254C565.734 240.086 555.45 234.679 547.334 226.706V226.706ZM588.201 220.37C592.701 220.474 597.175 219.655 601.347 217.964C605.519 216.272 609.3 213.744 612.457 210.536C618.772 203.864 622.291 195.027 622.291 185.841C622.291 176.655 618.772 167.818 612.457 161.146C605.957 154.839 597.257 151.312 588.2 151.312C579.143 151.312 570.442 154.839 563.942 161.146C557.627 167.818 554.108 176.655 554.108 185.841C554.108 195.027 557.627 203.864 563.942 210.536C567.1 213.745 570.881 216.272 575.053 217.964C579.226 219.655 583.7 220.474 588.201 220.37Z" fill="#131326"/>
    <path d="M733.063 131.207H758.85L716.236 240.474H688.919L646.306 131.207H672.094L702.688 214.249L733.063 131.207Z" fill="#131326"/>
    <path d="M784.069 195.894C787.565 212.502 800.896 221.681 819.034 221.681C831.49 221.681 840.888 217.091 847.223 208.131L866.674 219.495C855.965 235.448 840.013 243.316 818.815 243.316C801.113 243.316 786.69 237.853 775.765 227.144C770.359 221.742 766.115 215.291 763.297 208.188C760.478 201.085 759.143 193.48 759.374 185.841C759.176 178.291 760.506 170.779 763.285 163.756C766.064 156.733 770.235 150.345 775.545 144.975C786.254 133.829 800.24 128.367 817.067 128.367C824.449 128.17 831.787 129.571 838.576 132.476C845.365 135.38 851.446 139.719 856.402 145.194C866.667 156.295 872.229 170.944 871.918 186.06C871.88 189.356 871.587 192.644 871.043 195.894L784.069 195.894ZM848.098 176.662C844.821 158.961 832.364 149.782 816.848 149.782C799.366 149.782 787.127 160.054 783.85 176.662H848.098Z" fill="#131326"/>
    <path d="M911.048 149.565C916.947 136.015 928.311 131.207 944.7 131.207V154.456C936.285 154.081 927.984 156.511 921.099 161.365C914.325 166.173 911.048 174.257 911.048 185.404V240.474H887.445V131.207H911.048V149.565Z" fill="#131326"/>
    <path d="M1035.87 131.208H1061L1019.04 243.971C1008.55 272.16 990.85 285.71 965.719 284.18V262.109C980.58 262.984 988.884 255.771 994.785 240.691L995.877 238.508L949.547 131.207H975.336L1007.9 210.536L1035.87 131.208Z" fill="#131326"/>
    <path d="M522.747 221.673L501.413 209.356C510.804 196.11 515.747 180.224 515.529 163.987C515.509 148.299 510.843 132.968 502.121 119.928C493.398 106.887 481.009 96.7226 466.516 90.715C452.024 84.7075 436.076 83.1264 420.686 86.1711C405.296 89.2159 391.152 96.7501 380.039 107.823C372.516 115.084 366.575 123.82 362.589 133.485C358.602 143.15 356.657 153.535 356.874 163.987C356.794 174.427 358.79 184.779 362.748 194.44C366.707 204.101 372.547 212.878 379.929 220.261C387.312 227.643 396.089 233.483 405.75 237.441C415.411 241.4 425.763 243.396 436.203 243.316C450.576 243.319 464.687 239.471 477.068 232.17C479.742 230.636 482.289 228.889 484.683 226.945L522.747 248.909L522.747 221.673ZM436.203 218.84C429.058 218.976 421.96 217.651 415.346 214.945C408.732 212.239 402.741 208.21 397.741 203.104C387.644 192.585 382.005 178.568 382.005 163.987C382.005 149.406 387.644 135.39 397.741 124.87C408.003 114.787 421.815 109.137 436.203 109.137C450.59 109.137 464.402 114.787 474.665 124.87C479.813 129.975 483.865 136.077 486.57 142.804C489.276 149.531 490.578 156.739 490.398 163.987C490.543 175.814 486.851 187.369 479.875 196.921L436.203 171.705V198.965L460.624 213.062C459.707 213.547 459.148 213.813 459.148 213.813C451.952 217.124 444.124 218.839 436.203 218.84Z" fill="#131326"/>
    <defs>
        <linearGradient id="paint0_linear" x1="228.115" y1="92.1369" x2="228.115" y2="208.388" gradientUnits="userSpaceOnUse">
            <stop offset="0.25" stop-color="#7366FF"/>
            <stop offset="1" stop-color="#5219FF"/>
        </linearGradient>
        <linearGradient id="paint1_linear" x1="127.441" y1="244.307" x2="251.88" y2="244.307" gradientUnits="userSpaceOnUse">
            <stop stop-color="#7366FF"/>
            <stop offset="1" stop-color="#A299FF"/>
        </linearGradient>
    </defs>
</svg>
