<svg width="196" height="190" viewBox="0 0 196 190" fill="none" xmlns="http://www.w3.org/2000/svg">
  <path d="M164.196 105.807L157.861 145.58L195.548 160.007L195.543 123.867L164.196 105.807Z" fill="#A299FF"/>
  <path d="M0 141.934V47.3076L31.3617 57.2336V123.861L82.1036 153.101L85.8947 167.526L82.1036 189.245L0 141.934Z" fill="#7366FF"/>
  <path d="M82.1114 36.1444L31.362 65.3788L0.000244141 47.3075L82.0927 0L164.196 47.3075L146.874 61.0829L132.853 65.3844L82.1114 36.1444Z" fill="#7366FF"/>
  <path d="M195.558 159.994L164.197 178.078L132.854 159.994V123.862L195.558 159.994Z" fill="#5219FF"/>
  <path d="M82.1115 58.5713L82.0928 94.7064L113.464 112.772L113.458 76.6314L82.1115 58.5713Z" fill="#A299FF"/>
  <path d="M82.0925 94.707L50.7419 112.773L82.0981 130.848L113.464 112.773L82.0925 94.707Z" fill="#5219FF"/>
  <path d="M82.1112 58.5713L50.7457 76.6463L50.7419 112.772L82.0924 94.7064L82.1112 58.5713Z" fill="#7366FF"/>
  <path d="M164.197 47.3076V105.806L132.854 123.863V65.3845L164.197 47.3076Z" fill="url(#paint0_linear)"/>
  <path d="M164.205 105.787L82.1035 153.1V189.245L164.196 141.928L164.205 105.787Z" fill="url(#paint1_linear)"/>
  <defs>
    <linearGradient id="paint0_linear" x1="148.525" y1="47.3074" x2="148.525" y2="123.863" gradientUnits="userSpaceOnUse">
      <stop offset="0.25" stop-color="#7366FF"/>
      <stop offset="1" stop-color="#5219FF"/>
    </linearGradient>
    <linearGradient id="paint1_linear" x1="82.1026" y1="147.517" x2="164.205" y2="147.517" gradientUnits="userSpaceOnUse">
      <stop stop-color="#7366FF"/>
      <stop offset="1" stop-color="#A299FF"/>
    </linearGradient>
  </defs>
</svg>
