<svg width="702" height="216" viewBox="0 0 702 216" fill="none" xmlns="http://www.w3.org/2000/svg">
    <path d="M165.867 119.175L159.532 158.948L197.22 173.376L197.214 137.235L165.867 119.175Z" fill="#A299FF"/>
    <path d="M1.67133 155.302V60.6758L33.0331 70.6018V137.229L83.775 166.469L87.566 180.894L83.775 202.613L1.67133 155.302Z" fill="#7366FF"/>
    <path d="M83.7827 49.5126L33.0333 78.7469L1.67157 60.6757L83.764 13.3682L165.868 60.6757L148.545 74.451L134.525 78.7525L83.7827 49.5126Z" fill="#7366FF"/>
    <path d="M197.23 173.362L165.868 191.446L134.525 173.362V137.23L197.23 173.362Z" fill="#5219FF"/>
    <path d="M83.7828 71.9395L83.764 108.075L115.135 126.14L115.13 89.9995L83.7828 71.9395Z" fill="#A299FF"/>
    <path d="M83.7638 108.075L52.4133 126.141L83.7695 144.216L115.135 126.141L83.7638 108.075Z" fill="#5219FF"/>
    <path d="M83.7826 71.9395L52.4171 90.0145L52.4133 126.14L83.7638 108.075L83.7826 71.9395Z" fill="#7366FF"/>
    <path d="M165.868 60.6758V119.174L134.525 137.231V78.7527L165.868 60.6758Z" fill="url(#paint0_linear)"/>
    <path d="M165.877 119.155L83.7748 166.468V202.613L165.867 155.296L165.877 119.155Z" fill="url(#paint1_linear)"/>
    <path d="M360.809 149.293C355.446 143.999 351.787 137.228 350.299 129.847C348.811 122.466 349.562 114.81 352.457 107.857C355.352 100.904 360.258 94.9715 366.549 90.8167C372.84 86.662 380.229 84.4743 387.772 84.5334C392.773 84.4802 397.735 85.4218 402.368 87.3033C407.001 89.1847 411.212 91.9684 414.755 95.4917C418.298 99.0151 421.103 103.208 423.005 107.824C424.908 112.441 425.87 117.39 425.836 122.382C425.774 129.874 423.505 137.183 419.31 143.396C415.115 149.609 409.181 154.452 402.247 157.322C395.313 160.191 387.686 160.96 380.318 159.533C372.949 158.105 366.164 154.544 360.809 149.293V149.293ZM387.772 145.121C390.741 145.189 393.693 144.65 396.446 143.536C399.198 142.423 401.693 140.758 403.776 138.645C407.942 134.251 410.264 128.432 410.264 122.382C410.264 116.333 407.942 110.513 403.776 106.12C399.487 101.967 393.747 99.6438 387.771 99.6438C381.796 99.6438 376.055 101.967 371.767 106.12C367.601 110.513 365.279 116.333 365.279 122.382C365.279 128.432 367.601 134.251 371.767 138.645C373.85 140.758 376.345 142.423 379.098 143.536C381.851 144.65 384.803 145.19 387.772 145.121Z" fill="white"/>
    <path d="M483.349 86.4043H500.362L472.247 158.361H454.224L426.108 86.4043H443.123L463.308 141.09L483.349 86.4043Z" fill="white"/>
    <path d="M517.001 129.003C519.307 139.94 528.103 145.984 540.07 145.984C548.288 145.984 554.488 142.961 558.668 137.061L571.502 144.545C564.436 155.05 553.911 160.232 539.925 160.232C528.246 160.232 518.73 156.634 511.522 149.582C507.955 146.025 505.156 141.777 503.296 137.099C501.436 132.421 500.555 127.413 500.708 122.383C500.577 117.41 501.455 112.463 503.288 107.839C505.122 103.214 507.873 99.0068 511.377 95.4704C518.443 88.131 527.67 84.5335 538.772 84.5335C543.643 84.4038 548.484 85.3269 552.963 87.2396C557.443 89.1523 561.455 92.0094 564.724 95.6148C571.497 102.925 575.167 112.572 574.961 122.527C574.936 124.697 574.743 126.862 574.384 129.003L517.001 129.003ZM559.245 116.338C557.083 104.681 548.865 98.6363 538.628 98.6363C527.093 98.6363 519.018 105.401 516.856 116.338H559.245Z" fill="white"/>
    <path d="M600.778 98.4932C604.67 89.5702 612.168 86.4043 622.981 86.4043V101.715C617.429 101.468 611.952 103.068 607.41 106.264C602.941 109.43 600.778 114.754 600.778 122.095V158.361H585.206V86.4043H600.778V98.4932Z" fill="white"/>
    <path d="M683.132 86.4045H699.713L672.03 160.663C665.109 179.227 653.43 188.15 636.849 187.142V172.608C646.654 173.184 652.133 168.434 656.026 158.504L656.746 157.066L626.179 86.4043H643.194L664.677 138.645L683.132 86.4045Z" fill="white"/>
    <path d="M344.587 145.979L330.512 137.868C336.708 129.145 339.969 118.683 339.825 107.991C339.812 97.6599 336.733 87.5637 330.979 78.9764C325.224 70.389 317.05 63.695 307.488 59.7388C297.926 55.7826 287.404 54.7414 277.25 56.7465C267.096 58.7516 257.764 63.7131 250.432 71.0054C245.469 75.7864 241.549 81.5399 238.919 87.9046C236.289 94.2693 235.005 101.108 235.149 107.991C235.095 114.866 236.413 121.684 239.024 128.046C241.636 134.408 245.489 140.188 250.36 145.049C255.23 149.911 261.021 153.757 267.396 156.364C273.77 158.97 280.599 160.285 287.488 160.232C296.97 160.234 306.281 157.7 314.449 152.892C316.214 151.882 317.894 150.732 319.473 149.452L344.587 163.916L344.587 145.979ZM287.487 144.114C282.773 144.204 278.091 143.331 273.727 141.549C269.363 139.767 265.41 137.113 262.111 133.751C255.449 126.824 251.73 117.594 251.73 107.991C251.73 98.389 255.449 89.1586 262.111 82.2311C268.882 75.5909 277.995 71.8702 287.488 71.8702C296.98 71.8702 306.093 75.5909 312.864 82.2311C316.261 85.5927 318.934 89.6116 320.719 94.0413C322.504 98.4711 323.363 103.218 323.244 107.991C323.34 115.78 320.904 123.389 316.302 129.679L287.488 113.074V131.025L303.6 140.309C302.995 140.628 302.626 140.803 302.626 140.803C297.878 142.984 292.714 144.113 287.487 144.114Z" fill="white"/>
    <defs>
        <linearGradient id="paint0_linear" x1="150.197" y1="60.6756" x2="150.197" y2="137.231" gradientUnits="userSpaceOnUse">
            <stop offset="0.25" stop-color="#7366FF"/>
            <stop offset="1" stop-color="#5219FF"/>
        </linearGradient>
        <linearGradient id="paint1_linear" x1="83.7739" y1="160.885" x2="165.876" y2="160.885" gradientUnits="userSpaceOnUse">
            <stop stop-color="#7366FF"/>
            <stop offset="1" stop-color="#A299FF"/>
        </linearGradient>
    </defs>
</svg>
