<svg width="696" height="216" viewBox="0 0 696 216" fill="none" xmlns="http://www.w3.org/2000/svg">
<path d="M346.014 145.814L336.557 157.231L326.958 149.239C318.677 155.328 308.984 158.373 297.88 158.373C283.577 158.373 271.861 153.615 262.733 144.101C253.699 134.587 249.182 122.029 249.182 106.426C249.182 90.8224 253.699 78.2638 262.733 68.7497C271.861 59.2356 283.577 54.4785 297.88 54.4785C312.184 54.4785 323.853 59.2356 332.887 68.7497C342.014 78.2638 346.578 90.8224 346.578 106.426C346.578 118.604 343.473 129.354 337.262 138.678L346.014 145.814ZM297.88 70.3195C288.094 70.3195 280.565 73.6494 275.296 80.3093C270.026 86.9692 267.391 95.6746 267.391 106.426C267.391 117.176 270.026 125.882 275.296 132.542C280.565 139.202 288.094 142.532 297.88 142.532C304.467 142.532 309.925 141.152 314.254 138.393L301.55 127.69L310.866 116.273L324.135 127.69C327.24 121.981 328.793 114.893 328.793 106.426C328.793 95.6746 326.111 86.9692 320.747 80.3093C315.383 73.6494 307.761 70.3195 297.88 70.3195Z" fill="#454658"/>
<path d="M416.138 147.241C409.833 154.281 401.269 157.802 390.448 157.802C379.626 157.802 371.015 154.281 364.616 147.241C358.312 140.201 355.159 131.448 355.159 120.982C355.159 110.612 358.312 101.906 364.616 94.8659C371.015 87.7303 379.626 84.1625 390.448 84.1625C401.269 84.1625 409.833 87.7303 416.138 94.8659C422.537 101.906 425.736 110.612 425.736 120.982C425.736 131.448 422.537 140.201 416.138 147.241ZM404.281 104.142C400.987 99.9559 396.376 97.8628 390.448 97.8628C384.519 97.8628 379.861 99.9559 376.473 104.142C373.18 108.328 371.533 113.942 371.533 120.982C371.533 128.118 373.18 133.779 376.473 137.965C379.861 142.151 384.519 144.244 390.448 144.244C396.376 144.244 400.987 142.151 404.281 137.965C407.668 133.779 409.362 128.118 409.362 120.982C409.362 113.942 407.668 108.328 404.281 104.142Z" fill="#454658"/>
<path d="M497.842 85.4469L471.022 156.375H456.201L429.382 85.4469H445.615L463.541 136.823L481.468 85.4469H497.842Z" fill="#454658"/>
<path d="M565.071 123.551H518.066C519.007 130.686 521.548 135.919 525.689 139.249C529.923 142.579 534.911 144.244 540.651 144.244C547.803 144.244 554.861 142.484 561.824 138.964L562.953 152.379C555.802 155.994 547.991 157.802 539.522 157.802C527.477 157.802 518.113 154.281 511.432 147.241C504.845 140.201 501.551 131.4 501.551 120.839C501.551 110.564 504.563 101.906 510.585 94.8659C516.702 87.7303 524.983 84.1625 535.428 84.1625C544.368 84.1625 551.708 86.9692 557.448 92.5825C563.189 98.1007 566.059 105.474 566.059 114.703C566.059 116.986 565.729 119.936 565.071 123.551ZM535.711 97.8628C526.489 97.8628 520.842 102.763 518.772 112.562H549.685C549.685 108.471 548.509 104.998 546.156 102.144C543.898 99.2899 540.416 97.8628 535.711 97.8628Z" fill="#454658"/>
<path d="M617.534 83.8771L614.428 99.7181H608.5C605.677 99.7181 602.948 100.479 600.313 102.001C597.772 103.524 595.937 105.331 594.808 107.424V156.375H578.434V85.4469H592.973L593.82 94.295C600.031 87.3497 606.759 83.8771 614.005 83.8771H617.534Z" fill="#454658"/>
<path d="M696 85.4469L652.383 190.911H635.868L651.678 152.093L622.459 85.4469H640.244L659.441 133.255L678.215 85.4469H696Z" fill="#454658"/>
<path d="M133.802 82.9511V181.363L181.442 153.564V53.3682L133.802 82.9511Z" fill="#33369F"/>
<path d="M93.0735 0L0 51.4356L51.0213 82.9511L92.9264 59.1658L133.802 82.9511L181.442 53.3682L93.0735 0Z" fill="#B7B9E7"/>
<path d="M0 51.4355L51.1684 82.951L50.7273 131.562L107.777 162.78L108.365 216L0 153.861V51.4355Z" fill="#7173CD"/>
<path d="M92.9265 59.1655L133.802 82.9508C133.802 82.9508 133.914 132.221 133.914 131.477C136.883 132.92 93.5146 109.709 93.5146 109.709L92.9265 59.1655Z" fill="#7173CD"/>
<path d="M50.7272 131.562L93.5146 109.709L92.9264 59.1655L51.1683 82.9508L50.7272 131.562Z" fill="#33369F"/>
<path d="M107.777 162.78L50.7272 131.562L93.5146 109.709L148.212 139.143L107.777 162.78Z" fill="#B7B9E7"/>
<path d="M108.365 216L147.477 189.39L148.212 139.144L107.777 162.781L108.365 216Z" fill="#33369F"/>
<path d="M5.01263 54.5575C20.3043 64.0716 35.8764 73.4454 51.1681 82.9595C65.1365 75.0806 78.9627 67.0459 92.931 59.1671C106.605 67.0459 120.141 75.0723 133.816 82.9511C147.784 74.0317 161.911 65.7196 175.81 56.8617L92.9398 6.54102C63.6798 22.596 34.4197 38.5024 5.01263 54.5575Z" fill="#B7B9E7"/>
</svg>
