<svg width="512" height="512" viewBox="0 0 512 512" fill="none" xmlns="http://www.w3.org/2000/svg">
<path d="M349.764 201.343V414.112L454 354.01V137.384L349.764 201.343Z" fill="#33369F"/>
<path d="M260.647 22L57 133.206L168.636 201.343L260.326 149.919L349.763 201.343L454 137.384L260.647 22Z" fill="#B7B9E7"/>
<path d="M57 133.206L168.958 201.344L167.993 306.443L292.819 373.937L294.106 489L57 354.653V133.206Z" fill="#7173CD"/>
<path d="M260.326 149.918L349.763 201.343C349.763 201.343 350.007 307.866 350.007 306.259C356.504 309.378 261.613 259.195 261.613 259.195L260.326 149.918Z" fill="#7173CD"/>
<path d="M167.993 306.442L261.613 259.195L260.326 149.918L168.958 201.343L167.993 306.442Z" fill="#33369F"/>
<path d="M292.819 373.937L167.993 306.442L261.613 259.195L381.292 322.833L292.819 373.937Z" fill="#B7B9E7"/>
<path d="M294.106 489L379.683 431.468L381.292 322.834L292.819 373.937L294.106 489Z" fill="#33369F"/>
<path d="M67.9678 139.955C101.426 160.525 135.499 180.791 168.957 201.361C199.52 184.327 229.773 166.955 260.336 149.921C290.256 166.955 319.873 184.309 349.793 201.343C380.356 182.059 411.266 164.088 441.678 144.937L260.355 36.1416C196.333 70.8532 132.311 105.243 67.9678 139.955Z" fill="#B7B9E7"/>
</svg>
